<?xml version="1.0" encoding="UTF-8" standalone="no"?><svg xmlns="http://www.w3.org/2000/svg" xmlns:xlink="http://www.w3.org/1999/xlink" contentScriptType="application/ecmascript" contentStyleType="text/css" height="696px" preserveAspectRatio="none" style="width:3163px;height:696px;" version="1.1" viewBox="0 0 3163 696" width="3163px" zoomAndPan="magnify"><defs/><g><text fill="#000000" font-family="sans-serif" font-size="18" lengthAdjust="spacingAndGlyphs" textLength="756" x="1215" y="16.708">epicd — Multi-lane issue-list (presentation class diagram; green=reuse, orange=new)</text><!--MD5=[cdf03e3fd74b88522fcae23ecdfda011]
cluster Lane engine  (src/web/lib/lanes.ts — REUSE, extend)--><rect fill="#FFFFFF" height="299" style="stroke: #000000; stroke-width: 1.5;" width="477" x="660" y="219.9531"/><text fill="#000000" font-family="sans-serif" font-size="14" font-weight="bold" lengthAdjust="spacingAndGlyphs" textLength="411" x="693" y="234.9482">Lane engine  (src/web/lib/lanes.ts — REUSE, extend)</text><!--MD5=[e377c931351b9a1bdbc840edd2a2a630]
cluster Issue-list view  (extends TaskList.tsx base)--><rect fill="#FFFFFF" height="640.5" style="stroke: #000000; stroke-width: 1.5;" width="601" x="1161" y="45.4531"/><text fill="#000000" font-family="sans-serif" font-size="14" font-weight="bold" lengthAdjust="spacingAndGlyphs" textLength="341" x="1291" y="60.4482">Issue-list view  (extends TaskList.tsx base)</text><!--MD5=[0f44c8118d2d0f420edaf9ec37816469]
cluster Projections  (view-only, one-way — R3/R4)--><rect fill="#FFFFFF" height="118" style="stroke: #000000; stroke-width: 1.5;" width="727" x="1786" y="381.9531"/><text fill="#000000" font-family="sans-serif" font-size="14" font-weight="bold" lengthAdjust="spacingAndGlyphs" textLength="334" x="1982.5" y="396.9482">Projections  (view-only, one-way — R3/R4)</text><!--MD5=[dde45f90de504bf87feee72bac48719b]
cluster Data layer  (apiClient + WS)--><rect fill="#FFFFFF" height="292.5" style="stroke: #000000; stroke-width: 1.5;" width="615" x="2537" y="219.9531"/><text fill="#000000" font-family="sans-serif" font-size="14" font-weight="bold" lengthAdjust="spacingAndGlyphs" textLength="216" x="2736.5" y="234.9482">Data layer  (apiClient + WS)</text><!--MD5=[98d80c83fa019ebba580c63477dbd6c7]
cluster Backend (needed)--><rect fill="#FFFFFF" height="118" style="stroke: #000000; stroke-width: 1.5;" width="1143" x="1884" y="567.9531"/><text fill="#000000" font-family="sans-serif" font-size="14" font-weight="bold" lengthAdjust="spacingAndGlyphs" textLength="144" x="2383.5" y="582.9482">Backend (needed)</text><!--MD5=[fb5d6ca49fa693970f2b8add0863facc]
class LaneMode--><rect fill="#FFE0B2" height="53.9375" id="LaneMode" style="stroke: #555555; stroke-width: 1.5;" width="96" x="676" y="423.4531"/><ellipse cx="691" cy="442.4219" fill="#ADD1B2" rx="11" ry="11" style="stroke: #555555; stroke-width: 1.0;"/><path d="M693.9688,448.0625 Q693.3906,448.3594 692.75,448.5 Q692.1094,448.6563 691.4063,448.6563 Q688.9063,448.6563 687.5781,447.0156 Q686.2656,445.3594 686.2656,442.2344 Q686.2656,439.1094 687.5781,437.4531 Q688.9063,435.7969 691.4063,435.7969 Q692.1094,435.7969 692.75,435.9531 Q693.4063,436.1094 693.9688,436.4063 L693.9688,439.125 Q693.3438,438.5469 692.75,438.2813 Q692.1563,438 691.5313,438 Q690.1875,438 689.5,439.0781 Q688.8125,440.1406 688.8125,442.2344 Q688.8125,444.3281 689.5,445.4063 Q690.1875,446.4688 691.5313,446.4688 Q692.1563,446.4688 692.75,446.2031 Q693.3438,445.9219 693.9688,445.3438 L693.9688,448.0625 Z "/><text fill="#000000" font-family="sans-serif" font-size="12" font-style="italic" lengthAdjust="spacingAndGlyphs" textLength="40" x="717" y="439.5918">«new»</text><text fill="#000000" font-family="sans-serif" font-size="12" lengthAdjust="spacingAndGlyphs" textLength="64" x="705" y="453.5605">LaneMode</text><line style="stroke: #555555; stroke-width: 1.5;" x1="677" x2="771" y1="461.3906" y2="461.3906"/><line style="stroke: #555555; stroke-width: 1.5;" x1="677" x2="771" y1="469.3906" y2="469.3906"/><!--MD5=[d9b568d9f2b9818f14ae1db263ade736]
class LaneDefinition--><rect fill="#C8E6C9" height="105.1563" id="LaneDefinition" style="stroke: #555555; stroke-width: 1.5;" width="314" x="807" y="397.9531"/><ellipse cx="915.25" cy="416.9219" fill="#ADD1B2" rx="11" ry="11" style="stroke: #555555; stroke-width: 1.0;"/><path d="M918.2188,422.5625 Q917.6406,422.8594 917,423 Q916.3594,423.1563 915.6563,423.1563 Q913.1563,423.1563 911.8281,421.5156 Q910.5156,419.8594 910.5156,416.7344 Q910.5156,413.6094 911.8281,411.9531 Q913.1563,410.2969 915.6563,410.2969 Q916.3594,410.2969 917,410.4531 Q917.6563,410.6094 918.2188,410.9063 L918.2188,413.625 Q917.5938,413.0469 917,412.7813 Q916.4063,412.5 915.7813,412.5 Q914.4375,412.5 913.75,413.5781 Q913.0625,414.6406 913.0625,416.7344 Q913.0625,418.8281 913.75,419.9063 Q914.4375,420.9688 915.7813,420.9688 Q916.4063,420.9688 917,420.7031 Q917.5938,420.4219 918.2188,419.8438 L918.2188,422.5625 Z "/><text fill="#000000" font-family="sans-serif" font-size="12" font-style="italic" lengthAdjust="spacingAndGlyphs" textLength="49" x="955.75" y="414.0918">«reuse»</text><text fill="#000000" font-family="sans-serif" font-size="12" lengthAdjust="spacingAndGlyphs" textLength="89" x="935.75" y="428.0605">LaneDefinition</text><line style="stroke: #555555; stroke-width: 1.5;" x1="808" x2="1120" y1="435.8906" y2="435.8906"/><ellipse cx="818" cy="446.8906" fill="none" rx="3" ry="3" style="stroke: #038048; stroke-width: 1.0;"/><text fill="#000000" font-family="sans-serif" font-size="11" lengthAdjust="spacingAndGlyphs" textLength="64" x="827" y="450.1011">key : string</text><ellipse cx="818" cy="459.6953" fill="none" rx="3" ry="3" style="stroke: #038048; stroke-width: 1.0;"/><text fill="#000000" font-family="sans-serif" font-size="11" lengthAdjust="spacingAndGlyphs" textLength="72" x="827" y="462.9058">label : string</text><ellipse cx="818" cy="472.5" fill="none" rx="3" ry="3" style="stroke: #038048; stroke-width: 1.0;"/><text fill="#000000" font-family="sans-serif" font-size="11" lengthAdjust="spacingAndGlyphs" textLength="107" x="827" y="475.7104">milestone? : string</text><ellipse cx="818" cy="485.3047" fill="none" rx="3" ry="3" style="stroke: #038048; stroke-width: 1.0;"/><text fill="#000000" font-family="sans-serif" font-size="11" lengthAdjust="spacingAndGlyphs" textLength="288" x="827" y="488.5151">pipeline_id? : string   '' NEW field for pipeline lanes</text><line style="stroke: #555555; stroke-width: 1.5;" x1="808" x2="1120" y1="495.1094" y2="495.1094"/><!--MD5=[a234284129f1e671f53339316c92558f]
class LaneFns--><rect fill="#FFE0B2" height="79.5469" id="LaneFns" style="stroke: #555555; stroke-width: 1.5;" width="442" x="679" y="254.9531"/><ellipse cx="869.75" cy="273.9219" fill="#ADD1B2" rx="11" ry="11" style="stroke: #555555; stroke-width: 1.0;"/><path d="M872.7188,279.5625 Q872.1406,279.8594 871.5,280 Q870.8594,280.1563 870.1563,280.1563 Q867.6563,280.1563 866.3281,278.5156 Q865.0156,276.8594 865.0156,273.7344 Q865.0156,270.6094 866.3281,268.9531 Q867.6563,267.2969 870.1563,267.2969 Q870.8594,267.2969 871.5,267.4531 Q872.1563,267.6094 872.7188,267.9063 L872.7188,270.625 Q872.0938,270.0469 871.5,269.7813 Q870.9063,269.5 870.2813,269.5 Q868.9375,269.5 868.25,270.5781 Q867.5625,271.6406 867.5625,273.7344 Q867.5625,275.8281 868.25,276.9063 Q868.9375,277.9688 870.2813,277.9688 Q870.9063,277.9688 871.5,277.7031 Q872.0938,277.4219 872.7188,276.8438 L872.7188,279.5625 Z "/><text fill="#000000" font-family="sans-serif" font-size="12" font-style="italic" lengthAdjust="spacingAndGlyphs" textLength="40" x="896.25" y="271.0918">«new»</text><text fill="#000000" font-family="sans-serif" font-size="12" lengthAdjust="spacingAndGlyphs" textLength="52" x="890.25" y="285.0605">LaneFns</text><line style="stroke: #555555; stroke-width: 1.5;" x1="680" x2="1120" y1="292.8906" y2="292.8906"/><line style="stroke: #555555; stroke-width: 1.5;" x1="680" x2="1120" y1="300.8906" y2="300.8906"/><ellipse cx="690" cy="311.8906" fill="#84BE84" rx="3" ry="3" style="stroke: #038048; stroke-width: 1.0;"/><text fill="#000000" font-family="sans-serif" font-size="11" lengthAdjust="spacingAndGlyphs" textLength="398" x="699" y="315.1011">buildLanes(mode, tasks, ...) : LaneDefinition[]    '' add pipeline branch</text><ellipse cx="690" cy="324.6953" fill="#84BE84" rx="3" ry="3" style="stroke: #038048; stroke-width: 1.0;"/><text fill="#000000" font-family="sans-serif" font-size="11" lengthAdjust="spacingAndGlyphs" textLength="416" x="699" y="327.9058">groupTasksByLaneAndStatus(...) : Map&lt;laneKey, Map&lt;column, Task[]&gt;&gt;</text><!--MD5=[8fe697f1d73d22fdcb1bc1a44e1fa53d]
class IssueListView--><rect fill="#FFE0B2" height="66.7422" id="IssueListView" style="stroke: #555555; stroke-width: 1.5;" width="114" x="1620" y="80.4531"/><ellipse cx="1635" cy="99.4219" fill="#ADD1B2" rx="11" ry="11" style="stroke: #555555; stroke-width: 1.0;"/><path d="M1637.9688,105.0625 Q1637.3906,105.3594 1636.75,105.5 Q1636.1094,105.6563 1635.4063,105.6563 Q1632.9063,105.6563 1631.5781,104.0156 Q1630.2656,102.3594 1630.2656,99.2344 Q1630.2656,96.1094 1631.5781,94.4531 Q1632.9063,92.7969 1635.4063,92.7969 Q1636.1094,92.7969 1636.75,92.9531 Q1637.4063,93.1094 1637.9688,93.4063 L1637.9688,96.125 Q1637.3438,95.5469 1636.75,95.2813 Q1636.1563,95 1635.5313,95 Q1634.1875,95 1633.5,96.0781 Q1632.8125,97.1406 1632.8125,99.2344 Q1632.8125,101.3281 1633.5,102.4063 Q1634.1875,103.4688 1635.5313,103.4688 Q1636.1563,103.4688 1636.75,103.2031 Q1637.3438,102.9219 1637.9688,102.3438 L1637.9688,105.0625 Z "/><text fill="#000000" font-family="sans-serif" font-size="12" font-style="italic" lengthAdjust="spacingAndGlyphs" textLength="40" x="1670" y="96.5918">«new»</text><text fill="#000000" font-family="sans-serif" font-size="12" lengthAdjust="spacingAndGlyphs" textLength="82" x="1649" y="110.5605">IssueListView</text><line style="stroke: #555555; stroke-width: 1.5;" x1="1621" x2="1733" y1="118.3906" y2="118.3906"/><line style="stroke: #555555; stroke-width: 1.5;" x1="1621" x2="1733" y1="126.3906" y2="126.3906"/><ellipse cx="1631" cy="137.3906" fill="#84BE84" rx="3" ry="3" style="stroke: #038048; stroke-width: 1.0;"/><text fill="#000000" font-family="sans-serif" font-size="11" lengthAdjust="spacingAndGlyphs" textLength="46" x="1640" y="140.6011">render()</text><!--MD5=[9a3a777bb929b1442b0944fb0c828de6]
class LaneSwitcher--><rect fill="#FFE0B2" height="53.9375" id="LaneSwitcher" style="stroke: #555555; stroke-width: 1.5;" width="115" x="1458.5" y="267.9531"/><ellipse cx="1473.5" cy="286.9219" fill="#ADD1B2" rx="11" ry="11" style="stroke: #555555; stroke-width: 1.0;"/><path d="M1476.4688,292.5625 Q1475.8906,292.8594 1475.25,293 Q1474.6094,293.1563 1473.9063,293.1563 Q1471.4063,293.1563 1470.0781,291.5156 Q1468.7656,289.8594 1468.7656,286.7344 Q1468.7656,283.6094 1470.0781,281.9531 Q1471.4063,280.2969 1473.9063,280.2969 Q1474.6094,280.2969 1475.25,280.4531 Q1475.9063,280.6094 1476.4688,280.9063 L1476.4688,283.625 Q1475.8438,283.0469 1475.25,282.7813 Q1474.6563,282.5 1474.0313,282.5 Q1472.6875,282.5 1472,283.5781 Q1471.3125,284.6406 1471.3125,286.7344 Q1471.3125,288.8281 1472,289.9063 Q1472.6875,290.9688 1474.0313,290.9688 Q1474.6563,290.9688 1475.25,290.7031 Q1475.8438,290.4219 1476.4688,289.8438 L1476.4688,292.5625 Z "/><text fill="#000000" font-family="sans-serif" font-size="12" font-style="italic" lengthAdjust="spacingAndGlyphs" textLength="40" x="1509" y="284.0918">«new»</text><text fill="#000000" font-family="sans-serif" font-size="12" lengthAdjust="spacingAndGlyphs" textLength="83" x="1487.5" y="298.0605">LaneSwitcher</text><line style="stroke: #555555; stroke-width: 1.5;" x1="1459.5" x2="1572.5" y1="305.8906" y2="305.8906"/><line style="stroke: #555555; stroke-width: 1.5;" x1="1459.5" x2="1572.5" y1="313.8906" y2="313.8906"/><!--MD5=[c764cc90632447ccad0594d2a68a227d]
class Swimlane--><rect fill="#C8E6C9" height="66.7422" id="Swimlane" style="stroke: #555555; stroke-width: 1.5;" width="137" x="1608.5" y="261.4531"/><ellipse cx="1644.65" cy="280.4219" fill="#ADD1B2" rx="11" ry="11" style="stroke: #555555; stroke-width: 1.0;"/><path d="M1647.6188,286.0625 Q1647.0406,286.3594 1646.4,286.5 Q1645.7594,286.6563 1645.0563,286.6563 Q1642.5563,286.6563 1641.2281,285.0156 Q1639.9156,283.3594 1639.9156,280.2344 Q1639.9156,277.1094 1641.2281,275.4531 Q1642.5563,273.7969 1645.0563,273.7969 Q1645.7594,273.7969 1646.4,273.9531 Q1647.0563,274.1094 1647.6188,274.4063 L1647.6188,277.125 Q1646.9938,276.5469 1646.4,276.2813 Q1645.8063,276 1645.1813,276 Q1643.8375,276 1643.15,277.0781 Q1642.4625,278.1406 1642.4625,280.2344 Q1642.4625,282.3281 1643.15,283.4063 Q1643.8375,284.4688 1645.1813,284.4688 Q1645.8063,284.4688 1646.4,284.2031 Q1646.9938,283.9219 1647.6188,283.3438 L1647.6188,286.0625 Z "/><text fill="#000000" font-family="sans-serif" font-size="12" font-style="italic" lengthAdjust="spacingAndGlyphs" textLength="49" x="1667.85" y="277.5918">«reuse»</text><text fill="#000000" font-family="sans-serif" font-size="12" lengthAdjust="spacingAndGlyphs" textLength="58" x="1663.35" y="291.5605">Swimlane</text><line style="stroke: #555555; stroke-width: 1.5;" x1="1609.5" x2="1744.5" y1="299.3906" y2="299.3906"/><ellipse cx="1619.5" cy="310.3906" fill="none" rx="3" ry="3" style="stroke: #038048; stroke-width: 1.0;"/><text fill="#000000" font-family="sans-serif" font-size="11" lengthAdjust="spacingAndGlyphs" textLength="111" x="1628.5" y="313.6011">collapsed : boolean</text><line style="stroke: #555555; stroke-width: 1.5;" x1="1609.5" x2="1744.5" y1="320.1953" y2="320.1953"/><!--MD5=[f39f2eefe4f8e14fa4396a7874ad7edc]
class TaskRow--><rect fill="#C8E6C9" height="53.9375" id="TaskRow" style="stroke: #555555; stroke-width: 1.5;" width="86" x="1505" y="423.4531"/><ellipse cx="1520" cy="442.4219" fill="#ADD1B2" rx="11" ry="11" style="stroke: #555555; stroke-width: 1.0;"/><path d="M1522.9688,448.0625 Q1522.3906,448.3594 1521.75,448.5 Q1521.1094,448.6563 1520.4063,448.6563 Q1517.9063,448.6563 1516.5781,447.0156 Q1515.2656,445.3594 1515.2656,442.2344 Q1515.2656,439.1094 1516.5781,437.4531 Q1517.9063,435.7969 1520.4063,435.7969 Q1521.1094,435.7969 1521.75,435.9531 Q1522.4063,436.1094 1522.9688,436.4063 L1522.9688,439.125 Q1522.3438,438.5469 1521.75,438.2813 Q1521.1563,438 1520.5313,438 Q1519.1875,438 1518.5,439.0781 Q1517.8125,440.1406 1517.8125,442.2344 Q1517.8125,444.3281 1518.5,445.4063 Q1519.1875,446.4688 1520.5313,446.4688 Q1521.1563,446.4688 1521.75,446.2031 Q1522.3438,445.9219 1522.9688,445.3438 L1522.9688,448.0625 Z "/><text fill="#000000" font-family="sans-serif" font-size="12" font-style="italic" lengthAdjust="spacingAndGlyphs" textLength="49" x="1536.5" y="439.5918">«reuse»</text><text fill="#000000" font-family="sans-serif" font-size="12" lengthAdjust="spacingAndGlyphs" textLength="54" x="1534" y="453.5605">TaskRow</text><line style="stroke: #555555; stroke-width: 1.5;" x1="1506" x2="1590" y1="461.3906" y2="461.3906"/><line style="stroke: #555555; stroke-width: 1.5;" x1="1506" x2="1590" y1="469.3906" y2="469.3906"/><!--MD5=[85658886851f8253a35be160d2966d94]
class DriverIndicator--><rect fill="#FFE0B2" height="66.7422" id="DriverIndicator" style="stroke: #555555; stroke-width: 1.5;" width="396" x="1177" y="602.9531"/><ellipse cx="1325.25" cy="621.9219" fill="#ADD1B2" rx="11" ry="11" style="stroke: #555555; stroke-width: 1.0;"/><path d="M1328.2188,627.5625 Q1327.6406,627.8594 1327,628 Q1326.3594,628.1563 1325.6563,628.1563 Q1323.1563,628.1563 1321.8281,626.5156 Q1320.5156,624.8594 1320.5156,621.7344 Q1320.5156,618.6094 1321.8281,616.9531 Q1323.1563,615.2969 1325.6563,615.2969 Q1326.3594,615.2969 1327,615.4531 Q1327.6563,615.6094 1328.2188,615.9063 L1328.2188,618.625 Q1327.5938,618.0469 1327,617.7813 Q1326.4063,617.5 1325.7813,617.5 Q1324.4375,617.5 1323.75,618.5781 Q1323.0625,619.6406 1323.0625,621.7344 Q1323.0625,623.8281 1323.75,624.9063 Q1324.4375,625.9688 1325.7813,625.9688 Q1326.4063,625.9688 1327,625.7031 Q1327.5938,625.4219 1328.2188,624.8438 L1328.2188,627.5625 Z "/><text fill="#000000" font-family="sans-serif" font-size="12" font-style="italic" lengthAdjust="spacingAndGlyphs" textLength="40" x="1371.25" y="619.0918">«new»</text><text fill="#000000" font-family="sans-serif" font-size="12" lengthAdjust="spacingAndGlyphs" textLength="91" x="1345.75" y="633.0605">DriverIndicator</text><line style="stroke: #555555; stroke-width: 1.5;" x1="1178" x2="1572" y1="640.8906" y2="640.8906"/><line style="stroke: #555555; stroke-width: 1.5;" x1="1178" x2="1572" y1="648.8906" y2="648.8906"/><ellipse cx="1188" cy="659.8906" fill="#84BE84" rx="3" ry="3" style="stroke: #038048; stroke-width: 1.0;"/><text fill="#000000" font-family="sans-serif" font-size="11" lengthAdjust="spacingAndGlyphs" textLength="370" x="1197" y="663.1011">compute(actor, claim) : Icon    '' actor = pipelineDef[phase].actor</text><!--MD5=[4aa8b11df69cba8acad8248e6ef0f876]
class InlineGateReview--><rect fill="#FFE0B2" height="53.9375" id="InlineGateReview" style="stroke: #555555; stroke-width: 1.5;" width="137" x="1608.5" y="609.4531"/><ellipse cx="1623.5" cy="628.4219" fill="#ADD1B2" rx="11" ry="11" style="stroke: #555555; stroke-width: 1.0;"/><path d="M1626.4688,634.0625 Q1625.8906,634.3594 1625.25,634.5 Q1624.6094,634.6563 1623.9063,634.6563 Q1621.4063,634.6563 1620.0781,633.0156 Q1618.7656,631.3594 1618.7656,628.2344 Q1618.7656,625.1094 1620.0781,623.4531 Q1621.4063,621.7969 1623.9063,621.7969 Q1624.6094,621.7969 1625.25,621.9531 Q1625.9063,622.1094 1626.4688,622.4063 L1626.4688,625.125 Q1625.8438,624.5469 1625.25,624.2813 Q1624.6563,624 1624.0313,624 Q1622.6875,624 1622,625.0781 Q1621.3125,626.1406 1621.3125,628.2344 Q1621.3125,630.3281 1622,631.4063 Q1622.6875,632.4688 1624.0313,632.4688 Q1624.6563,632.4688 1625.25,632.2031 Q1625.8438,631.9219 1626.4688,631.3438 L1626.4688,634.0625 Z "/><text fill="#000000" font-family="sans-serif" font-size="12" font-style="italic" lengthAdjust="spacingAndGlyphs" textLength="40" x="1670" y="625.5918">«new»</text><text fill="#000000" font-family="sans-serif" font-size="12" lengthAdjust="spacingAndGlyphs" textLength="105" x="1637.5" y="639.5605">InlineGateReview</text><line style="stroke: #555555; stroke-width: 1.5;" x1="1609.5" x2="1744.5" y1="647.3906" y2="647.3906"/><line style="stroke: #555555; stroke-width: 1.5;" x1="1609.5" x2="1744.5" y1="655.3906" y2="655.3906"/><!--MD5=[2ad4919d8d067e859e99e18765e2682f]
class LabelProjection--><rect fill="#E1BEE7" height="66.7422" id="LabelProjection" style="stroke: #555555; stroke-width: 1.5;" width="241" x="2255.5" y="416.9531"/><ellipse cx="2323.75" cy="435.9219" fill="#ADD1B2" rx="11" ry="11" style="stroke: #555555; stroke-width: 1.0;"/><path d="M2326.7188,441.5625 Q2326.1406,441.8594 2325.5,442 Q2324.8594,442.1563 2324.1563,442.1563 Q2321.6563,442.1563 2320.3281,440.5156 Q2319.0156,438.8594 2319.0156,435.7344 Q2319.0156,432.6094 2320.3281,430.9531 Q2321.6563,429.2969 2324.1563,429.2969 Q2324.8594,429.2969 2325.5,429.4531 Q2326.1563,429.6094 2326.7188,429.9063 L2326.7188,432.625 Q2326.0938,432.0469 2325.5,431.7813 Q2324.9063,431.5 2324.2813,431.5 Q2322.9375,431.5 2322.25,432.5781 Q2321.5625,433.6406 2321.5625,435.7344 Q2321.5625,437.8281 2322.25,438.9063 Q2322.9375,439.9688 2324.2813,439.9688 Q2324.9063,439.9688 2325.5,439.7031 Q2326.0938,439.4219 2326.7188,438.8438 L2326.7188,441.5625 Z "/><text fill="#000000" font-family="sans-serif" font-size="12" font-style="italic" lengthAdjust="spacingAndGlyphs" textLength="77" x="2353.75" y="433.0918">«projection»</text><text fill="#000000" font-family="sans-serif" font-size="12" lengthAdjust="spacingAndGlyphs" textLength="96" x="2344.25" y="447.0605">LabelProjection</text><line style="stroke: #555555; stroke-width: 1.5;" x1="2256.5" x2="2495.5" y1="454.8906" y2="454.8906"/><line style="stroke: #555555; stroke-width: 1.5;" x1="2256.5" x2="2495.5" y1="462.8906" y2="462.8906"/><ellipse cx="2266.5" cy="473.8906" fill="#84BE84" rx="3" ry="3" style="stroke: #038048; stroke-width: 1.0;"/><text fill="#000000" font-family="sans-serif" font-size="11" lengthAdjust="spacingAndGlyphs" textLength="215" x="2275.5" y="477.1011">label(phase, turn, role, plane) : string</text><!--MD5=[58f1048ce55cbc0b445354c6dda0796c]
class DisplayHints--><rect fill="#E1BEE7" height="66.7422" id="DisplayHints" style="stroke: #555555; stroke-width: 1.5;" width="419" x="1801.5" y="416.9531"/><ellipse cx="1968.75" cy="435.9219" fill="#ADD1B2" rx="11" ry="11" style="stroke: #555555; stroke-width: 1.0;"/><path d="M1971.7188,441.5625 Q1971.1406,441.8594 1970.5,442 Q1969.8594,442.1563 1969.1563,442.1563 Q1966.6563,442.1563 1965.3281,440.5156 Q1964.0156,438.8594 1964.0156,435.7344 Q1964.0156,432.6094 1965.3281,430.9531 Q1966.6563,429.2969 1969.1563,429.2969 Q1969.8594,429.2969 1970.5,429.4531 Q1971.1563,429.6094 1971.7188,429.9063 L1971.7188,432.625 Q1971.0938,432.0469 1970.5,431.7813 Q1969.9063,431.5 1969.2813,431.5 Q1967.9375,431.5 1967.25,432.5781 Q1966.5625,433.6406 1966.5625,435.7344 Q1966.5625,437.8281 1967.25,438.9063 Q1967.9375,439.9688 1969.2813,439.9688 Q1969.9063,439.9688 1970.5,439.7031 Q1971.0938,439.4219 1971.7188,438.8438 L1971.7188,441.5625 Z "/><text fill="#000000" font-family="sans-serif" font-size="12" font-style="italic" lengthAdjust="spacingAndGlyphs" textLength="77" x="1988.75" y="433.0918">«projection»</text><text fill="#000000" font-family="sans-serif" font-size="12" lengthAdjust="spacingAndGlyphs" textLength="76" x="1989.25" y="447.0605">DisplayHints</text><line style="stroke: #555555; stroke-width: 1.5;" x1="1802.5" x2="2219.5" y1="454.8906" y2="454.8906"/><ellipse cx="1812.5" cy="465.8906" fill="none" rx="3" ry="3" style="stroke: #038048; stroke-width: 1.0;"/><text fill="#000000" font-family="sans-serif" font-size="11" lengthAdjust="spacingAndGlyphs" textLength="393" x="1821.5" y="469.1011">byPipeline : Map&lt;pipeline_id, {columns, sort, collapsed, icon, title}&gt;</text><line style="stroke: #555555; stroke-width: 1.5;" x1="1802.5" x2="2219.5" y1="475.6953" y2="475.6953"/><!--MD5=[7c4bedb425c5a2178b3524347ff0a2ba]
class TasksClaimsHook--><rect fill="#FFE0B2" height="79.5469" id="TasksClaimsHook" style="stroke: #555555; stroke-width: 1.5;" width="190" x="2681" y="254.9531"/><ellipse cx="2718.5" cy="273.9219" fill="#ADD1B2" rx="11" ry="11" style="stroke: #555555; stroke-width: 1.0;"/><path d="M2721.4688,279.5625 Q2720.8906,279.8594 2720.25,280 Q2719.6094,280.1563 2718.9063,280.1563 Q2716.4063,280.1563 2715.0781,278.5156 Q2713.7656,276.8594 2713.7656,273.7344 Q2713.7656,270.6094 2715.0781,268.9531 Q2716.4063,267.2969 2718.9063,267.2969 Q2719.6094,267.2969 2720.25,267.4531 Q2720.9063,267.6094 2721.4688,267.9063 L2721.4688,270.625 Q2720.8438,270.0469 2720.25,269.7813 Q2719.6563,269.5 2719.0313,269.5 Q2717.6875,269.5 2717,270.5781 Q2716.3125,271.6406 2716.3125,273.7344 Q2716.3125,275.8281 2717,276.9063 Q2717.6875,277.9688 2719.0313,277.9688 Q2719.6563,277.9688 2720.25,277.7031 Q2720.8438,277.4219 2721.4688,276.8438 L2721.4688,279.5625 Z "/><text fill="#000000" font-family="sans-serif" font-size="12" font-style="italic" lengthAdjust="spacingAndGlyphs" textLength="40" x="2771.5" y="271.0918">«new»</text><text fill="#000000" font-family="sans-serif" font-size="12" lengthAdjust="spacingAndGlyphs" textLength="108" x="2737.5" y="285.0605">TasksClaimsHook</text><line style="stroke: #555555; stroke-width: 1.5;" x1="2682" x2="2870" y1="292.8906" y2="292.8906"/><ellipse cx="2692" cy="303.8906" fill="none" rx="3" ry="3" style="stroke: #038048; stroke-width: 1.0;"/><text fill="#000000" font-family="sans-serif" font-size="11" lengthAdjust="spacingAndGlyphs" textLength="78" x="2701" y="307.1011">tasks : Task[]</text><ellipse cx="2692" cy="316.6953" fill="none" rx="3" ry="3" style="stroke: #038048; stroke-width: 1.0;"/><text fill="#000000" font-family="sans-serif" font-size="11" lengthAdjust="spacingAndGlyphs" textLength="164" x="2701" y="319.9058">claims : Map&lt;taskId, Claim&gt;</text><line style="stroke: #555555; stroke-width: 1.5;" x1="2682" x2="2870" y1="326.5" y2="326.5"/><!--MD5=[9b027cc50fa4a3b75d7b0c73861f039b]
class ApiClient--><rect fill="#FFE0B2" height="92.3516" id="ApiClient" style="stroke: #555555; stroke-width: 1.5;" width="446" x="2553" y="404.4531"/><ellipse cx="2744.75" cy="423.4219" fill="#ADD1B2" rx="11" ry="11" style="stroke: #555555; stroke-width: 1.0;"/><path d="M2747.7188,429.0625 Q2747.1406,429.3594 2746.5,429.5 Q2745.8594,429.6563 2745.1563,429.6563 Q2742.6563,429.6563 2741.3281,428.0156 Q2740.0156,426.3594 2740.0156,423.2344 Q2740.0156,420.1094 2741.3281,418.4531 Q2742.6563,416.7969 2745.1563,416.7969 Q2745.8594,416.7969 2746.5,416.9531 Q2747.1563,417.1094 2747.7188,417.4063 L2747.7188,420.125 Q2747.0938,419.5469 2746.5,419.2813 Q2745.9063,419 2745.2813,419 Q2743.9375,419 2743.25,420.0781 Q2742.5625,421.1406 2742.5625,423.2344 Q2742.5625,425.3281 2743.25,426.4063 Q2743.9375,427.4688 2745.2813,427.4688 Q2745.9063,427.4688 2746.5,427.2031 Q2747.0938,426.9219 2747.7188,426.3438 L2747.7188,429.0625 Z "/><text fill="#000000" font-family="sans-serif" font-size="12" font-style="italic" lengthAdjust="spacingAndGlyphs" textLength="40" x="2772.25" y="420.5918">«new»</text><text fill="#000000" font-family="sans-serif" font-size="12" lengthAdjust="spacingAndGlyphs" textLength="54" x="2765.25" y="434.5605">ApiClient</text><line style="stroke: #555555; stroke-width: 1.5;" x1="2554" x2="2998" y1="442.3906" y2="442.3906"/><line style="stroke: #555555; stroke-width: 1.5;" x1="2554" x2="2998" y1="450.3906" y2="450.3906"/><ellipse cx="2564" cy="461.3906" fill="#84BE84" rx="3" ry="3" style="stroke: #038048; stroke-width: 1.0;"/><text fill="#000000" font-family="sans-serif" font-size="11" lengthAdjust="spacingAndGlyphs" textLength="344" x="2573" y="464.6011">search(filter) : Task[]   '' EXTEND filter: + pipeline_id / phase</text><ellipse cx="2564" cy="474.1953" fill="#84BE84" rx="3" ry="3" style="stroke: #038048; stroke-width: 1.0;"/><text fill="#000000" font-family="sans-serif" font-size="11" lengthAdjust="spacingAndGlyphs" textLength="401" x="2573" y="477.4058">postGateDecision(task, verdict)   '' NEW endpoint for inline gate-review</text><ellipse cx="2564" cy="487" fill="#84BE84" rx="3" ry="3" style="stroke: #038048; stroke-width: 1.0;"/><text fill="#000000" font-family="sans-serif" font-size="11" lengthAdjust="spacingAndGlyphs" textLength="420" x="2573" y="490.2104">getClaims() : Map&lt;taskId, Claim&gt;  '' NEW: read Coordinator runtime state</text><!--MD5=[35831447768dbc1c5ecb146fa99b0227]
class WsChannel--><rect fill="#C8E6C9" height="53.9375" id="WsChannel" style="stroke: #555555; stroke-width: 1.5;" width="101" x="3034.5" y="423.4531"/><ellipse cx="3049.5" cy="442.4219" fill="#ADD1B2" rx="11" ry="11" style="stroke: #555555; stroke-width: 1.0;"/><path d="M3052.4688,448.0625 Q3051.8906,448.3594 3051.25,448.5 Q3050.6094,448.6563 3049.9063,448.6563 Q3047.4063,448.6563 3046.0781,447.0156 Q3044.7656,445.3594 3044.7656,442.2344 Q3044.7656,439.1094 3046.0781,437.4531 Q3047.4063,435.7969 3049.9063,435.7969 Q3050.6094,435.7969 3051.25,435.9531 Q3051.9063,436.1094 3052.4688,436.4063 L3052.4688,439.125 Q3051.8438,438.5469 3051.25,438.2813 Q3050.6563,438 3050.0313,438 Q3048.6875,438 3048,439.0781 Q3047.3125,440.1406 3047.3125,442.2344 Q3047.3125,444.3281 3048,445.4063 Q3048.6875,446.4688 3050.0313,446.4688 Q3050.6563,446.4688 3051.25,446.2031 Q3051.8438,445.9219 3052.4688,445.3438 L3052.4688,448.0625 Z "/><text fill="#000000" font-family="sans-serif" font-size="12" font-style="italic" lengthAdjust="spacingAndGlyphs" textLength="49" x="3073.5" y="439.5918">«reuse»</text><text fill="#000000" font-family="sans-serif" font-size="12" lengthAdjust="spacingAndGlyphs" textLength="69" x="3063.5" y="453.5605">WsChannel</text><line style="stroke: #555555; stroke-width: 1.5;" x1="3035.5" x2="3134.5" y1="461.3906" y2="461.3906"/><line style="stroke: #555555; stroke-width: 1.5;" x1="3035.5" x2="3134.5" y1="469.3906" y2="469.3906"/><!--MD5=[3bfeb1f6eb397f206f42a5e5c7085231]
class SearchService--><rect fill="#B3E5FC" height="66.7422" id="SearchService" style="stroke: #555555; stroke-width: 1.5;" width="145" x="2360.5" y="602.9531"/><ellipse cx="2386.3" cy="621.9219" fill="#B4A7E5" rx="11" ry="11" style="stroke: #555555; stroke-width: 1.0;"/><path d="M2382.2219,617.6875 L2382.2219,615.5313 L2389.6125,615.5313 L2389.6125,617.6875 L2387.1438,617.6875 L2387.1438,625.7656 L2389.6125,625.7656 L2389.6125,627.9219 L2382.2219,627.9219 L2382.2219,625.7656 L2384.6906,625.7656 L2384.6906,617.6875 L2382.2219,617.6875 Z "/><text fill="#000000" font-family="sans-serif" font-size="12" font-style="italic" lengthAdjust="spacingAndGlyphs" textLength="67" x="2413.7" y="619.0918">«contract»</text><text fill="#000000" font-family="sans-serif" font-size="12" font-style="italic" lengthAdjust="spacingAndGlyphs" textLength="89" x="2402.7" y="633.0605">SearchService</text><line style="stroke: #555555; stroke-width: 1.5;" x1="2361.5" x2="2504.5" y1="640.8906" y2="640.8906"/><line style="stroke: #555555; stroke-width: 1.5;" x1="2361.5" x2="2504.5" y1="648.8906" y2="648.8906"/><ellipse cx="2371.5" cy="659.8906" fill="#84BE84" rx="3" ry="3" style="stroke: #038048; stroke-width: 1.0;"/><text fill="#000000" font-family="sans-serif" font-size="11" lengthAdjust="spacingAndGlyphs" textLength="119" x="2380.5" y="663.1011">search(opts) : Task[]</text><!--MD5=[5d2bdee92db0d01b75732190da037553]
class Coordinator--><rect fill="#B3E5FC" height="66.7422" id="Coordinator" style="stroke: #555555; stroke-width: 1.5;" width="471" x="2540.5" y="602.9531"/><ellipse cx="2734.75" cy="621.9219" fill="#B4A7E5" rx="11" ry="11" style="stroke: #555555; stroke-width: 1.0;"/><path d="M2730.6719,617.6875 L2730.6719,615.5313 L2738.0625,615.5313 L2738.0625,617.6875 L2735.5938,617.6875 L2735.5938,625.7656 L2738.0625,625.7656 L2738.0625,627.9219 L2730.6719,627.9219 L2730.6719,625.7656 L2733.1406,625.7656 L2733.1406,617.6875 L2730.6719,617.6875 Z "/><text fill="#000000" font-family="sans-serif" font-size="12" font-style="italic" lengthAdjust="spacingAndGlyphs" textLength="67" x="2758.75" y="619.0918">«contract»</text><text fill="#000000" font-family="sans-serif" font-size="12" font-style="italic" lengthAdjust="spacingAndGlyphs" textLength="74" x="2755.25" y="633.0605">Coordinator</text><line style="stroke: #555555; stroke-width: 1.5;" x1="2541.5" x2="3010.5" y1="640.8906" y2="640.8906"/><line style="stroke: #555555; stroke-width: 1.5;" x1="2541.5" x2="3010.5" y1="648.8906" y2="648.8906"/><ellipse cx="2551.5" cy="659.8906" fill="#84BE84" rx="3" ry="3" style="stroke: #038048; stroke-width: 1.0;"/><text fill="#000000" font-family="sans-serif" font-size="11" lengthAdjust="spacingAndGlyphs" textLength="445" x="2560.5" y="663.1011">claims() : Map&lt;taskId, Claim&gt;   '' ABSENT today; soak = baime .active-agents</text><!--MD5=[061bbcad7025071bfab9a2ceeee6e0b8]
class ConfigPipelines--><rect fill="#B3E5FC" height="66.7422" id="ConfigPipelines" style="stroke: #555555; stroke-width: 1.5;" width="425" x="1900.5" y="602.9531"/><ellipse cx="2062.25" cy="621.9219" fill="#B4A7E5" rx="11" ry="11" style="stroke: #555555; stroke-width: 1.0;"/><path d="M2058.1719,617.6875 L2058.1719,615.5313 L2065.5625,615.5313 L2065.5625,617.6875 L2063.0938,617.6875 L2063.0938,625.7656 L2065.5625,625.7656 L2065.5625,627.9219 L2058.1719,627.9219 L2058.1719,625.7656 L2060.6406,625.7656 L2060.6406,617.6875 L2058.1719,617.6875 Z "/><text fill="#000000" font-family="sans-serif" font-size="12" font-style="italic" lengthAdjust="spacingAndGlyphs" textLength="67" x="2095.75" y="619.0918">«contract»</text><text fill="#000000" font-family="sans-serif" font-size="12" font-style="italic" lengthAdjust="spacingAndGlyphs" textLength="93" x="2082.75" y="633.0605">ConfigPipelines</text><line style="stroke: #555555; stroke-width: 1.5;" x1="1901.5" x2="2324.5" y1="640.8906" y2="640.8906"/><ellipse cx="1911.5" cy="651.8906" fill="none" rx="3" ry="3" style="stroke: #038048; stroke-width: 1.0;"/><text fill="#000000" font-family="sans-serif" font-size="11" lengthAdjust="spacingAndGlyphs" textLength="399" x="1920.5" y="655.1011">pipelines[] : Pipeline   '' ABSENT in config.yml today → source of lanes</text><line style="stroke: #555555; stroke-width: 1.5;" x1="1901.5" x2="2324.5" y1="661.6953" y2="661.6953"/><path d="M51.5,86.4531 L51.5,141.8516 L586.5,141.8516 L586.5,96.4531 L576.5,86.4531 L51.5,86.4531 " fill="#FBFB77" style="stroke: #A80036; stroke-width: 1.0;"/><path d="M576.5,86.4531 L576.5,96.4531 L586.5,96.4531 L576.5,86.4531 " fill="#FBFB77" style="stroke: #A80036; stroke-width: 1.0;"/><text fill="#000000" font-family="sans-serif" font-size="13" font-weight="bold" lengthAdjust="spacingAndGlyphs" textLength="108" x="57.5" y="103.52">Biggest reuse:</text><text fill="#000000" font-family="sans-serif" font-size="13" lengthAdjust="spacingAndGlyphs" textLength="402" x="169.5" y="103.52">lanes.ts already models lanes+columns+collapsible swimlanes</text><text fill="#000000" font-family="sans-serif" font-size="13" lengthAdjust="spacingAndGlyphs" textLength="471" x="57.5" y="118.6528">for milestones. Pipeline lanes = a THIRD LaneMode ("pipeline"), laneKey =</text><text fill="#000000" font-family="sans-serif" font-size="13" lengthAdjust="spacingAndGlyphs" textLength="427" x="57.5" y="133.7856">pipeline_id, column = ordered phase. No new grouping subsystem.</text><path d="M621.5,70.9531 L621.5,156.6172 L1144.5,156.6172 L1144.5,80.9531 L1134.5,70.9531 L621.5,70.9531 " fill="#FBFB77" style="stroke: #A80036; stroke-width: 1.0;"/><path d="M1134.5,70.9531 L1134.5,80.9531 L1144.5,80.9531 L1134.5,70.9531 " fill="#FBFB77" style="stroke: #A80036; stroke-width: 1.0;"/><text fill="#000000" font-family="sans-serif" font-size="13" font-weight="bold" lengthAdjust="spacingAndGlyphs" textLength="67" x="627.5" y="88.02">Row join:</text><text fill="#000000" font-family="sans-serif" font-size="13" lengthAdjust="spacingAndGlyphs" textLength="342" x="698.5" y="88.02">TaskRow reads persisted `phase` from Task, looks up</text><text fill="#000000" font-family="sans-serif" font-size="13" lengthAdjust="spacingAndGlyphs" textLength="440" x="627.5" y="103.1528">actor = pipelineDef[phase].actor (pipeline-data), joins live claim from</text><text fill="#000000" font-family="sans-serif" font-size="13" lengthAdjust="spacingAndGlyphs" textLength="456" x="627.5" y="118.2856">Coordinator → DriverIndicator. actor=human ⇒ &#128100; (+InlineGateReview) ·</text><text fill="#000000" font-family="sans-serif" font-size="13" lengthAdjust="spacingAndGlyphs" textLength="502" x="627.5" y="133.4185">machine∧claim ⇒ &#129302; · machine∧¬claim ⇒ ⏳ · machine∧stale ⇒ ⚠️ · none ⇒ ✓.</text><text fill="#000000" font-family="sans-serif" font-size="13" lengthAdjust="spacingAndGlyphs" textLength="321" x="627.5" y="148.5513">turn is NOT a Task field — it is derived from phase.</text><path d="M6,267.4531 L6,322.8516 L632,322.8516 L632,277.4531 L622,267.4531 L6,267.4531 " fill="#FBFB77" style="stroke: #A80036; stroke-width: 1.0;"/><path d="M622,267.4531 L622,277.4531 L632,277.4531 L622,267.4531 " fill="#FBFB77" style="stroke: #A80036; stroke-width: 1.0;"/><text fill="#000000" font-family="sans-serif" font-size="13" font-weight="bold" lengthAdjust="spacingAndGlyphs" textLength="160" x="12" y="284.52">Backend gaps (blue):</text><text fill="#000000" font-family="sans-serif" font-size="13" lengthAdjust="spacingAndGlyphs" textLength="319" x="176" y="284.52">(1) SearchService.NormalizedFilters + pipeline_id/</text><text fill="#000000" font-family="sans-serif" font-size="13" lengthAdjust="spacingAndGlyphs" textLength="421" x="12" y="299.6528">phase ; (2) Coordinator.claims() endpoint (none today) ; (3) config</text><text fill="#000000" font-family="sans-serif" font-size="13" lengthAdjust="spacingAndGlyphs" textLength="605" x="12" y="314.7856">pipelines[] (with per-phase actor) as lane source. WS stays the coarse "tasks-updated" refetch.</text><!--MD5=[cbaf73054975fa1e67c1efbee70c2e05]
link LaneFns to LaneDefinition--><path d="M916.32,335.0831 C923.66,352.6931 932.46,373.8031 940.49,393.0731 " fill="none" id="LaneFns-&gt;LaneDefinition" style="stroke: #A80036; stroke-width: 1.0; stroke-dasharray: 7.0,7.0;"/><polygon fill="#A80036" points="942.52,397.9231,942.7659,388.0773,940.604,393.3048,935.3766,391.1429,942.52,397.9231" style="stroke: #A80036; stroke-width: 1.0;"/><!--MD5=[9348d1e4e6e6c30b9f767b3ec6871220]
link LaneFns to LaneMode--><path d="M839.52,335.0031 C822.86,346.7631 805.2,360.2231 790,373.9531 C774.77,387.7131 759.56,404.8131 747.6,419.2631 " fill="none" id="LaneFns-&gt;LaneMode" style="stroke: #A80036; stroke-width: 1.0; stroke-dasharray: 7.0,7.0;"/><polygon fill="#A80036" points="744.31,423.2631,753.1174,418.8552,747.487,419.4022,746.94,413.7719,744.31,423.2631" style="stroke: #A80036; stroke-width: 1.0;"/><!--MD5=[652802776d7e55da115a72bd210896b0]
reverse link IssueListView to LaneSwitcher--><path d="M1638.71,157.5231 C1607.92,191.7631 1565.62,238.7831 1539.59,267.7231 " fill="none" id="IssueListView&lt;-LaneSwitcher" style="stroke: #A80036; stroke-width: 1.0;"/><polygon fill="#FFFFFF" points="1647.47,147.7831,1640.4835,149.5687,1639.4446,156.7046,1646.4311,154.919,1647.47,147.7831" style="stroke: #A80036; stroke-width: 1.0;"/><!--MD5=[54f440b6d64f8774312c4be02a653811]
reverse link IssueListView to Swimlane--><path d="M1677,161.0331 C1677,192.4431 1677,233.2631 1677,261.3331 " fill="none" id="IssueListView&lt;-Swimlane" style="stroke: #A80036; stroke-width: 1.0;"/><polygon fill="#FFFFFF" points="1677,147.7831,1673,153.7831,1677,159.7831,1681,153.7831,1677,147.7831" style="stroke: #A80036; stroke-width: 1.0;"/><!--MD5=[c00be29f1e1bcd97e9424ebb92073d33]
reverse link Swimlane to TaskRow--><path d="M1641.24,338.5031 C1618.47,365.5931 1589.69,399.8431 1570.18,423.0631 " fill="none" id="Swimlane&lt;-TaskRow" style="stroke: #A80036; stroke-width: 1.0;"/><polygon fill="#FFFFFF" points="1649.64,328.5031,1642.7174,330.5225,1641.9189,337.6892,1648.8415,335.6699,1649.64,328.5031" style="stroke: #A80036; stroke-width: 1.0;"/><!--MD5=[425f1f8d1cccd8e9785a7ab610a981ae]
reverse link TaskRow to DriverIndicator--><path d="M1513.94,487.6731 C1482.41,521.2131 1435.94,570.6331 1405.57,602.9331 " fill="none" id="TaskRow&lt;-DriverIndicator" style="stroke: #A80036; stroke-width: 1.0;"/><polygon fill="#FFFFFF" points="1523.21,477.8131,1516.1863,479.4465,1514.9926,486.5581,1522.0163,484.9247,1523.21,477.8131" style="stroke: #A80036; stroke-width: 1.0;"/><!--MD5=[a1ea208d8db502f198d91cc8fa47fab0]
link TaskRow to InlineGateReview--><path d="M1538.46,477.6831 C1532.18,500.0231 1527.92,531.6431 1545,551.9531 C1558.36,567.8331 1572.28,550.9931 1591,559.9531 C1613.83,570.8731 1635.23,589.6231 1650.97,605.6931 " fill="none" id="TaskRow-&gt;InlineGateReview" style="stroke: #A80036; stroke-width: 1.0; stroke-dasharray: 7.0,7.0;"/><polygon fill="#A80036" points="1654.44,609.2931,1651.0722,600.038,1650.9693,605.6939,1645.3134,605.5911,1654.44,609.2931" style="stroke: #A80036; stroke-width: 1.0;"/><text fill="#000000" font-family="sans-serif" font-size="13" lengthAdjust="spacingAndGlyphs" textLength="175" x="1546" y="548.02">when actor(phase)=human</text><!--MD5=[47a6d66e8ea8d6b3a7e91ae1b172ab21]
link IssueListView to LaneFns--><path d="M1619.64,123.4531 C1523.87,138.1631 1325.7,170.7531 1161,211.9531 C1114.1,223.6831 1063.23,239.0531 1018.96,253.3031 " fill="none" id="IssueListView-&gt;LaneFns" style="stroke: #A80036; stroke-width: 1.0; stroke-dasharray: 7.0,7.0;"/><polygon fill="#A80036" points="1014.15,254.8631,1023.945,255.8915,1018.9061,253.3206,1021.477,248.2817,1014.15,254.8631" style="stroke: #A80036; stroke-width: 1.0;"/><text fill="#000000" font-family="sans-serif" font-size="13" lengthAdjust="spacingAndGlyphs" textLength="140" x="1259" y="200.02">group by pipeline lane</text><!--MD5=[19e816bc15608ac2aa1c0e186c18d9d9]
link IssueListView to LabelProjection--><path d="M1734.15,139.7931 C1836.28,184.5231 2056.44,282.5131 2238,373.9531 C2263.04,386.5631 2290.19,401.2031 2313.73,414.2131 " fill="none" id="IssueListView-&gt;LabelProjection" style="stroke: #A80036; stroke-width: 1.0; stroke-dasharray: 7.0,7.0;"/><polygon fill="#A80036" points="2318.38,416.7931,2312.4552,408.9257,2314.0092,414.3649,2308.57,415.919,2318.38,416.7931" style="stroke: #A80036; stroke-width: 1.0;"/><!--MD5=[081f1e2af533b8005c8429c840706b83]
link Swimlane to DisplayHints--><path d="M1745.8,327.5731 C1801.06,352.9631 1878.57,388.5931 1935.52,414.7631 " fill="none" id="Swimlane-&gt;DisplayHints" style="stroke: #A80036; stroke-width: 1.0; stroke-dasharray: 7.0,7.0;"/><polygon fill="#A80036" points="1940.28,416.9531,1933.7698,409.5627,1935.736,414.8669,1930.4319,416.8331,1940.28,416.9531" style="stroke: #A80036; stroke-width: 1.0;"/><!--MD5=[719389a8da147bf3575ce980d600c84f]
reverse link TasksClaimsHook to ApiClient--><path d="M2776,348.2531 C2776,366.4931 2776,386.8031 2776,404.4131 " fill="none" id="TasksClaimsHook&lt;-ApiClient" style="stroke: #A80036; stroke-width: 1.0;"/><polygon fill="#FFFFFF" points="2776,335.0831,2772,341.0831,2776,347.0831,2780,341.0831,2776,335.0831" style="stroke: #A80036; stroke-width: 1.0;"/><!--MD5=[0d0ae6e83af72fa4317f60310eaf8ee8]
reverse link TasksClaimsHook to WsChannel--><path d="M2883.91,317.9331 C2927.54,330.0131 2976.95,347.9831 3017,373.9531 C3036.83,386.8131 3054.53,406.8931 3066.9,423.1231 " fill="none" id="TasksClaimsHook&lt;-WsChannel" style="stroke: #A80036; stroke-width: 1.0;"/><polygon fill="#FFFFFF" points="2871.17,314.5231,2875.9333,319.9371,2882.7628,317.6225,2877.9995,312.2085,2871.17,314.5231" style="stroke: #A80036; stroke-width: 1.0;"/><!--MD5=[4b06186ceeca82619bf4c5601833f2a7]
reverse link IssueListView to TasksClaimsHook--><path d="M1747.25,125.6731 C1837.67,139.5331 1999.62,164.5431 2138,186.9531 C2330.91,218.1931 2556.32,256.3931 2680.94,277.6631 " fill="none" id="IssueListView&lt;-TasksClaimsHook" style="stroke: #A80036; stroke-width: 1.0;"/><polygon fill="#FFFFFF" points="1734.17,123.6731,1739.4936,128.5372,1746.0311,125.4938,1740.7074,120.6298,1734.17,123.6731" style="stroke: #A80036; stroke-width: 1.0;"/><!--MD5=[09ff8dfd596d19236ce3777ca3ba014a]
link ApiClient to SearchService--><path d="M2651.1,496.5131 C2609.08,513.8631 2562.79,535.4731 2523,559.9531 C2504.74,571.1831 2486.31,585.9231 2470.92,599.3831 " fill="none" id="ApiClient-&gt;SearchService" style="stroke: #A80036; stroke-width: 1.0; stroke-dasharray: 7.0,7.0;"/><polygon fill="#A80036" points="2467.08,602.7831,2476.4761,599.8314,2470.8304,599.4764,2471.1854,593.8307,2467.08,602.7831" style="stroke: #A80036; stroke-width: 1.0;"/><!--MD5=[3ea96b64fda62299aec2d03de8f72dc1]
link ApiClient to Coordinator--><path d="M2776,496.4631 C2776,527.4131 2776,568.0631 2776,597.3931 " fill="none" id="ApiClient-&gt;Coordinator" style="stroke: #A80036; stroke-width: 1.0; stroke-dasharray: 7.0,7.0;"/><polygon fill="#A80036" points="2776,602.7331,2780,593.7331,2776,597.7331,2772,593.7331,2776,602.7331" style="stroke: #A80036; stroke-width: 1.0;"/><!--MD5=[3e76867aec75584b28b324347182d147]
link LaneSwitcher to ConfigPipelines--><path d="M1547.52,322.1931 C1565.58,337.2731 1588.62,356.6031 1609,373.9531 C1688.17,441.3631 1695.59,475.5931 1786,526.9531 C1843.04,559.3531 1911.22,583.9031 1970.52,601.3831 " fill="none" id="LaneSwitcher-&gt;ConfigPipelines" style="stroke: #A80036; stroke-width: 1.0; stroke-dasharray: 7.0,7.0;"/><polygon fill="#A80036" points="1975.5,602.8431,1967.9975,596.4625,1970.7039,601.43,1965.7364,604.1364,1975.5,602.8431" style="stroke: #A80036; stroke-width: 1.0;"/><!--MD5=[f7e5228c6cda4dc6eb3524aba62b3d39]
link N_reuse to N_join--><!--MD5=[1030507e306dc8eece16fa6211b501e0]
link N_reuse to N_gap--><!--MD5=[730dbe76ba2aceb6d1db2534f1b1781d]
@startuml epicd-presentation-class

skinparam backgroundColor #FFFFFF
skinparam shadowing false
skinparam class {
  BorderColor #555555
  BackgroundColor #E8F0FE
  BackgroundColor<<reuse>> #C8E6C9
  BackgroundColor<<new>> #FFE0B2
  BackgroundColor<<projection>> #E1BEE7
  BackgroundColor<<contract>> #B3E5FC
}
skinparam packageStyle rectangle

title epicd — Multi-lane issue-list (presentation class diagram; green=reuse, orange=new)

package "Lane engine  (src/web/lib/lanes.ts — REUSE, extend)" {
  class LaneMode <<new>> {
  }
  class LaneDefinition <<reuse>> {
    +key : string
    +label : string
    +milestone? : string
    +pipeline_id? : string   '' NEW field for pipeline lanes
  }
  class LaneFns <<new>> {
    +buildLanes(mode, tasks, ...) : LaneDefinition[]    '' add pipeline branch
    +groupTasksByLaneAndStatus(...) : Map<laneKey, Map<column, Task[]>>
  }
  LaneFns ..> LaneDefinition
  LaneFns ..> LaneMode
}

package "Issue-list view  (extends TaskList.tsx base)" {
  class IssueListView <<new>> {
    +render()
  }
  class LaneSwitcher <<new>> {
  }
  class Swimlane <<reuse>> {
    +collapsed : boolean
  }
  class TaskRow <<reuse>> {
  }
  class DriverIndicator <<new>> {
    +compute(actor, claim) : Icon    '' actor = pipelineDef[phase].actor
  }
  class InlineGateReview <<new>> {
  }
  IssueListView o- - LaneSwitcher
  IssueListView o- - Swimlane
  Swimlane o- - TaskRow
  TaskRow o- - DriverIndicator
  TaskRow ..> InlineGateReview : when actor(phase)=human
  IssueListView ..> LaneFns : group by pipeline lane
}

package "Projections  (view-only, one-way — R3/R4)" {
  class LabelProjection <<projection>> {
    +label(phase, turn, role, plane) : string
  }
  class DisplayHints <<projection>> {
    +byPipeline : Map<pipeline_id, {columns, sort, collapsed, icon, title}>
  }
  IssueListView ..> LabelProjection
  Swimlane ..> DisplayHints
}

package "Data layer  (apiClient + WS)" {
  class TasksClaimsHook <<new>> {
    +tasks : Task[]
    +claims : Map<taskId, Claim>
  }
  class ApiClient <<new>> {
    +search(filter) : Task[]   '' EXTEND filter: + pipeline_id / phase
    +postGateDecision(task, verdict)   '' NEW endpoint for inline gate-review
    +getClaims() : Map<taskId, Claim>  '' NEW: read Coordinator runtime state
  }
  class WsChannel <<reuse>> {
  }
  TasksClaimsHook o- - ApiClient
  TasksClaimsHook o- - WsChannel
  IssueListView o- - TasksClaimsHook
}

package "Backend (needed)" {
  interface SearchService <<contract>> {
    +search(opts) : Task[]
  }
  interface Coordinator <<contract>> {
    +claims() : Map<taskId, Claim>   '' ABSENT today; soak = baime .active-agents
  }
  interface ConfigPipelines <<contract>> {
    +pipelines[] : Pipeline   '' ABSENT in config.yml today → source of lanes
  }
  ApiClient ..> SearchService
  ApiClient ..> Coordinator
  LaneSwitcher ..> ConfigPipelines
}

note as N_reuse
  **Biggest reuse:** lanes.ts already models lanes+columns+collapsible swimlanes
  for milestones. Pipeline lanes = a THIRD LaneMode ("pipeline"), laneKey =
  pipeline_id, column = ordered phase. No new grouping subsystem.
end note
note as N_join
  **Row join:** TaskRow reads persisted `phase` from Task, looks up
  actor = pipelineDef[phase].actor (pipeline-data), joins live claim from
  Coordinator → DriverIndicator. actor=human ⇒ 👤 (+InlineGateReview) ·
  machine∧claim ⇒ 🤖 · machine∧¬claim ⇒ ⏳ · machine∧stale ⇒ ⚠️ · none ⇒ ✓.
  turn is NOT a Task field — it is derived from phase.
end note
note as N_gap
  **Backend gaps (blue):** (1) SearchService.NormalizedFilters + pipeline_id/
  phase ; (2) Coordinator.claims() endpoint (none today) ; (3) config
  pipelines[] (with per-phase actor) as lane source. WS stays the coarse "tasks-updated" refetch.
end note

@enduml

PlantUML version 1.2020.02(Sun Mar 01 10:22:07 UTC 2020)
(GPL source distribution)
Java Runtime: OpenJDK Runtime Environment
JVM: OpenJDK 64-Bit Server VM
Java Version: 21.0.11+10-1-22.04.2-Ubuntu
Operating System: Linux
Default Encoding: UTF-8
Language: en
Country: null
--></g></svg>