<?xml version="1.0" encoding="UTF-8" standalone="no"?><svg xmlns="http://www.w3.org/2000/svg" xmlns:xlink="http://www.w3.org/1999/xlink" contentScriptType="application/ecmascript" contentStyleType="text/css" height="1043px" preserveAspectRatio="none" style="width:1862px;height:1043px;" version="1.1" viewBox="0 0 1862 1043" width="1862px" zoomAndPan="magnify"><defs/><g><text fill="#000000" font-family="sans-serif" font-size="18" lengthAdjust="spacingAndGlyphs" textLength="686" x="591.5" y="16.708">epicd — Work-item lifecycle (phases; turn = actor(phase); lane = pipeline_id)</text><!--MD5=[cac06a74304cb1e6f01c7da96a82e93e]
cluster Authoring--><rect fill="#E8F0FE" height="251" rx="12.5" ry="12.5" style="stroke: #555555; stroke-width: 1.5;" width="571" x="22" y="307.9531"/><rect fill="#FFFFFF" height="218.7031" rx="12.5" ry="12.5" style="stroke: #FFFFFF; stroke-width: 1.0;" width="565" x="25" y="337.25"/><line style="stroke: #555555; stroke-width: 1.5;" x1="22" x2="593" y1="334.25" y2="334.25"/><text fill="#000000" font-family="sans-serif" font-size="14" lengthAdjust="spacingAndGlyphs" textLength="277" x="169" y="324.9482">Authoring lane  (pipeline_id = authoring)</text><!--MD5=[ad3556d57806a2e5e788b507574db12f]
cluster Execution--><rect fill="#E8F0FE" height="528" rx="12.5" ry="12.5" style="stroke: #555555; stroke-width: 1.5;" width="555" x="1172" y="307.9531"/><rect fill="#FFFFFF" height="495.7031" rx="12.5" ry="12.5" style="stroke: #FFFFFF; stroke-width: 1.0;" width="549" x="1175" y="337.25"/><line style="stroke: #555555; stroke-width: 1.5;" x1="1172" x2="1727" y1="334.25" y2="334.25"/><text fill="#000000" font-family="sans-serif" font-size="14" lengthAdjust="spacingAndGlyphs" textLength="280" x="1309.5" y="324.9482">Execution lane  (pipeline_id = execution)</text><rect fill="#E8F0FE" height="52.5938" rx="12.5" ry="12.5" style="stroke: #555555; stroke-width: 1.5;" width="136" x="38" y="343.9531"/><line style="stroke: #555555; stroke-width: 1.5;" x1="38" x2="174" y1="386.5469" y2="386.5469"/><text fill="#000000" font-family="sans-serif" font-size="14" lengthAdjust="spacingAndGlyphs" textLength="56" x="78" y="361.9482">Refining</text><text fill="#000000" font-family="sans-serif" font-size="14" lengthAdjust="spacingAndGlyphs" textLength="116" x="48" y="378.2451">(actor=machine)</text><rect fill="#C8E6C9" height="52.5938" rx="12.5" ry="12.5" style="stroke: #555555; stroke-width: 1.5;" width="231" x="110.5" y="489.9531"/><line style="stroke: #555555; stroke-width: 1.5;" x1="110.5" x2="341.5" y1="532.5469" y2="532.5469"/><text fill="#000000" font-family="sans-serif" font-size="14" lengthAdjust="spacingAndGlyphs" textLength="55" x="198.5" y="507.9482">Backlog</text><text fill="#000000" font-family="sans-serif" font-size="14" lengthAdjust="spacingAndGlyphs" textLength="211" x="120.5" y="524.2451">(actor=human · promote gate)</text><path d="M209.5,342.9531 L209.5,366.4531 L174.11,370.4531 L209.5,374.4531 L209.5,398.3516 A0,0 0 0 0 209.5,398.3516 L576.5,398.3516 A0,0 0 0 0 576.5,398.3516 L576.5,352.9531 L566.5,342.9531 L209.5,342.9531 A0,0 0 0 0 209.5,342.9531 " fill="#FBFB77" style="stroke: #A80036; stroke-width: 1.0;"/><path d="M566.5,342.9531 L566.5,352.9531 L576.5,352.9531 L566.5,342.9531 " fill="#FBFB77" style="stroke: #A80036; stroke-width: 1.0;"/><text fill="#000000" font-family="sans-serif" font-size="13" lengthAdjust="spacingAndGlyphs" textLength="64" x="215.5" y="360.02">Routed by</text><text fill="#000000" font-family="sans-serif" font-size="13" font-weight="bold" lengthAdjust="spacingAndGlyphs" textLength="32" x="283.5" y="360.02">kind</text><text fill="#000000" font-family="sans-serif" font-size="13" lengthAdjust="spacingAndGlyphs" textLength="204" x="319.5" y="360.02">→ RefineStrategy (pure step fn).</text><text fill="#000000" font-family="sans-serif" font-size="13" lengthAdjust="spacingAndGlyphs" textLength="330" x="215.5" y="375.1528">Review cycle N is strategy-internal (Task.refine_log),</text><text fill="#000000" font-family="sans-serif" font-size="13" lengthAdjust="spacingAndGlyphs" textLength="346" x="215.5" y="390.2856">surfaced via Coordinator runtime-fact — NOT a phase.</text><polygon fill="#FEFECE" points="1699,358.4531,1711,370.4531,1699,382.4531,1687,370.4531,1699,358.4531" style="stroke: #A80036; stroke-width: 1.5;"/><rect fill="#E8F0FE" height="52.5938" rx="12.5" ry="12.5" style="stroke: #555555; stroke-width: 1.5;" width="136" x="1341" y="489.9531"/><line style="stroke: #555555; stroke-width: 1.5;" x1="1341" x2="1477" y1="532.5469" y2="532.5469"/><text fill="#000000" font-family="sans-serif" font-size="14" lengthAdjust="spacingAndGlyphs" textLength="97" x="1360.5" y="507.9482">Decomposing</text><text fill="#000000" font-family="sans-serif" font-size="14" lengthAdjust="spacingAndGlyphs" textLength="116" x="1351" y="524.2451">(actor=machine)</text><rect fill="#E8F0FE" height="52.5938" rx="12.5" ry="12.5" style="stroke: #555555; stroke-width: 1.5;" width="261" x="1214.5" y="636.9531"/><line style="stroke: #555555; stroke-width: 1.5;" x1="1214.5" x2="1475.5" y1="679.5469" y2="679.5469"/><text fill="#000000" font-family="sans-serif" font-size="14" lengthAdjust="spacingAndGlyphs" textLength="118" x="1286" y="654.9482">Awaiting Children</text><text fill="#000000" font-family="sans-serif" font-size="14" lengthAdjust="spacingAndGlyphs" textLength="241" x="1224.5" y="671.2451">(actor=none · blocked on children)</text><rect fill="#E8F0FE" height="52.5938" rx="12.5" ry="12.5" style="stroke: #555555; stroke-width: 1.5;" width="136" x="1234" y="766.9531"/><line style="stroke: #555555; stroke-width: 1.5;" x1="1234" x2="1370" y1="809.5469" y2="809.5469"/><text fill="#000000" font-family="sans-serif" font-size="14" lengthAdjust="spacingAndGlyphs" textLength="70" x="1267" y="784.9482">Evaluating</text><text fill="#000000" font-family="sans-serif" font-size="14" lengthAdjust="spacingAndGlyphs" textLength="116" x="1244" y="801.2451">(actor=machine)</text><path d="M1188,342.9531 L1188,398.3516 L1652,398.3516 L1652,352.9531 L1642,342.9531 L1188,342.9531 " fill="#FBFB77" style="stroke: #A80036; stroke-width: 1.0;"/><path d="M1642,342.9531 L1642,352.9531 L1652,352.9531 L1642,342.9531 " fill="#FBFB77" style="stroke: #A80036; stroke-width: 1.0;"/><text fill="#000000" font-family="sans-serif" font-size="13" font-weight="bold" lengthAdjust="spacingAndGlyphs" textLength="301" x="1194" y="360.02">ready &amp; in-progress are the SAME phase</text><text fill="#000000" font-family="sans-serif" font-size="13" lengthAdjust="spacingAndGlyphs" textLength="138" x="1499" y="360.02">— claim distinguishes</text><text fill="#000000" font-family="sans-serif" font-size="13" lengthAdjust="spacingAndGlyphs" textLength="437" x="1194" y="375.1528">queued vs active. Primitive: worker implements → engine.complete()</text><text fill="#000000" font-family="sans-serif" font-size="13" lengthAdjust="spacingAndGlyphs" textLength="382" x="1194" y="390.2856">→ adjudicate DoD (ENG-8); worker may NOT self-write done.</text><ellipse cx="106" cy="64.4531" fill="#000000" rx="10" ry="10" style="stroke: none; stroke-width: 1.0;"/><rect fill="#E8F0FE" height="52.5938" rx="12.5" ry="12.5" style="stroke: #555555; stroke-width: 1.5;" width="136" x="38" y="191.9531"/><line style="stroke: #555555; stroke-width: 1.5;" x1="38" x2="174" y1="234.5469" y2="234.5469"/><text fill="#000000" font-family="sans-serif" font-size="14" lengthAdjust="spacingAndGlyphs" textLength="33" x="89.5" y="209.9482">Draft</text><text fill="#000000" font-family="sans-serif" font-size="14" lengthAdjust="spacingAndGlyphs" textLength="116" x="48" y="226.2451">(actor=machine)</text><rect fill="#E8F0FE" height="52.5938" rx="12.5" ry="12.5" style="stroke: #555555; stroke-width: 1.5;" width="302" x="511" y="636.9531"/><line style="stroke: #555555; stroke-width: 1.5;" x1="511" x2="813" y1="679.5469" y2="679.5469"/><text fill="#000000" font-family="sans-serif" font-size="14" lengthAdjust="spacingAndGlyphs" textLength="43" x="640.5" y="654.9482">Ready</text><text fill="#000000" font-family="sans-serif" font-size="14" lengthAdjust="spacingAndGlyphs" textLength="282" x="521" y="671.2451">(actor=machine · claim = queued|active)</text><rect fill="#C8E6C9" height="52.5938" rx="12.5" ry="12.5" style="stroke: #555555; stroke-width: 1.5;" width="125" x="970.5" y="489.9531"/><line style="stroke: #555555; stroke-width: 1.5;" x1="970.5" x2="1095.5" y1="532.5469" y2="532.5469"/><text fill="#000000" font-family="sans-serif" font-size="14" lengthAdjust="spacingAndGlyphs" textLength="98" x="984" y="507.9482">Needs Human</text><text fill="#000000" font-family="sans-serif" font-size="14" lengthAdjust="spacingAndGlyphs" textLength="105" x="980.5" y="524.2451">(actor=human)</text><rect fill="#E0E0E0" height="52.5938" rx="12.5" ry="12.5" style="stroke: #555555; stroke-width: 1.5;" width="113" x="1245.5" y="898.9531"/><line style="stroke: #555555; stroke-width: 1.5;" x1="1245.5" x2="1358.5" y1="941.5469" y2="941.5469"/><text fill="#000000" font-family="sans-serif" font-size="14" lengthAdjust="spacingAndGlyphs" textLength="38" x="1283" y="916.9482">Done</text><text fill="#000000" font-family="sans-serif" font-size="14" lengthAdjust="spacingAndGlyphs" textLength="93" x="1255.5" y="933.2451">(actor=none)</text><ellipse cx="941" cy="1022.9531" fill="none" rx="10" ry="10" style="stroke: #000000; stroke-width: 1.0;"/><ellipse cx="941.5" cy="1023.4531" fill="#000000" rx="6" ry="6" style="stroke: none; stroke-width: 1.0;"/><path d="M151,28.9531 L151,99.4844 L713,99.4844 L713,38.9531 L703,28.9531 L151,28.9531 " fill="#FBFB77" style="stroke: #A80036; stroke-width: 1.0;"/><path d="M703,28.9531 L703,38.9531 L713,38.9531 L703,28.9531 " fill="#FBFB77" style="stroke: #A80036; stroke-width: 1.0;"/><text fill="#000000" font-family="sans-serif" font-size="13" font-weight="bold" lengthAdjust="spacingAndGlyphs" textLength="83" x="157" y="46.02">FOUR AXES</text><text fill="#000000" font-family="sans-serif" font-size="13" lengthAdjust="spacingAndGlyphs" textLength="312" x="244" y="46.02">— only (pipeline_id, phase) are STORED per task:</text><text fill="#000000" font-family="sans-serif" font-size="13" lengthAdjust="spacingAndGlyphs" textLength="395" x="157" y="61.1528">lane = pipeline_id (field) · phase = this diagram (bare name) ·</text><text fill="#000000" font-family="sans-serif" font-size="13" font-weight="bold" lengthAdjust="spacingAndGlyphs" textLength="146" x="157" y="76.2856">turn = actor(phase)</text><text fill="#000000" font-family="sans-serif" font-size="13" lengthAdjust="spacingAndGlyphs" textLength="319" x="307" y="76.2856">from pipeline-data (NOT a field) · claim = runtime.</text><text fill="#000000" font-family="sans-serif" font-size="13" lengthAdjust="spacingAndGlyphs" textLength="541" x="157" y="91.4185">Colour: blue = actor:machine · green = actor:human (your turn) · grey = actor:none.</text><path d="M748.5,36.9531 L748.5,92.3516 L1261.5,92.3516 L1261.5,46.9531 L1251.5,36.9531 L748.5,36.9531 " fill="#FBFB77" style="stroke: #A80036; stroke-width: 1.0;"/><path d="M1251.5,36.9531 L1251.5,46.9531 L1261.5,46.9531 L1251.5,36.9531 " fill="#FBFB77" style="stroke: #A80036; stroke-width: 1.0;"/><text fill="#000000" font-family="sans-serif" font-size="13" font-weight="bold" lengthAdjust="spacingAndGlyphs" textLength="216" x="754.5" y="54.02">CLAIM (runtime, Coordinator)</text><text fill="#000000" font-family="sans-serif" font-size="13" lengthAdjust="spacingAndGlyphs" textLength="191" x="974.5" y="54.02">— for actor=machine phases:</text><text fill="#000000" font-family="sans-serif" font-size="13" lengthAdjust="spacingAndGlyphs" textLength="464" x="754.5" y="69.1528">live claim ⇒ &#129302; active · no claim ⇒ ⏳ queued · stale claim ⇒ ⚠️ orphaned.</text><text fill="#000000" font-family="sans-serif" font-size="13" lengthAdjust="spacingAndGlyphs" textLength="492" x="754.5" y="84.2856">actor=human ⇒ &#128100; your turn. monitor picks up ONLY actor=machine phases.</text><path d="M1297,36.9531 L1297,92.3516 L1789,92.3516 L1789,46.9531 L1779,36.9531 L1297,36.9531 " fill="#FBFB77" style="stroke: #A80036; stroke-width: 1.0;"/><path d="M1779,36.9531 L1779,46.9531 L1789,46.9531 L1779,36.9531 " fill="#FBFB77" style="stroke: #A80036; stroke-width: 1.0;"/><text fill="#000000" font-family="sans-serif" font-size="13" font-weight="bold" lengthAdjust="spacingAndGlyphs" textLength="28" x="1303" y="54.02">role</text><text fill="#000000" font-family="sans-serif" font-size="13" lengthAdjust="spacingAndGlyphs" textLength="377" x="1335" y="54.02">derived from tree (ADR-011 D-1.1): leaf ⇒ primitive (Basic),</text><text fill="#000000" font-family="sans-serif" font-size="13" lengthAdjust="spacingAndGlyphs" textLength="471" x="1303" y="69.1528">has children ⇒ compound (Epic). Decomposing flips primitive→compound.</text><text fill="#000000" font-family="sans-serif" font-size="13" lengthAdjust="spacingAndGlyphs" textLength="443" x="1303" y="84.2856">role / turn / status all DERIVED; status = label(role, phase) for display.</text><!--MD5=[c437118b2706405049936a1b53a98f1f]
link *start to Draft--><path d="M106,74.5031 C106,96.1331 106,151.6031 106,186.7431 " fill="none" id="*start-&gt;Draft" style="stroke: #A80036; stroke-width: 1.0;"/><polygon fill="#A80036" points="106,191.7731,110,182.7731,106,186.7731,102,182.7731,106,191.7731" style="stroke: #A80036; stroke-width: 1.0;"/><text fill="#000000" font-family="sans-serif" font-size="13" lengthAdjust="spacingAndGlyphs" textLength="107" x="139.5" y="143.02">Human captures</text><text fill="#000000" font-family="sans-serif" font-size="13" lengthAdjust="spacingAndGlyphs" textLength="172" x="107" y="158.1528">(kind:feature / chore / epic)</text><!--MD5=[0a39d40658147ff76e67d9421d7d1d17]
link Draft to Refining--><path d="M106,245.2431 C106,270.9931 106,310.6231 106,338.1631 " fill="none" id="Draft-&gt;Refining" style="stroke: #A80036; stroke-width: 1.0;"/><polygon fill="#A80036" points="106,343.5031,110,334.5031,106,338.5031,102,334.5031,106,343.5031" style="stroke: #A80036; stroke-width: 1.0;"/><text fill="#000000" font-family="sans-serif" font-size="13" lengthAdjust="spacingAndGlyphs" textLength="251" x="107" y="288.02">scanner claims (basic-draft / epic-draft)</text><!--MD5=[e5015f88a935c1e17a80551faed46906]
link Refining to Backlog--><path d="M127.45,397.1931 C148.19,422.0731 179.57,459.7331 201.33,485.8431 " fill="none" id="Refining-&gt;Backlog" style="stroke: #A80036; stroke-width: 1.0;"/><polygon fill="#A80036" points="204.73,489.9331,202.0447,480.4574,201.5305,486.0908,195.897,485.5766,204.73,489.9331" style="stroke: #A80036; stroke-width: 1.0;"/><text fill="#000000" font-family="sans-serif" font-size="13" lengthAdjust="spacingAndGlyphs" textLength="72" x="317" y="441.02">refine done</text><text fill="#000000" font-family="sans-serif" font-size="13" lengthAdjust="spacingAndGlyphs" textLength="350" x="178" y="456.1528">(feature→Proposal+Plan / chore→checklist / epic→plan)</text><!--MD5=[f1356a6d5595d433e7704a758a5e6909]
link Backlog to Ready--><path d="M280.55,542.9631 C323.29,562.2831 384.58,588.5531 440,606.9531 C472.34,617.6931 507.94,627.4631 540.97,635.7131 " fill="none" id="Backlog-&gt;Ready" style="stroke: #A80036; stroke-width: 1.0;"/><polygon fill="#A80036" points="545.83,636.9231,538.0689,630.8597,540.9793,635.7104,536.1286,638.6209,545.83,636.9231" style="stroke: #A80036; stroke-width: 1.0;"/><text fill="#000000" font-family="sans-serif" font-size="13" font-weight="bold" lengthAdjust="spacingAndGlyphs" textLength="159" x="441" y="588.02">Human promote gate</text><text fill="#000000" font-family="sans-serif" font-size="13" lengthAdjust="spacingAndGlyphs" textLength="152" x="444.5" y="603.1528">(authoring → execution)</text><!--MD5=[845abe08caefc1dc75265307223b9fb8]
link Ready to chooseRole--><path d="M666.49,636.8131 C674.71,598.1831 696.04,525.7631 745,489.9531 C902.63,374.6731 985.72,447.7131 1180,427.9531 C1288.53,416.9131 1569.55,440.5131 1670,397.9531 C1678.16,394.4931 1685.51,387.7131 1690.77,381.8831 " fill="none" id="Ready-&gt;chooseRole" style="stroke: #A80036; stroke-width: 1.0;"/><polygon fill="#A80036" points="1694.06,378.0431,1685.1751,382.2926,1690.8143,381.8465,1691.2604,387.4857,1694.06,378.0431" style="stroke: #A80036; stroke-width: 1.0;"/><text fill="#000000" font-family="sans-serif" font-size="13" lengthAdjust="spacingAndGlyphs" textLength="51" x="823.5" y="513.52">scanner</text><text fill="#000000" font-family="sans-serif" font-size="13" lengthAdjust="spacingAndGlyphs" textLength="206" x="746" y="528.6528">(actor=machine ∧ no live claim)</text><!--MD5=[b4a88f05511dba2276d3f3e7acf0d4e5]
link chooseRole to Decomposing--><path d="M1693.95,377.7931 C1688.66,383.9631 1679.77,393.1031 1670,397.9531 C1603.63,430.8931 1572.48,395.2231 1506,427.9531 C1477.77,441.8531 1451.64,466.3831 1433.64,485.9431 " fill="none" id="chooseRole-&gt;Decomposing" style="stroke: #A80036; stroke-width: 1.0;"/><polygon fill="#A80036" points="1430.15,489.7931,1439.16,485.8157,1433.5098,486.0902,1433.2353,480.44,1430.15,489.7931" style="stroke: #A80036; stroke-width: 1.0;"/><text fill="#000000" font-family="sans-serif" font-size="13" lengthAdjust="spacingAndGlyphs" textLength="151" x="1507" y="448.52">role = compound (Epic)</text><!--MD5=[eb37f2d85ac20581f43851849516dd04]
link Decomposing to Awaiting--><path d="M1397.71,543.0431 C1386.76,567.8431 1370.15,605.4731 1358.51,631.8431 " fill="none" id="Decomposing-&gt;Awaiting" style="stroke: #A80036; stroke-width: 1.0;"/><polygon fill="#A80036" points="1356.4,636.6331,1363.6894,630.0101,1358.4161,632.0576,1356.3685,626.7843,1356.4,636.6331" style="stroke: #A80036; stroke-width: 1.0;"/><text fill="#000000" font-family="sans-serif" font-size="13" lengthAdjust="spacingAndGlyphs" textLength="250" x="1383" y="595.52">creates children (role stays compound)</text><!--MD5=[2fc301815b6941a8343d8919b7a860c3]
link Awaiting to Evaluating--><path d="M1336.4,690.0531 C1329.43,710.8031 1319.58,740.1131 1312.21,762.0531 " fill="none" id="Awaiting-&gt;Evaluating" style="stroke: #A80036; stroke-width: 1.0;"/><polygon fill="#A80036" points="1310.58,766.9031,1317.2536,759.66,1312.1826,762.1669,1309.6757,757.0959,1310.58,766.9031" style="stroke: #A80036; stroke-width: 1.0;"/><text fill="#000000" font-family="sans-serif" font-size="13" lengthAdjust="spacingAndGlyphs" textLength="225" x="1327" y="733.02">all children terminal (epic-eval-due)</text><!--MD5=[ec5ff9505715416389713469b98ca83e]
link Ready to GMN24--><path d="M655.2,636.7631 C643.8,587.1431 627.69,478.5731 689,427.9531 C727.13,396.4731 988.25,382.3931 1187.64,376.1931 " fill="none" id="Ready-GMN24" style="stroke: #A80036; stroke-width: 1.0; stroke-dasharray: 7.0,7.0;"/><!--MD5=[ee6557fb339c7b1f256a41898a310304]
link chooseRole to Done--><path d="M1697.39,381.2031 C1693.72,404.3931 1685,464.7131 1685,515.4531 C1685,515.4531 1685,515.4531 1685,794.4531 C1685,861.5031 1471.87,900.8631 1363.59,916.5331 " fill="none" id="chooseRole-&gt;Done" style="stroke: #A80036; stroke-width: 1.0;"/><polygon fill="#A80036" points="1358.51,917.2531,1367.9885,919.9287,1363.4589,916.54,1366.8475,912.0104,1358.51,917.2531" style="stroke: #A80036; stroke-width: 1.0;"/><text fill="#000000" font-family="sans-serif" font-size="13" lengthAdjust="spacingAndGlyphs" textLength="164" x="1686" y="668.02">role=primitive · DoD pass</text><!--MD5=[37f3a9e6de5394bc77c36374eef0ba83]
link chooseRole to NeedsHuman--><path d="M1694.05,378.0031 C1688.83,384.3331 1680.01,393.5931 1670,397.9531 C1518.73,463.8131 1461.73,395.3731 1300,427.9531 C1230.37,441.9831 1153.57,468.3531 1100.29,488.4931 " fill="none" id="chooseRole-&gt;NeedsHuman" style="stroke: #A80036; stroke-width: 1.0;"/><polygon fill="#A80036" points="1095.53,490.3031,1105.3635,490.8521,1100.2052,488.5303,1102.527,483.3719,1095.53,490.3031" style="stroke: #A80036; stroke-width: 1.0;"/><text fill="#000000" font-family="sans-serif" font-size="13" lengthAdjust="spacingAndGlyphs" textLength="152" x="1301" y="448.52">role=primitive · DoD fail</text><!--MD5=[b4504c4da29de42d68fc545d0c749f2f]
link Evaluating to Done--><path d="M1302,820.1331 C1302,841.2331 1302,871.1931 1302,893.5931 " fill="none" id="Evaluating-&gt;Done" style="stroke: #A80036; stroke-width: 1.0;"/><polygon fill="#A80036" points="1302,898.8231,1306,889.8231,1302,893.8231,1298,889.8231,1302,898.8231" style="stroke: #A80036; stroke-width: 1.0;"/><text fill="#000000" font-family="sans-serif" font-size="13" lengthAdjust="spacingAndGlyphs" textLength="83" x="1303" y="865.02">epic satisfied</text><!--MD5=[8e1429008ac25dd9db489d1a33c0e986]
link Evaluating to NeedsHuman--><path d="M1233.93,768.7731 C1193.88,751.9731 1144.66,725.9731 1111,689.9531 C1072.56,648.8131 1050.64,585.4831 1040.34,548.0931 " fill="none" id="Evaluating-&gt;NeedsHuman" style="stroke: #A80036; stroke-width: 1.0;"/><polygon fill="#A80036" points="1039.02,543.2131,1037.5241,552.9477,1040.3332,548.0376,1045.2433,550.8466,1039.02,543.2131" style="stroke: #A80036; stroke-width: 1.0;"/><text fill="#000000" font-family="sans-serif" font-size="13" lengthAdjust="spacingAndGlyphs" textLength="84" x="1112" y="668.02">epic escalate</text><!--MD5=[451c88173f4cc9ba52706f9216323081]
link NeedsHuman to Ready--><path d="M990.32,543.0131 C972.59,552.3231 951.42,561.8131 931,566.9531 C910.08,572.2131 756.41,565.5331 737,574.9531 C723.61,581.4431 700.46,609.9331 683.41,632.6631 " fill="none" id="NeedsHuman-&gt;Ready" style="stroke: #A80036; stroke-width: 1.0;"/><polygon fill="#A80036" points="680.31,636.8331,688.8907,631.9988,683.294,632.8212,682.4716,627.2244,680.31,636.8331" style="stroke: #A80036; stroke-width: 1.0;"/><text fill="#000000" font-family="sans-serif" font-size="13" lengthAdjust="spacingAndGlyphs" textLength="253" x="738" y="595.52">Human gate-review (approve / re-open)</text><!--MD5=[e00b0e448b98a8e3bcc1b3bec4b176cd]
link NeedsHuman to *end--><path d="M1022.56,542.9931 C998.58,601.8831 941.28,743.9131 937,766.9531 C930.75,800.6031 936.62,809.7331 937,843.9531 C937.68,904.7631 939.68,977.2431 940.57,1007.5331 " fill="none" id="NeedsHuman-&gt;*end" style="stroke: #A80036; stroke-width: 1.0;"/><polygon fill="#A80036" points="940.72,1012.6931,944.4613,1003.5826,940.5772,1007.6952,936.4646,1003.811,940.72,1012.6931" style="stroke: #A80036; stroke-width: 1.0;"/><text fill="#000000" font-family="sans-serif" font-size="13" lengthAdjust="spacingAndGlyphs" textLength="233" x="938" y="798.02">Human gate-review (reject / archive)</text><!--MD5=[a42de63a786df81771bbb4e49d521c78]
link Done to *end--><path d="M1245.2,941.4831 C1159.93,964.0331 1003.69,1005.3731 955.52,1018.1131 " fill="none" id="Done-&gt;*end" style="stroke: #A80036; stroke-width: 1.0;"/><polygon fill="#A80036" points="950.45,1019.4531,960.1762,1021.0027,955.2816,1018.1666,958.1177,1013.272,950.45,1019.4531" style="stroke: #A80036; stroke-width: 1.0;"/><!--MD5=[7b7f3bb5bc34867265d262e9f9a40a09]
@startuml epicd-workitem-state

skinparam backgroundColor #FFFFFF
skinparam shadowing false
skinparam state {
  BorderColor #555555
  BackgroundColor #E8F0FE
  BackgroundColor<<human>> #C8E6C9
  BackgroundColor<<terminal>> #E0E0E0
}

title epicd — Work-item lifecycle (phases; turn = actor(phase); lane = pipeline_id)

[*] - -> Draft : Human captures\n(kind:feature / chore / epic)

state "Authoring lane  (pipeline_id = authoring)" as Authoring {
  state "Draft\n(actor=machine)" as Draft
  state "Refining\n(actor=machine)" as Refining
  state "Backlog\n(actor=human · promote gate)" as Backlog <<human>>
  Draft - -> Refining : scanner claims (basic-draft / epic-draft)
  Refining - -> Backlog : refine done\n(feature→Proposal+Plan / chore→checklist / epic→plan)
  note right of Refining
    Routed by **kind** → RefineStrategy (pure step fn).
    Review cycle N is strategy-internal (Task.refine_log),
    surfaced via Coordinator runtime-fact — NOT a phase.
  end note
}

Backlog - -> Ready : **Human promote gate**\n(authoring → execution)

state "Execution lane  (pipeline_id = execution)" as Execution {
  state chooseRole <<choice>>
  state "Ready\n(actor=machine · claim = queued|active)" as Ready
  state "Decomposing\n(actor=machine)" as Decomposing
  state "Awaiting Children\n(actor=none · blocked on children)" as Awaiting
  state "Evaluating\n(actor=machine)" as Evaluating
  Ready - -> chooseRole : scanner\n(actor=machine ∧ no live claim)
  chooseRole - -> Decomposing : role = compound (Epic)
  Decomposing - -> Awaiting : creates children (role stays compound)
  Awaiting - -> Evaluating : all children terminal (epic-eval-due)
  note bottom of Ready
    **ready & in-progress are the SAME phase** — claim distinguishes
    queued vs active. Primitive: worker implements → engine.complete()
    → adjudicate DoD (ENG-8); worker may NOT self-write done.
  end note
}

state "Needs Human\n(actor=human)" as NeedsHuman <<human>>
state "Done\n(actor=none)" as Done <<terminal>>

chooseRole - -> Done : role=primitive · DoD pass
chooseRole - -> NeedsHuman : role=primitive · DoD fail
Evaluating - -> Done : epic satisfied
Evaluating - -> NeedsHuman : epic escalate

NeedsHuman - -> Ready : Human gate-review (approve / re-open)
NeedsHuman - -> [*] : Human gate-review (reject / archive)
Done - -> [*]

note as N_axes
  **FOUR AXES** — only (pipeline_id, phase) are STORED per task:
  lane = pipeline_id (field) · phase = this diagram (bare name) ·
  **turn = actor(phase)** from pipeline-data (NOT a field) · claim = runtime.
  Colour: blue = actor:machine · green = actor:human (your turn) · grey = actor:none.
end note
note as N_claim
  **CLAIM (runtime, Coordinator)** — for actor=machine phases:
  live claim ⇒ 🤖 active · no claim ⇒ ⏳ queued · stale claim ⇒ ⚠️ orphaned.
  actor=human ⇒ 👤 your turn. monitor picks up ONLY actor=machine phases.
end note
note as N_role
  **role** derived from tree (ADR-011 D-1.1): leaf ⇒ primitive (Basic),
  has children ⇒ compound (Epic). Decomposing flips primitive→compound.
  role / turn / status all DERIVED; status = label(role, phase) for display.
end note

@enduml

PlantUML version 1.2020.02(Sun Mar 01 10:22:07 UTC 2020)
(GPL source distribution)
Java Runtime: OpenJDK Runtime Environment
JVM: OpenJDK 64-Bit Server VM
Java Version: 21.0.11+10-1-22.04.2-Ubuntu
Operating System: Linux
Default Encoding: UTF-8
Language: en
Country: null
--></g></svg>