<?xml version="1.0" encoding="UTF-8" standalone="no"?><svg xmlns="http://www.w3.org/2000/svg" xmlns:xlink="http://www.w3.org/1999/xlink" contentScriptType="application/ecmascript" contentStyleType="text/css" height="761px" preserveAspectRatio="none" style="width:1571px;height:761px;" version="1.1" viewBox="0 0 1571 761" width="1571px" zoomAndPan="magnify"><defs/><g><text fill="#000000" font-family="sans-serif" font-size="18" lengthAdjust="spacingAndGlyphs" textLength="716" x="426.5" y="26.708">epicd — Human operation set (you are the gate owner; you act only on &#128100; rows)</text><ellipse cx="766.5" cy="40.9531" fill="#000000" rx="10" ry="10" style="stroke: none; stroke-width: 1.0;"/><path d="M942.5,60.9531 L942.5,84.6523 L922.5,88.6523 L942.5,92.6523 L942.5,116.3516 A0,0 0 0 0 942.5,116.3516 L1178.5,116.3516 A0,0 0 0 0 1178.5,116.3516 L1178.5,70.9531 L1168.5,60.9531 L942.5,60.9531 A0,0 0 0 0 942.5,60.9531 " fill="#FBFB77" style="stroke: #A80036; stroke-width: 1.0;"/><path d="M1168.5,60.9531 L1168.5,70.9531 L1178.5,70.9531 L1168.5,60.9531 " fill="#FBFB77" style="stroke: #A80036; stroke-width: 1.0;"/><text fill="#000000" font-family="sans-serif" font-size="13" lengthAdjust="spacingAndGlyphs" textLength="215" x="948.5" y="78.02">Each row shows a driver indicator:</text><text fill="#000000" font-family="sans-serif" font-size="13" lengthAdjust="spacingAndGlyphs" textLength="207" x="948.5" y="93.1528">&#128100; your turn · &#129302; engine working ·</text><text fill="#000000" font-family="sans-serif" font-size="13" lengthAdjust="spacingAndGlyphs" textLength="213" x="948.5" y="108.2856">⏳ queued · ⚠️ orphaned · ✓ done</text><rect fill="#C8E6C9" height="33.9688" rx="12.5" ry="12.5" style="stroke: #555555; stroke-width: 1.5;" width="312" x="610.5" y="71.668"/><text fill="#000000" font-family="sans-serif" font-size="12" lengthAdjust="spacingAndGlyphs" textLength="58" x="620.5" y="92.8066">Open the</text><text fill="#000000" font-family="sans-serif" font-size="12" font-weight="bold" lengthAdjust="spacingAndGlyphs" textLength="140" x="682.5" y="92.8066">multi-lane issue-list</text><text fill="#000000" font-family="sans-serif" font-size="12" lengthAdjust="spacingAndGlyphs" textLength="86" x="826.5" y="92.8066">(primary view)</text><path d="M950.5,147.7539 L950.5,156.3203 L930.5,160.3203 L950.5,164.3203 L950.5,172.8867 A0,0 0 0 0 950.5,172.8867 L1321.5,172.8867 A0,0 0 0 0 1321.5,172.8867 L1321.5,157.7539 L1311.5,147.7539 L950.5,147.7539 A0,0 0 0 0 950.5,147.7539 " fill="#FBFB77" style="stroke: #A80036; stroke-width: 1.0;"/><path d="M1311.5,147.7539 L1311.5,157.7539 L1321.5,157.7539 L1311.5,147.7539 " fill="#FBFB77" style="stroke: #A80036; stroke-width: 1.0;"/><text fill="#000000" font-family="sans-serif" font-size="13" lengthAdjust="spacingAndGlyphs" textLength="53" x="956.5" y="164.8208">lands as</text><text fill="#000000" font-family="sans-serif" font-size="13" font-weight="bold" lengthAdjust="spacingAndGlyphs" textLength="38" x="1013.5" y="164.8208">Draft</text><text fill="#000000" font-family="sans-serif" font-size="13" lengthAdjust="spacingAndGlyphs" textLength="251" x="1055.5" y="164.8208">(Authoring lane) → engine refines it (&#129302;)</text><rect fill="#C8E6C9" height="47.9375" rx="12.5" ry="12.5" style="stroke: #555555; stroke-width: 1.5;" width="328" x="602.5" y="136.3516"/><text fill="#000000" font-family="sans-serif" font-size="12" font-weight="bold" lengthAdjust="spacingAndGlyphs" textLength="57" x="612.5" y="157.4902">Capture</text><text fill="#000000" font-family="sans-serif" font-size="12" lengthAdjust="spacingAndGlyphs" textLength="247" x="673.5" y="157.4902">a work-item whenever you have an idea</text><text fill="#000000" font-family="sans-serif" font-size="12" lengthAdjust="spacingAndGlyphs" textLength="285" x="612.5" y="171.459">(one-line intent + kind: feature / chore / epic)</text><rect fill="#C8E6C9" height="33.9688" rx="12.5" ry="12.5" style="stroke: #555555; stroke-width: 1.5;" width="301.375" x="615.8125" y="248.2891"/><text fill="#000000" font-family="sans-serif" font-size="12" lengthAdjust="spacingAndGlyphs" textLength="118" x="625.8125" y="269.4277">Scan the board for</text><text fill="#000000" font-family="sans-serif" font-size="12" font-weight="bold" lengthAdjust="spacingAndGlyphs" textLength="51.375" x="747.8125" y="269.4277">&#128100; rows</text><text fill="#000000" font-family="sans-serif" font-size="12" lengthAdjust="spacingAndGlyphs" textLength="104" x="803.1875" y="269.4277">(actor = human)</text><polygon fill="#FFE0B2" points="128,302.2578,195,302.2578,207,314.2578,195,326.2578,128,326.2578,116,314.2578,128,302.2578" style="stroke: #A80036; stroke-width: 1.5;"/><text fill="#000000" font-family="sans-serif" font-size="11" lengthAdjust="spacingAndGlyphs" textLength="104" x="165.5" y="336.4683">Backlog · promote</text><text fill="#000000" font-family="sans-serif" font-size="11" lengthAdjust="spacingAndGlyphs" textLength="67" x="128" y="318.0659">which gate?</text><path d="M333,362.8984 L333,379.0313 L313,383.0313 L333,387.0313 L333,403.1641 A0,0 0 0 0 333,403.1641 L583,403.1641 A0,0 0 0 0 583,403.1641 L583,372.8984 L573,362.8984 L333,362.8984 A0,0 0 0 0 333,362.8984 " fill="#FBFB77" style="stroke: #A80036; stroke-width: 1.0;"/><path d="M573,362.8984 L573,372.8984 L583,372.8984 L573,362.8984 " fill="#FBFB77" style="stroke: #A80036; stroke-width: 1.0;"/><text fill="#000000" font-family="sans-serif" font-size="13" lengthAdjust="spacingAndGlyphs" textLength="126" x="339" y="379.9653">*"should we do it?"*</text><text fill="#000000" font-family="sans-serif" font-size="13" lengthAdjust="spacingAndGlyphs" textLength="229" x="339" y="395.0981">approve → engine executes (Ready)</text><rect fill="#C8E6C9" height="47.9375" rx="12.5" ry="12.5" style="stroke: #555555; stroke-width: 1.5;" width="303" x="10" y="359.0625"/><text fill="#000000" font-family="sans-serif" font-size="12" font-weight="bold" lengthAdjust="spacingAndGlyphs" textLength="97" x="20" y="380.2012">Promote gate</text><text fill="#000000" font-family="sans-serif" font-size="12" lengthAdjust="spacingAndGlyphs" textLength="283" x="20" y="394.1699">read Proposal / Plan → approve / hold / reject</text><polygon fill="#FFE0B2" points="651.5,302.2578,780.5,302.2578,792.5,314.2578,780.5,326.2578,651.5,326.2578,639.5,314.2578,651.5,302.2578" style="stroke: #A80036; stroke-width: 1.5;"/><text fill="#000000" font-family="sans-serif" font-size="11" lengthAdjust="spacingAndGlyphs" textLength="129" x="651.5" y="318.0659">Needs Human · review</text><path d="M859,350.0938 L859,366.2266 L839,370.2266 L859,374.2266 L859,390.3594 A0,0 0 0 0 859,390.3594 L1090,390.3594 A0,0 0 0 0 1090,390.3594 L1090,360.0938 L1080,350.0938 L859,350.0938 A0,0 0 0 0 859,350.0938 " fill="#FBFB77" style="stroke: #A80036; stroke-width: 1.0;"/><path d="M1080,350.0938 L1080,360.0938 L1090,360.0938 L1080,350.0938 " fill="#FBFB77" style="stroke: #A80036; stroke-width: 1.0;"/><text fill="#000000" font-family="sans-serif" font-size="13" lengthAdjust="spacingAndGlyphs" textLength="210" x="865" y="367.1606">*"is it done right?"* + exceptions</text><text fill="#000000" font-family="sans-serif" font-size="13" lengthAdjust="spacingAndGlyphs" textLength="158" x="865" y="382.2935">(DoD-fail / epic-escalate)</text><rect fill="#C8E6C9" height="47.9375" rx="12.5" ry="12.5" style="stroke: #555555; stroke-width: 1.5;" width="246" x="593" y="346.2578"/><text fill="#000000" font-family="sans-serif" font-size="12" font-weight="bold" lengthAdjust="spacingAndGlyphs" textLength="86" x="603" y="367.3965">Gate-review</text><text fill="#000000" font-family="sans-serif" font-size="12" lengthAdjust="spacingAndGlyphs" textLength="43" x="693" y="367.3965">(inline)</text><text fill="#000000" font-family="sans-serif" font-size="12" lengthAdjust="spacingAndGlyphs" textLength="226" x="603" y="381.3652">approve / re-open · reject · escalate</text><polygon fill="#FFE0B2" points="1173,302.2578,1241,302.2578,1253,314.2578,1241,326.2578,1173,326.2578,1161,314.2578,1173,302.2578" style="stroke: #A80036; stroke-width: 1.5;"/><text fill="#000000" font-family="sans-serif" font-size="11" lengthAdjust="spacingAndGlyphs" textLength="68" x="1173" y="318.0659">⚠️ orphaned</text><text fill="#000000" font-family="sans-serif" font-size="11" lengthAdjust="spacingAndGlyphs" textLength="77" x="1253" y="311.6636">none pending</text><rect fill="#C8E6C9" height="47.9375" rx="12.5" ry="12.5" style="stroke: #555555; stroke-width: 1.5;" width="194" x="1110" y="346.2578"/><text fill="#000000" font-family="sans-serif" font-size="12" font-weight="bold" lengthAdjust="spacingAndGlyphs" textLength="53" x="1120" y="367.3965">Restart</text><text fill="#000000" font-family="sans-serif" font-size="12" lengthAdjust="spacingAndGlyphs" textLength="82" x="1177" y="367.3965">the stale row</text><text fill="#000000" font-family="sans-serif" font-size="12" lengthAdjust="spacingAndGlyphs" textLength="174" x="1120" y="381.3652">(crashed claim — re-queue)</text><rect fill="#C8E6C9" height="47.9375" rx="12.5" ry="12.5" style="stroke: #555555; stroke-width: 1.5;" width="209" x="1324" y="355.6602"/><text fill="#000000" font-family="sans-serif" font-size="12" font-weight="bold" lengthAdjust="spacingAndGlyphs" textLength="59" x="1334" y="376.7988">Observe</text><text fill="#000000" font-family="sans-serif" font-size="12" lengthAdjust="spacingAndGlyphs" textLength="69" x="1397" y="376.7988">&#129302; / ⏳ rows</text><text fill="#000000" font-family="sans-serif" font-size="12" lengthAdjust="spacingAndGlyphs" textLength="189" x="1334" y="390.7676">engine self-drives — no action</text><polygon fill="#FFE0B2" points="766.5,204.2891,778.5,216.2891,766.5,228.2891,754.5,216.2891,766.5,204.2891" style="stroke: #A80036; stroke-width: 1.5;"/><polygon fill="#FFE0B2" points="726,447,807,447,819,459,807,471,726,471,714,459,726,447" style="stroke: #A80036; stroke-width: 1.5;"/><text fill="#000000" font-family="sans-serif" font-size="11" lengthAdjust="spacingAndGlyphs" textLength="81" x="726" y="462.8081">keep working?</text><text fill="#000000" font-family="sans-serif" font-size="11" lengthAdjust="spacingAndGlyphs" textLength="20" x="819" y="456.4058">yes</text><ellipse cx="766.5" cy="523.3989" fill="#FFFFFF" rx="11" ry="11" style="stroke: #000000; stroke-width: 1.0;"/><ellipse cx="766.5" cy="523.3989" fill="#000000" rx="6" ry="6" style="stroke: #7F7F7F; stroke-width: 1.0;"/><line style="stroke: #A80036; stroke-width: 1.5;" x1="766.5" x2="766.5" y1="50.9531" y2="71.668"/><polygon fill="#A80036" points="762.5,61.668,766.5,71.668,770.5,61.668,766.5,65.668" style="stroke: #A80036; stroke-width: 1.0;"/><line style="stroke: #A80036; stroke-width: 1.5;" x1="766.5" x2="766.5" y1="105.6367" y2="136.3516"/><polygon fill="#A80036" points="762.5,126.3516,766.5,136.3516,770.5,126.3516,766.5,130.3516" style="stroke: #A80036; stroke-width: 1.0;"/><line style="stroke: #A80036; stroke-width: 1.5;" x1="161.5" x2="161.5" y1="326.2578" y2="359.0625"/><polygon fill="#A80036" points="157.5,349.0625,161.5,359.0625,165.5,349.0625,161.5,353.0625" style="stroke: #A80036; stroke-width: 1.0;"/><line style="stroke: #A80036; stroke-width: 1.5;" x1="161.5" x2="161.5" y1="407" y2="427"/><polygon fill="#A80036" points="157.5,417,161.5,427,165.5,417,161.5,421" style="stroke: #A80036; stroke-width: 1.0;"/><line style="stroke: #A80036; stroke-width: 1.5;" x1="716" x2="716" y1="326.2578" y2="346.2578"/><polygon fill="#A80036" points="712,336.2578,716,346.2578,720,336.2578,716,340.2578" style="stroke: #A80036; stroke-width: 1.0;"/><line style="stroke: #A80036; stroke-width: 1.5;" x1="716" x2="716" y1="394.1953" y2="427"/><polygon fill="#A80036" points="712,417,716,427,720,417,716,421" style="stroke: #A80036; stroke-width: 1.0;"/><line style="stroke: #A80036; stroke-width: 1.5;" x1="1207" x2="1207" y1="326.2578" y2="346.2578"/><polygon fill="#A80036" points="1203,336.2578,1207,346.2578,1211,336.2578,1207,340.2578" style="stroke: #A80036; stroke-width: 1.0;"/><line style="stroke: #A80036; stroke-width: 1.5;" x1="1207" x2="1207" y1="394.1953" y2="427"/><polygon fill="#A80036" points="1203,417,1207,427,1211,417,1207,421" style="stroke: #A80036; stroke-width: 1.0;"/><line style="stroke: #A80036; stroke-width: 1.5;" x1="207" x2="639.5" y1="314.2578" y2="314.2578"/><polygon fill="#A80036" points="629.5,310.2578,639.5,314.2578,629.5,318.2578,633.5,314.2578" style="stroke: #A80036; stroke-width: 1.0;"/><line style="stroke: #A80036; stroke-width: 1.5;" x1="792.5" x2="1161" y1="314.2578" y2="314.2578"/><polygon fill="#A80036" points="1151,310.2578,1161,314.2578,1151,318.2578,1155,314.2578" style="stroke: #A80036; stroke-width: 1.0;"/><line style="stroke: #A80036; stroke-width: 1.5;" x1="766.5" x2="766.5" y1="282.2578" y2="287.2578"/><line style="stroke: #A80036; stroke-width: 1.5;" x1="766.5" x2="161.5" y1="287.2578" y2="287.2578"/><line style="stroke: #A80036; stroke-width: 1.5;" x1="161.5" x2="161.5" y1="287.2578" y2="302.2578"/><polygon fill="#A80036" points="157.5,292.2578,161.5,302.2578,165.5,292.2578,161.5,296.2578" style="stroke: #A80036; stroke-width: 1.0;"/><line style="stroke: #A80036; stroke-width: 1.5;" x1="1253" x2="1428.5" y1="314.2578" y2="314.2578"/><line style="stroke: #A80036; stroke-width: 1.5;" x1="1428.5" x2="1428.5" y1="314.2578" y2="355.6602"/><polygon fill="#A80036" points="1424.5,345.6602,1428.5,355.6602,1432.5,345.6602,1428.5,349.6602" style="stroke: #A80036; stroke-width: 1.0;"/><line style="stroke: #A80036; stroke-width: 1.5;" x1="1428.5" x2="1428.5" y1="403.5977" y2="427"/><polygon fill="#A80036" points="1424.5,417,1428.5,427,1432.5,417,1428.5,421" style="stroke: #A80036; stroke-width: 1.0;"/><line style="stroke: #A80036; stroke-width: 1.5;" x1="161.5" x2="1428.5" y1="427" y2="427"/><line style="stroke: #A80036; stroke-width: 1.5;" x1="766.5" x2="766.5" y1="228.2891" y2="248.2891"/><polygon fill="#A80036" points="762.5,238.2891,766.5,248.2891,770.5,238.2891,766.5,242.2891" style="stroke: #A80036; stroke-width: 1.0;"/><line style="stroke: #A80036; stroke-width: 1.5;" x1="819" x2="1545" y1="459" y2="459"/><polygon fill="#A80036" points="1541,355.1445,1545,345.1445,1549,355.1445,1545,351.1445" style="stroke: #A80036; stroke-width: 1.5;"/><line style="stroke: #A80036; stroke-width: 1.5;" x1="1545" x2="1545" y1="216.2891" y2="459"/><line style="stroke: #A80036; stroke-width: 1.5;" x1="1545" x2="778.5" y1="216.2891" y2="216.2891"/><polygon fill="#A80036" points="788.5,212.2891,778.5,216.2891,788.5,220.2891,784.5,216.2891" style="stroke: #A80036; stroke-width: 1.0;"/><line style="stroke: #A80036; stroke-width: 1.5;" x1="766.5" x2="766.5" y1="427" y2="447"/><polygon fill="#A80036" points="762.5,437,766.5,447,770.5,437,766.5,441" style="stroke: #A80036; stroke-width: 1.0;"/><line style="stroke: #A80036; stroke-width: 1.5;" x1="766.5" x2="766.5" y1="184.2891" y2="204.2891"/><polygon fill="#A80036" points="762.5,194.2891,766.5,204.2891,770.5,194.2891,766.5,198.2891" style="stroke: #A80036; stroke-width: 1.0;"/><line style="stroke: #A80036; stroke-width: 1.5;" x1="766.5" x2="766.5" y1="471" y2="512.3989"/><polygon fill="#A80036" points="762.5,502.3989,766.5,512.3989,770.5,502.3989,766.5,506.3989" style="stroke: #A80036; stroke-width: 1.0;"/><text fill="#000000" font-family="sans-serif" font-size="11" lengthAdjust="spacingAndGlyphs" textLength="14" x="770.5" y="492.3047">no</text><rect fill="#DDDDDD" height="209.5625" rx="5" ry="5" style="stroke: #000000; stroke-width: 1.0;" width="617" x="933" y="541.3989"/><text fill="#000000" font-family="sans-serif" font-size="14" font-weight="bold" lengthAdjust="spacingAndGlyphs" textLength="78" x="944" y="561.394">Operation</text><text fill="#000000" font-family="sans-serif" font-size="14" font-weight="bold" lengthAdjust="spacingAndGlyphs" textLength="93" x="1109" y="561.394">When (row)</text><text fill="#000000" font-family="sans-serif" font-size="14" font-weight="bold" lengthAdjust="spacingAndGlyphs" textLength="66" x="1243" y="561.394">Meaning</text><text fill="#000000" font-family="sans-serif" font-size="14" lengthAdjust="spacingAndGlyphs" textLength="0" x="943" y="577.6909"/><text fill="#000000" font-family="sans-serif" font-size="14" font-weight="bold" lengthAdjust="spacingAndGlyphs" textLength="126" x="943" y="577.6909">Capture / intake</text><text fill="#000000" font-family="sans-serif" font-size="14" lengthAdjust="spacingAndGlyphs" textLength="0" x="1073" y="577.6909"/><text fill="#000000" font-family="sans-serif" font-size="14" lengthAdjust="spacingAndGlyphs" textLength="58" x="1108" y="577.6909">any time</text><text fill="#000000" font-family="sans-serif" font-size="14" lengthAdjust="spacingAndGlyphs" textLength="286" x="1242" y="577.6909">start a work-item (→ Draft; engine refines)</text><text fill="#000000" font-family="sans-serif" font-size="14" lengthAdjust="spacingAndGlyphs" textLength="0" x="943" y="593.9878"/><text fill="#000000" font-family="sans-serif" font-size="14" font-weight="bold" lengthAdjust="spacingAndGlyphs" textLength="107" x="943" y="593.9878">Promote gate</text><text fill="#000000" font-family="sans-serif" font-size="14" lengthAdjust="spacingAndGlyphs" textLength="0" x="1054" y="593.9878"/><text fill="#000000" font-family="sans-serif" font-size="14" lengthAdjust="spacingAndGlyphs" textLength="83" x="1108" y="593.9878">Backlog (&#128100;)</text><text fill="#000000" font-family="sans-serif" font-size="14" lengthAdjust="spacingAndGlyphs" textLength="285" x="1242" y="593.9878">authorize execution — *should we do it?*</text><text fill="#000000" font-family="sans-serif" font-size="14" lengthAdjust="spacingAndGlyphs" textLength="0" x="943" y="610.2847"/><text fill="#000000" font-family="sans-serif" font-size="14" font-weight="bold" lengthAdjust="spacingAndGlyphs" textLength="97" x="943" y="610.2847">Gate-review</text><text fill="#000000" font-family="sans-serif" font-size="14" lengthAdjust="spacingAndGlyphs" textLength="0" x="1044" y="610.2847"/><text fill="#000000" font-family="sans-serif" font-size="14" lengthAdjust="spacingAndGlyphs" textLength="126" x="1108" y="610.2847">Needs Human (&#128100;)</text><text fill="#000000" font-family="sans-serif" font-size="14" lengthAdjust="spacingAndGlyphs" textLength="294" x="1242" y="610.2847">*is it done right?* + exception adjudication</text><text fill="#000000" font-family="sans-serif" font-size="14" lengthAdjust="spacingAndGlyphs" textLength="50" x="943" y="626.5815">Restart</text><text fill="#000000" font-family="sans-serif" font-size="14" lengthAdjust="spacingAndGlyphs" textLength="84" x="1108" y="626.5815">⚠️ orphaned</text><text fill="#000000" font-family="sans-serif" font-size="14" lengthAdjust="spacingAndGlyphs" textLength="165" x="1242" y="626.5815">re-queue a crashed row</text><text fill="#000000" font-family="sans-serif" font-size="14" lengthAdjust="spacingAndGlyphs" textLength="83" x="943" y="642.8784">Priority (opt)</text><text fill="#000000" font-family="sans-serif" font-size="14" lengthAdjust="spacingAndGlyphs" textLength="24" x="1108" y="642.8784">any</text><text fill="#000000" font-family="sans-serif" font-size="14" lengthAdjust="spacingAndGlyphs" textLength="298" x="1242" y="642.8784">intra-lane sort only — does not change flow</text><text fill="#000000" font-family="sans-serif" font-size="14" lengthAdjust="spacingAndGlyphs" textLength="106" x="943" y="659.1753">Label filter (opt)</text><text fill="#000000" font-family="sans-serif" font-size="14" lengthAdjust="spacingAndGlyphs" textLength="24" x="1108" y="659.1753">any</text><text fill="#000000" font-family="sans-serif" font-size="14" lengthAdjust="spacingAndGlyphs" textLength="230" x="1242" y="659.1753">orthogonal OR — narrow the view</text><text fill="#000000" font-family="sans-serif" font-size="14" lengthAdjust="spacingAndGlyphs" textLength="157" x="943" y="675.4722">Config pipelines[] (opt)</text><text fill="#000000" font-family="sans-serif" font-size="14" lengthAdjust="spacingAndGlyphs" textLength="27" x="1108" y="675.4722">rare</text><text fill="#000000" font-family="sans-serif" font-size="14" lengthAdjust="spacingAndGlyphs" textLength="281" x="1242" y="675.4722">add / remove a lane; set per-phase actor</text><text fill="#000000" font-family="sans-serif" font-size="14" lengthAdjust="spacingAndGlyphs" textLength="156" x="943" y="691.769">Trust ratchet (opt · E6)</text><text fill="#000000" font-family="sans-serif" font-size="14" lengthAdjust="spacingAndGlyphs" textLength="58" x="1108" y="691.769">per gate</text><text fill="#000000" font-family="sans-serif" font-size="14" lengthAdjust="spacingAndGlyphs" textLength="181" x="1242" y="691.769">ask-me → sampled → auto</text><line style="stroke: #000000; stroke-width: 1.0;" x1="939" x2="1544" y1="548.3989" y2="548.3989"/><line style="stroke: #000000; stroke-width: 1.0;" x1="939" x2="1544" y1="564.6958" y2="564.6958"/><line style="stroke: #000000; stroke-width: 1.0;" x1="939" x2="1544" y1="580.9927" y2="580.9927"/><line style="stroke: #000000; stroke-width: 1.0;" x1="939" x2="1544" y1="597.2896" y2="597.2896"/><line style="stroke: #000000; stroke-width: 1.0;" x1="939" x2="1544" y1="613.5864" y2="613.5864"/><line style="stroke: #000000; stroke-width: 1.0;" x1="939" x2="1544" y1="629.8833" y2="629.8833"/><line style="stroke: #000000; stroke-width: 1.0;" x1="939" x2="1544" y1="646.1802" y2="646.1802"/><line style="stroke: #000000; stroke-width: 1.0;" x1="939" x2="1544" y1="662.4771" y2="662.4771"/><line style="stroke: #000000; stroke-width: 1.0;" x1="939" x2="1544" y1="678.7739" y2="678.7739"/><line style="stroke: #000000; stroke-width: 1.0;" x1="939" x2="1544" y1="695.0708" y2="695.0708"/><line style="stroke: #000000; stroke-width: 1.0;" x1="939" x2="939" y1="548.3989" y2="695.0708"/><line style="stroke: #000000; stroke-width: 1.0;" x1="1104" x2="1104" y1="548.3989" y2="695.0708"/><line style="stroke: #000000; stroke-width: 1.0;" x1="1238" x2="1238" y1="548.3989" y2="695.0708"/><line style="stroke: #000000; stroke-width: 1.0;" x1="1544" x2="1544" y1="548.3989" y2="695.0708"/><text fill="#000000" font-family="sans-serif" font-size="14" lengthAdjust="spacingAndGlyphs" textLength="8" x="939" y="710.0659">..</text><text fill="#000000" font-family="sans-serif" font-size="14" font-weight="bold" lengthAdjust="spacingAndGlyphs" textLength="74" x="939" y="726.3628">Invariant:</text><text fill="#000000" font-family="sans-serif" font-size="14" lengthAdjust="spacingAndGlyphs" textLength="481" x="1017" y="726.3628">human touchpoints = actor=human phases (Backlog, Needs-Human)</text><text fill="#000000" font-family="sans-serif" font-size="14" lengthAdjust="spacingAndGlyphs" textLength="571" x="939" y="742.6597">+ capture. You own DECISIONS (do it? / done right?); the engine owns EXECUTION.</text><!--MD5=[6d5206aa6ccd976102dd67db9cd34139]
@startuml epicd-human-operations

skinparam backgroundColor #FFFFFF
skinparam shadowing false
skinparam activity {
  BorderColor #555555
  BackgroundColor #C8E6C9
  DiamondBackgroundColor #FFE0B2
}

title epicd — Human operation set (you are the gate owner; you act only on 👤 rows)

start
:Open the **multi-lane issue-list** (primary view);
note right
  Each row shows a driver indicator:
  👤 your turn · 🤖 engine working ·
  ⏳ queued · ⚠️ orphaned · ✓ done
end note
:**Capture** a work-item whenever you have an idea\n(one-line intent + kind: feature / chore / epic);
note right: lands as **Draft** (Authoring lane) → engine refines it (🤖)

repeat
  :Scan the board for **👤 rows** (actor = human);
  if (which gate?) then (Backlog · promote)
    :**Promote gate**\nread Proposal / Plan → approve / hold / reject;
    note right: *"should we do it?"*\napprove → engine executes (Ready)
  elseif (Needs Human · review) then
    :**Gate-review** (inline)\napprove / re-open · reject · escalate;
    note right: *"is it done right?"* + exceptions\n(DoD-fail / epic-escalate)
  elseif (⚠️ orphaned) then
    :**Restart** the stale row\n(crashed claim — re-queue);
  else (none pending)
    :**Observe** 🤖 / ⏳ rows\nengine self-drives — no action;
  endif
repeat while (keep working?) is (yes)
->no;
stop

legend right
  |= Operation |= When (row) |= Meaning |
  | **Capture / intake** | any time | start a work-item (→ Draft; engine refines) |
  | **Promote gate** | Backlog (👤) | authorize execution — *should we do it?* |
  | **Gate-review** | Needs Human (👤) | *is it done right?* + exception adjudication |
  | Restart | ⚠️ orphaned | re-queue a crashed row |
  | Priority (opt) | any | intra-lane sort only — does not change flow |
  | Label filter (opt) | any | orthogonal OR — narrow the view |
  | Config pipelines[] (opt) | rare | add / remove a lane; set per-phase actor |
  | Trust ratchet (opt · E6) | per gate | ask-me → sampled → auto |
  ..
  **Invariant:** human touchpoints = actor=human phases (Backlog, Needs-Human)
  + capture. You own DECISIONS (do it? / done right?); the engine owns EXECUTION.
endlegend

@enduml

PlantUML version 1.2020.02(Sun Mar 01 10:22:07 UTC 2020)
(GPL source distribution)
Java Runtime: OpenJDK Runtime Environment
JVM: OpenJDK 64-Bit Server VM
Java Version: 21.0.11+10-1-22.04.2-Ubuntu
Operating System: Linux
Default Encoding: UTF-8
Language: en
Country: null
--></g></svg>