<?xml version="1.0" encoding="UTF-8" standalone="no"?><svg xmlns="http://www.w3.org/2000/svg" xmlns:xlink="http://www.w3.org/1999/xlink" contentScriptType="application/ecmascript" contentStyleType="text/css" height="823px" preserveAspectRatio="none" style="width:2392px;height:823px;" version="1.1" viewBox="0 0 2392 823" width="2392px" zoomAndPan="magnify"><defs/><g><text fill="#000000" font-family="sans-serif" font-size="18" lengthAdjust="spacingAndGlyphs" textLength="772" x="821.5" y="16.708">epicd — Execution engine (class diagram; symmetric to authoring, invariant-heavy tail)</text><!--MD5=[a46f9793842d7364a473253dd22a503d]
cluster Core state machine  (pure — EXISTS, test-only)--><rect fill="#FFFFFF" height="302" style="stroke: #000000; stroke-width: 1.5;" width="536" x="1845" y="44.9531"/><text fill="#000000" font-family="sans-serif" font-size="14" font-weight="bold" lengthAdjust="spacingAndGlyphs" textLength="370" x="1928" y="59.9482">Core state machine  (pure — EXISTS, test-only)</text><!--MD5=[eede3e9477c093fa7ebaf016ea7cbe58]
cluster Driver  (IMPURE — EXECUTION, ABSENT today)--><rect fill="#FFFFFF" height="413" style="stroke: #000000; stroke-width: 1.5;" width="684" x="22" y="399.9531"/><text fill="#000000" font-family="sans-serif" font-size="14" font-weight="bold" lengthAdjust="spacingAndGlyphs" textLength="358" x="185" y="414.9482">Driver  (IMPURE — EXECUTION, ABSENT today)</text><!--MD5=[060367c1163bf9a9154eb53010b90462]
cluster Workers  (spawned in git worktree)--><rect fill="#FFFFFF" height="105" style="stroke: #000000; stroke-width: 1.5;" width="306" x="1179" y="63.9531"/><text fill="#000000" font-family="sans-serif" font-size="14" font-weight="bold" lengthAdjust="spacingAndGlyphs" textLength="283" x="1190.5" y="78.9482">Workers  (spawned in git worktree)</text><!--MD5=[dac2a140164682b1bf269c968f057905]
cluster Completion tail  (ENGINE-OWNED invariants — ADR-010/012)--><rect fill="#FFFFFF" height="457" style="stroke: #000000; stroke-width: 1.5;" width="601" x="1220" y="234.9531"/><text fill="#000000" font-family="sans-serif" font-size="14" font-weight="bold" lengthAdjust="spacingAndGlyphs" textLength="468" x="1286.5" y="249.9482">Completion tail  (ENGINE-OWNED invariants — ADR-010/012)</text><!--MD5=[0ce663c225e1303a6dfdbfba7f0d022a]
class Interpreter--><rect fill="#C8E6C9" height="92.3516" id="Interpreter" style="stroke: #555555; stroke-width: 1.5;" width="202" x="2163" y="79.9531"/><ellipse cx="2225.75" cy="98.9219" fill="#ADD1B2" rx="11" ry="11" style="stroke: #555555; stroke-width: 1.0;"/><path d="M2228.7188,104.5625 Q2228.1406,104.8594 2227.5,105 Q2226.8594,105.1563 2226.1563,105.1563 Q2223.6563,105.1563 2222.3281,103.5156 Q2221.0156,101.8594 2221.0156,98.7344 Q2221.0156,95.6094 2222.3281,93.9531 Q2223.6563,92.2969 2226.1563,92.2969 Q2226.8594,92.2969 2227.5,92.4531 Q2228.1563,92.6094 2228.7188,92.9063 L2228.7188,95.625 Q2228.0938,95.0469 2227.5,94.7813 Q2226.9063,94.5 2226.2813,94.5 Q2224.9375,94.5 2224.25,95.5781 Q2223.5625,96.6406 2223.5625,98.7344 Q2223.5625,100.8281 2224.25,101.9063 Q2224.9375,102.9688 2226.2813,102.9688 Q2226.9063,102.9688 2227.5,102.7031 Q2228.0938,102.4219 2228.7188,101.8438 L2228.7188,104.5625 Z "/><text fill="#000000" font-family="sans-serif" font-size="12" font-style="italic" lengthAdjust="spacingAndGlyphs" textLength="43" x="2258.75" y="96.0918">«pure»</text><text fill="#000000" font-family="sans-serif" font-size="12" lengthAdjust="spacingAndGlyphs" textLength="68" x="2246.25" y="110.0605">Interpreter</text><line style="stroke: #555555; stroke-width: 1.5;" x1="2164" x2="2364" y1="117.8906" y2="117.8906"/><line style="stroke: #555555; stroke-width: 1.5;" x1="2164" x2="2364" y1="125.8906" y2="125.8906"/><ellipse cx="2174" cy="136.8906" fill="#84BE84" rx="3" ry="3" style="stroke: #038048; stroke-width: 1.0;"/><text fill="#000000" font-family="sans-serif" font-size="11" lengthAdjust="spacingAndGlyphs" textLength="112" x="2183" y="140.1011">register(p, state, h)</text><ellipse cx="2174" cy="149.6953" fill="#84BE84" rx="3" ry="3" style="stroke: #038048; stroke-width: 1.0;"/><text fill="#000000" font-family="sans-serif" font-size="11" lengthAdjust="spacingAndGlyphs" textLength="176" x="2183" y="152.9058">scan(tasks) : ItemReadyEvent[]</text><ellipse cx="2174" cy="162.5" fill="#84BE84" rx="3" ry="3" style="stroke: #038048; stroke-width: 1.0;"/><text fill="#000000" font-family="sans-serif" font-size="11" lengthAdjust="spacingAndGlyphs" textLength="133" x="2183" y="165.7104">dispatch(events, tasks)</text><!--MD5=[5d7f87ad7be124bcf8ad2c9ead1692a4]
class Pipeline--><rect fill="#C8E6C9" height="79.5469" id="Pipeline" style="stroke: #555555; stroke-width: 1.5;" width="156" x="1972" y="85.9531"/><ellipse cx="2021.25" cy="104.9219" fill="#ADD1B2" rx="11" ry="11" style="stroke: #555555; stroke-width: 1.0;"/><path d="M2024.2188,110.5625 Q2023.6406,110.8594 2023,111 Q2022.3594,111.1563 2021.6563,111.1563 Q2019.1563,111.1563 2017.8281,109.5156 Q2016.5156,107.8594 2016.5156,104.7344 Q2016.5156,101.6094 2017.8281,99.9531 Q2019.1563,98.2969 2021.6563,98.2969 Q2022.3594,98.2969 2023,98.4531 Q2023.6563,98.6094 2024.2188,98.9063 L2024.2188,101.625 Q2023.5938,101.0469 2023,100.7813 Q2022.4063,100.5 2021.7813,100.5 Q2020.4375,100.5 2019.75,101.5781 Q2019.0625,102.6406 2019.0625,104.7344 Q2019.0625,106.8281 2019.75,107.9063 Q2020.4375,108.9688 2021.7813,108.9688 Q2022.4063,108.9688 2023,108.7031 Q2023.5938,108.4219 2024.2188,107.8438 L2024.2188,110.5625 Z "/><text fill="#000000" font-family="sans-serif" font-size="12" font-style="italic" lengthAdjust="spacingAndGlyphs" textLength="43" x="2044.75" y="102.0918">«pure»</text><text fill="#000000" font-family="sans-serif" font-size="12" lengthAdjust="spacingAndGlyphs" textLength="49" x="2041.75" y="116.0605">Pipeline</text><line style="stroke: #555555; stroke-width: 1.5;" x1="1973" x2="2127" y1="123.8906" y2="123.8906"/><ellipse cx="1983" cy="134.8906" fill="none" rx="3" ry="3" style="stroke: #038048; stroke-width: 1.0;"/><text fill="#000000" font-family="sans-serif" font-size="11" lengthAdjust="spacingAndGlyphs" textLength="55" x="1992" y="138.1011">id : string</text><ellipse cx="1983" cy="147.6953" fill="none" rx="3" ry="3" style="stroke: #038048; stroke-width: 1.0;"/><text fill="#000000" font-family="sans-serif" font-size="11" lengthAdjust="spacingAndGlyphs" textLength="130" x="1992" y="150.9058">states : PipelineState[]</text><line style="stroke: #555555; stroke-width: 1.5;" x1="1973" x2="2127" y1="157.5" y2="157.5"/><path d="M1861,275.9531 L1861,331.3516 A0,0 0 0 0 1861,331.3516 L2365,331.3516 A0,0 0 0 0 2365,331.3516 L2365,285.9531 L2355,275.9531 L2107.41,275.9531 L2064.14,166.3431 L2099.41,275.9531 L1861,275.9531 A0,0 0 0 0 1861,275.9531 " fill="#FBFB77" style="stroke: #A80036; stroke-width: 1.0;"/><path d="M2355,275.9531 L2355,285.9531 L2365,285.9531 L2355,275.9531 " fill="#FBFB77" style="stroke: #A80036; stroke-width: 1.0;"/><text fill="#000000" font-family="sans-serif" font-size="13" lengthAdjust="spacingAndGlyphs" textLength="483" x="1867" y="293.02">executionPipeline states = phases, each with actor (machine|human|none).</text><text fill="#000000" font-family="sans-serif" font-size="13" lengthAdjust="spacingAndGlyphs" textLength="451" x="1867" y="308.1528">ready+in-progress by claim; needs-human IS a phase (actor=human).</text><text fill="#000000" font-family="sans-serif" font-size="13" lengthAdjust="spacingAndGlyphs" textLength="437" x="1867" y="323.2856">scan predicate → pipelineDef[phase].actor=machine ∧ no live claim.</text><!--MD5=[8946bbb4bedc49934ab6f2993681e371]
class ExecutionDriver--><rect fill="#FFE0B2" height="77.9492" id="ExecutionDriver" style="stroke: #555555; stroke-width: 1.5;" width="151" x="458.5" y="434.9531"/><ellipse cx="483.4" cy="453.9219" fill="#ADD1B2" rx="11" ry="11" style="stroke: #555555; stroke-width: 1.0;"/><path d="M486.3688,459.5625 Q485.7906,459.8594 485.15,460 Q484.5094,460.1563 483.8063,460.1563 Q481.3063,460.1563 479.9781,458.5156 Q478.6656,456.8594 478.6656,453.7344 Q478.6656,450.6094 479.9781,448.9531 Q481.3063,447.2969 483.8063,447.2969 Q484.5094,447.2969 485.15,447.4531 Q485.8063,447.6094 486.3688,447.9063 L486.3688,450.625 Q485.7438,450.0469 485.15,449.7813 Q484.5563,449.5 483.9313,449.5 Q482.5875,449.5 481.9,450.5781 Q481.2125,451.6406 481.2125,453.7344 Q481.2125,455.8281 481.9,456.9063 Q482.5875,457.9688 483.9313,457.9688 Q484.5563,457.9688 485.15,457.7031 Q485.7438,457.4219 486.3688,456.8438 L486.3688,459.5625 Z "/><text fill="#000000" font-family="sans-serif" font-size="12" font-style="italic" lengthAdjust="spacingAndGlyphs" textLength="49" x="523.6" y="451.0918">«driver»</text><text fill="#000000" font-family="sans-serif" font-size="12" lengthAdjust="spacingAndGlyphs" textLength="97" x="499.6" y="465.0605">ExecutionDriver</text><line style="stroke: #555555; stroke-width: 1.5;" x1="459.5" x2="608.5" y1="472.8906" y2="472.8906"/><ellipse cx="469.5" cy="483.8906" fill="#84BE84" rx="3" ry="3" style="stroke: #038048; stroke-width: 1.0;"/><text fill="#000000" font-family="sans-serif" font-size="11" lengthAdjust="spacingAndGlyphs" textLength="125" x="478.5" y="487.1011">run(event, task) : void</text><line style="stroke: #555555; stroke-width: 1.0;" x1="459.5" x2="509" y1="500.0977" y2="500.0977"/><text fill="#000000" font-family="sans-serif" font-size="11" lengthAdjust="spacingAndGlyphs" textLength="50" x="509" y="503.4058">per scan</text><line style="stroke: #555555; stroke-width: 1.0;" x1="559" x2="608.5" y1="500.0977" y2="500.0977"/><!--MD5=[8ea4f94f69839c4778e2dcc10a4eca81]
class WorkAction--><rect fill="#C8E6C9" height="92.3516" id="WorkAction" style="stroke: #555555; stroke-width: 1.5;" width="390" x="38" y="589.9531"/><ellipse cx="193.25" cy="608.9219" fill="#B4A7E5" rx="11" ry="11" style="stroke: #555555; stroke-width: 1.0;"/><path d="M189.1719,604.6875 L189.1719,602.5313 L196.5625,602.5313 L196.5625,604.6875 L194.0938,604.6875 L194.0938,612.7656 L196.5625,612.7656 L196.5625,614.9219 L189.1719,614.9219 L189.1719,612.7656 L191.6406,612.7656 L191.6406,604.6875 L189.1719,604.6875 Z "/><text fill="#000000" font-family="sans-serif" font-size="12" font-style="italic" lengthAdjust="spacingAndGlyphs" textLength="43" x="227.75" y="606.0918">«pure»</text><text fill="#000000" font-family="sans-serif" font-size="12" font-style="italic" lengthAdjust="spacingAndGlyphs" textLength="71" x="213.75" y="620.0605">WorkAction</text><line style="stroke: #555555; stroke-width: 1.5;" x1="39" x2="427" y1="627.8906" y2="627.8906"/><ellipse cx="49" cy="638.8906" fill="none" rx="3" ry="3" style="stroke: #038048; stroke-width: 1.0;"/><text fill="#000000" font-family="sans-serif" font-size="11" lengthAdjust="spacingAndGlyphs" textLength="98" x="58" y="642.1011">role = "primitive"</text><ellipse cx="49" cy="651.6953" fill="none" rx="3" ry="3" style="stroke: #038048; stroke-width: 1.0;"/><text fill="#000000" font-family="sans-serif" font-size="11" lengthAdjust="spacingAndGlyphs" textLength="120" x="58" y="654.9058">kind : feature | chore</text><line style="stroke: #555555; stroke-width: 1.5;" x1="39" x2="427" y1="661.5" y2="661.5"/><ellipse cx="49" cy="672.5" fill="#84BE84" rx="3" ry="3" style="stroke: #038048; stroke-width: 1.0;"/><text fill="#000000" font-family="sans-serif" font-size="11" lengthAdjust="spacingAndGlyphs" textLength="364" x="58" y="675.7104">plan(task) : WorkSpec   '' what to run; driver spawns the worker</text><!--MD5=[945a17e0248a9c21d6f4185987a9308d]
class FeatureWork--><rect fill="#C8E6C9" height="53.9375" id="FeatureWork" style="stroke: #555555; stroke-width: 1.5;" width="112" x="104" y="742.9531"/><ellipse cx="119" cy="761.9219" fill="#ADD1B2" rx="11" ry="11" style="stroke: #555555; stroke-width: 1.0;"/><path d="M121.9688,767.5625 Q121.3906,767.8594 120.75,768 Q120.1094,768.1563 119.4063,768.1563 Q116.9063,768.1563 115.5781,766.5156 Q114.2656,764.8594 114.2656,761.7344 Q114.2656,758.6094 115.5781,756.9531 Q116.9063,755.2969 119.4063,755.2969 Q120.1094,755.2969 120.75,755.4531 Q121.4063,755.6094 121.9688,755.9063 L121.9688,758.625 Q121.3438,758.0469 120.75,757.7813 Q120.1563,757.5 119.5313,757.5 Q118.1875,757.5 117.5,758.5781 Q116.8125,759.6406 116.8125,761.7344 Q116.8125,763.8281 117.5,764.9063 Q118.1875,765.9688 119.5313,765.9688 Q120.1563,765.9688 120.75,765.7031 Q121.3438,765.4219 121.9688,764.8438 L121.9688,767.5625 Z "/><text fill="#000000" font-family="sans-serif" font-size="12" font-style="italic" lengthAdjust="spacingAndGlyphs" textLength="43" x="151.5" y="759.0918">«pure»</text><text fill="#000000" font-family="sans-serif" font-size="12" lengthAdjust="spacingAndGlyphs" textLength="80" x="133" y="773.0605">FeatureWork</text><line style="stroke: #555555; stroke-width: 1.5;" x1="105" x2="215" y1="780.8906" y2="780.8906"/><line style="stroke: #555555; stroke-width: 1.5;" x1="105" x2="215" y1="788.8906" y2="788.8906"/><!--MD5=[921b7a3ad64c46d8d72f40da5c8c4ceb]
class ChoreWork--><rect fill="#C8E6C9" height="53.9375" id="ChoreWork" style="stroke: #555555; stroke-width: 1.5;" width="100" x="251" y="742.9531"/><ellipse cx="266" cy="761.9219" fill="#ADD1B2" rx="11" ry="11" style="stroke: #555555; stroke-width: 1.0;"/><path d="M268.9688,767.5625 Q268.3906,767.8594 267.75,768 Q267.1094,768.1563 266.4063,768.1563 Q263.9063,768.1563 262.5781,766.5156 Q261.2656,764.8594 261.2656,761.7344 Q261.2656,758.6094 262.5781,756.9531 Q263.9063,755.2969 266.4063,755.2969 Q267.1094,755.2969 267.75,755.4531 Q268.4063,755.6094 268.9688,755.9063 L268.9688,758.625 Q268.3438,758.0469 267.75,757.7813 Q267.1563,757.5 266.5313,757.5 Q265.1875,757.5 264.5,758.5781 Q263.8125,759.6406 263.8125,761.7344 Q263.8125,763.8281 264.5,764.9063 Q265.1875,765.9688 266.5313,765.9688 Q267.1563,765.9688 267.75,765.7031 Q268.3438,765.4219 268.9688,764.8438 L268.9688,767.5625 Z "/><text fill="#000000" font-family="sans-serif" font-size="12" font-style="italic" lengthAdjust="spacingAndGlyphs" textLength="43" x="292.5" y="759.0918">«pure»</text><text fill="#000000" font-family="sans-serif" font-size="12" lengthAdjust="spacingAndGlyphs" textLength="68" x="280" y="773.0605">ChoreWork</text><line style="stroke: #555555; stroke-width: 1.5;" x1="252" x2="350" y1="780.8906" y2="780.8906"/><line style="stroke: #555555; stroke-width: 1.5;" x1="252" x2="350" y1="788.8906" y2="788.8906"/><!--MD5=[460f83045e67ecf667d685be11ae1452]
class Decompose--><rect fill="#FFE0B2" height="53.9375" id="Decompose" style="stroke: #555555; stroke-width: 1.5;" width="106" x="463" y="608.9531"/><ellipse cx="478" cy="627.9219" fill="#ADD1B2" rx="11" ry="11" style="stroke: #555555; stroke-width: 1.0;"/><path d="M480.9688,633.5625 Q480.3906,633.8594 479.75,634 Q479.1094,634.1563 478.4063,634.1563 Q475.9063,634.1563 474.5781,632.5156 Q473.2656,630.8594 473.2656,627.7344 Q473.2656,624.6094 474.5781,622.9531 Q475.9063,621.2969 478.4063,621.2969 Q479.1094,621.2969 479.75,621.4531 Q480.4063,621.6094 480.9688,621.9063 L480.9688,624.625 Q480.3438,624.0469 479.75,623.7813 Q479.1563,623.5 478.5313,623.5 Q477.1875,623.5 476.5,624.5781 Q475.8125,625.6406 475.8125,627.7344 Q475.8125,629.8281 476.5,630.9063 Q477.1875,631.9688 478.5313,631.9688 Q479.1563,631.9688 479.75,631.7031 Q480.3438,631.4219 480.9688,630.8438 L480.9688,633.5625 Z "/><text fill="#000000" font-family="sans-serif" font-size="12" font-style="italic" lengthAdjust="spacingAndGlyphs" textLength="49" x="504.5" y="625.0918">«driver»</text><text fill="#000000" font-family="sans-serif" font-size="12" lengthAdjust="spacingAndGlyphs" textLength="74" x="492" y="639.0605">Decompose</text><line style="stroke: #555555; stroke-width: 1.5;" x1="464" x2="568" y1="646.8906" y2="646.8906"/><line style="stroke: #555555; stroke-width: 1.5;" x1="464" x2="568" y1="654.8906" y2="654.8906"/><!--MD5=[7f46b15c3723d52271729cd4156918c2]
class Evaluate--><rect fill="#FFE0B2" height="53.9375" id="Evaluate" style="stroke: #555555; stroke-width: 1.5;" width="86" x="604" y="608.9531"/><ellipse cx="619" cy="627.9219" fill="#ADD1B2" rx="11" ry="11" style="stroke: #555555; stroke-width: 1.0;"/><path d="M621.9688,633.5625 Q621.3906,633.8594 620.75,634 Q620.1094,634.1563 619.4063,634.1563 Q616.9063,634.1563 615.5781,632.5156 Q614.2656,630.8594 614.2656,627.7344 Q614.2656,624.6094 615.5781,622.9531 Q616.9063,621.2969 619.4063,621.2969 Q620.1094,621.2969 620.75,621.4531 Q621.4063,621.6094 621.9688,621.9063 L621.9688,624.625 Q621.3438,624.0469 620.75,623.7813 Q620.1563,623.5 619.5313,623.5 Q618.1875,623.5 617.5,624.5781 Q616.8125,625.6406 616.8125,627.7344 Q616.8125,629.8281 617.5,630.9063 Q618.1875,631.9688 619.5313,631.9688 Q620.1563,631.9688 620.75,631.7031 Q621.3438,631.4219 621.9688,630.8438 L621.9688,633.5625 Z "/><text fill="#000000" font-family="sans-serif" font-size="12" font-style="italic" lengthAdjust="spacingAndGlyphs" textLength="49" x="635.5" y="625.0918">«driver»</text><text fill="#000000" font-family="sans-serif" font-size="12" lengthAdjust="spacingAndGlyphs" textLength="54" x="633" y="639.0605">Evaluate</text><line style="stroke: #555555; stroke-width: 1.5;" x1="605" x2="689" y1="646.8906" y2="646.8906"/><line style="stroke: #555555; stroke-width: 1.5;" x1="605" x2="689" y1="654.8906" y2="654.8906"/><!--MD5=[b70b6f8320058fab22834c343bc0e2f8]
class FeatureWorker--><rect fill="#FFF3E0" height="53.9375" id="FeatureWorker" style="stroke: #555555; stroke-width: 1.5;" width="125" x="1195.5" y="98.9531"/><ellipse cx="1210.5" cy="117.9219" fill="#ADD1B2" rx="11" ry="11" style="stroke: #555555; stroke-width: 1.0;"/><path d="M1213.4688,123.5625 Q1212.8906,123.8594 1212.25,124 Q1211.6094,124.1563 1210.9063,124.1563 Q1208.4063,124.1563 1207.0781,122.5156 Q1205.7656,120.8594 1205.7656,117.7344 Q1205.7656,114.6094 1207.0781,112.9531 Q1208.4063,111.2969 1210.9063,111.2969 Q1211.6094,111.2969 1212.25,111.4531 Q1212.9063,111.6094 1213.4688,111.9063 L1213.4688,114.625 Q1212.8438,114.0469 1212.25,113.7813 Q1211.6563,113.5 1211.0313,113.5 Q1209.6875,113.5 1209,114.5781 Q1208.3125,115.6406 1208.3125,117.7344 Q1208.3125,119.8281 1209,120.9063 Q1209.6875,121.9688 1211.0313,121.9688 Q1211.6563,121.9688 1212.25,121.7031 Q1212.8438,121.4219 1213.4688,120.8438 L1213.4688,123.5625 Z "/><text fill="#000000" font-family="sans-serif" font-size="12" font-style="italic" lengthAdjust="spacingAndGlyphs" textLength="57" x="1242.5" y="115.0918">«worker»</text><text fill="#000000" font-family="sans-serif" font-size="12" lengthAdjust="spacingAndGlyphs" textLength="93" x="1224.5" y="129.0605">FeatureWorker</text><line style="stroke: #555555; stroke-width: 1.5;" x1="1196.5" x2="1319.5" y1="136.8906" y2="136.8906"/><line style="stroke: #555555; stroke-width: 1.5;" x1="1196.5" x2="1319.5" y1="144.8906" y2="144.8906"/><!--MD5=[da37faeed9c4102779a73c6bda28591f]
class ChoreWorker--><rect fill="#FFF3E0" height="53.9375" id="ChoreWorker" style="stroke: #555555; stroke-width: 1.5;" width="113" x="1355.5" y="98.9531"/><ellipse cx="1370.5" cy="117.9219" fill="#ADD1B2" rx="11" ry="11" style="stroke: #555555; stroke-width: 1.0;"/><path d="M1373.4688,123.5625 Q1372.8906,123.8594 1372.25,124 Q1371.6094,124.1563 1370.9063,124.1563 Q1368.4063,124.1563 1367.0781,122.5156 Q1365.7656,120.8594 1365.7656,117.7344 Q1365.7656,114.6094 1367.0781,112.9531 Q1368.4063,111.2969 1370.9063,111.2969 Q1371.6094,111.2969 1372.25,111.4531 Q1372.9063,111.6094 1373.4688,111.9063 L1373.4688,114.625 Q1372.8438,114.0469 1372.25,113.7813 Q1371.6563,113.5 1371.0313,113.5 Q1369.6875,113.5 1369,114.5781 Q1368.3125,115.6406 1368.3125,117.7344 Q1368.3125,119.8281 1369,120.9063 Q1369.6875,121.9688 1371.0313,121.9688 Q1371.6563,121.9688 1372.25,121.7031 Q1372.8438,121.4219 1373.4688,120.8438 L1373.4688,123.5625 Z "/><text fill="#000000" font-family="sans-serif" font-size="12" font-style="italic" lengthAdjust="spacingAndGlyphs" textLength="57" x="1396.5" y="115.0918">«worker»</text><text fill="#000000" font-family="sans-serif" font-size="12" lengthAdjust="spacingAndGlyphs" textLength="81" x="1384.5" y="129.0605">ChoreWorker</text><line style="stroke: #555555; stroke-width: 1.5;" x1="1356.5" x2="1467.5" y1="136.8906" y2="136.8906"/><line style="stroke: #555555; stroke-width: 1.5;" x1="1356.5" x2="1467.5" y1="144.8906" y2="144.8906"/><!--MD5=[3137d20f986b4a02518a1fe21e5fd46d]
class CompleteHandshake--><rect fill="#F8BBD0" height="66.7422" id="CompleteHandshake" style="stroke: #555555; stroke-width: 1.5;" width="196" x="1236" y="269.9531"/><ellipse cx="1266.3" cy="288.9219" fill="#ADD1B2" rx="11" ry="11" style="stroke: #555555; stroke-width: 1.0;"/><path d="M1269.2688,294.5625 Q1268.6906,294.8594 1268.05,295 Q1267.4094,295.1563 1266.7063,295.1563 Q1264.2063,295.1563 1262.8781,293.5156 Q1261.5656,291.8594 1261.5656,288.7344 Q1261.5656,285.6094 1262.8781,283.9531 Q1264.2063,282.2969 1266.7063,282.2969 Q1267.4094,282.2969 1268.05,282.4531 Q1268.7063,282.6094 1269.2688,282.9063 L1269.2688,285.625 Q1268.6438,285.0469 1268.05,284.7813 Q1267.4563,284.5 1266.8313,284.5 Q1265.4875,284.5 1264.8,285.5781 Q1264.1125,286.6406 1264.1125,288.7344 Q1264.1125,290.8281 1264.8,291.9063 Q1265.4875,292.9688 1266.8313,292.9688 Q1267.4563,292.9688 1268.05,292.7031 Q1268.6438,292.4219 1269.2688,291.8438 L1269.2688,294.5625 Z "/><text fill="#000000" font-family="sans-serif" font-size="12" font-style="italic" lengthAdjust="spacingAndGlyphs" textLength="68" x="1314.7" y="286.0918">«invariant»</text><text fill="#000000" font-family="sans-serif" font-size="12" lengthAdjust="spacingAndGlyphs" textLength="130" x="1283.7" y="300.0605">CompleteHandshake</text><line style="stroke: #555555; stroke-width: 1.5;" x1="1237" x2="1431" y1="307.8906" y2="307.8906"/><line style="stroke: #555555; stroke-width: 1.5;" x1="1237" x2="1431" y1="315.8906" y2="315.8906"/><ellipse cx="1247" cy="326.8906" fill="#84BE84" rx="3" ry="3" style="stroke: #038048; stroke-width: 1.0;"/><text fill="#000000" font-family="sans-serif" font-size="11" lengthAdjust="spacingAndGlyphs" textLength="170" x="1256" y="330.1011">complete(taskId, result) : void</text><!--MD5=[f3365645dcc6ae4f0fec7af81db6a504]
class Adjudicator--><rect fill="#F8BBD0" height="66.7422" id="Adjudicator" style="stroke: #555555; stroke-width: 1.5;" width="287" x="1236.5" y="440.4531"/><ellipse cx="1340.25" cy="459.4219" fill="#ADD1B2" rx="11" ry="11" style="stroke: #555555; stroke-width: 1.0;"/><path d="M1343.2188,465.0625 Q1342.6406,465.3594 1342,465.5 Q1341.3594,465.6563 1340.6563,465.6563 Q1338.1563,465.6563 1336.8281,464.0156 Q1335.5156,462.3594 1335.5156,459.2344 Q1335.5156,456.1094 1336.8281,454.4531 Q1338.1563,452.7969 1340.6563,452.7969 Q1341.3594,452.7969 1342,452.9531 Q1342.6563,453.1094 1343.2188,453.4063 L1343.2188,456.125 Q1342.5938,455.5469 1342,455.2813 Q1341.4063,455 1340.7813,455 Q1339.4375,455 1338.75,456.0781 Q1338.0625,457.1406 1338.0625,459.2344 Q1338.0625,461.3281 1338.75,462.4063 Q1339.4375,463.4688 1340.7813,463.4688 Q1341.4063,463.4688 1342,463.2031 Q1342.5938,462.9219 1343.2188,462.3438 L1343.2188,465.0625 Z "/><text fill="#000000" font-family="sans-serif" font-size="12" font-style="italic" lengthAdjust="spacingAndGlyphs" textLength="68" x="1362.25" y="456.5918">«invariant»</text><text fill="#000000" font-family="sans-serif" font-size="12" lengthAdjust="spacingAndGlyphs" textLength="71" x="1360.75" y="470.5605">Adjudicator</text><line style="stroke: #555555; stroke-width: 1.5;" x1="1237.5" x2="1522.5" y1="478.3906" y2="478.3906"/><line style="stroke: #555555; stroke-width: 1.5;" x1="1237.5" x2="1522.5" y1="486.3906" y2="486.3906"/><ellipse cx="1247.5" cy="497.3906" fill="#84BE84" rx="3" ry="3" style="stroke: #038048; stroke-width: 1.0;"/><text fill="#000000" font-family="sans-serif" font-size="11" lengthAdjust="spacingAndGlyphs" textLength="261" x="1256.5" y="500.6011">adjudicate(task, result) : Verdict   '' pass | fail</text><!--MD5=[3bee139e22e2b3044672075775be92c4]
class MergeCoordinator--><rect fill="#F8BBD0" height="79.5469" id="MergeCoordinator" style="stroke: #555555; stroke-width: 1.5;" width="211" x="1315.5" y="595.9531"/><ellipse cx="1360.25" cy="614.9219" fill="#ADD1B2" rx="11" ry="11" style="stroke: #555555; stroke-width: 1.0;"/><path d="M1363.2188,620.5625 Q1362.6406,620.8594 1362,621 Q1361.3594,621.1563 1360.6563,621.1563 Q1358.1563,621.1563 1356.8281,619.5156 Q1355.5156,617.8594 1355.5156,614.7344 Q1355.5156,611.6094 1356.8281,609.9531 Q1358.1563,608.2969 1360.6563,608.2969 Q1361.3594,608.2969 1362,608.4531 Q1362.6563,608.6094 1363.2188,608.9063 L1363.2188,611.625 Q1362.5938,611.0469 1362,610.7813 Q1361.4063,610.5 1360.7813,610.5 Q1359.4375,610.5 1358.75,611.5781 Q1358.0625,612.6406 1358.0625,614.7344 Q1358.0625,616.8281 1358.75,617.9063 Q1359.4375,618.9688 1360.7813,618.9688 Q1361.4063,618.9688 1362,618.7031 Q1362.5938,618.4219 1363.2188,617.8438 L1363.2188,620.5625 Z "/><text fill="#000000" font-family="sans-serif" font-size="12" font-style="italic" lengthAdjust="spacingAndGlyphs" textLength="68" x="1403.25" y="612.0918">«invariant»</text><text fill="#000000" font-family="sans-serif" font-size="12" lengthAdjust="spacingAndGlyphs" textLength="113" x="1380.75" y="626.0605">MergeCoordinator</text><line style="stroke: #555555; stroke-width: 1.5;" x1="1316.5" x2="1525.5" y1="633.8906" y2="633.8906"/><line style="stroke: #555555; stroke-width: 1.5;" x1="1316.5" x2="1525.5" y1="641.8906" y2="641.8906"/><ellipse cx="1326.5" cy="652.8906" fill="#84BE84" rx="3" ry="3" style="stroke: #038048; stroke-width: 1.0;"/><text fill="#000000" font-family="sans-serif" font-size="11" lengthAdjust="spacingAndGlyphs" textLength="104" x="1335.5" y="656.1011">merge(task) : void</text><ellipse cx="1326.5" cy="665.6953" fill="#84BE84" rx="3" ry="3" style="stroke: #038048; stroke-width: 1.0;"/><text fill="#000000" font-family="sans-serif" font-size="11" lengthAdjust="spacingAndGlyphs" textLength="185" x="1335.5" y="668.9058">reapSameFieldPeers(field) : void</text><!--MD5=[d0b7a0bb38c84f0294b3da567a7f5622]
class SafetyMonitor--><rect fill="#F8BBD0" height="66.7422" id="SafetyMonitor" style="stroke: #555555; stroke-width: 1.5;" width="338" x="1467" y="269.9531"/><ellipse cx="1588.75" cy="288.9219" fill="#ADD1B2" rx="11" ry="11" style="stroke: #555555; stroke-width: 1.0;"/><path d="M1591.7188,294.5625 Q1591.1406,294.8594 1590.5,295 Q1589.8594,295.1563 1589.1563,295.1563 Q1586.6563,295.1563 1585.3281,293.5156 Q1584.0156,291.8594 1584.0156,288.7344 Q1584.0156,285.6094 1585.3281,283.9531 Q1586.6563,282.2969 1589.1563,282.2969 Q1589.8594,282.2969 1590.5,282.4531 Q1591.1563,282.6094 1591.7188,282.9063 L1591.7188,285.625 Q1591.0938,285.0469 1590.5,284.7813 Q1589.9063,284.5 1589.2813,284.5 Q1587.9375,284.5 1587.25,285.5781 Q1586.5625,286.6406 1586.5625,288.7344 Q1586.5625,290.8281 1587.25,291.9063 Q1587.9375,292.9688 1589.2813,292.9688 Q1589.9063,292.9688 1590.5,292.7031 Q1591.0938,292.4219 1591.7188,291.8438 L1591.7188,294.5625 Z "/><text fill="#000000" font-family="sans-serif" font-size="12" font-style="italic" lengthAdjust="spacingAndGlyphs" textLength="68" x="1618.25" y="286.0918">«invariant»</text><text fill="#000000" font-family="sans-serif" font-size="12" lengthAdjust="spacingAndGlyphs" textLength="86" x="1609.25" y="300.0605">SafetyMonitor</text><line style="stroke: #555555; stroke-width: 1.5;" x1="1468" x2="1804" y1="307.8906" y2="307.8906"/><line style="stroke: #555555; stroke-width: 1.5;" x1="1468" x2="1804" y1="315.8906" y2="315.8906"/><ellipse cx="1478" cy="326.8906" fill="#84BE84" rx="3" ry="3" style="stroke: #038048; stroke-width: 1.0;"/><text fill="#000000" font-family="sans-serif" font-size="11" lengthAdjust="spacingAndGlyphs" textLength="312" x="1487" y="330.1011">flagStale() : void   '' informational only; human decides</text><!--MD5=[bf6c3a69eda2bf9b1d52c6e528da1b08]
class IssueSource--><rect fill="#E1BEE7" height="92.3516" id="IssueSource" style="stroke: #555555; stroke-width: 1.5;" width="130" x="804" y="589.9531"/><ellipse cx="828.9" cy="608.9219" fill="#B4A7E5" rx="11" ry="11" style="stroke: #555555; stroke-width: 1.0;"/><path d="M824.8219,604.6875 L824.8219,602.5313 L832.2125,602.5313 L832.2125,604.6875 L829.7438,604.6875 L829.7438,612.7656 L832.2125,612.7656 L832.2125,614.9219 L824.8219,614.9219 L824.8219,612.7656 L827.2906,612.7656 L827.2906,604.6875 L824.8219,604.6875 Z "/><text fill="#000000" font-family="sans-serif" font-size="12" font-style="italic" lengthAdjust="spacingAndGlyphs" textLength="67" x="849.6" y="606.0918">«contract»</text><text fill="#000000" font-family="sans-serif" font-size="12" font-style="italic" lengthAdjust="spacingAndGlyphs" textLength="76" x="845.1" y="620.0605">IssueSource</text><line style="stroke: #555555; stroke-width: 1.5;" x1="805" x2="933" y1="627.8906" y2="627.8906"/><line style="stroke: #555555; stroke-width: 1.5;" x1="805" x2="933" y1="635.8906" y2="635.8906"/><ellipse cx="815" cy="646.8906" fill="#84BE84" rx="3" ry="3" style="stroke: #038048; stroke-width: 1.0;"/><text fill="#000000" font-family="sans-serif" font-size="11" lengthAdjust="spacingAndGlyphs" textLength="98" x="824" y="650.1011">list(filter) : Task[]</text><ellipse cx="815" cy="659.6953" fill="#84BE84" rx="3" ry="3" style="stroke: #038048; stroke-width: 1.0;"/><text fill="#000000" font-family="sans-serif" font-size="11" lengthAdjust="spacingAndGlyphs" textLength="75" x="824" y="662.9058">get(id) : Task</text><ellipse cx="815" cy="672.5" fill="#84BE84" rx="3" ry="3" style="stroke: #038048; stroke-width: 1.0;"/><text fill="#000000" font-family="sans-serif" font-size="11" lengthAdjust="spacingAndGlyphs" textLength="104" x="824" y="675.7104">upsert(task) : void</text><!--MD5=[5d2bdee92db0d01b75732190da037553]
class Coordinator--><rect fill="#E1BEE7" height="66.7422" id="Coordinator" style="stroke: #555555; stroke-width: 1.5;" width="448" x="1837" y="602.4531"/><ellipse cx="2019.75" cy="621.4219" fill="#B4A7E5" rx="11" ry="11" style="stroke: #555555; stroke-width: 1.0;"/><path d="M2015.6719,617.1875 L2015.6719,615.0313 L2023.0625,615.0313 L2023.0625,617.1875 L2020.5938,617.1875 L2020.5938,625.2656 L2023.0625,625.2656 L2023.0625,627.4219 L2015.6719,627.4219 L2015.6719,625.2656 L2018.1406,625.2656 L2018.1406,617.1875 L2015.6719,617.1875 Z "/><text fill="#000000" font-family="sans-serif" font-size="12" font-style="italic" lengthAdjust="spacingAndGlyphs" textLength="67" x="2043.75" y="618.5918">«contract»</text><text fill="#000000" font-family="sans-serif" font-size="12" font-style="italic" lengthAdjust="spacingAndGlyphs" textLength="74" x="2040.25" y="632.5605">Coordinator</text><line style="stroke: #555555; stroke-width: 1.5;" x1="1838" x2="2284" y1="640.3906" y2="640.3906"/><line style="stroke: #555555; stroke-width: 1.5;" x1="1838" x2="2284" y1="648.3906" y2="648.3906"/><ellipse cx="1848" cy="659.3906" fill="#84BE84" rx="3" ry="3" style="stroke: #038048; stroke-width: 1.0;"/><text fill="#000000" font-family="sans-serif" font-size="11" lengthAdjust="spacingAndGlyphs" textLength="422" x="1857" y="662.6011">claims() : Map&lt;taskId, Claim&gt;   '' SAME runtime-fact channel as authoring</text><path d="M83.5,90.4531 L83.5,160.9844 L604.5,160.9844 L604.5,100.4531 L594.5,90.4531 L83.5,90.4531 " fill="#FBFB77" style="stroke: #A80036; stroke-width: 1.0;"/><path d="M594.5,90.4531 L594.5,100.4531 L604.5,100.4531 L594.5,90.4531 " fill="#FBFB77" style="stroke: #A80036; stroke-width: 1.0;"/><text fill="#000000" font-family="sans-serif" font-size="13" font-weight="bold" lengthAdjust="spacingAndGlyphs" textLength="191" x="89.5" y="107.52">Symmetry with authoring:</text><text fill="#000000" font-family="sans-serif" font-size="13" lengthAdjust="spacingAndGlyphs" textLength="288" x="284.5" y="107.52">scan → dispatch → worker → result flows back</text><text fill="#000000" font-family="sans-serif" font-size="13" lengthAdjust="spacingAndGlyphs" textLength="500" x="89.5" y="122.6528">as DATA → engine reads &amp; branches. Adjudicator's DoD verdict is to execution</text><text fill="#000000" font-family="sans-serif" font-size="13" lengthAdjust="spacingAndGlyphs" textLength="476" x="89.5" y="137.7856">what the architect Reviewed verdict is to authoring — both appended data,</text><text fill="#000000" font-family="sans-serif" font-size="13" lengthAdjust="spacingAndGlyphs" textLength="246" x="89.5" y="152.9185">never a worker's own claim of success.</text><path d="M639.5,98.4531 L639.5,153.8516 L1160.5,153.8516 L1160.5,108.4531 L1150.5,98.4531 L639.5,98.4531 " fill="#FBFB77" style="stroke: #A80036; stroke-width: 1.0;"/><path d="M1150.5,98.4531 L1150.5,108.4531 L1160.5,108.4531 L1150.5,98.4531 " fill="#FBFB77" style="stroke: #A80036; stroke-width: 1.0;"/><text fill="#000000" font-family="sans-serif" font-size="13" font-weight="bold" lengthAdjust="spacingAndGlyphs" textLength="88" x="645.5" y="115.52">Asymmetry:</text><text fill="#000000" font-family="sans-serif" font-size="13" lengthAdjust="spacingAndGlyphs" textLength="350" x="737.5" y="115.52">the completion tail (pink) is NOT a strategy — it is fixed</text><text fill="#000000" font-family="sans-serif" font-size="13" lengthAdjust="spacingAndGlyphs" textLength="500" x="645.5" y="130.6528">safety machinery (ENG-3 merge lock, ENG-8 no self-attested done). Variability</text><text fill="#000000" font-family="sans-serif" font-size="13" lengthAdjust="spacingAndGlyphs" textLength="439" x="645.5" y="145.7856">lives ONLY in WorkAction (role/kind). Do NOT make the tail pluggable.</text><path d="M95.5,275.9531 L95.5,331.3516 L592.5,331.3516 L592.5,285.9531 L582.5,275.9531 L95.5,275.9531 " fill="#FBFB77" style="stroke: #A80036; stroke-width: 1.0;"/><path d="M582.5,275.9531 L582.5,285.9531 L592.5,285.9531 L582.5,275.9531 " fill="#FBFB77" style="stroke: #A80036; stroke-width: 1.0;"/><text fill="#000000" font-family="sans-serif" font-size="13" lengthAdjust="spacingAndGlyphs" textLength="463" x="101.5" y="293.02">TODAY: Interpreter + executionPipeline are pure &amp; TEST-ONLY (unwired).</text><text fill="#000000" font-family="sans-serif" font-size="13" lengthAdjust="spacingAndGlyphs" textLength="465" x="101.5" y="308.1528">ExecutionDriver / CompleteHandshake / Adjudicator / MergeCoordinator /</text><text fill="#000000" font-family="sans-serif" font-size="13" lengthAdjust="spacingAndGlyphs" textLength="476" x="101.5" y="323.2856">SafetyMonitor / Coordinator ALL ABSENT — soak runs on baime scan-loop.</text><!--MD5=[e58de9e3f593cefb9484addad06aca4b]
reverse link WorkAction to FeatureWork--><path d="M198.32,699.6531 C189.87,714.9431 181.28,730.4731 174.38,742.9431 " fill="none" id="WorkAction&lt;-FeatureWork" style="stroke: #A80036; stroke-width: 1.0; stroke-dasharray: 7.0,7.0;"/><polygon fill="none" points="192.28,696.1231,208.08,682.0131,204.53,702.9031,192.28,696.1231" style="stroke: #A80036; stroke-width: 1.0;"/><!--MD5=[0ffba4907edf7e5067aac731d8460532]
reverse link WorkAction to ChoreWork--><path d="M265.56,700.1531 C273.35,715.2831 281.25,730.6131 287.6,742.9431 " fill="none" id="WorkAction&lt;-ChoreWork" style="stroke: #A80036; stroke-width: 1.0; stroke-dasharray: 7.0,7.0;"/><polygon fill="none" points="259.15,702.9931,256.21,682.0131,271.59,696.5831,259.15,702.9931" style="stroke: #A80036; stroke-width: 1.0;"/><!--MD5=[ddf231d97dfe7f8974fac09c70763e57]
link ExecutionDriver to WorkAction--><path d="M458.17,477.0531 C356.5,481.6531 184.2,496.3031 145,542.9531 C132.85,557.4131 138.62,572.4731 151.7,586.1231 " fill="none" id="ExecutionDriver-&gt;WorkAction" style="stroke: #A80036; stroke-width: 1.0; stroke-dasharray: 7.0,7.0;"/><polygon fill="#A80036" points="155.57,589.9331,151.9418,580.7769,151.9989,586.4335,146.3424,586.4906,155.57,589.9331" style="stroke: #A80036; stroke-width: 1.0;"/><text fill="#000000" font-family="sans-serif" font-size="13" lengthAdjust="spacingAndGlyphs" textLength="158" x="146" y="556.02">dispatch (role=primitive)</text><!--MD5=[f3cf3d41966385e99ae31afe82b11425]
link ExecutionDriver to Decompose--><path d="M458.29,477.1931 C409.7,483.0431 349.92,499.4431 318,542.9531 C294.2,575.3931 350.67,550.2431 445,589.9531 C455.38,594.3231 465.96,600.1531 475.66,606.1531 " fill="none" id="ExecutionDriver-&gt;Decompose" style="stroke: #A80036; stroke-width: 1.0; stroke-dasharray: 7.0,7.0;"/><polygon fill="#A80036" points="480.06,608.9231,474.5554,600.7561,475.8224,606.2693,470.3093,607.5363,480.06,608.9231" style="stroke: #A80036; stroke-width: 1.0;"/><text fill="#000000" font-family="sans-serif" font-size="13" lengthAdjust="spacingAndGlyphs" textLength="171" x="319" y="556.02">dispatch (role=compound)</text><!--MD5=[e5304679a283f0f5031c8b3c7a61747c]
link ExecutionDriver to Evaluate--><path d="M524.04,513.1531 C522.11,528.6531 522.78,546.1131 531,559.9531 C545.21,583.8931 562.52,574.9831 586,589.9531 C593.68,594.8431 601.66,600.3831 609.22,605.8531 " fill="none" id="ExecutionDriver-&gt;Evaluate" style="stroke: #A80036; stroke-width: 1.0; stroke-dasharray: 7.0,7.0;"/><polygon fill="#A80036" points="613.38,608.8831,608.4576,600.3526,609.3376,605.9406,603.7496,606.8205,613.38,608.8831" style="stroke: #A80036; stroke-width: 1.0;"/><text fill="#000000" font-family="sans-serif" font-size="13" lengthAdjust="spacingAndGlyphs" textLength="154" x="532" y="556.02">dispatch (epic-eval-due)</text><!--MD5=[b8ad1a15f4429c993a7952c9358af24d]
link CompleteHandshake to Adjudicator--><path d="M1342.98,337.3431 C1350.67,365.5031 1361.73,406.0331 1369.76,435.4431 " fill="none" id="CompleteHandshake-&gt;Adjudicator" style="stroke: #A80036; stroke-width: 1.0; stroke-dasharray: 7.0,7.0;"/><polygon fill="#A80036" points="1371.12,440.4331,1372.6086,430.6974,1369.8032,435.6096,1364.891,432.8043,1371.12,440.4331" style="stroke: #A80036; stroke-width: 1.0;"/><text fill="#000000" font-family="sans-serif" font-size="13" lengthAdjust="spacingAndGlyphs" textLength="71" x="1356" y="380.02">re-run DoD</text><!--MD5=[5090586a7ccb93e5d56f45d211d76038]
link Adjudicator to MergeCoordinator--><path d="M1388.4,507.7131 C1394.52,531.6331 1402.9,564.3131 1409.63,590.5731 " fill="none" id="Adjudicator-&gt;MergeCoordinator" style="stroke: #A80036; stroke-width: 1.0; stroke-dasharray: 7.0,7.0;"/><polygon fill="#A80036" points="1410.95,595.7331,1412.5872,586.0213,1409.7071,590.8901,1404.8383,588.01,1410.95,595.7331" style="stroke: #A80036; stroke-width: 1.0;"/><text fill="#000000" font-family="sans-serif" font-size="13" lengthAdjust="spacingAndGlyphs" textLength="149" x="1402" y="556.02">pass → merge/advance</text><!--MD5=[e10733ee07c47dec744c5142f851ade1]
link ExecutionDriver to Coordinator--><path d="M609.75,480.8531 C711.28,489.6731 896.71,509.0131 1052,542.9531 C1077,548.4131 1081.79,555.6031 1107,559.9531 C1419.99,613.9631 1505.44,553.9231 1821,589.9531 C1846.67,592.8831 1873.71,596.9731 1900.03,601.4931 " fill="none" id="ExecutionDriver-&gt;Coordinator" style="stroke: #A80036; stroke-width: 1.0; stroke-dasharray: 7.0,7.0;"/><polygon fill="#A80036" points="1905.28,602.4031,1897.0985,596.9202,1900.3539,601.5464,1895.7277,604.8019,1905.28,602.4031" style="stroke: #A80036; stroke-width: 1.0;"/><text fill="#000000" font-family="sans-serif" font-size="13" lengthAdjust="spacingAndGlyphs" textLength="111" x="1108" y="556.02">claim during work</text><!--MD5=[a0b5faa078fe94b1e8001132118bd001]
link ExecutionDriver to IssueSource--><path d="M609.54,506.4331 C635.53,517.5931 664.7,530.4831 691,542.9531 C726.95,560.0031 766.31,580.1831 798.85,597.2931 " fill="none" id="ExecutionDriver-&gt;IssueSource" style="stroke: #A80036; stroke-width: 1.0; stroke-dasharray: 7.0,7.0;"/><polygon fill="#A80036" points="803.6,599.7931,797.4956,592.0642,799.1745,597.4662,793.7725,599.145,803.6,599.7931" style="stroke: #A80036; stroke-width: 1.0;"/><text fill="#000000" font-family="sans-serif" font-size="13" lengthAdjust="spacingAndGlyphs" textLength="97" x="726" y="556.02">advance phase</text><!--MD5=[d9122686cb03c6bc14738267b8b086a9]
link FeatureWorker to CompleteHandshake--><path d="M1241.85,153.2031 C1232.42,172.1031 1224.14,197.8731 1234,218.9531 C1242.79,237.7431 1258.12,253.7931 1274.17,266.6431 " fill="none" id="FeatureWorker-&gt;CompleteHandshake" style="stroke: #A80036; stroke-width: 1.0; stroke-dasharray: 7.0,7.0;"/><polygon fill="#A80036" points="1278.27,269.8431,1273.6477,261.1463,1274.3325,266.7616,1268.7172,267.4464,1278.27,269.8431" style="stroke: #A80036; stroke-width: 1.0;"/><text fill="#000000" font-family="sans-serif" font-size="13" lengthAdjust="spacingAndGlyphs" textLength="153" x="1235" y="215.02">engine.complete(result)</text><!--MD5=[a883d3cb9323e403aec1306b812ceb50]
link ChoreWorker to CompleteHandshake--><path d="M1409.48,153.2031 C1406.99,172.0931 1402.15,197.8531 1393,218.9531 C1385.89,235.3331 1375.26,251.7331 1364.97,265.6131 " fill="none" id="ChoreWorker-&gt;CompleteHandshake" style="stroke: #A80036; stroke-width: 1.0; stroke-dasharray: 7.0,7.0;"/><polygon fill="#A80036" points="1361.79,269.8331,1370.39,265.0331,1364.79,265.8331,1363.99,260.2331,1361.79,269.8331" style="stroke: #A80036; stroke-width: 1.0;"/><text fill="#000000" font-family="sans-serif" font-size="13" lengthAdjust="spacingAndGlyphs" textLength="153" x="1400" y="215.02">engine.complete(result)</text><!--MD5=[49ad9edcfa8cea3d21403ca35903b3b8]
link Adjudicator to IssueSource--><path d="M1321.53,507.5931 C1288.2,525.1131 1245.18,545.9231 1205,559.9531 C1115.63,591.1531 1008.24,612.4531 939.33,624.1631 " fill="none" id="Adjudicator-&gt;IssueSource" style="stroke: #A80036; stroke-width: 1.0; stroke-dasharray: 7.0,7.0;"/><polygon fill="#A80036" points="934.03,625.0631,943.5686,627.5157,938.9608,624.2342,942.2423,619.6264,934.03,625.0631" style="stroke: #A80036; stroke-width: 1.0;"/><text fill="#000000" font-family="sans-serif" font-size="13" lengthAdjust="spacingAndGlyphs" textLength="135" x="1245" y="556.02">pass → phase:=done</text><!--MD5=[49ad9edcfa8cea3d21403ca35903b3b8]
link Adjudicator to IssueSource--><path d="M1236.34,484.3631 C1092.88,495.2531 890.23,515.3031 866,542.9531 C856.06,554.2931 853.86,569.7631 855.03,584.7931 " fill="none" id="Adjudicator-&gt;IssueSource-1" style="stroke: #A80036; stroke-width: 1.0; stroke-dasharray: 7.0,7.0;"/><polygon fill="#A80036" points="855.56,589.8631,858.6127,580.4993,855.0455,584.8897,850.6551,581.3225,855.56,589.8631" style="stroke: #A80036; stroke-width: 1.0;"/><text fill="#000000" font-family="sans-serif" font-size="13" lengthAdjust="spacingAndGlyphs" textLength="180" x="867" y="556.02">fail → phase:=needs-human</text><!--MD5=[b36b906708c3fd08ea3f6c728cea3695]
link SafetyMonitor to Coordinator--><path d="M1677.91,337.0431 C1757.84,399.2031 1931.48,534.2331 2014.71,598.9531 " fill="none" id="SafetyMonitor-&gt;Coordinator" style="stroke: #A80036; stroke-width: 1.0; stroke-dasharray: 7.0,7.0;"/><polygon fill="#A80036" points="2019.09,602.3631,2014.4285,593.6873,2015.1386,599.2994,2009.5265,600.0095,2019.09,602.3631" style="stroke: #A80036; stroke-width: 1.0;"/><text fill="#000000" font-family="sans-serif" font-size="13" lengthAdjust="spacingAndGlyphs" textLength="95" x="1898" y="478.52">read claim age</text><!--MD5=[cbe24d44a7a0442c48cc51338655737e]
link N_symmetry to N_asymmetry--><!--MD5=[3a69a00b33e08d3d48064e086e23d557]
link N_symmetry to N_today--><!--MD5=[72df25cd358838651882fd374f6c7e05]
@startuml epicd-execution-class

skinparam backgroundColor #FFFFFF
skinparam shadowing false
skinparam class {
  BorderColor #555555
  BackgroundColor #E8F0FE
  BackgroundColor<<pure>> #C8E6C9
  BackgroundColor<<driver>> #FFE0B2
  BackgroundColor<<worker>> #FFF3E0
  BackgroundColor<<invariant>> #F8BBD0
  BackgroundColor<<contract>> #E1BEE7
}
skinparam packageStyle rectangle

title epicd — Execution engine (class diagram; symmetric to authoring, invariant-heavy tail)

package "Core state machine  (pure — EXISTS, test-only)" {
  class Interpreter <<pure>> {
    +register(p, state, h)
    +scan(tasks) : ItemReadyEvent[]
    +dispatch(events, tasks)
  }
  class Pipeline <<pure>> {
    +id : string
    +states : PipelineState[]
  }
  note bottom of Pipeline
    executionPipeline states = phases, each with actor (machine|human|none).
    ready+in-progress by claim; needs-human IS a phase (actor=human).
    scan predicate → pipelineDef[phase].actor=machine ∧ no live claim.
  end note
}

package "Driver  (IMPURE — EXECUTION, ABSENT today)" {
  class ExecutionDriver <<driver>> {
    +run(event, task) : void
    - - per scan - -
  }
  interface WorkAction <<pure>> {
    +role = "primitive"
    +kind : feature | chore
    +plan(task) : WorkSpec   '' what to run; driver spawns the worker
  }
  class FeatureWork <<pure>> {
  }
  class ChoreWork <<pure>> {
  }
  class Decompose <<driver>> {
  }
  class Evaluate <<driver>> {
  }
  WorkAction <|.. FeatureWork
  WorkAction <|.. ChoreWork
  ExecutionDriver ..> WorkAction : dispatch (role=primitive)
  ExecutionDriver ..> Decompose : dispatch (role=compound)
  ExecutionDriver ..> Evaluate  : dispatch (epic-eval-due)
}

package "Workers  (spawned in git worktree)" {
  class FeatureWorker <<worker>> {
  }
  class ChoreWorker <<worker>> {
  }
}

package "Completion tail  (ENGINE-OWNED invariants — ADR-010/012)" {
  class CompleteHandshake <<invariant>> {
    +complete(taskId, result) : void
  }
  class Adjudicator <<invariant>> {
    +adjudicate(task, result) : Verdict   '' pass | fail
  }
  class MergeCoordinator <<invariant>> {
    +merge(task) : void
    +reapSameFieldPeers(field) : void
  }
  class SafetyMonitor <<invariant>> {
    +flagStale() : void   '' informational only; human decides
  }
  CompleteHandshake ..> Adjudicator : re-run DoD
  Adjudicator ..> MergeCoordinator : pass → merge/advance
}

interface IssueSource <<contract>> {
  +list(filter) : Task[]
  +get(id) : Task
  +upsert(task) : void
}
interface Coordinator <<contract>> {
  +claims() : Map<taskId, Claim>   '' SAME runtime-fact channel as authoring
}

ExecutionDriver ..> Coordinator : claim during work
ExecutionDriver ..> IssueSource : advance phase
FeatureWorker ..> CompleteHandshake : engine.complete(result)
ChoreWorker ..> CompleteHandshake : engine.complete(result)
Adjudicator ..> IssueSource : pass → phase:=done
Adjudicator ..> IssueSource : fail → phase:=needs-human
SafetyMonitor ..> Coordinator : read claim age

note as N_symmetry
  **Symmetry with authoring:** scan → dispatch → worker → result flows back
  as DATA → engine reads & branches. Adjudicator's DoD verdict is to execution
  what the architect Reviewed verdict is to authoring — both appended data,
  never a worker's own claim of success.
end note
note as N_asymmetry
  **Asymmetry:** the completion tail (pink) is NOT a strategy — it is fixed
  safety machinery (ENG-3 merge lock, ENG-8 no self-attested done). Variability
  lives ONLY in WorkAction (role/kind). Do NOT make the tail pluggable.
end note
note as N_today
  TODAY: Interpreter + executionPipeline are pure & TEST-ONLY (unwired).
  ExecutionDriver / CompleteHandshake / Adjudicator / MergeCoordinator /
  SafetyMonitor / Coordinator ALL ABSENT — soak runs on baime scan-loop.
end note

@enduml

PlantUML version 1.2020.02(Sun Mar 01 10:22:07 UTC 2020)
(GPL source distribution)
Java Runtime: OpenJDK Runtime Environment
JVM: OpenJDK 64-Bit Server VM
Java Version: 21.0.11+10-1-22.04.2-Ubuntu
Operating System: Linux
Default Encoding: UTF-8
Language: en
Country: null
--></g></svg>