<?xml version="1.0" encoding="UTF-8" standalone="no"?><svg xmlns="http://www.w3.org/2000/svg" xmlns:xlink="http://www.w3.org/1999/xlink" contentScriptType="application/ecmascript" contentStyleType="text/css" height="696px" preserveAspectRatio="none" style="width:3117px;height:696px;" version="1.1" viewBox="0 0 3117 696" width="3117px" zoomAndPan="magnify"><defs/><g><text fill="#000000" font-family="sans-serif" font-size="18" lengthAdjust="spacingAndGlyphs" textLength="756" x="1192.5" y="16.708">epicd — Multi-lane issue-list (presentation class diagram; green=reuse, orange=new)</text><!--MD5=[cdf03e3fd74b88522fcae23ecdfda011]
cluster Lane engine  (src/web/lib/lanes.ts — REUSE, extend)--><rect fill="#FFFFFF" height="299" style="stroke: #000000; stroke-width: 1.5;" width="477" x="614.5" y="219.9531"/><text fill="#000000" font-family="sans-serif" font-size="14" font-weight="bold" lengthAdjust="spacingAndGlyphs" textLength="411" x="647.5" y="234.9482">Lane engine  (src/web/lib/lanes.ts — REUSE, extend)</text><!--MD5=[e377c931351b9a1bdbc840edd2a2a630]
cluster Issue-list view  (extends TaskList.tsx base)--><rect fill="#FFFFFF" height="640.5" style="stroke: #000000; stroke-width: 1.5;" width="601" x="1115.5" y="45.4531"/><text fill="#000000" font-family="sans-serif" font-size="14" font-weight="bold" lengthAdjust="spacingAndGlyphs" textLength="341" x="1245.5" y="60.4482">Issue-list view  (extends TaskList.tsx base)</text><!--MD5=[0f44c8118d2d0f420edaf9ec37816469]
cluster Projections  (view-only, one-way — R3/R4)--><rect fill="#FFFFFF" height="118" style="stroke: #000000; stroke-width: 1.5;" width="727" x="1740.5" y="381.9531"/><text fill="#000000" font-family="sans-serif" font-size="14" font-weight="bold" lengthAdjust="spacingAndGlyphs" textLength="334" x="1937" y="396.9482">Projections  (view-only, one-way — R3/R4)</text><!--MD5=[dde45f90de504bf87feee72bac48719b]
cluster Data layer  (apiClient + WS)--><rect fill="#FFFFFF" height="292.5" style="stroke: #000000; stroke-width: 1.5;" width="615" x="2491.5" y="219.9531"/><text fill="#000000" font-family="sans-serif" font-size="14" font-weight="bold" lengthAdjust="spacingAndGlyphs" textLength="216" x="2691" y="234.9482">Data layer  (apiClient + WS)</text><!--MD5=[98d80c83fa019ebba580c63477dbd6c7]
cluster Backend (needed)--><rect fill="#FFFFFF" height="118" style="stroke: #000000; stroke-width: 1.5;" width="1143" x="1838.5" y="567.9531"/><text fill="#000000" font-family="sans-serif" font-size="14" font-weight="bold" lengthAdjust="spacingAndGlyphs" textLength="144" x="2338" y="582.9482">Backend (needed)</text><!--MD5=[fb5d6ca49fa693970f2b8add0863facc]
class LaneMode--><rect fill="#FFE0B2" height="53.9375" id="LaneMode" style="stroke: #555555; stroke-width: 1.5;" width="96" x="630.5" y="423.4531"/><ellipse cx="645.5" cy="442.4219" fill="#ADD1B2" rx="11" ry="11" style="stroke: #555555; stroke-width: 1.0;"/><path d="M648.4688,448.0625 Q647.8906,448.3594 647.25,448.5 Q646.6094,448.6563 645.9063,448.6563 Q643.4063,448.6563 642.0781,447.0156 Q640.7656,445.3594 640.7656,442.2344 Q640.7656,439.1094 642.0781,437.4531 Q643.4063,435.7969 645.9063,435.7969 Q646.6094,435.7969 647.25,435.9531 Q647.9063,436.1094 648.4688,436.4063 L648.4688,439.125 Q647.8438,438.5469 647.25,438.2813 Q646.6563,438 646.0313,438 Q644.6875,438 644,439.0781 Q643.3125,440.1406 643.3125,442.2344 Q643.3125,444.3281 644,445.4063 Q644.6875,446.4688 646.0313,446.4688 Q646.6563,446.4688 647.25,446.2031 Q647.8438,445.9219 648.4688,445.3438 L648.4688,448.0625 Z "/><text fill="#000000" font-family="sans-serif" font-size="12" font-style="italic" lengthAdjust="spacingAndGlyphs" textLength="40" x="671.5" y="439.5918">«new»</text><text fill="#000000" font-family="sans-serif" font-size="12" lengthAdjust="spacingAndGlyphs" textLength="64" x="659.5" y="453.5605">LaneMode</text><line style="stroke: #555555; stroke-width: 1.5;" x1="631.5" x2="725.5" y1="461.3906" y2="461.3906"/><line style="stroke: #555555; stroke-width: 1.5;" x1="631.5" x2="725.5" y1="469.3906" y2="469.3906"/><!--MD5=[d9b568d9f2b9818f14ae1db263ade736]
class LaneDefinition--><rect fill="#C8E6C9" height="105.1563" id="LaneDefinition" style="stroke: #555555; stroke-width: 1.5;" width="314" x="761.5" y="397.9531"/><ellipse cx="869.75" cy="416.9219" fill="#ADD1B2" rx="11" ry="11" style="stroke: #555555; stroke-width: 1.0;"/><path d="M872.7188,422.5625 Q872.1406,422.8594 871.5,423 Q870.8594,423.1563 870.1563,423.1563 Q867.6563,423.1563 866.3281,421.5156 Q865.0156,419.8594 865.0156,416.7344 Q865.0156,413.6094 866.3281,411.9531 Q867.6563,410.2969 870.1563,410.2969 Q870.8594,410.2969 871.5,410.4531 Q872.1563,410.6094 872.7188,410.9063 L872.7188,413.625 Q872.0938,413.0469 871.5,412.7813 Q870.9063,412.5 870.2813,412.5 Q868.9375,412.5 868.25,413.5781 Q867.5625,414.6406 867.5625,416.7344 Q867.5625,418.8281 868.25,419.9063 Q868.9375,420.9688 870.2813,420.9688 Q870.9063,420.9688 871.5,420.7031 Q872.0938,420.4219 872.7188,419.8438 L872.7188,422.5625 Z "/><text fill="#000000" font-family="sans-serif" font-size="12" font-style="italic" lengthAdjust="spacingAndGlyphs" textLength="49" x="910.25" y="414.0918">«reuse»</text><text fill="#000000" font-family="sans-serif" font-size="12" lengthAdjust="spacingAndGlyphs" textLength="89" x="890.25" y="428.0605">LaneDefinition</text><line style="stroke: #555555; stroke-width: 1.5;" x1="762.5" x2="1074.5" y1="435.8906" y2="435.8906"/><ellipse cx="772.5" cy="446.8906" fill="none" rx="3" ry="3" style="stroke: #038048; stroke-width: 1.0;"/><text fill="#000000" font-family="sans-serif" font-size="11" lengthAdjust="spacingAndGlyphs" textLength="64" x="781.5" y="450.1011">key : string</text><ellipse cx="772.5" cy="459.6953" fill="none" rx="3" ry="3" style="stroke: #038048; stroke-width: 1.0;"/><text fill="#000000" font-family="sans-serif" font-size="11" lengthAdjust="spacingAndGlyphs" textLength="72" x="781.5" y="462.9058">label : string</text><ellipse cx="772.5" cy="472.5" fill="none" rx="3" ry="3" style="stroke: #038048; stroke-width: 1.0;"/><text fill="#000000" font-family="sans-serif" font-size="11" lengthAdjust="spacingAndGlyphs" textLength="107" x="781.5" y="475.7104">milestone? : string</text><ellipse cx="772.5" cy="485.3047" fill="none" rx="3" ry="3" style="stroke: #038048; stroke-width: 1.0;"/><text fill="#000000" font-family="sans-serif" font-size="11" lengthAdjust="spacingAndGlyphs" textLength="288" x="781.5" y="488.5151">pipeline_id? : string   '' NEW field for pipeline lanes</text><line style="stroke: #555555; stroke-width: 1.5;" x1="762.5" x2="1074.5" y1="495.1094" y2="495.1094"/><!--MD5=[a234284129f1e671f53339316c92558f]
class LaneFns--><rect fill="#FFE0B2" height="79.5469" id="LaneFns" style="stroke: #555555; stroke-width: 1.5;" width="442" x="633.5" y="254.9531"/><ellipse cx="824.25" cy="273.9219" fill="#ADD1B2" rx="11" ry="11" style="stroke: #555555; stroke-width: 1.0;"/><path d="M827.2188,279.5625 Q826.6406,279.8594 826,280 Q825.3594,280.1563 824.6563,280.1563 Q822.1563,280.1563 820.8281,278.5156 Q819.5156,276.8594 819.5156,273.7344 Q819.5156,270.6094 820.8281,268.9531 Q822.1563,267.2969 824.6563,267.2969 Q825.3594,267.2969 826,267.4531 Q826.6563,267.6094 827.2188,267.9063 L827.2188,270.625 Q826.5938,270.0469 826,269.7813 Q825.4063,269.5 824.7813,269.5 Q823.4375,269.5 822.75,270.5781 Q822.0625,271.6406 822.0625,273.7344 Q822.0625,275.8281 822.75,276.9063 Q823.4375,277.9688 824.7813,277.9688 Q825.4063,277.9688 826,277.7031 Q826.5938,277.4219 827.2188,276.8438 L827.2188,279.5625 Z "/><text fill="#000000" font-family="sans-serif" font-size="12" font-style="italic" lengthAdjust="spacingAndGlyphs" textLength="40" x="850.75" y="271.0918">«new»</text><text fill="#000000" font-family="sans-serif" font-size="12" lengthAdjust="spacingAndGlyphs" textLength="52" x="844.75" y="285.0605">LaneFns</text><line style="stroke: #555555; stroke-width: 1.5;" x1="634.5" x2="1074.5" y1="292.8906" y2="292.8906"/><line style="stroke: #555555; stroke-width: 1.5;" x1="634.5" x2="1074.5" y1="300.8906" y2="300.8906"/><ellipse cx="644.5" cy="311.8906" fill="#84BE84" rx="3" ry="3" style="stroke: #038048; stroke-width: 1.0;"/><text fill="#000000" font-family="sans-serif" font-size="11" lengthAdjust="spacingAndGlyphs" textLength="398" x="653.5" y="315.1011">buildLanes(mode, tasks, ...) : LaneDefinition[]    '' add pipeline branch</text><ellipse cx="644.5" cy="324.6953" fill="#84BE84" rx="3" ry="3" style="stroke: #038048; stroke-width: 1.0;"/><text fill="#000000" font-family="sans-serif" font-size="11" lengthAdjust="spacingAndGlyphs" textLength="416" x="653.5" y="327.9058">groupTasksByLaneAndStatus(...) : Map&lt;laneKey, Map&lt;column, Task[]&gt;&gt;</text><!--MD5=[8fe697f1d73d22fdcb1bc1a44e1fa53d]
class IssueListView--><rect fill="#FFE0B2" height="66.7422" id="IssueListView" style="stroke: #555555; stroke-width: 1.5;" width="114" x="1574.5" y="80.4531"/><ellipse cx="1589.5" cy="99.4219" fill="#ADD1B2" rx="11" ry="11" style="stroke: #555555; stroke-width: 1.0;"/><path d="M1592.4688,105.0625 Q1591.8906,105.3594 1591.25,105.5 Q1590.6094,105.6563 1589.9063,105.6563 Q1587.4063,105.6563 1586.0781,104.0156 Q1584.7656,102.3594 1584.7656,99.2344 Q1584.7656,96.1094 1586.0781,94.4531 Q1587.4063,92.7969 1589.9063,92.7969 Q1590.6094,92.7969 1591.25,92.9531 Q1591.9063,93.1094 1592.4688,93.4063 L1592.4688,96.125 Q1591.8438,95.5469 1591.25,95.2813 Q1590.6563,95 1590.0313,95 Q1588.6875,95 1588,96.0781 Q1587.3125,97.1406 1587.3125,99.2344 Q1587.3125,101.3281 1588,102.4063 Q1588.6875,103.4688 1590.0313,103.4688 Q1590.6563,103.4688 1591.25,103.2031 Q1591.8438,102.9219 1592.4688,102.3438 L1592.4688,105.0625 Z "/><text fill="#000000" font-family="sans-serif" font-size="12" font-style="italic" lengthAdjust="spacingAndGlyphs" textLength="40" x="1624.5" y="96.5918">«new»</text><text fill="#000000" font-family="sans-serif" font-size="12" lengthAdjust="spacingAndGlyphs" textLength="82" x="1603.5" y="110.5605">IssueListView</text><line style="stroke: #555555; stroke-width: 1.5;" x1="1575.5" x2="1687.5" y1="118.3906" y2="118.3906"/><line style="stroke: #555555; stroke-width: 1.5;" x1="1575.5" x2="1687.5" y1="126.3906" y2="126.3906"/><ellipse cx="1585.5" cy="137.3906" fill="#84BE84" rx="3" ry="3" style="stroke: #038048; stroke-width: 1.0;"/><text fill="#000000" font-family="sans-serif" font-size="11" lengthAdjust="spacingAndGlyphs" textLength="46" x="1594.5" y="140.6011">render()</text><!--MD5=[9a3a777bb929b1442b0944fb0c828de6]
class LaneSwitcher--><rect fill="#FFE0B2" height="53.9375" id="LaneSwitcher" style="stroke: #555555; stroke-width: 1.5;" width="115" x="1413" y="267.9531"/><ellipse cx="1428" cy="286.9219" fill="#ADD1B2" rx="11" ry="11" style="stroke: #555555; stroke-width: 1.0;"/><path d="M1430.9688,292.5625 Q1430.3906,292.8594 1429.75,293 Q1429.1094,293.1563 1428.4063,293.1563 Q1425.9063,293.1563 1424.5781,291.5156 Q1423.2656,289.8594 1423.2656,286.7344 Q1423.2656,283.6094 1424.5781,281.9531 Q1425.9063,280.2969 1428.4063,280.2969 Q1429.1094,280.2969 1429.75,280.4531 Q1430.4063,280.6094 1430.9688,280.9063 L1430.9688,283.625 Q1430.3438,283.0469 1429.75,282.7813 Q1429.1563,282.5 1428.5313,282.5 Q1427.1875,282.5 1426.5,283.5781 Q1425.8125,284.6406 1425.8125,286.7344 Q1425.8125,288.8281 1426.5,289.9063 Q1427.1875,290.9688 1428.5313,290.9688 Q1429.1563,290.9688 1429.75,290.7031 Q1430.3438,290.4219 1430.9688,289.8438 L1430.9688,292.5625 Z "/><text fill="#000000" font-family="sans-serif" font-size="12" font-style="italic" lengthAdjust="spacingAndGlyphs" textLength="40" x="1463.5" y="284.0918">«new»</text><text fill="#000000" font-family="sans-serif" font-size="12" lengthAdjust="spacingAndGlyphs" textLength="83" x="1442" y="298.0605">LaneSwitcher</text><line style="stroke: #555555; stroke-width: 1.5;" x1="1414" x2="1527" y1="305.8906" y2="305.8906"/><line style="stroke: #555555; stroke-width: 1.5;" x1="1414" x2="1527" y1="313.8906" y2="313.8906"/><!--MD5=[c764cc90632447ccad0594d2a68a227d]
class Swimlane--><rect fill="#C8E6C9" height="66.7422" id="Swimlane" style="stroke: #555555; stroke-width: 1.5;" width="137" x="1563" y="261.4531"/><ellipse cx="1599.15" cy="280.4219" fill="#ADD1B2" rx="11" ry="11" style="stroke: #555555; stroke-width: 1.0;"/><path d="M1602.1188,286.0625 Q1601.5406,286.3594 1600.9,286.5 Q1600.2594,286.6563 1599.5563,286.6563 Q1597.0563,286.6563 1595.7281,285.0156 Q1594.4156,283.3594 1594.4156,280.2344 Q1594.4156,277.1094 1595.7281,275.4531 Q1597.0563,273.7969 1599.5563,273.7969 Q1600.2594,273.7969 1600.9,273.9531 Q1601.5563,274.1094 1602.1188,274.4063 L1602.1188,277.125 Q1601.4938,276.5469 1600.9,276.2813 Q1600.3063,276 1599.6813,276 Q1598.3375,276 1597.65,277.0781 Q1596.9625,278.1406 1596.9625,280.2344 Q1596.9625,282.3281 1597.65,283.4063 Q1598.3375,284.4688 1599.6813,284.4688 Q1600.3063,284.4688 1600.9,284.2031 Q1601.4938,283.9219 1602.1188,283.3438 L1602.1188,286.0625 Z "/><text fill="#000000" font-family="sans-serif" font-size="12" font-style="italic" lengthAdjust="spacingAndGlyphs" textLength="49" x="1622.35" y="277.5918">«reuse»</text><text fill="#000000" font-family="sans-serif" font-size="12" lengthAdjust="spacingAndGlyphs" textLength="58" x="1617.85" y="291.5605">Swimlane</text><line style="stroke: #555555; stroke-width: 1.5;" x1="1564" x2="1699" y1="299.3906" y2="299.3906"/><ellipse cx="1574" cy="310.3906" fill="none" rx="3" ry="3" style="stroke: #038048; stroke-width: 1.0;"/><text fill="#000000" font-family="sans-serif" font-size="11" lengthAdjust="spacingAndGlyphs" textLength="111" x="1583" y="313.6011">collapsed : boolean</text><line style="stroke: #555555; stroke-width: 1.5;" x1="1564" x2="1699" y1="320.1953" y2="320.1953"/><!--MD5=[f39f2eefe4f8e14fa4396a7874ad7edc]
class TaskRow--><rect fill="#C8E6C9" height="53.9375" id="TaskRow" style="stroke: #555555; stroke-width: 1.5;" width="86" x="1474.5" y="423.4531"/><ellipse cx="1489.5" cy="442.4219" fill="#ADD1B2" rx="11" ry="11" style="stroke: #555555; stroke-width: 1.0;"/><path d="M1492.4688,448.0625 Q1491.8906,448.3594 1491.25,448.5 Q1490.6094,448.6563 1489.9063,448.6563 Q1487.4063,448.6563 1486.0781,447.0156 Q1484.7656,445.3594 1484.7656,442.2344 Q1484.7656,439.1094 1486.0781,437.4531 Q1487.4063,435.7969 1489.9063,435.7969 Q1490.6094,435.7969 1491.25,435.9531 Q1491.9063,436.1094 1492.4688,436.4063 L1492.4688,439.125 Q1491.8438,438.5469 1491.25,438.2813 Q1490.6563,438 1490.0313,438 Q1488.6875,438 1488,439.0781 Q1487.3125,440.1406 1487.3125,442.2344 Q1487.3125,444.3281 1488,445.4063 Q1488.6875,446.4688 1490.0313,446.4688 Q1490.6563,446.4688 1491.25,446.2031 Q1491.8438,445.9219 1492.4688,445.3438 L1492.4688,448.0625 Z "/><text fill="#000000" font-family="sans-serif" font-size="12" font-style="italic" lengthAdjust="spacingAndGlyphs" textLength="49" x="1506" y="439.5918">«reuse»</text><text fill="#000000" font-family="sans-serif" font-size="12" lengthAdjust="spacingAndGlyphs" textLength="54" x="1503.5" y="453.5605">TaskRow</text><line style="stroke: #555555; stroke-width: 1.5;" x1="1475.5" x2="1559.5" y1="461.3906" y2="461.3906"/><line style="stroke: #555555; stroke-width: 1.5;" x1="1475.5" x2="1559.5" y1="469.3906" y2="469.3906"/><!--MD5=[85658886851f8253a35be160d2966d94]
class DriverIndicator--><rect fill="#FFE0B2" height="66.7422" id="DriverIndicator" style="stroke: #555555; stroke-width: 1.5;" width="396" x="1131.5" y="602.9531"/><ellipse cx="1279.75" cy="621.9219" fill="#ADD1B2" rx="11" ry="11" style="stroke: #555555; stroke-width: 1.0;"/><path d="M1282.7188,627.5625 Q1282.1406,627.8594 1281.5,628 Q1280.8594,628.1563 1280.1563,628.1563 Q1277.6563,628.1563 1276.3281,626.5156 Q1275.0156,624.8594 1275.0156,621.7344 Q1275.0156,618.6094 1276.3281,616.9531 Q1277.6563,615.2969 1280.1563,615.2969 Q1280.8594,615.2969 1281.5,615.4531 Q1282.1563,615.6094 1282.7188,615.9063 L1282.7188,618.625 Q1282.0938,618.0469 1281.5,617.7813 Q1280.9063,617.5 1280.2813,617.5 Q1278.9375,617.5 1278.25,618.5781 Q1277.5625,619.6406 1277.5625,621.7344 Q1277.5625,623.8281 1278.25,624.9063 Q1278.9375,625.9688 1280.2813,625.9688 Q1280.9063,625.9688 1281.5,625.7031 Q1282.0938,625.4219 1282.7188,624.8438 L1282.7188,627.5625 Z "/><text fill="#000000" font-family="sans-serif" font-size="12" font-style="italic" lengthAdjust="spacingAndGlyphs" textLength="40" x="1325.75" y="619.0918">«new»</text><text fill="#000000" font-family="sans-serif" font-size="12" lengthAdjust="spacingAndGlyphs" textLength="91" x="1300.25" y="633.0605">DriverIndicator</text><line style="stroke: #555555; stroke-width: 1.5;" x1="1132.5" x2="1526.5" y1="640.8906" y2="640.8906"/><line style="stroke: #555555; stroke-width: 1.5;" x1="1132.5" x2="1526.5" y1="648.8906" y2="648.8906"/><ellipse cx="1142.5" cy="659.8906" fill="#84BE84" rx="3" ry="3" style="stroke: #038048; stroke-width: 1.0;"/><text fill="#000000" font-family="sans-serif" font-size="11" lengthAdjust="spacingAndGlyphs" textLength="370" x="1151.5" y="663.1011">compute(actor, claim) : Icon    '' actor = pipelineDef[phase].actor</text><!--MD5=[4aa8b11df69cba8acad8248e6ef0f876]
class InlineGateReview--><rect fill="#FFE0B2" height="53.9375" id="InlineGateReview" style="stroke: #555555; stroke-width: 1.5;" width="137" x="1563" y="609.4531"/><ellipse cx="1578" cy="628.4219" fill="#ADD1B2" rx="11" ry="11" style="stroke: #555555; stroke-width: 1.0;"/><path d="M1580.9688,634.0625 Q1580.3906,634.3594 1579.75,634.5 Q1579.1094,634.6563 1578.4063,634.6563 Q1575.9063,634.6563 1574.5781,633.0156 Q1573.2656,631.3594 1573.2656,628.2344 Q1573.2656,625.1094 1574.5781,623.4531 Q1575.9063,621.7969 1578.4063,621.7969 Q1579.1094,621.7969 1579.75,621.9531 Q1580.4063,622.1094 1580.9688,622.4063 L1580.9688,625.125 Q1580.3438,624.5469 1579.75,624.2813 Q1579.1563,624 1578.5313,624 Q1577.1875,624 1576.5,625.0781 Q1575.8125,626.1406 1575.8125,628.2344 Q1575.8125,630.3281 1576.5,631.4063 Q1577.1875,632.4688 1578.5313,632.4688 Q1579.1563,632.4688 1579.75,632.2031 Q1580.3438,631.9219 1580.9688,631.3438 L1580.9688,634.0625 Z "/><text fill="#000000" font-family="sans-serif" font-size="12" font-style="italic" lengthAdjust="spacingAndGlyphs" textLength="40" x="1624.5" y="625.5918">«new»</text><text fill="#000000" font-family="sans-serif" font-size="12" lengthAdjust="spacingAndGlyphs" textLength="105" x="1592" y="639.5605">InlineGateReview</text><line style="stroke: #555555; stroke-width: 1.5;" x1="1564" x2="1699" y1="647.3906" y2="647.3906"/><line style="stroke: #555555; stroke-width: 1.5;" x1="1564" x2="1699" y1="655.3906" y2="655.3906"/><!--MD5=[2ad4919d8d067e859e99e18765e2682f]
class LabelProjection--><rect fill="#E1BEE7" height="66.7422" id="LabelProjection" style="stroke: #555555; stroke-width: 1.5;" width="241" x="2210" y="416.9531"/><ellipse cx="2278.25" cy="435.9219" fill="#ADD1B2" rx="11" ry="11" style="stroke: #555555; stroke-width: 1.0;"/><path d="M2281.2188,441.5625 Q2280.6406,441.8594 2280,442 Q2279.3594,442.1563 2278.6563,442.1563 Q2276.1563,442.1563 2274.8281,440.5156 Q2273.5156,438.8594 2273.5156,435.7344 Q2273.5156,432.6094 2274.8281,430.9531 Q2276.1563,429.2969 2278.6563,429.2969 Q2279.3594,429.2969 2280,429.4531 Q2280.6563,429.6094 2281.2188,429.9063 L2281.2188,432.625 Q2280.5938,432.0469 2280,431.7813 Q2279.4063,431.5 2278.7813,431.5 Q2277.4375,431.5 2276.75,432.5781 Q2276.0625,433.6406 2276.0625,435.7344 Q2276.0625,437.8281 2276.75,438.9063 Q2277.4375,439.9688 2278.7813,439.9688 Q2279.4063,439.9688 2280,439.7031 Q2280.5938,439.4219 2281.2188,438.8438 L2281.2188,441.5625 Z "/><text fill="#000000" font-family="sans-serif" font-size="12" font-style="italic" lengthAdjust="spacingAndGlyphs" textLength="77" x="2308.25" y="433.0918">«projection»</text><text fill="#000000" font-family="sans-serif" font-size="12" lengthAdjust="spacingAndGlyphs" textLength="96" x="2298.75" y="447.0605">LabelProjection</text><line style="stroke: #555555; stroke-width: 1.5;" x1="2211" x2="2450" y1="454.8906" y2="454.8906"/><line style="stroke: #555555; stroke-width: 1.5;" x1="2211" x2="2450" y1="462.8906" y2="462.8906"/><ellipse cx="2221" cy="473.8906" fill="#84BE84" rx="3" ry="3" style="stroke: #038048; stroke-width: 1.0;"/><text fill="#000000" font-family="sans-serif" font-size="11" lengthAdjust="spacingAndGlyphs" textLength="215" x="2230" y="477.1011">label(phase, turn, role, plane) : string</text><!--MD5=[58f1048ce55cbc0b445354c6dda0796c]
class DisplayHints--><rect fill="#E1BEE7" height="66.7422" id="DisplayHints" style="stroke: #555555; stroke-width: 1.5;" width="419" x="1756" y="416.9531"/><ellipse cx="1923.25" cy="435.9219" fill="#ADD1B2" rx="11" ry="11" style="stroke: #555555; stroke-width: 1.0;"/><path d="M1926.2188,441.5625 Q1925.6406,441.8594 1925,442 Q1924.3594,442.1563 1923.6563,442.1563 Q1921.1563,442.1563 1919.8281,440.5156 Q1918.5156,438.8594 1918.5156,435.7344 Q1918.5156,432.6094 1919.8281,430.9531 Q1921.1563,429.2969 1923.6563,429.2969 Q1924.3594,429.2969 1925,429.4531 Q1925.6563,429.6094 1926.2188,429.9063 L1926.2188,432.625 Q1925.5938,432.0469 1925,431.7813 Q1924.4063,431.5 1923.7813,431.5 Q1922.4375,431.5 1921.75,432.5781 Q1921.0625,433.6406 1921.0625,435.7344 Q1921.0625,437.8281 1921.75,438.9063 Q1922.4375,439.9688 1923.7813,439.9688 Q1924.4063,439.9688 1925,439.7031 Q1925.5938,439.4219 1926.2188,438.8438 L1926.2188,441.5625 Z "/><text fill="#000000" font-family="sans-serif" font-size="12" font-style="italic" lengthAdjust="spacingAndGlyphs" textLength="77" x="1943.25" y="433.0918">«projection»</text><text fill="#000000" font-family="sans-serif" font-size="12" lengthAdjust="spacingAndGlyphs" textLength="76" x="1943.75" y="447.0605">DisplayHints</text><line style="stroke: #555555; stroke-width: 1.5;" x1="1757" x2="2174" y1="454.8906" y2="454.8906"/><ellipse cx="1767" cy="465.8906" fill="none" rx="3" ry="3" style="stroke: #038048; stroke-width: 1.0;"/><text fill="#000000" font-family="sans-serif" font-size="11" lengthAdjust="spacingAndGlyphs" textLength="393" x="1776" y="469.1011">byPipeline : Map&lt;pipeline_id, {columns, sort, collapsed, icon, title}&gt;</text><line style="stroke: #555555; stroke-width: 1.5;" x1="1757" x2="2174" y1="475.6953" y2="475.6953"/><!--MD5=[7c4bedb425c5a2178b3524347ff0a2ba]
class TasksClaimsHook--><rect fill="#FFE0B2" height="79.5469" id="TasksClaimsHook" style="stroke: #555555; stroke-width: 1.5;" width="190" x="2635.5" y="254.9531"/><ellipse cx="2673" cy="273.9219" fill="#ADD1B2" rx="11" ry="11" style="stroke: #555555; stroke-width: 1.0;"/><path d="M2675.9688,279.5625 Q2675.3906,279.8594 2674.75,280 Q2674.1094,280.1563 2673.4063,280.1563 Q2670.9063,280.1563 2669.5781,278.5156 Q2668.2656,276.8594 2668.2656,273.7344 Q2668.2656,270.6094 2669.5781,268.9531 Q2670.9063,267.2969 2673.4063,267.2969 Q2674.1094,267.2969 2674.75,267.4531 Q2675.4063,267.6094 2675.9688,267.9063 L2675.9688,270.625 Q2675.3438,270.0469 2674.75,269.7813 Q2674.1563,269.5 2673.5313,269.5 Q2672.1875,269.5 2671.5,270.5781 Q2670.8125,271.6406 2670.8125,273.7344 Q2670.8125,275.8281 2671.5,276.9063 Q2672.1875,277.9688 2673.5313,277.9688 Q2674.1563,277.9688 2674.75,277.7031 Q2675.3438,277.4219 2675.9688,276.8438 L2675.9688,279.5625 Z "/><text fill="#000000" font-family="sans-serif" font-size="12" font-style="italic" lengthAdjust="spacingAndGlyphs" textLength="40" x="2726" y="271.0918">«new»</text><text fill="#000000" font-family="sans-serif" font-size="12" lengthAdjust="spacingAndGlyphs" textLength="108" x="2692" y="285.0605">TasksClaimsHook</text><line style="stroke: #555555; stroke-width: 1.5;" x1="2636.5" x2="2824.5" y1="292.8906" y2="292.8906"/><ellipse cx="2646.5" cy="303.8906" fill="none" rx="3" ry="3" style="stroke: #038048; stroke-width: 1.0;"/><text fill="#000000" font-family="sans-serif" font-size="11" lengthAdjust="spacingAndGlyphs" textLength="78" x="2655.5" y="307.1011">tasks : Task[]</text><ellipse cx="2646.5" cy="316.6953" fill="none" rx="3" ry="3" style="stroke: #038048; stroke-width: 1.0;"/><text fill="#000000" font-family="sans-serif" font-size="11" lengthAdjust="spacingAndGlyphs" textLength="164" x="2655.5" y="319.9058">claims : Map&lt;taskId, Claim&gt;</text><line style="stroke: #555555; stroke-width: 1.5;" x1="2636.5" x2="2824.5" y1="326.5" y2="326.5"/><!--MD5=[9b027cc50fa4a3b75d7b0c73861f039b]
class ApiClient--><rect fill="#FFE0B2" height="92.3516" id="ApiClient" style="stroke: #555555; stroke-width: 1.5;" width="446" x="2507.5" y="404.4531"/><ellipse cx="2699.25" cy="423.4219" fill="#ADD1B2" rx="11" ry="11" style="stroke: #555555; stroke-width: 1.0;"/><path d="M2702.2188,429.0625 Q2701.6406,429.3594 2701,429.5 Q2700.3594,429.6563 2699.6563,429.6563 Q2697.1563,429.6563 2695.8281,428.0156 Q2694.5156,426.3594 2694.5156,423.2344 Q2694.5156,420.1094 2695.8281,418.4531 Q2697.1563,416.7969 2699.6563,416.7969 Q2700.3594,416.7969 2701,416.9531 Q2701.6563,417.1094 2702.2188,417.4063 L2702.2188,420.125 Q2701.5938,419.5469 2701,419.2813 Q2700.4063,419 2699.7813,419 Q2698.4375,419 2697.75,420.0781 Q2697.0625,421.1406 2697.0625,423.2344 Q2697.0625,425.3281 2697.75,426.4063 Q2698.4375,427.4688 2699.7813,427.4688 Q2700.4063,427.4688 2701,427.2031 Q2701.5938,426.9219 2702.2188,426.3438 L2702.2188,429.0625 Z "/><text fill="#000000" font-family="sans-serif" font-size="12" font-style="italic" lengthAdjust="spacingAndGlyphs" textLength="40" x="2726.75" y="420.5918">«new»</text><text fill="#000000" font-family="sans-serif" font-size="12" lengthAdjust="spacingAndGlyphs" textLength="54" x="2719.75" y="434.5605">ApiClient</text><line style="stroke: #555555; stroke-width: 1.5;" x1="2508.5" x2="2952.5" y1="442.3906" y2="442.3906"/><line style="stroke: #555555; stroke-width: 1.5;" x1="2508.5" x2="2952.5" y1="450.3906" y2="450.3906"/><ellipse cx="2518.5" cy="461.3906" fill="#84BE84" rx="3" ry="3" style="stroke: #038048; stroke-width: 1.0;"/><text fill="#000000" font-family="sans-serif" font-size="11" lengthAdjust="spacingAndGlyphs" textLength="410" x="2527.5" y="464.6011">search(filter) : Task[]   '' EXTEND filter: + pipeline_id / state / waiting_on</text><ellipse cx="2518.5" cy="474.1953" fill="#84BE84" rx="3" ry="3" style="stroke: #038048; stroke-width: 1.0;"/><text fill="#000000" font-family="sans-serif" font-size="11" lengthAdjust="spacingAndGlyphs" textLength="401" x="2527.5" y="477.4058">postGateDecision(task, verdict)   '' NEW endpoint for inline gate-review</text><ellipse cx="2518.5" cy="487" fill="#84BE84" rx="3" ry="3" style="stroke: #038048; stroke-width: 1.0;"/><text fill="#000000" font-family="sans-serif" font-size="11" lengthAdjust="spacingAndGlyphs" textLength="420" x="2527.5" y="490.2104">getClaims() : Map&lt;taskId, Claim&gt;  '' NEW: read Coordinator runtime state</text><!--MD5=[35831447768dbc1c5ecb146fa99b0227]
class WsChannel--><rect fill="#C8E6C9" height="53.9375" id="WsChannel" style="stroke: #555555; stroke-width: 1.5;" width="101" x="2989" y="423.4531"/><ellipse cx="3004" cy="442.4219" fill="#ADD1B2" rx="11" ry="11" style="stroke: #555555; stroke-width: 1.0;"/><path d="M3006.9688,448.0625 Q3006.3906,448.3594 3005.75,448.5 Q3005.1094,448.6563 3004.4063,448.6563 Q3001.9063,448.6563 3000.5781,447.0156 Q2999.2656,445.3594 2999.2656,442.2344 Q2999.2656,439.1094 3000.5781,437.4531 Q3001.9063,435.7969 3004.4063,435.7969 Q3005.1094,435.7969 3005.75,435.9531 Q3006.4063,436.1094 3006.9688,436.4063 L3006.9688,439.125 Q3006.3438,438.5469 3005.75,438.2813 Q3005.1563,438 3004.5313,438 Q3003.1875,438 3002.5,439.0781 Q3001.8125,440.1406 3001.8125,442.2344 Q3001.8125,444.3281 3002.5,445.4063 Q3003.1875,446.4688 3004.5313,446.4688 Q3005.1563,446.4688 3005.75,446.2031 Q3006.3438,445.9219 3006.9688,445.3438 L3006.9688,448.0625 Z "/><text fill="#000000" font-family="sans-serif" font-size="12" font-style="italic" lengthAdjust="spacingAndGlyphs" textLength="49" x="3028" y="439.5918">«reuse»</text><text fill="#000000" font-family="sans-serif" font-size="12" lengthAdjust="spacingAndGlyphs" textLength="69" x="3018" y="453.5605">WsChannel</text><line style="stroke: #555555; stroke-width: 1.5;" x1="2990" x2="3089" y1="461.3906" y2="461.3906"/><line style="stroke: #555555; stroke-width: 1.5;" x1="2990" x2="3089" y1="469.3906" y2="469.3906"/><!--MD5=[3bfeb1f6eb397f206f42a5e5c7085231]
class SearchService--><rect fill="#B3E5FC" height="66.7422" id="SearchService" style="stroke: #555555; stroke-width: 1.5;" width="145" x="2315" y="602.9531"/><ellipse cx="2340.8" cy="621.9219" fill="#B4A7E5" rx="11" ry="11" style="stroke: #555555; stroke-width: 1.0;"/><path d="M2336.7219,617.6875 L2336.7219,615.5313 L2344.1125,615.5313 L2344.1125,617.6875 L2341.6438,617.6875 L2341.6438,625.7656 L2344.1125,625.7656 L2344.1125,627.9219 L2336.7219,627.9219 L2336.7219,625.7656 L2339.1906,625.7656 L2339.1906,617.6875 L2336.7219,617.6875 Z "/><text fill="#000000" font-family="sans-serif" font-size="12" font-style="italic" lengthAdjust="spacingAndGlyphs" textLength="67" x="2368.2" y="619.0918">«contract»</text><text fill="#000000" font-family="sans-serif" font-size="12" font-style="italic" lengthAdjust="spacingAndGlyphs" textLength="89" x="2357.2" y="633.0605">SearchService</text><line style="stroke: #555555; stroke-width: 1.5;" x1="2316" x2="2459" y1="640.8906" y2="640.8906"/><line style="stroke: #555555; stroke-width: 1.5;" x1="2316" x2="2459" y1="648.8906" y2="648.8906"/><ellipse cx="2326" cy="659.8906" fill="#84BE84" rx="3" ry="3" style="stroke: #038048; stroke-width: 1.0;"/><text fill="#000000" font-family="sans-serif" font-size="11" lengthAdjust="spacingAndGlyphs" textLength="119" x="2335" y="663.1011">search(opts) : Task[]</text><!--MD5=[5d2bdee92db0d01b75732190da037553]
class Coordinator--><rect fill="#B3E5FC" height="66.7422" id="Coordinator" style="stroke: #555555; stroke-width: 1.5;" width="471" x="2495" y="602.9531"/><ellipse cx="2689.25" cy="621.9219" fill="#B4A7E5" rx="11" ry="11" style="stroke: #555555; stroke-width: 1.0;"/><path d="M2685.1719,617.6875 L2685.1719,615.5313 L2692.5625,615.5313 L2692.5625,617.6875 L2690.0938,617.6875 L2690.0938,625.7656 L2692.5625,625.7656 L2692.5625,627.9219 L2685.1719,627.9219 L2685.1719,625.7656 L2687.6406,625.7656 L2687.6406,617.6875 L2685.1719,617.6875 Z "/><text fill="#000000" font-family="sans-serif" font-size="12" font-style="italic" lengthAdjust="spacingAndGlyphs" textLength="67" x="2713.25" y="619.0918">«contract»</text><text fill="#000000" font-family="sans-serif" font-size="12" font-style="italic" lengthAdjust="spacingAndGlyphs" textLength="74" x="2709.75" y="633.0605">Coordinator</text><line style="stroke: #555555; stroke-width: 1.5;" x1="2496" x2="2965" y1="640.8906" y2="640.8906"/><line style="stroke: #555555; stroke-width: 1.5;" x1="2496" x2="2965" y1="648.8906" y2="648.8906"/><ellipse cx="2506" cy="659.8906" fill="#84BE84" rx="3" ry="3" style="stroke: #038048; stroke-width: 1.0;"/><text fill="#000000" font-family="sans-serif" font-size="11" lengthAdjust="spacingAndGlyphs" textLength="445" x="2515" y="663.1011">claims() : Map&lt;taskId, Claim&gt;   '' ABSENT today; soak = baime .active-agents</text><!--MD5=[061bbcad7025071bfab9a2ceeee6e0b8]
class ConfigPipelines--><rect fill="#B3E5FC" height="66.7422" id="ConfigPipelines" style="stroke: #555555; stroke-width: 1.5;" width="425" x="1855" y="602.9531"/><ellipse cx="2016.75" cy="621.9219" fill="#B4A7E5" rx="11" ry="11" style="stroke: #555555; stroke-width: 1.0;"/><path d="M2012.6719,617.6875 L2012.6719,615.5313 L2020.0625,615.5313 L2020.0625,617.6875 L2017.5938,617.6875 L2017.5938,625.7656 L2020.0625,625.7656 L2020.0625,627.9219 L2012.6719,627.9219 L2012.6719,625.7656 L2015.1406,625.7656 L2015.1406,617.6875 L2012.6719,617.6875 Z "/><text fill="#000000" font-family="sans-serif" font-size="12" font-style="italic" lengthAdjust="spacingAndGlyphs" textLength="67" x="2050.25" y="619.0918">«contract»</text><text fill="#000000" font-family="sans-serif" font-size="12" font-style="italic" lengthAdjust="spacingAndGlyphs" textLength="93" x="2037.25" y="633.0605">ConfigPipelines</text><line style="stroke: #555555; stroke-width: 1.5;" x1="1856" x2="2279" y1="640.8906" y2="640.8906"/><ellipse cx="1866" cy="651.8906" fill="none" rx="3" ry="3" style="stroke: #038048; stroke-width: 1.0;"/><text fill="#000000" font-family="sans-serif" font-size="11" lengthAdjust="spacingAndGlyphs" textLength="399" x="1875" y="655.1011">pipelines[] : Pipeline   '' ABSENT in config.yml today → source of lanes</text><line style="stroke: #555555; stroke-width: 1.5;" x1="1856" x2="2279" y1="661.6953" y2="661.6953"/><path d="M6,86.4531 L6,141.8516 L541,141.8516 L541,96.4531 L531,86.4531 L6,86.4531 " fill="#FBFB77" style="stroke: #A80036; stroke-width: 1.0;"/><path d="M531,86.4531 L531,96.4531 L541,96.4531 L531,86.4531 " fill="#FBFB77" style="stroke: #A80036; stroke-width: 1.0;"/><text fill="#000000" font-family="sans-serif" font-size="13" font-weight="bold" lengthAdjust="spacingAndGlyphs" textLength="108" x="12" y="103.52">Biggest reuse:</text><text fill="#000000" font-family="sans-serif" font-size="13" lengthAdjust="spacingAndGlyphs" textLength="402" x="124" y="103.52">lanes.ts already models lanes+columns+collapsible swimlanes</text><text fill="#000000" font-family="sans-serif" font-size="13" lengthAdjust="spacingAndGlyphs" textLength="471" x="12" y="118.6528">for milestones. Pipeline lanes = a THIRD LaneMode ("pipeline"), laneKey =</text><text fill="#000000" font-family="sans-serif" font-size="13" lengthAdjust="spacingAndGlyphs" textLength="427" x="12" y="133.7856">pipeline_id, column = ordered phase. No new grouping subsystem.</text><path d="M576,70.9531 L576,156.6172 L1099,156.6172 L1099,80.9531 L1089,70.9531 L576,70.9531 " fill="#FBFB77" style="stroke: #A80036; stroke-width: 1.0;"/><path d="M1089,70.9531 L1089,80.9531 L1099,80.9531 L1089,70.9531 " fill="#FBFB77" style="stroke: #A80036; stroke-width: 1.0;"/><text fill="#000000" font-family="sans-serif" font-size="13" font-weight="bold" lengthAdjust="spacingAndGlyphs" textLength="67" x="582" y="88.02">Row join:</text><text fill="#000000" font-family="sans-serif" font-size="13" lengthAdjust="spacingAndGlyphs" textLength="342" x="653" y="88.02">TaskRow reads persisted `phase` from Task, looks up</text><text fill="#000000" font-family="sans-serif" font-size="13" lengthAdjust="spacingAndGlyphs" textLength="440" x="582" y="103.1528">actor = pipelineDef[phase].actor (pipeline-data), joins live claim from</text><text fill="#000000" font-family="sans-serif" font-size="13" lengthAdjust="spacingAndGlyphs" textLength="456" x="582" y="118.2856">Coordinator → DriverIndicator. actor=human ⇒ &#128100; (+InlineGateReview) ·</text><text fill="#000000" font-family="sans-serif" font-size="13" lengthAdjust="spacingAndGlyphs" textLength="502" x="582" y="133.4185">machine∧claim ⇒ &#129302; · machine∧¬claim ⇒ ⏳ · machine∧stale ⇒ ⚠️ · none ⇒ ✓.</text><text fill="#000000" font-family="sans-serif" font-size="13" lengthAdjust="spacingAndGlyphs" textLength="321" x="582" y="148.5513">turn is NOT a Task field — it is derived from phase.</text><path d="M21.5,267.4531 L21.5,322.8516 L525.5,322.8516 L525.5,277.4531 L515.5,267.4531 L21.5,267.4531 " fill="#FBFB77" style="stroke: #A80036; stroke-width: 1.0;"/><path d="M515.5,267.4531 L515.5,277.4531 L525.5,277.4531 L515.5,267.4531 " fill="#FBFB77" style="stroke: #A80036; stroke-width: 1.0;"/><text fill="#000000" font-family="sans-serif" font-size="13" font-weight="bold" lengthAdjust="spacingAndGlyphs" textLength="160" x="27.5" y="284.52">Backend gaps (blue):</text><text fill="#000000" font-family="sans-serif" font-size="13" lengthAdjust="spacingAndGlyphs" textLength="319" x="191.5" y="284.52">(1) SearchService.NormalizedFilters + pipeline_id/</text><text fill="#000000" font-family="sans-serif" font-size="13" lengthAdjust="spacingAndGlyphs" textLength="449" x="27.5" y="299.6528">waiting_on ; (2) Coordinator.claims() endpoint (none today) ; (3) config</text><text fill="#000000" font-family="sans-serif" font-size="13" lengthAdjust="spacingAndGlyphs" textLength="460" x="27.5" y="314.7856">pipelines[] as lane source. WS stays the coarse "tasks-updated" refetch.</text><!--MD5=[cbaf73054975fa1e67c1efbee70c2e05]
link LaneFns to LaneDefinition--><path d="M870.82,335.0831 C878.16,352.6931 886.96,373.8031 894.99,393.0731 " fill="none" id="LaneFns-&gt;LaneDefinition" style="stroke: #A80036; stroke-width: 1.0; stroke-dasharray: 7.0,7.0;"/><polygon fill="#A80036" points="897.02,397.9231,897.2659,388.0773,895.104,393.3048,889.8766,391.1429,897.02,397.9231" style="stroke: #A80036; stroke-width: 1.0;"/><!--MD5=[9348d1e4e6e6c30b9f767b3ec6871220]
link LaneFns to LaneMode--><path d="M794.02,335.0031 C777.36,346.7631 759.7,360.2231 744.5,373.9531 C729.27,387.7131 714.06,404.8131 702.1,419.2631 " fill="none" id="LaneFns-&gt;LaneMode" style="stroke: #A80036; stroke-width: 1.0; stroke-dasharray: 7.0,7.0;"/><polygon fill="#A80036" points="698.81,423.2631,707.6174,418.8552,701.987,419.4022,701.44,413.7719,698.81,423.2631" style="stroke: #A80036; stroke-width: 1.0;"/><!--MD5=[652802776d7e55da115a72bd210896b0]
reverse link IssueListView to LaneSwitcher--><path d="M1593.21,157.5231 C1562.42,191.7631 1520.12,238.7831 1494.09,267.7231 " fill="none" id="IssueListView&lt;-LaneSwitcher" style="stroke: #A80036; stroke-width: 1.0;"/><polygon fill="#FFFFFF" points="1601.97,147.7831,1594.9835,149.5687,1593.9446,156.7046,1600.9311,154.919,1601.97,147.7831" style="stroke: #A80036; stroke-width: 1.0;"/><!--MD5=[54f440b6d64f8774312c4be02a653811]
reverse link IssueListView to Swimlane--><path d="M1631.5,161.0331 C1631.5,192.4431 1631.5,233.2631 1631.5,261.3331 " fill="none" id="IssueListView&lt;-Swimlane" style="stroke: #A80036; stroke-width: 1.0;"/><polygon fill="#FFFFFF" points="1631.5,147.7831,1627.5,153.7831,1631.5,159.7831,1635.5,153.7831,1631.5,147.7831" style="stroke: #A80036; stroke-width: 1.0;"/><!--MD5=[c00be29f1e1bcd97e9424ebb92073d33]
reverse link Swimlane to TaskRow--><path d="M1599.37,339.2231 C1579.33,366.2031 1554.19,400.0431 1537.1,423.0631 " fill="none" id="Swimlane&lt;-TaskRow" style="stroke: #A80036; stroke-width: 1.0;"/><polygon fill="#FFFFFF" points="1607.32,328.5031,1600.5333,330.9405,1600.1729,338.1425,1606.9596,335.7052,1607.32,328.5031" style="stroke: #A80036; stroke-width: 1.0;"/><!--MD5=[425f1f8d1cccd8e9785a7ab610a981ae]
reverse link TaskRow to DriverIndicator--><path d="M1480.93,487.2431 C1446.66,520.7931 1395.87,570.4931 1362.73,602.9331 " fill="none" id="TaskRow&lt;-DriverIndicator" style="stroke: #A80036; stroke-width: 1.0;"/><polygon fill="#FFFFFF" points="1490.56,477.8131,1483.474,479.1504,1481.983,486.2057,1489.069,484.8684,1490.56,477.8131" style="stroke: #A80036; stroke-width: 1.0;"/><!--MD5=[a1ea208d8db502f198d91cc8fa47fab0]
link TaskRow to InlineGateReview--><path d="M1508.25,477.7931 C1502.3,499.8931 1498.36,531.1131 1514.5,551.9531 C1523.21,563.2031 1532.92,553.3031 1545.5,559.9531 C1567.36,571.5131 1588.29,589.6731 1604.03,605.2931 " fill="none" id="TaskRow-&gt;InlineGateReview" style="stroke: #A80036; stroke-width: 1.0; stroke-dasharray: 7.0,7.0;"/><polygon fill="#A80036" points="1607.91,609.2031,1604.393,600.0036,1604.3816,605.6605,1598.7248,605.649,1607.91,609.2031" style="stroke: #A80036; stroke-width: 1.0;"/><text fill="#000000" font-family="sans-serif" font-size="13" lengthAdjust="spacingAndGlyphs" textLength="160" x="1515.5" y="548.02">when waiting_on=human</text><!--MD5=[47a6d66e8ea8d6b3a7e91ae1b172ab21]
link IssueListView to LaneFns--><path d="M1574.14,123.4531 C1478.37,138.1631 1280.2,170.7531 1115.5,211.9531 C1068.6,223.6831 1017.73,239.0531 973.46,253.3031 " fill="none" id="IssueListView-&gt;LaneFns" style="stroke: #A80036; stroke-width: 1.0; stroke-dasharray: 7.0,7.0;"/><polygon fill="#A80036" points="968.65,254.8631,978.445,255.8915,973.4061,253.3206,975.977,248.2817,968.65,254.8631" style="stroke: #A80036; stroke-width: 1.0;"/><text fill="#000000" font-family="sans-serif" font-size="13" lengthAdjust="spacingAndGlyphs" textLength="140" x="1213.5" y="200.02">group by pipeline lane</text><!--MD5=[19e816bc15608ac2aa1c0e186c18d9d9]
link IssueListView to LabelProjection--><path d="M1688.65,139.7931 C1790.78,184.5231 2010.94,282.5131 2192.5,373.9531 C2217.54,386.5631 2244.69,401.2031 2268.23,414.2131 " fill="none" id="IssueListView-&gt;LabelProjection" style="stroke: #A80036; stroke-width: 1.0; stroke-dasharray: 7.0,7.0;"/><polygon fill="#A80036" points="2272.88,416.7931,2266.9552,408.9257,2268.5092,414.3649,2263.07,415.919,2272.88,416.7931" style="stroke: #A80036; stroke-width: 1.0;"/><!--MD5=[081f1e2af533b8005c8429c840706b83]
link Swimlane to DisplayHints--><path d="M1700.3,327.5731 C1755.56,352.9631 1833.07,388.5931 1890.02,414.7631 " fill="none" id="Swimlane-&gt;DisplayHints" style="stroke: #A80036; stroke-width: 1.0; stroke-dasharray: 7.0,7.0;"/><polygon fill="#A80036" points="1894.78,416.9531,1888.2698,409.5627,1890.236,414.8669,1884.9319,416.8331,1894.78,416.9531" style="stroke: #A80036; stroke-width: 1.0;"/><!--MD5=[719389a8da147bf3575ce980d600c84f]
reverse link TasksClaimsHook to ApiClient--><path d="M2730.5,348.2531 C2730.5,366.4931 2730.5,386.8031 2730.5,404.4131 " fill="none" id="TasksClaimsHook&lt;-ApiClient" style="stroke: #A80036; stroke-width: 1.0;"/><polygon fill="#FFFFFF" points="2730.5,335.0831,2726.5,341.0831,2730.5,347.0831,2734.5,341.0831,2730.5,335.0831" style="stroke: #A80036; stroke-width: 1.0;"/><!--MD5=[0d0ae6e83af72fa4317f60310eaf8ee8]
reverse link TasksClaimsHook to WsChannel--><path d="M2838.41,317.9331 C2882.04,330.0131 2931.45,347.9831 2971.5,373.9531 C2991.33,386.8131 3009.03,406.8931 3021.4,423.1231 " fill="none" id="TasksClaimsHook&lt;-WsChannel" style="stroke: #A80036; stroke-width: 1.0;"/><polygon fill="#FFFFFF" points="2825.67,314.5231,2830.4333,319.9371,2837.2628,317.6225,2832.4995,312.2085,2825.67,314.5231" style="stroke: #A80036; stroke-width: 1.0;"/><!--MD5=[4b06186ceeca82619bf4c5601833f2a7]
reverse link IssueListView to TasksClaimsHook--><path d="M1701.75,125.6731 C1792.17,139.5331 1954.12,164.5431 2092.5,186.9531 C2285.41,218.1931 2510.82,256.3931 2635.44,277.6631 " fill="none" id="IssueListView&lt;-TasksClaimsHook" style="stroke: #A80036; stroke-width: 1.0;"/><polygon fill="#FFFFFF" points="1688.67,123.6731,1693.9936,128.5372,1700.5311,125.4938,1695.2074,120.6298,1688.67,123.6731" style="stroke: #A80036; stroke-width: 1.0;"/><!--MD5=[09ff8dfd596d19236ce3777ca3ba014a]
link ApiClient to SearchService--><path d="M2605.6,496.5131 C2563.58,513.8631 2517.29,535.4731 2477.5,559.9531 C2459.24,571.1831 2440.81,585.9231 2425.42,599.3831 " fill="none" id="ApiClient-&gt;SearchService" style="stroke: #A80036; stroke-width: 1.0; stroke-dasharray: 7.0,7.0;"/><polygon fill="#A80036" points="2421.58,602.7831,2430.9761,599.8314,2425.3304,599.4764,2425.6854,593.8307,2421.58,602.7831" style="stroke: #A80036; stroke-width: 1.0;"/><!--MD5=[3ea96b64fda62299aec2d03de8f72dc1]
link ApiClient to Coordinator--><path d="M2730.5,496.4631 C2730.5,527.4131 2730.5,568.0631 2730.5,597.3931 " fill="none" id="ApiClient-&gt;Coordinator" style="stroke: #A80036; stroke-width: 1.0; stroke-dasharray: 7.0,7.0;"/><polygon fill="#A80036" points="2730.5,602.7331,2734.5,593.7331,2730.5,597.7331,2726.5,593.7331,2730.5,602.7331" style="stroke: #A80036; stroke-width: 1.0;"/><!--MD5=[3e76867aec75584b28b324347182d147]
link LaneSwitcher to ConfigPipelines--><path d="M1509.15,322.0231 C1530.16,336.6431 1556.31,355.5931 1578.5,373.9531 C1654.81,437.0831 1655.49,476.1531 1740.5,526.9531 C1795.56,559.8531 1861.87,584.2331 1920.34,601.4531 " fill="none" id="LaneSwitcher-&gt;ConfigPipelines" style="stroke: #A80036; stroke-width: 1.0; stroke-dasharray: 7.0,7.0;"/><polygon fill="#A80036" points="1925.26,602.8831,1917.74,596.5231,1920.46,601.4831,1915.5,604.2031,1925.26,602.8831" style="stroke: #A80036; stroke-width: 1.0;"/><!--MD5=[f7e5228c6cda4dc6eb3524aba62b3d39]
link N_reuse to N_join--><!--MD5=[1030507e306dc8eece16fa6211b501e0]
link N_reuse to N_gap--><!--MD5=[0392a1659bbe66025f124de7e8514b9a]
@startuml epicd-presentation-class

skinparam backgroundColor #FFFFFF
skinparam shadowing false
skinparam class {
  BorderColor #555555
  BackgroundColor #E8F0FE
  BackgroundColor<<reuse>> #C8E6C9
  BackgroundColor<<new>> #FFE0B2
  BackgroundColor<<projection>> #E1BEE7
  BackgroundColor<<contract>> #B3E5FC
}
skinparam packageStyle rectangle

title epicd — Multi-lane issue-list (presentation class diagram; green=reuse, orange=new)

package "Lane engine  (src/web/lib/lanes.ts — REUSE, extend)" {
  class LaneMode <<new>> {
  }
  class LaneDefinition <<reuse>> {
    +key : string
    +label : string
    +milestone? : string
    +pipeline_id? : string   '' NEW field for pipeline lanes
  }
  class LaneFns <<new>> {
    +buildLanes(mode, tasks, ...) : LaneDefinition[]    '' add pipeline branch
    +groupTasksByLaneAndStatus(...) : Map<laneKey, Map<column, Task[]>>
  }
  LaneFns ..> LaneDefinition
  LaneFns ..> LaneMode
}

package "Issue-list view  (extends TaskList.tsx base)" {
  class IssueListView <<new>> {
    +render()
  }
  class LaneSwitcher <<new>> {
  }
  class Swimlane <<reuse>> {
    +collapsed : boolean
  }
  class TaskRow <<reuse>> {
  }
  class DriverIndicator <<new>> {
    +compute(actor, claim) : Icon    '' actor = pipelineDef[phase].actor
  }
  class InlineGateReview <<new>> {
  }
  IssueListView o- - LaneSwitcher
  IssueListView o- - Swimlane
  Swimlane o- - TaskRow
  TaskRow o- - DriverIndicator
  TaskRow ..> InlineGateReview : when waiting_on=human
  IssueListView ..> LaneFns : group by pipeline lane
}

package "Projections  (view-only, one-way — R3/R4)" {
  class LabelProjection <<projection>> {
    +label(phase, turn, role, plane) : string
  }
  class DisplayHints <<projection>> {
    +byPipeline : Map<pipeline_id, {columns, sort, collapsed, icon, title}>
  }
  IssueListView ..> LabelProjection
  Swimlane ..> DisplayHints
}

package "Data layer  (apiClient + WS)" {
  class TasksClaimsHook <<new>> {
    +tasks : Task[]
    +claims : Map<taskId, Claim>
  }
  class ApiClient <<new>> {
    +search(filter) : Task[]   '' EXTEND filter: + pipeline_id / state / waiting_on
    +postGateDecision(task, verdict)   '' NEW endpoint for inline gate-review
    +getClaims() : Map<taskId, Claim>  '' NEW: read Coordinator runtime state
  }
  class WsChannel <<reuse>> {
  }
  TasksClaimsHook o- - ApiClient
  TasksClaimsHook o- - WsChannel
  IssueListView o- - TasksClaimsHook
}

package "Backend (needed)" {
  interface SearchService <<contract>> {
    +search(opts) : Task[]
  }
  interface Coordinator <<contract>> {
    +claims() : Map<taskId, Claim>   '' ABSENT today; soak = baime .active-agents
  }
  interface ConfigPipelines <<contract>> {
    +pipelines[] : Pipeline   '' ABSENT in config.yml today → source of lanes
  }
  ApiClient ..> SearchService
  ApiClient ..> Coordinator
  LaneSwitcher ..> ConfigPipelines
}

note as N_reuse
  **Biggest reuse:** lanes.ts already models lanes+columns+collapsible swimlanes
  for milestones. Pipeline lanes = a THIRD LaneMode ("pipeline"), laneKey =
  pipeline_id, column = ordered phase. No new grouping subsystem.
end note
note as N_join
  **Row join:** TaskRow reads persisted `phase` from Task, looks up
  actor = pipelineDef[phase].actor (pipeline-data), joins live claim from
  Coordinator → DriverIndicator. actor=human ⇒ 👤 (+InlineGateReview) ·
  machine∧claim ⇒ 🤖 · machine∧¬claim ⇒ ⏳ · machine∧stale ⇒ ⚠️ · none ⇒ ✓.
  turn is NOT a Task field — it is derived from phase.
end note
note as N_gap
  **Backend gaps (blue):** (1) SearchService.NormalizedFilters + pipeline_id/
  waiting_on ; (2) Coordinator.claims() endpoint (none today) ; (3) config
  pipelines[] as lane source. WS stays the coarse "tasks-updated" refetch.
end note

@enduml

PlantUML version 1.2020.02(Sun Mar 01 10:22:07 UTC 2020)
(GPL source distribution)
Java Runtime: OpenJDK Runtime Environment
JVM: OpenJDK 64-Bit Server VM
Java Version: 21.0.11+10-1-22.04.2-Ubuntu
Operating System: Linux
Default Encoding: UTF-8
Language: en
Country: null
--></g></svg>