<?xml version="1.0" encoding="UTF-8" standalone="no"?><svg xmlns="http://www.w3.org/2000/svg" xmlns:xlink="http://www.w3.org/1999/xlink" contentScriptType="application/ecmascript" contentStyleType="text/css" height="913px" preserveAspectRatio="none" style="width:2990px;height:913px;" version="1.1" viewBox="0 0 2990 913" width="2990px" zoomAndPan="magnify"><defs/><g><text fill="#000000" font-family="sans-serif" font-size="18" lengthAdjust="spacingAndGlyphs" textLength="773" x="1112" y="16.708">epicd — runtime deployment (supervisor · driver-per-pipeline · workers · spawn seam)</text><!--MD5=[785fc9e387c8d634c9221e6d235cea30]
cluster Harness--><polygon fill="#E8F0FE" points="1076,180.9531,1086,170.9531,1532,170.9531,1532,570.4531,1522,580.4531,1076,580.4531,1076,180.9531" style="stroke: #555555; stroke-width: 1.5;"/><line style="stroke: #555555; stroke-width: 1.5;" x1="1522" x2="1531" y1="180.9531" y2="171.9531"/><line style="stroke: #555555; stroke-width: 1.5;" x1="1076" x2="1522" y1="180.9531" y2="180.9531"/><line style="stroke: #555555; stroke-width: 1.5;" x1="1522" x2="1522" y1="180.9531" y2="580.4531"/><text fill="#000000" font-family="sans-serif" font-size="14" font-weight="bold" lengthAdjust="spacingAndGlyphs" textLength="291" x="1154.5" y="196.9482">Claude Code harness  (Monitor host)</text><!--MD5=[88a48f54f0a881b37c8faac23bb14ef5]
cluster WT--><polygon fill="#E8F0FE" points="1487,645.9531,1497,635.9531,1974,635.9531,1974,750.9531,1964,760.9531,1487,760.9531,1487,645.9531" style="stroke: #555555; stroke-width: 1.5;"/><line style="stroke: #555555; stroke-width: 1.5;" x1="1964" x2="1973" y1="645.9531" y2="636.9531"/><line style="stroke: #555555; stroke-width: 1.5;" x1="1487" x2="1964" y1="645.9531" y2="645.9531"/><line style="stroke: #555555; stroke-width: 1.5;" x1="1964" x2="1964" y1="645.9531" y2="760.9531"/><text fill="#000000" font-family="sans-serif" font-size="14" font-weight="bold" lengthAdjust="spacingAndGlyphs" textLength="285" x="1584" y="661.9482">git worktree  (one per claimed task)</text><!--MD5=[7419f0a5279260db82d89ef4548da85a]
entity Sup--><rect fill="#FFF3E0" height="68.8906" style="stroke: #555555; stroke-width: 1.5;" width="208" x="1094" y="340.9531"/><rect fill="#FFF3E0" height="5" style="stroke: #555555; stroke-width: 1.5;" width="10" x="1089" y="345.9531"/><rect fill="#FFF3E0" height="5" style="stroke: #555555; stroke-width: 1.5;" width="10" x="1089" y="399.8438"/><text fill="#000000" font-family="sans-serif" font-size="14" font-weight="bold" lengthAdjust="spacingAndGlyphs" textLength="85" x="1104" y="363.9482">supervisor</text><text fill="#000000" font-family="sans-serif" font-size="14" lengthAdjust="spacingAndGlyphs" textLength="188" x="1104" y="380.2451">(persistent; singleton reap;</text><text fill="#000000" font-family="sans-serif" font-size="14" lengthAdjust="spacingAndGlyphs" textLength="188" x="1104" y="396.542">baime: Monitor+scan-loop)</text><!--MD5=[1e2a23bfe289573aff42126697aa5d80]
entity ExecD--><rect fill="#FFF3E0" height="68.8906" style="stroke: #555555; stroke-width: 1.5;" width="223" x="1091.5" y="495.4531"/><rect fill="#FFF3E0" height="5" style="stroke: #555555; stroke-width: 1.5;" width="10" x="1086.5" y="500.4531"/><rect fill="#FFF3E0" height="5" style="stroke: #555555; stroke-width: 1.5;" width="10" x="1086.5" y="554.3438"/><text fill="#000000" font-family="sans-serif" font-size="14" font-weight="bold" lengthAdjust="spacingAndGlyphs" textLength="130" x="1101.5" y="518.4482">execution driver</text><text fill="#000000" font-family="sans-serif" font-size="14" lengthAdjust="spacingAndGlyphs" textLength="203" x="1101.5" y="534.7451">Interpreter.scan → item-ready</text><text fill="#000000" font-family="sans-serif" font-size="14" lengthAdjust="spacingAndGlyphs" textLength="153" x="1101.5" y="551.042">(baime: --mode ready)</text><!--MD5=[b49e281ffc5cbb4e035325dac397eddf]
entity AuthD--><rect fill="#FFF3E0" height="68.8906" style="stroke: #555555; stroke-width: 1.5;" width="166" x="1350" y="495.4531"/><rect fill="#FFF3E0" height="5" style="stroke: #555555; stroke-width: 1.5;" width="10" x="1345" y="500.4531"/><rect fill="#FFF3E0" height="5" style="stroke: #555555; stroke-width: 1.5;" width="10" x="1345" y="554.3438"/><text fill="#000000" font-family="sans-serif" font-size="14" font-weight="bold" lengthAdjust="spacingAndGlyphs" textLength="128" x="1360" y="518.4482">authoring driver</text><text fill="#000000" font-family="sans-serif" font-size="14" lengthAdjust="spacingAndGlyphs" textLength="119" x="1360" y="534.7451">(RefiningHandler)</text><text fill="#000000" font-family="sans-serif" font-size="14" lengthAdjust="spacingAndGlyphs" textLength="146" x="1360" y="551.042">(baime: --mode draft)</text><!--MD5=[b74a504a2ca8ef7e4c7be1c820c91805]
entity Ops--><rect fill="#FFF3E0" height="52.5938" style="stroke: #555555; stroke-width: 1.5;" width="265" x="1092.5" y="210.9531"/><rect fill="#FFF3E0" height="5" style="stroke: #555555; stroke-width: 1.5;" width="10" x="1087.5" y="215.9531"/><rect fill="#FFF3E0" height="5" style="stroke: #555555; stroke-width: 1.5;" width="10" x="1087.5" y="253.5469"/><text fill="#000000" font-family="sans-serif" font-size="14" lengthAdjust="spacingAndGlyphs" textLength="103" x="1102.5" y="233.9482">operation skills</text><text fill="#000000" font-family="sans-serif" font-size="14" lengthAdjust="spacingAndGlyphs" textLength="245" x="1102.5" y="250.2451">propose · promote · inbox · run · init</text><!--MD5=[732443c8138ba476724c0fd9f6a837e5]
entity ExecW--><rect fill="#FFF3E0" height="68.8906" style="stroke: #555555; stroke-width: 1.5;" width="175" x="1503.5" y="675.9531"/><rect fill="#FFF3E0" height="5" style="stroke: #555555; stroke-width: 1.5;" width="10" x="1498.5" y="680.9531"/><rect fill="#FFF3E0" height="5" style="stroke: #555555; stroke-width: 1.5;" width="10" x="1498.5" y="734.8438"/><text fill="#000000" font-family="sans-serif" font-size="14" font-weight="bold" lengthAdjust="spacingAndGlyphs" textLength="126" x="1513.5" y="698.9482">execute worker</text><text fill="#000000" font-family="sans-serif" font-size="14" lengthAdjust="spacingAndGlyphs" textLength="155" x="1513.5" y="715.2451">feature/chore Agent →</text><text fill="#000000" font-family="sans-serif" font-size="14" lengthAdjust="spacingAndGlyphs" textLength="127" x="1513.5" y="731.542">engine.complete()</text><!--MD5=[8b98ef3f3f12cb22e5a6cd77af2edc1f]
entity RefW--><rect fill="#FFF3E0" height="52.5938" style="stroke: #555555; stroke-width: 1.5;" width="244" x="1714" y="683.9531"/><rect fill="#FFF3E0" height="5" style="stroke: #555555; stroke-width: 1.5;" width="10" x="1709" y="688.9531"/><rect fill="#FFF3E0" height="5" style="stroke: #555555; stroke-width: 1.5;" width="10" x="1709" y="726.5469"/><text fill="#000000" font-family="sans-serif" font-size="14" font-weight="bold" lengthAdjust="spacingAndGlyphs" textLength="109" x="1724" y="706.9482">refine worker</text><text fill="#000000" font-family="sans-serif" font-size="14" lengthAdjust="spacingAndGlyphs" textLength="111" x="1837" y="706.9482">(RefineStrategy)</text><text fill="#000000" font-family="sans-serif" font-size="14" lengthAdjust="spacingAndGlyphs" textLength="12" x="1724" y="723.2451">+</text><text fill="#000000" font-family="sans-serif" font-size="14" font-weight="bold" lengthAdjust="spacingAndGlyphs" textLength="71" x="1740" y="723.2451">reviewer</text><text fill="#000000" font-family="sans-serif" font-size="14" lengthAdjust="spacingAndGlyphs" textLength="110" x="1815" y="723.2451">(verdict as data)</text><!--MD5=[e8c322128e8bed006310bd0f11633135]
entity Human--><ellipse cx="1225" cy="38.4531" fill="#FEFECE" rx="8" ry="8" style="stroke: #A80036; stroke-width: 1.5;"/><path d="M1225,46.4531 L1225,73.4531 M1212,54.4531 L1238,54.4531 M1225,73.4531 L1212,88.4531 M1225,73.4531 L1238,88.4531 " fill="none" style="stroke: #A80036; stroke-width: 1.5;"/><text fill="#000000" font-family="sans-serif" font-size="14" lengthAdjust="spacingAndGlyphs" textLength="49" x="1181" y="103.9482">Human</text><text fill="#000000" font-family="sans-serif" font-size="14" lengthAdjust="spacingAndGlyphs" textLength="88" x="1181" y="120.2451">(gate owner)</text><!--MD5=[13252657ada6ca82cbc2aae5927e680b]
entity Src--><path d="M1247.5,833.9531 C1247.5,823.9531 1348,823.9531 1348,823.9531 C1348,823.9531 1448.5,823.9531 1448.5,833.9531 L1448.5,891.8438 C1448.5,901.8438 1348,901.8438 1348,901.8438 C1348,901.8438 1247.5,901.8438 1247.5,891.8438 L1247.5,833.9531 " fill="#E1BEE7" style="stroke: #555555; stroke-width: 1.5;"/><path d="M1247.5,833.9531 C1247.5,843.9531 1348,843.9531 1348,843.9531 C1348,843.9531 1448.5,843.9531 1448.5,833.9531 " fill="none" style="stroke: #555555; stroke-width: 1.5;"/><text fill="#000000" font-family="sans-serif" font-size="14" lengthAdjust="spacingAndGlyphs" textLength="86" x="1257.5" y="860.9482">IssueSource</text><text fill="#000000" font-family="sans-serif" font-size="14" lengthAdjust="spacingAndGlyphs" textLength="92" x="1257.5" y="877.2451">backlog/*.md</text><text fill="#000000" font-family="sans-serif" font-size="14" lengthAdjust="spacingAndGlyphs" textLength="181" x="1257.5" y="893.542">(pipeline_id + bare phase)</text><!--MD5=[87cf2040e9033e55777134a3b5839dcf]
entity Coord--><rect fill="#FFF3E0" height="68.8906" style="stroke: #555555; stroke-width: 1.5;" width="209" x="1156.5" y="675.9531"/><rect fill="#FFF3E0" height="5" style="stroke: #555555; stroke-width: 1.5;" width="10" x="1151.5" y="680.9531"/><rect fill="#FFF3E0" height="5" style="stroke: #555555; stroke-width: 1.5;" width="10" x="1151.5" y="734.8438"/><text fill="#000000" font-family="sans-serif" font-size="14" font-weight="bold" lengthAdjust="spacingAndGlyphs" textLength="94" x="1166.5" y="698.9482">Coordinator</text><text fill="#000000" font-family="sans-serif" font-size="14" lengthAdjust="spacingAndGlyphs" textLength="53" x="1264.5" y="698.9482">(claims)</text><text fill="#000000" font-family="sans-serif" font-size="14" lengthAdjust="spacingAndGlyphs" textLength="189" x="1166.5" y="715.2451">soak: .caps / .active-agents</text><text fill="#000000" font-family="sans-serif" font-size="14" lengthAdjust="spacingAndGlyphs" textLength="158" x="1166.5" y="731.542">→ engine claim registry</text><!--MD5=[4077f2c4ee214c6bf241e4ab4b194d17]
entity GEL--><path d="M2514,850.4531 C2514,840.4531 2590,840.4531 2590,840.4531 C2590,840.4531 2666,840.4531 2666,850.4531 L2666,875.75 C2666,885.75 2590,885.75 2590,885.75 C2590,885.75 2514,885.75 2514,875.75 L2514,850.4531 " fill="#E1BEE7" style="stroke: #555555; stroke-width: 1.5;"/><path d="M2514,850.4531 C2514,860.4531 2590,860.4531 2590,860.4531 C2590,860.4531 2666,860.4531 2666,850.4531 " fill="none" style="stroke: #555555; stroke-width: 1.5;"/><text fill="#000000" font-family="sans-serif" font-size="14" lengthAdjust="spacingAndGlyphs" textLength="132" x="2524" y="877.4482">gate-event log (E2)</text><path d="M333.5,486.9531 L333.5,572.6172 A0,0 0 0 0 333.5,572.6172 L1056.5,572.6172 A0,0 0 0 0 1056.5,572.6172 L1056.5,496.9531 L1046.5,486.9531 L837.93,486.9531 L1093.78,408.0531 L829.93,486.9531 L333.5,486.9531 A0,0 0 0 0 333.5,486.9531 " fill="#FBFB77" style="stroke: #A80036; stroke-width: 1.0;"/><path d="M1046.5,486.9531 L1046.5,496.9531 L1056.5,496.9531 L1046.5,486.9531 " fill="#FBFB77" style="stroke: #A80036; stroke-width: 1.0;"/><text fill="#000000" font-family="sans-serif" font-size="13" font-weight="bold" lengthAdjust="spacingAndGlyphs" textLength="217" x="339.5" y="504.02">SPAWN SEAM (ADR-014/017):</text><text fill="#000000" font-family="sans-serif" font-size="13" lengthAdjust="spacingAndGlyphs" textLength="346" x="560.5" y="504.02">the engine (driver) decides *when / which* task to run;</text><text fill="#000000" font-family="sans-serif" font-size="13" lengthAdjust="spacingAndGlyphs" textLength="403" x="339.5" y="519.1528">the actual Agent-in-worktree spawn is done by the thin harness</text><text fill="#000000" font-family="sans-serif" font-size="13" font-weight="bold" lengthAdjust="spacingAndGlyphs" textLength="85" x="746.5" y="519.1528">worker skill</text><text fill="#000000" font-family="sans-serif" font-size="13" lengthAdjust="spacingAndGlyphs" textLength="187" x="835.5" y="519.1528">— engine core never spawns.</text><text fill="#000000" font-family="sans-serif" font-size="13" font-weight="bold" lengthAdjust="spacingAndGlyphs" textLength="113" x="339.5" y="534.2856">baime → epicd:</text><text fill="#000000" font-family="sans-serif" font-size="13" lengthAdjust="spacingAndGlyphs" textLength="440" x="456.5" y="534.2856">Monitor+scan-loop (2 hardcoded modes, 7 channels) ⇒ supervisor +</text><text fill="#000000" font-family="sans-serif" font-size="13" font-weight="bold" lengthAdjust="spacingAndGlyphs" textLength="137" x="900.5" y="534.2856">driver-per-pipeline</text><text fill="#000000" font-family="sans-serif" font-size="13" lengthAdjust="spacingAndGlyphs" textLength="4" x="1037.5" y="534.2856">,</text><text fill="#000000" font-family="sans-serif" font-size="13" lengthAdjust="spacingAndGlyphs" textLength="471" x="339.5" y="549.4185">channels DERIVED from (pipeline, phase, actor); `.agent-done` sentinel ⇒</text><text fill="#000000" font-family="sans-serif" font-size="13" font-weight="bold" lengthAdjust="spacingAndGlyphs" textLength="136" x="814.5" y="549.4185">engine.complete()</text><text fill="#000000" font-family="sans-serif" font-size="13" lengthAdjust="spacingAndGlyphs" textLength="4" x="950.5" y="549.4185">;</text><text fill="#000000" font-family="sans-serif" font-size="13" lengthAdjust="spacingAndGlyphs" textLength="172" x="339.5" y="564.5513">`.caps`/`.active-agents` ⇒</text><text fill="#000000" font-family="sans-serif" font-size="13" font-weight="bold" lengthAdjust="spacingAndGlyphs" textLength="87" x="515.5" y="564.5513">Coordinator</text><text fill="#000000" font-family="sans-serif" font-size="13" lengthAdjust="spacingAndGlyphs" textLength="385" x="602.5" y="564.5513">; status-advance-as-claim ⇒ phase stable + separate claim.</text><!--MD5=[b5d7487f7d2fd2679dd7952ddf487878]
link Sup to ExecD--><path d="M1199.11,410.2931 C1199.88,433.8931 1200.92,465.4231 1201.72,490.0531 " fill="none" id="Sup-&gt;ExecD" style="stroke: #A80036; stroke-width: 1.0;"/><polygon fill="#A80036" points="1201.89,495.2031,1205.6053,486.0819,1201.7329,490.2056,1197.6093,486.3332,1201.89,495.2031" style="stroke: #A80036; stroke-width: 1.0;"/><text fill="#000000" font-family="sans-serif" font-size="13" lengthAdjust="spacingAndGlyphs" textLength="153" x="1201" y="453.02">hosts (1 per pipeline_id)</text><!--MD5=[215bb868da806191374aece815f398a0]
link Sup to AuthD--><path d="M1302.33,406.8331 C1323.52,415.6131 1344.85,426.5531 1363,439.9531 C1381.52,453.6231 1397.74,473.4031 1409.89,490.8431 " fill="none" id="Sup-&gt;AuthD" style="stroke: #A80036; stroke-width: 1.0;"/><polygon fill="#A80036" points="1412.89,495.2231,1411.1031,485.5377,1410.064,491.0983,1404.5034,490.0593,1412.89,495.2231" style="stroke: #A80036; stroke-width: 1.0;"/><text fill="#000000" font-family="sans-serif" font-size="13" lengthAdjust="spacingAndGlyphs" textLength="35" x="1382" y="453.02">hosts</text><!--MD5=[d0e3679167a8f2f6d139db2e090f7731]
link ExecD to Src--><path d="M1139.25,564.5031 C1118.92,573.7931 1095.98,582.8531 1074,588.4531 C1034.68,598.4631 927.6,583.4931 892,602.9531 C826.66,638.6631 863.62,757.5631 873,768.9531 C918.83,824.6231 1116.69,847.4531 1242.14,856.4431 " fill="none" id="ExecD-&gt;Src" style="stroke: #A80036; stroke-width: 1.0;"/><polygon fill="#A80036" points="1247.32,856.8131,1238.6156,852.2051,1242.3318,856.4701,1238.0668,860.1862,1247.32,856.8131" style="stroke: #A80036; stroke-width: 1.0;"/><text fill="#000000" font-family="sans-serif" font-size="13" lengthAdjust="spacingAndGlyphs" textLength="264" x="874" y="715.02">scan (actor(phase)=machine ∧ no claim)</text><!--MD5=[150b7dc1212664db99f9a8e4a1f8a3f8]
link AuthD to Src--><path d="M1457.72,564.5831 C1467.04,581.5331 1473.54,602.1931 1465,619.9531 C1462.53,625.0831 1458.6,623.5431 1455,627.9531 C1410.53,682.4831 1422.47,710.7031 1383,768.9531 C1380.35,772.8631 1378.34,772.8531 1376,776.9531 C1368.66,789.8131 1362.91,804.8731 1358.57,818.7231 " fill="none" id="AuthD-&gt;Src" style="stroke: #A80036; stroke-width: 1.0;"/><polygon fill="#A80036" points="1357.04,823.7631,1363.4677,816.3009,1358.4833,818.976,1355.8082,813.9916,1357.04,823.7631" style="stroke: #A80036; stroke-width: 1.0;"/><text fill="#000000" font-family="sans-serif" font-size="13" lengthAdjust="spacingAndGlyphs" textLength="30" x="1456" y="715.02">scan</text><!--MD5=[1086dd6fe16c51275541753a9c6dae27]
link ExecD to ExecW--><path d="M1126.65,564.6331 C1094.05,579.7931 1062.41,595.8431 1058,602.9531 C1054.02,609.3731 1052.71,614.5631 1058,619.9531 C1074.27,636.5331 1453.94,620.6931 1476,627.9531 C1503.79,637.0931 1530.69,655.4631 1551.49,672.4531 " fill="none" id="ExecD-&gt;ExecW" style="stroke: #A80036; stroke-width: 1.0; stroke-dasharray: 7.0,7.0;"/><polygon fill="#A80036" points="1555.57,675.8331,1551.178,667.0178,1551.7149,672.6491,1546.0836,673.1859,1555.57,675.8331" style="stroke: #A80036; stroke-width: 1.0;"/><text fill="#000000" font-family="sans-serif" font-size="13" lengthAdjust="spacingAndGlyphs" textLength="85" x="1059" y="616.02">item-ready →</text><text fill="#000000" font-family="sans-serif" font-size="13" font-weight="bold" lengthAdjust="spacingAndGlyphs" textLength="195" x="1148" y="616.02">worker skill spawns Agent</text><!--MD5=[936a85b16895fdd85f1d8ca9b04c6e44]
link AuthD to RefW--><path d="M1516.25,557.5131 C1568.75,575.2631 1637.45,600.3731 1696,627.9531 C1729.21,643.5931 1764.94,664.4731 1792,681.1831 " fill="none" id="AuthD-&gt;RefW" style="stroke: #A80036; stroke-width: 1.0; stroke-dasharray: 7.0,7.0;"/><polygon fill="#A80036" points="1796.27,683.8231,1790.7334,675.6778,1792.022,681.186,1786.5139,682.4746,1796.27,683.8231" style="stroke: #A80036; stroke-width: 1.0;"/><text fill="#000000" font-family="sans-serif" font-size="13" lengthAdjust="spacingAndGlyphs" textLength="129" x="1676" y="616.02">item-ready → spawn</text><!--MD5=[81653d589f1630c095c6847a51c42220]
link ExecD to Coord--><path d="M1138.89,564.5431 C1118.64,573.7731 1095.84,582.7931 1074,588.4531 C1002.16,607.0831 858.48,566.5231 910,619.9531 C918.45,628.7131 1117.35,624.4131 1129,627.9531 C1159.94,637.3531 1190.89,655.8531 1215.04,672.8631 " fill="none" id="ExecD-&gt;Coord" style="stroke: #A80036; stroke-width: 1.0;"/><polygon fill="#A80036" points="1219.16,675.7931,1214.1501,667.3137,1215.0875,672.8923,1209.5088,673.8297,1219.16,675.7931" style="stroke: #A80036; stroke-width: 1.0;"/><text fill="#000000" font-family="sans-serif" font-size="13" lengthAdjust="spacingAndGlyphs" textLength="93" x="911" y="616.02">claim / release</text><!--MD5=[8b605fcae5b5dfe647cc84cff0c6405b]
link AuthD to Coord--><path d="M1400.65,564.5231 C1371.19,595.0931 1327.76,640.1731 1297.16,671.9231 " fill="none" id="AuthD-&gt;Coord" style="stroke: #A80036; stroke-width: 1.0;"/><polygon fill="#A80036" points="1293.5,675.7231,1302.6266,672.0211,1296.9707,672.1239,1296.8678,666.468,1293.5,675.7231" style="stroke: #A80036; stroke-width: 1.0;"/><text fill="#000000" font-family="sans-serif" font-size="13" lengthAdjust="spacingAndGlyphs" textLength="93" x="1363" y="616.02">claim / release</text><!--MD5=[efa1e9ee795f563e1cfff38de638a5f4]
link ExecW to Src--><path d="M1533.84,745.0231 C1515.87,754.1931 1495.59,763.1831 1476,768.9531 C1444.69,778.1731 1430.78,759.8131 1403,776.9531 C1387,786.8231 1374.77,803.2831 1365.95,819.1031 " fill="none" id="ExecW-&gt;Src" style="stroke: #A80036; stroke-width: 1.0;"/><polygon fill="#A80036" points="1363.56,823.5431,1371.3662,817.5379,1365.9433,819.1477,1364.3335,813.7247,1363.56,823.5431" style="stroke: #A80036; stroke-width: 1.0;"/><text fill="#000000" font-family="sans-serif" font-size="13" lengthAdjust="spacingAndGlyphs" textLength="475" x="1404" y="790.02">engine.complete() → adjudicate DoD (ENG-8) → merge under lock (ENG-3)</text><!--MD5=[ee60ee6f114f5453aba414b940e70d8f]
link RefW to Src--><path d="M1867.2,737.3231 C1884.21,754.4931 1899.01,776.9231 1884,793.9531 C1856.08,825.6431 1602.12,846.4031 1454.01,855.9231 " fill="none" id="RefW-&gt;Src" style="stroke: #A80036; stroke-width: 1.0;"/><polygon fill="#A80036" points="1448.79,856.2531,1458.0238,859.679,1453.7801,855.9386,1457.5205,851.6948,1448.79,856.2531" style="stroke: #A80036; stroke-width: 1.0;"/><text fill="#000000" font-family="sans-serif" font-size="13" lengthAdjust="spacingAndGlyphs" textLength="519" x="1891" y="790.02">append refine_log / advance phase (promote→Backlog · escalate→needs-human)</text><!--MD5=[aae9f7b4b26f2cb9776bae64f78aa448]
link RefW to GEL--><path d="M1958.18,712.8731 C2077.86,717.1031 2264.27,731.3531 2419,776.9531 C2466.93,791.0831 2517.7,818.0431 2551.35,837.8231 " fill="none" id="RefW-&gt;GEL" style="stroke: #A80036; stroke-width: 1.0; stroke-dasharray: 7.0,7.0;"/><polygon fill="#A80036" points="2555.78,840.4431,2550.089,832.4049,2551.4825,837.8875,2546,839.2809,2555.78,840.4431" style="stroke: #A80036; stroke-width: 1.0;"/><text fill="#000000" font-family="sans-serif" font-size="13" lengthAdjust="spacingAndGlyphs" textLength="188" x="2464" y="790.02">reviewer verdict / gate events</text><!--MD5=[26ec08710546a42d7b93b0d010980857]
link Human to Ops--><path d="M1225,124.3031 C1225,150.5331 1225,182.5031 1225,205.5831 " fill="none" id="Human-&gt;Ops" style="stroke: #A80036; stroke-width: 1.0;"/><polygon fill="#A80036" points="1225,210.6631,1229,201.6631,1225,205.6631,1221,201.6631,1225,210.6631" style="stroke: #A80036; stroke-width: 1.0;"/><!--MD5=[a39822ef1d7f49f47d56ddd1bc48ba23]
link Ops to Src--><path d="M1092.23,239.5931 C776.29,244.0831 6,266.1131 6,374.4531 C6,374.4531 6,374.4531 6,711.4531 C6,835.6631 925.62,857.3631 1242.33,861.1531 " fill="none" id="Ops-&gt;Src" style="stroke: #A80036; stroke-width: 1.0;"/><polygon fill="#A80036" points="1247.41,861.2131,1238.4563,857.1105,1242.4103,861.156,1238.3649,865.11,1247.41,861.2131" style="stroke: #A80036; stroke-width: 1.0;"/><text fill="#000000" font-family="sans-serif" font-size="13" lengthAdjust="spacingAndGlyphs" textLength="290" x="7" y="534.52">propose (→Draft) · promote (Backlog→Ready)</text><!--MD5=[e6fb0dfa6448b57d418d96a5baec255c]
link Ops to GEL--><path d="M1357.58,243.8231 C1719.4,259.3631 2697,307.5231 2697,374.4531 C2697,374.4531 2697,374.4531 2697,711.4531 C2697,763.3031 2654.29,809.7131 2622.84,836.8531 " fill="none" id="Ops-&gt;GEL" style="stroke: #A80036; stroke-width: 1.0;"/><polygon fill="#A80036" points="2618.67,840.3931,2628.1177,837.611,2622.4793,837.1545,2622.9359,831.5161,2618.67,840.3931" style="stroke: #A80036; stroke-width: 1.0;"/><text fill="#000000" font-family="sans-serif" font-size="13" lengthAdjust="spacingAndGlyphs" textLength="280" x="2698" y="534.52">inbox (gate-review: approve/reject/escalate)</text><!--MD5=[d950252ae9a2236d06a463d769c157c7]
link Ops to Sup--><path d="M1219.92,264.0331 C1215.92,284.2031 1210.27,312.6731 1205.7,335.6531 " fill="none" id="Ops-&gt;Sup" style="stroke: #A80036; stroke-width: 1.0; stroke-dasharray: 7.0,7.0;"/><polygon fill="#A80036" points="1204.69,340.7631,1210.3638,332.7128,1205.6623,335.8586,1202.5166,331.1571,1204.69,340.7631" style="stroke: #A80036; stroke-width: 1.0;"/><text fill="#000000" font-family="sans-serif" font-size="13" lengthAdjust="spacingAndGlyphs" textLength="362" x="1214" y="307.02">run (arm supervisor+drivers) · init (bootstrap pipelines[])</text><!--MD5=[b9dac46caa0d5d0435c1ce8b25e38777]
@startuml epicd-runtime-deployment

skinparam backgroundColor #FFFFFF
skinparam shadowing false
skinparam node {
  BorderColor #555555
  BackgroundColor #E8F0FE
}
skinparam component {
  BorderColor #555555
  BackgroundColor #FFF3E0
}
skinparam database {
  BorderColor #555555
  BackgroundColor #E1BEE7
}

title epicd — runtime deployment (supervisor · driver-per-pipeline · workers · spawn seam)

actor "Human\n(gate owner)" as Human

node "Claude Code harness  (Monitor host)" as Harness {
  component "**supervisor**\n(persistent; singleton reap;\nbaime: Monitor+scan-loop)" as Sup
  component "**execution driver**\nInterpreter.scan → item-ready\n(baime: - -mode ready)" as ExecD
  component "**authoring driver**\n(RefiningHandler)\n(baime: - -mode draft)" as AuthD
  component "operation skills\npropose · promote · inbox · run · init" as Ops
  Sup - -> ExecD : hosts (1 per pipeline_id)
  Sup - -> AuthD : hosts
}

node "git worktree  (one per claimed task)" as WT {
  component "**execute worker**\nfeature/chore Agent →\nengine.complete()" as ExecW
  component "**refine worker** (RefineStrategy)\n+ **reviewer** (verdict as data)" as RefW
}

database "IssueSource\nbacklog/*.md\n(pipeline_id + bare phase)" as Src
component "**Coordinator** (claims)\nsoak: .caps / .active-agents\n→ engine claim registry" as Coord
database "gate-event log (E2)" as GEL

ExecD - -> Src : scan (actor(phase)=machine ∧ no claim)
AuthD - -> Src : scan
ExecD ..> ExecW : item-ready → **worker skill spawns Agent**
AuthD ..> RefW  : item-ready → spawn
ExecD - -> Coord : claim / release
AuthD - -> Coord : claim / release

ExecW - -> Src : engine.complete() → adjudicate DoD (ENG-8) → merge under lock (ENG-3)
RefW  - -> Src : append refine_log / advance phase (promote→Backlog · escalate→needs-human)
RefW  ..> GEL : reviewer verdict / gate events

Human - -> Ops
Ops - -> Src : propose (→Draft) · promote (Backlog→Ready)
Ops - -> GEL : inbox (gate-review: approve/reject/escalate)
Ops ..> Sup : run (arm supervisor+drivers) · init (bootstrap pipelines[])

note bottom
  **SPAWN SEAM (ADR-014/017):** the engine (driver) decides *when / which* task to run;
  the actual Agent-in-worktree spawn is done by the thin harness **worker skill** — engine core never spawns.
  **baime → epicd:** Monitor+scan-loop (2 hardcoded modes, 7 channels) ⇒ supervisor + **driver-per-pipeline**,
  channels DERIVED from (pipeline, phase, actor); `.agent-done` sentinel ⇒ **engine.complete()**;
  `.caps`/`.active-agents` ⇒ **Coordinator**; status-advance-as-claim ⇒ phase stable + separate claim.
end note
@enduml

PlantUML version 1.2020.02(Sun Mar 01 10:22:07 UTC 2020)
(GPL source distribution)
Java Runtime: OpenJDK Runtime Environment
JVM: OpenJDK 64-Bit Server VM
Java Version: 21.0.11+10-1-22.04.2-Ubuntu
Operating System: Linux
Default Encoding: UTF-8
Language: en
Country: null
--></g></svg>