<?xml version="1.0" encoding="UTF-8" standalone="no"?><svg xmlns="http://www.w3.org/2000/svg" xmlns:xlink="http://www.w3.org/1999/xlink" contentScriptType="application/ecmascript" contentStyleType="text/css" height="823px" preserveAspectRatio="none" style="width:2447px;height:823px;" version="1.1" viewBox="0 0 2447 823" width="2447px" zoomAndPan="magnify"><defs/><g><text fill="#000000" font-family="sans-serif" font-size="18" lengthAdjust="spacingAndGlyphs" textLength="772" x="849" y="16.708">epicd — Execution engine (class diagram; symmetric to authoring, invariant-heavy tail)</text><!--MD5=[a46f9793842d7364a473253dd22a503d]
cluster Core state machine  (pure — EXISTS, test-only)--><rect fill="#FFFFFF" height="302" style="stroke: #000000; stroke-width: 1.5;" width="528" x="1908" y="44.9531"/><text fill="#000000" font-family="sans-serif" font-size="14" font-weight="bold" lengthAdjust="spacingAndGlyphs" textLength="370" x="1987" y="59.9482">Core state machine  (pure — EXISTS, test-only)</text><!--MD5=[eede3e9477c093fa7ebaf016ea7cbe58]
cluster Driver  (IMPURE — EXECUTION, ABSENT today)--><rect fill="#FFFFFF" height="413" style="stroke: #000000; stroke-width: 1.5;" width="684" x="22" y="399.9531"/><text fill="#000000" font-family="sans-serif" font-size="14" font-weight="bold" lengthAdjust="spacingAndGlyphs" textLength="358" x="185" y="414.9482">Driver  (IMPURE — EXECUTION, ABSENT today)</text><!--MD5=[060367c1163bf9a9154eb53010b90462]
cluster Workers  (spawned in git worktree)--><rect fill="#FFFFFF" height="105" style="stroke: #000000; stroke-width: 1.5;" width="306" x="1242" y="63.9531"/><text fill="#000000" font-family="sans-serif" font-size="14" font-weight="bold" lengthAdjust="spacingAndGlyphs" textLength="283" x="1253.5" y="78.9482">Workers  (spawned in git worktree)</text><!--MD5=[dac2a140164682b1bf269c968f057905]
cluster Completion tail  (ENGINE-OWNED invariants — ADR-010/012)--><rect fill="#FFFFFF" height="457" style="stroke: #000000; stroke-width: 1.5;" width="601" x="1283" y="234.9531"/><text fill="#000000" font-family="sans-serif" font-size="14" font-weight="bold" lengthAdjust="spacingAndGlyphs" textLength="468" x="1349.5" y="249.9482">Completion tail  (ENGINE-OWNED invariants — ADR-010/012)</text><!--MD5=[0ce663c225e1303a6dfdbfba7f0d022a]
class Interpreter--><rect fill="#C8E6C9" height="92.3516" id="Interpreter" style="stroke: #555555; stroke-width: 1.5;" width="202" x="2218" y="79.9531"/><ellipse cx="2280.75" cy="98.9219" fill="#ADD1B2" rx="11" ry="11" style="stroke: #555555; stroke-width: 1.0;"/><path d="M2283.7188,104.5625 Q2283.1406,104.8594 2282.5,105 Q2281.8594,105.1563 2281.1563,105.1563 Q2278.6563,105.1563 2277.3281,103.5156 Q2276.0156,101.8594 2276.0156,98.7344 Q2276.0156,95.6094 2277.3281,93.9531 Q2278.6563,92.2969 2281.1563,92.2969 Q2281.8594,92.2969 2282.5,92.4531 Q2283.1563,92.6094 2283.7188,92.9063 L2283.7188,95.625 Q2283.0938,95.0469 2282.5,94.7813 Q2281.9063,94.5 2281.2813,94.5 Q2279.9375,94.5 2279.25,95.5781 Q2278.5625,96.6406 2278.5625,98.7344 Q2278.5625,100.8281 2279.25,101.9063 Q2279.9375,102.9688 2281.2813,102.9688 Q2281.9063,102.9688 2282.5,102.7031 Q2283.0938,102.4219 2283.7188,101.8438 L2283.7188,104.5625 Z "/><text fill="#000000" font-family="sans-serif" font-size="12" font-style="italic" lengthAdjust="spacingAndGlyphs" textLength="43" x="2313.75" y="96.0918">«pure»</text><text fill="#000000" font-family="sans-serif" font-size="12" lengthAdjust="spacingAndGlyphs" textLength="68" x="2301.25" y="110.0605">Interpreter</text><line style="stroke: #555555; stroke-width: 1.5;" x1="2219" x2="2419" y1="117.8906" y2="117.8906"/><line style="stroke: #555555; stroke-width: 1.5;" x1="2219" x2="2419" y1="125.8906" y2="125.8906"/><ellipse cx="2229" cy="136.8906" fill="#84BE84" rx="3" ry="3" style="stroke: #038048; stroke-width: 1.0;"/><text fill="#000000" font-family="sans-serif" font-size="11" lengthAdjust="spacingAndGlyphs" textLength="112" x="2238" y="140.1011">register(p, state, h)</text><ellipse cx="2229" cy="149.6953" fill="#84BE84" rx="3" ry="3" style="stroke: #038048; stroke-width: 1.0;"/><text fill="#000000" font-family="sans-serif" font-size="11" lengthAdjust="spacingAndGlyphs" textLength="176" x="2238" y="152.9058">scan(tasks) : ItemReadyEvent[]</text><ellipse cx="2229" cy="162.5" fill="#84BE84" rx="3" ry="3" style="stroke: #038048; stroke-width: 1.0;"/><text fill="#000000" font-family="sans-serif" font-size="11" lengthAdjust="spacingAndGlyphs" textLength="133" x="2238" y="165.7104">dispatch(events, tasks)</text><!--MD5=[5d7f87ad7be124bcf8ad2c9ead1692a4]
class Pipeline--><rect fill="#C8E6C9" height="79.5469" id="Pipeline" style="stroke: #555555; stroke-width: 1.5;" width="156" x="2027" y="85.9531"/><ellipse cx="2076.25" cy="104.9219" fill="#ADD1B2" rx="11" ry="11" style="stroke: #555555; stroke-width: 1.0;"/><path d="M2079.2188,110.5625 Q2078.6406,110.8594 2078,111 Q2077.3594,111.1563 2076.6563,111.1563 Q2074.1563,111.1563 2072.8281,109.5156 Q2071.5156,107.8594 2071.5156,104.7344 Q2071.5156,101.6094 2072.8281,99.9531 Q2074.1563,98.2969 2076.6563,98.2969 Q2077.3594,98.2969 2078,98.4531 Q2078.6563,98.6094 2079.2188,98.9063 L2079.2188,101.625 Q2078.5938,101.0469 2078,100.7813 Q2077.4063,100.5 2076.7813,100.5 Q2075.4375,100.5 2074.75,101.5781 Q2074.0625,102.6406 2074.0625,104.7344 Q2074.0625,106.8281 2074.75,107.9063 Q2075.4375,108.9688 2076.7813,108.9688 Q2077.4063,108.9688 2078,108.7031 Q2078.5938,108.4219 2079.2188,107.8438 L2079.2188,110.5625 Z "/><text fill="#000000" font-family="sans-serif" font-size="12" font-style="italic" lengthAdjust="spacingAndGlyphs" textLength="43" x="2099.75" y="102.0918">«pure»</text><text fill="#000000" font-family="sans-serif" font-size="12" lengthAdjust="spacingAndGlyphs" textLength="49" x="2096.75" y="116.0605">Pipeline</text><line style="stroke: #555555; stroke-width: 1.5;" x1="2028" x2="2182" y1="123.8906" y2="123.8906"/><ellipse cx="2038" cy="134.8906" fill="none" rx="3" ry="3" style="stroke: #038048; stroke-width: 1.0;"/><text fill="#000000" font-family="sans-serif" font-size="11" lengthAdjust="spacingAndGlyphs" textLength="55" x="2047" y="138.1011">id : string</text><ellipse cx="2038" cy="147.6953" fill="none" rx="3" ry="3" style="stroke: #038048; stroke-width: 1.0;"/><text fill="#000000" font-family="sans-serif" font-size="11" lengthAdjust="spacingAndGlyphs" textLength="130" x="2047" y="150.9058">states : PipelineState[]</text><line style="stroke: #555555; stroke-width: 1.5;" x1="2028" x2="2182" y1="157.5" y2="157.5"/><path d="M1924.5,275.9531 L1924.5,331.3516 A0,0 0 0 0 1924.5,331.3516 L2419.5,331.3516 A0,0 0 0 0 2419.5,331.3516 L2419.5,285.9531 L2409.5,275.9531 L2165.8,275.9531 L2120.04,166.3431 L2157.8,275.9531 L1924.5,275.9531 A0,0 0 0 0 1924.5,275.9531 " fill="#FBFB77" style="stroke: #A80036; stroke-width: 1.0;"/><path d="M2409.5,275.9531 L2409.5,285.9531 L2419.5,285.9531 L2409.5,275.9531 " fill="#FBFB77" style="stroke: #A80036; stroke-width: 1.0;"/><text fill="#000000" font-family="sans-serif" font-size="13" lengthAdjust="spacingAndGlyphs" textLength="394" x="1930.5" y="293.02">executionPipeline states become PHASE-only under four-axis:</text><text fill="#000000" font-family="sans-serif" font-size="13" lengthAdjust="spacingAndGlyphs" textLength="459" x="1930.5" y="308.1528">ready+in-progress MERGE; needs-human is NOT a state (→ waiting_on).</text><text fill="#000000" font-family="sans-serif" font-size="13" lengthAdjust="spacingAndGlyphs" textLength="474" x="1930.5" y="323.2856">scan predicate → phase actionable ∧ waiting_on=machine ∧ no live claim.</text><!--MD5=[8946bbb4bedc49934ab6f2993681e371]
class ExecutionDriver--><rect fill="#FFE0B2" height="77.9492" id="ExecutionDriver" style="stroke: #555555; stroke-width: 1.5;" width="151" x="458.5" y="434.9531"/><ellipse cx="483.4" cy="453.9219" fill="#ADD1B2" rx="11" ry="11" style="stroke: #555555; stroke-width: 1.0;"/><path d="M486.3688,459.5625 Q485.7906,459.8594 485.15,460 Q484.5094,460.1563 483.8063,460.1563 Q481.3063,460.1563 479.9781,458.5156 Q478.6656,456.8594 478.6656,453.7344 Q478.6656,450.6094 479.9781,448.9531 Q481.3063,447.2969 483.8063,447.2969 Q484.5094,447.2969 485.15,447.4531 Q485.8063,447.6094 486.3688,447.9063 L486.3688,450.625 Q485.7438,450.0469 485.15,449.7813 Q484.5563,449.5 483.9313,449.5 Q482.5875,449.5 481.9,450.5781 Q481.2125,451.6406 481.2125,453.7344 Q481.2125,455.8281 481.9,456.9063 Q482.5875,457.9688 483.9313,457.9688 Q484.5563,457.9688 485.15,457.7031 Q485.7438,457.4219 486.3688,456.8438 L486.3688,459.5625 Z "/><text fill="#000000" font-family="sans-serif" font-size="12" font-style="italic" lengthAdjust="spacingAndGlyphs" textLength="49" x="523.6" y="451.0918">«driver»</text><text fill="#000000" font-family="sans-serif" font-size="12" lengthAdjust="spacingAndGlyphs" textLength="97" x="499.6" y="465.0605">ExecutionDriver</text><line style="stroke: #555555; stroke-width: 1.5;" x1="459.5" x2="608.5" y1="472.8906" y2="472.8906"/><ellipse cx="469.5" cy="483.8906" fill="#84BE84" rx="3" ry="3" style="stroke: #038048; stroke-width: 1.0;"/><text fill="#000000" font-family="sans-serif" font-size="11" lengthAdjust="spacingAndGlyphs" textLength="125" x="478.5" y="487.1011">run(event, task) : void</text><line style="stroke: #555555; stroke-width: 1.0;" x1="459.5" x2="509" y1="500.0977" y2="500.0977"/><text fill="#000000" font-family="sans-serif" font-size="11" lengthAdjust="spacingAndGlyphs" textLength="50" x="509" y="503.4058">per scan</text><line style="stroke: #555555; stroke-width: 1.0;" x1="559" x2="608.5" y1="500.0977" y2="500.0977"/><!--MD5=[8ea4f94f69839c4778e2dcc10a4eca81]
class WorkAction--><rect fill="#C8E6C9" height="92.3516" id="WorkAction" style="stroke: #555555; stroke-width: 1.5;" width="390" x="38" y="589.9531"/><ellipse cx="193.25" cy="608.9219" fill="#B4A7E5" rx="11" ry="11" style="stroke: #555555; stroke-width: 1.0;"/><path d="M189.1719,604.6875 L189.1719,602.5313 L196.5625,602.5313 L196.5625,604.6875 L194.0938,604.6875 L194.0938,612.7656 L196.5625,612.7656 L196.5625,614.9219 L189.1719,614.9219 L189.1719,612.7656 L191.6406,612.7656 L191.6406,604.6875 L189.1719,604.6875 Z "/><text fill="#000000" font-family="sans-serif" font-size="12" font-style="italic" lengthAdjust="spacingAndGlyphs" textLength="43" x="227.75" y="606.0918">«pure»</text><text fill="#000000" font-family="sans-serif" font-size="12" font-style="italic" lengthAdjust="spacingAndGlyphs" textLength="71" x="213.75" y="620.0605">WorkAction</text><line style="stroke: #555555; stroke-width: 1.5;" x1="39" x2="427" y1="627.8906" y2="627.8906"/><ellipse cx="49" cy="638.8906" fill="none" rx="3" ry="3" style="stroke: #038048; stroke-width: 1.0;"/><text fill="#000000" font-family="sans-serif" font-size="11" lengthAdjust="spacingAndGlyphs" textLength="98" x="58" y="642.1011">role = "primitive"</text><ellipse cx="49" cy="651.6953" fill="none" rx="3" ry="3" style="stroke: #038048; stroke-width: 1.0;"/><text fill="#000000" font-family="sans-serif" font-size="11" lengthAdjust="spacingAndGlyphs" textLength="120" x="58" y="654.9058">kind : feature | chore</text><line style="stroke: #555555; stroke-width: 1.5;" x1="39" x2="427" y1="661.5" y2="661.5"/><ellipse cx="49" cy="672.5" fill="#84BE84" rx="3" ry="3" style="stroke: #038048; stroke-width: 1.0;"/><text fill="#000000" font-family="sans-serif" font-size="11" lengthAdjust="spacingAndGlyphs" textLength="364" x="58" y="675.7104">plan(task) : WorkSpec   '' what to run; driver spawns the worker</text><!--MD5=[945a17e0248a9c21d6f4185987a9308d]
class FeatureWork--><rect fill="#C8E6C9" height="53.9375" id="FeatureWork" style="stroke: #555555; stroke-width: 1.5;" width="112" x="104" y="742.9531"/><ellipse cx="119" cy="761.9219" fill="#ADD1B2" rx="11" ry="11" style="stroke: #555555; stroke-width: 1.0;"/><path d="M121.9688,767.5625 Q121.3906,767.8594 120.75,768 Q120.1094,768.1563 119.4063,768.1563 Q116.9063,768.1563 115.5781,766.5156 Q114.2656,764.8594 114.2656,761.7344 Q114.2656,758.6094 115.5781,756.9531 Q116.9063,755.2969 119.4063,755.2969 Q120.1094,755.2969 120.75,755.4531 Q121.4063,755.6094 121.9688,755.9063 L121.9688,758.625 Q121.3438,758.0469 120.75,757.7813 Q120.1563,757.5 119.5313,757.5 Q118.1875,757.5 117.5,758.5781 Q116.8125,759.6406 116.8125,761.7344 Q116.8125,763.8281 117.5,764.9063 Q118.1875,765.9688 119.5313,765.9688 Q120.1563,765.9688 120.75,765.7031 Q121.3438,765.4219 121.9688,764.8438 L121.9688,767.5625 Z "/><text fill="#000000" font-family="sans-serif" font-size="12" font-style="italic" lengthAdjust="spacingAndGlyphs" textLength="43" x="151.5" y="759.0918">«pure»</text><text fill="#000000" font-family="sans-serif" font-size="12" lengthAdjust="spacingAndGlyphs" textLength="80" x="133" y="773.0605">FeatureWork</text><line style="stroke: #555555; stroke-width: 1.5;" x1="105" x2="215" y1="780.8906" y2="780.8906"/><line style="stroke: #555555; stroke-width: 1.5;" x1="105" x2="215" y1="788.8906" y2="788.8906"/><!--MD5=[921b7a3ad64c46d8d72f40da5c8c4ceb]
class ChoreWork--><rect fill="#C8E6C9" height="53.9375" id="ChoreWork" style="stroke: #555555; stroke-width: 1.5;" width="100" x="251" y="742.9531"/><ellipse cx="266" cy="761.9219" fill="#ADD1B2" rx="11" ry="11" style="stroke: #555555; stroke-width: 1.0;"/><path d="M268.9688,767.5625 Q268.3906,767.8594 267.75,768 Q267.1094,768.1563 266.4063,768.1563 Q263.9063,768.1563 262.5781,766.5156 Q261.2656,764.8594 261.2656,761.7344 Q261.2656,758.6094 262.5781,756.9531 Q263.9063,755.2969 266.4063,755.2969 Q267.1094,755.2969 267.75,755.4531 Q268.4063,755.6094 268.9688,755.9063 L268.9688,758.625 Q268.3438,758.0469 267.75,757.7813 Q267.1563,757.5 266.5313,757.5 Q265.1875,757.5 264.5,758.5781 Q263.8125,759.6406 263.8125,761.7344 Q263.8125,763.8281 264.5,764.9063 Q265.1875,765.9688 266.5313,765.9688 Q267.1563,765.9688 267.75,765.7031 Q268.3438,765.4219 268.9688,764.8438 L268.9688,767.5625 Z "/><text fill="#000000" font-family="sans-serif" font-size="12" font-style="italic" lengthAdjust="spacingAndGlyphs" textLength="43" x="292.5" y="759.0918">«pure»</text><text fill="#000000" font-family="sans-serif" font-size="12" lengthAdjust="spacingAndGlyphs" textLength="68" x="280" y="773.0605">ChoreWork</text><line style="stroke: #555555; stroke-width: 1.5;" x1="252" x2="350" y1="780.8906" y2="780.8906"/><line style="stroke: #555555; stroke-width: 1.5;" x1="252" x2="350" y1="788.8906" y2="788.8906"/><!--MD5=[460f83045e67ecf667d685be11ae1452]
class Decompose--><rect fill="#FFE0B2" height="53.9375" id="Decompose" style="stroke: #555555; stroke-width: 1.5;" width="106" x="463" y="608.9531"/><ellipse cx="478" cy="627.9219" fill="#ADD1B2" rx="11" ry="11" style="stroke: #555555; stroke-width: 1.0;"/><path d="M480.9688,633.5625 Q480.3906,633.8594 479.75,634 Q479.1094,634.1563 478.4063,634.1563 Q475.9063,634.1563 474.5781,632.5156 Q473.2656,630.8594 473.2656,627.7344 Q473.2656,624.6094 474.5781,622.9531 Q475.9063,621.2969 478.4063,621.2969 Q479.1094,621.2969 479.75,621.4531 Q480.4063,621.6094 480.9688,621.9063 L480.9688,624.625 Q480.3438,624.0469 479.75,623.7813 Q479.1563,623.5 478.5313,623.5 Q477.1875,623.5 476.5,624.5781 Q475.8125,625.6406 475.8125,627.7344 Q475.8125,629.8281 476.5,630.9063 Q477.1875,631.9688 478.5313,631.9688 Q479.1563,631.9688 479.75,631.7031 Q480.3438,631.4219 480.9688,630.8438 L480.9688,633.5625 Z "/><text fill="#000000" font-family="sans-serif" font-size="12" font-style="italic" lengthAdjust="spacingAndGlyphs" textLength="49" x="504.5" y="625.0918">«driver»</text><text fill="#000000" font-family="sans-serif" font-size="12" lengthAdjust="spacingAndGlyphs" textLength="74" x="492" y="639.0605">Decompose</text><line style="stroke: #555555; stroke-width: 1.5;" x1="464" x2="568" y1="646.8906" y2="646.8906"/><line style="stroke: #555555; stroke-width: 1.5;" x1="464" x2="568" y1="654.8906" y2="654.8906"/><!--MD5=[7f46b15c3723d52271729cd4156918c2]
class Evaluate--><rect fill="#FFE0B2" height="53.9375" id="Evaluate" style="stroke: #555555; stroke-width: 1.5;" width="86" x="604" y="608.9531"/><ellipse cx="619" cy="627.9219" fill="#ADD1B2" rx="11" ry="11" style="stroke: #555555; stroke-width: 1.0;"/><path d="M621.9688,633.5625 Q621.3906,633.8594 620.75,634 Q620.1094,634.1563 619.4063,634.1563 Q616.9063,634.1563 615.5781,632.5156 Q614.2656,630.8594 614.2656,627.7344 Q614.2656,624.6094 615.5781,622.9531 Q616.9063,621.2969 619.4063,621.2969 Q620.1094,621.2969 620.75,621.4531 Q621.4063,621.6094 621.9688,621.9063 L621.9688,624.625 Q621.3438,624.0469 620.75,623.7813 Q620.1563,623.5 619.5313,623.5 Q618.1875,623.5 617.5,624.5781 Q616.8125,625.6406 616.8125,627.7344 Q616.8125,629.8281 617.5,630.9063 Q618.1875,631.9688 619.5313,631.9688 Q620.1563,631.9688 620.75,631.7031 Q621.3438,631.4219 621.9688,630.8438 L621.9688,633.5625 Z "/><text fill="#000000" font-family="sans-serif" font-size="12" font-style="italic" lengthAdjust="spacingAndGlyphs" textLength="49" x="635.5" y="625.0918">«driver»</text><text fill="#000000" font-family="sans-serif" font-size="12" lengthAdjust="spacingAndGlyphs" textLength="54" x="633" y="639.0605">Evaluate</text><line style="stroke: #555555; stroke-width: 1.5;" x1="605" x2="689" y1="646.8906" y2="646.8906"/><line style="stroke: #555555; stroke-width: 1.5;" x1="605" x2="689" y1="654.8906" y2="654.8906"/><!--MD5=[b70b6f8320058fab22834c343bc0e2f8]
class FeatureWorker--><rect fill="#FFF3E0" height="53.9375" id="FeatureWorker" style="stroke: #555555; stroke-width: 1.5;" width="125" x="1258.5" y="98.9531"/><ellipse cx="1273.5" cy="117.9219" fill="#ADD1B2" rx="11" ry="11" style="stroke: #555555; stroke-width: 1.0;"/><path d="M1276.4688,123.5625 Q1275.8906,123.8594 1275.25,124 Q1274.6094,124.1563 1273.9063,124.1563 Q1271.4063,124.1563 1270.0781,122.5156 Q1268.7656,120.8594 1268.7656,117.7344 Q1268.7656,114.6094 1270.0781,112.9531 Q1271.4063,111.2969 1273.9063,111.2969 Q1274.6094,111.2969 1275.25,111.4531 Q1275.9063,111.6094 1276.4688,111.9063 L1276.4688,114.625 Q1275.8438,114.0469 1275.25,113.7813 Q1274.6563,113.5 1274.0313,113.5 Q1272.6875,113.5 1272,114.5781 Q1271.3125,115.6406 1271.3125,117.7344 Q1271.3125,119.8281 1272,120.9063 Q1272.6875,121.9688 1274.0313,121.9688 Q1274.6563,121.9688 1275.25,121.7031 Q1275.8438,121.4219 1276.4688,120.8438 L1276.4688,123.5625 Z "/><text fill="#000000" font-family="sans-serif" font-size="12" font-style="italic" lengthAdjust="spacingAndGlyphs" textLength="57" x="1305.5" y="115.0918">«worker»</text><text fill="#000000" font-family="sans-serif" font-size="12" lengthAdjust="spacingAndGlyphs" textLength="93" x="1287.5" y="129.0605">FeatureWorker</text><line style="stroke: #555555; stroke-width: 1.5;" x1="1259.5" x2="1382.5" y1="136.8906" y2="136.8906"/><line style="stroke: #555555; stroke-width: 1.5;" x1="1259.5" x2="1382.5" y1="144.8906" y2="144.8906"/><!--MD5=[da37faeed9c4102779a73c6bda28591f]
class ChoreWorker--><rect fill="#FFF3E0" height="53.9375" id="ChoreWorker" style="stroke: #555555; stroke-width: 1.5;" width="113" x="1418.5" y="98.9531"/><ellipse cx="1433.5" cy="117.9219" fill="#ADD1B2" rx="11" ry="11" style="stroke: #555555; stroke-width: 1.0;"/><path d="M1436.4688,123.5625 Q1435.8906,123.8594 1435.25,124 Q1434.6094,124.1563 1433.9063,124.1563 Q1431.4063,124.1563 1430.0781,122.5156 Q1428.7656,120.8594 1428.7656,117.7344 Q1428.7656,114.6094 1430.0781,112.9531 Q1431.4063,111.2969 1433.9063,111.2969 Q1434.6094,111.2969 1435.25,111.4531 Q1435.9063,111.6094 1436.4688,111.9063 L1436.4688,114.625 Q1435.8438,114.0469 1435.25,113.7813 Q1434.6563,113.5 1434.0313,113.5 Q1432.6875,113.5 1432,114.5781 Q1431.3125,115.6406 1431.3125,117.7344 Q1431.3125,119.8281 1432,120.9063 Q1432.6875,121.9688 1434.0313,121.9688 Q1434.6563,121.9688 1435.25,121.7031 Q1435.8438,121.4219 1436.4688,120.8438 L1436.4688,123.5625 Z "/><text fill="#000000" font-family="sans-serif" font-size="12" font-style="italic" lengthAdjust="spacingAndGlyphs" textLength="57" x="1459.5" y="115.0918">«worker»</text><text fill="#000000" font-family="sans-serif" font-size="12" lengthAdjust="spacingAndGlyphs" textLength="81" x="1447.5" y="129.0605">ChoreWorker</text><line style="stroke: #555555; stroke-width: 1.5;" x1="1419.5" x2="1530.5" y1="136.8906" y2="136.8906"/><line style="stroke: #555555; stroke-width: 1.5;" x1="1419.5" x2="1530.5" y1="144.8906" y2="144.8906"/><!--MD5=[3137d20f986b4a02518a1fe21e5fd46d]
class CompleteHandshake--><rect fill="#F8BBD0" height="66.7422" id="CompleteHandshake" style="stroke: #555555; stroke-width: 1.5;" width="196" x="1299" y="269.9531"/><ellipse cx="1329.3" cy="288.9219" fill="#ADD1B2" rx="11" ry="11" style="stroke: #555555; stroke-width: 1.0;"/><path d="M1332.2688,294.5625 Q1331.6906,294.8594 1331.05,295 Q1330.4094,295.1563 1329.7063,295.1563 Q1327.2063,295.1563 1325.8781,293.5156 Q1324.5656,291.8594 1324.5656,288.7344 Q1324.5656,285.6094 1325.8781,283.9531 Q1327.2063,282.2969 1329.7063,282.2969 Q1330.4094,282.2969 1331.05,282.4531 Q1331.7063,282.6094 1332.2688,282.9063 L1332.2688,285.625 Q1331.6438,285.0469 1331.05,284.7813 Q1330.4563,284.5 1329.8313,284.5 Q1328.4875,284.5 1327.8,285.5781 Q1327.1125,286.6406 1327.1125,288.7344 Q1327.1125,290.8281 1327.8,291.9063 Q1328.4875,292.9688 1329.8313,292.9688 Q1330.4563,292.9688 1331.05,292.7031 Q1331.6438,292.4219 1332.2688,291.8438 L1332.2688,294.5625 Z "/><text fill="#000000" font-family="sans-serif" font-size="12" font-style="italic" lengthAdjust="spacingAndGlyphs" textLength="68" x="1377.7" y="286.0918">«invariant»</text><text fill="#000000" font-family="sans-serif" font-size="12" lengthAdjust="spacingAndGlyphs" textLength="130" x="1346.7" y="300.0605">CompleteHandshake</text><line style="stroke: #555555; stroke-width: 1.5;" x1="1300" x2="1494" y1="307.8906" y2="307.8906"/><line style="stroke: #555555; stroke-width: 1.5;" x1="1300" x2="1494" y1="315.8906" y2="315.8906"/><ellipse cx="1310" cy="326.8906" fill="#84BE84" rx="3" ry="3" style="stroke: #038048; stroke-width: 1.0;"/><text fill="#000000" font-family="sans-serif" font-size="11" lengthAdjust="spacingAndGlyphs" textLength="170" x="1319" y="330.1011">complete(taskId, result) : void</text><!--MD5=[f3365645dcc6ae4f0fec7af81db6a504]
class Adjudicator--><rect fill="#F8BBD0" height="66.7422" id="Adjudicator" style="stroke: #555555; stroke-width: 1.5;" width="287" x="1299.5" y="440.4531"/><ellipse cx="1403.25" cy="459.4219" fill="#ADD1B2" rx="11" ry="11" style="stroke: #555555; stroke-width: 1.0;"/><path d="M1406.2188,465.0625 Q1405.6406,465.3594 1405,465.5 Q1404.3594,465.6563 1403.6563,465.6563 Q1401.1563,465.6563 1399.8281,464.0156 Q1398.5156,462.3594 1398.5156,459.2344 Q1398.5156,456.1094 1399.8281,454.4531 Q1401.1563,452.7969 1403.6563,452.7969 Q1404.3594,452.7969 1405,452.9531 Q1405.6563,453.1094 1406.2188,453.4063 L1406.2188,456.125 Q1405.5938,455.5469 1405,455.2813 Q1404.4063,455 1403.7813,455 Q1402.4375,455 1401.75,456.0781 Q1401.0625,457.1406 1401.0625,459.2344 Q1401.0625,461.3281 1401.75,462.4063 Q1402.4375,463.4688 1403.7813,463.4688 Q1404.4063,463.4688 1405,463.2031 Q1405.5938,462.9219 1406.2188,462.3438 L1406.2188,465.0625 Z "/><text fill="#000000" font-family="sans-serif" font-size="12" font-style="italic" lengthAdjust="spacingAndGlyphs" textLength="68" x="1425.25" y="456.5918">«invariant»</text><text fill="#000000" font-family="sans-serif" font-size="12" lengthAdjust="spacingAndGlyphs" textLength="71" x="1423.75" y="470.5605">Adjudicator</text><line style="stroke: #555555; stroke-width: 1.5;" x1="1300.5" x2="1585.5" y1="478.3906" y2="478.3906"/><line style="stroke: #555555; stroke-width: 1.5;" x1="1300.5" x2="1585.5" y1="486.3906" y2="486.3906"/><ellipse cx="1310.5" cy="497.3906" fill="#84BE84" rx="3" ry="3" style="stroke: #038048; stroke-width: 1.0;"/><text fill="#000000" font-family="sans-serif" font-size="11" lengthAdjust="spacingAndGlyphs" textLength="261" x="1319.5" y="500.6011">adjudicate(task, result) : Verdict   '' pass | fail</text><!--MD5=[3bee139e22e2b3044672075775be92c4]
class MergeCoordinator--><rect fill="#F8BBD0" height="79.5469" id="MergeCoordinator" style="stroke: #555555; stroke-width: 1.5;" width="211" x="1500.5" y="595.9531"/><ellipse cx="1545.25" cy="614.9219" fill="#ADD1B2" rx="11" ry="11" style="stroke: #555555; stroke-width: 1.0;"/><path d="M1548.2188,620.5625 Q1547.6406,620.8594 1547,621 Q1546.3594,621.1563 1545.6563,621.1563 Q1543.1563,621.1563 1541.8281,619.5156 Q1540.5156,617.8594 1540.5156,614.7344 Q1540.5156,611.6094 1541.8281,609.9531 Q1543.1563,608.2969 1545.6563,608.2969 Q1546.3594,608.2969 1547,608.4531 Q1547.6563,608.6094 1548.2188,608.9063 L1548.2188,611.625 Q1547.5938,611.0469 1547,610.7813 Q1546.4063,610.5 1545.7813,610.5 Q1544.4375,610.5 1543.75,611.5781 Q1543.0625,612.6406 1543.0625,614.7344 Q1543.0625,616.8281 1543.75,617.9063 Q1544.4375,618.9688 1545.7813,618.9688 Q1546.4063,618.9688 1547,618.7031 Q1547.5938,618.4219 1548.2188,617.8438 L1548.2188,620.5625 Z "/><text fill="#000000" font-family="sans-serif" font-size="12" font-style="italic" lengthAdjust="spacingAndGlyphs" textLength="68" x="1588.25" y="612.0918">«invariant»</text><text fill="#000000" font-family="sans-serif" font-size="12" lengthAdjust="spacingAndGlyphs" textLength="113" x="1565.75" y="626.0605">MergeCoordinator</text><line style="stroke: #555555; stroke-width: 1.5;" x1="1501.5" x2="1710.5" y1="633.8906" y2="633.8906"/><line style="stroke: #555555; stroke-width: 1.5;" x1="1501.5" x2="1710.5" y1="641.8906" y2="641.8906"/><ellipse cx="1511.5" cy="652.8906" fill="#84BE84" rx="3" ry="3" style="stroke: #038048; stroke-width: 1.0;"/><text fill="#000000" font-family="sans-serif" font-size="11" lengthAdjust="spacingAndGlyphs" textLength="104" x="1520.5" y="656.1011">merge(task) : void</text><ellipse cx="1511.5" cy="665.6953" fill="#84BE84" rx="3" ry="3" style="stroke: #038048; stroke-width: 1.0;"/><text fill="#000000" font-family="sans-serif" font-size="11" lengthAdjust="spacingAndGlyphs" textLength="185" x="1520.5" y="668.9058">reapSameFieldPeers(field) : void</text><!--MD5=[d0b7a0bb38c84f0294b3da567a7f5622]
class SafetyMonitor--><rect fill="#F8BBD0" height="66.7422" id="SafetyMonitor" style="stroke: #555555; stroke-width: 1.5;" width="338" x="1530" y="269.9531"/><ellipse cx="1651.75" cy="288.9219" fill="#ADD1B2" rx="11" ry="11" style="stroke: #555555; stroke-width: 1.0;"/><path d="M1654.7188,294.5625 Q1654.1406,294.8594 1653.5,295 Q1652.8594,295.1563 1652.1563,295.1563 Q1649.6563,295.1563 1648.3281,293.5156 Q1647.0156,291.8594 1647.0156,288.7344 Q1647.0156,285.6094 1648.3281,283.9531 Q1649.6563,282.2969 1652.1563,282.2969 Q1652.8594,282.2969 1653.5,282.4531 Q1654.1563,282.6094 1654.7188,282.9063 L1654.7188,285.625 Q1654.0938,285.0469 1653.5,284.7813 Q1652.9063,284.5 1652.2813,284.5 Q1650.9375,284.5 1650.25,285.5781 Q1649.5625,286.6406 1649.5625,288.7344 Q1649.5625,290.8281 1650.25,291.9063 Q1650.9375,292.9688 1652.2813,292.9688 Q1652.9063,292.9688 1653.5,292.7031 Q1654.0938,292.4219 1654.7188,291.8438 L1654.7188,294.5625 Z "/><text fill="#000000" font-family="sans-serif" font-size="12" font-style="italic" lengthAdjust="spacingAndGlyphs" textLength="68" x="1681.25" y="286.0918">«invariant»</text><text fill="#000000" font-family="sans-serif" font-size="12" lengthAdjust="spacingAndGlyphs" textLength="86" x="1672.25" y="300.0605">SafetyMonitor</text><line style="stroke: #555555; stroke-width: 1.5;" x1="1531" x2="1867" y1="307.8906" y2="307.8906"/><line style="stroke: #555555; stroke-width: 1.5;" x1="1531" x2="1867" y1="315.8906" y2="315.8906"/><ellipse cx="1541" cy="326.8906" fill="#84BE84" rx="3" ry="3" style="stroke: #038048; stroke-width: 1.0;"/><text fill="#000000" font-family="sans-serif" font-size="11" lengthAdjust="spacingAndGlyphs" textLength="312" x="1550" y="330.1011">flagStale() : void   '' informational only; human decides</text><!--MD5=[bf6c3a69eda2bf9b1d52c6e528da1b08]
class IssueSource--><rect fill="#E1BEE7" height="92.3516" id="IssueSource" style="stroke: #555555; stroke-width: 1.5;" width="130" x="883" y="589.9531"/><ellipse cx="907.9" cy="608.9219" fill="#B4A7E5" rx="11" ry="11" style="stroke: #555555; stroke-width: 1.0;"/><path d="M903.8219,604.6875 L903.8219,602.5313 L911.2125,602.5313 L911.2125,604.6875 L908.7438,604.6875 L908.7438,612.7656 L911.2125,612.7656 L911.2125,614.9219 L903.8219,614.9219 L903.8219,612.7656 L906.2906,612.7656 L906.2906,604.6875 L903.8219,604.6875 Z "/><text fill="#000000" font-family="sans-serif" font-size="12" font-style="italic" lengthAdjust="spacingAndGlyphs" textLength="67" x="928.6" y="606.0918">«contract»</text><text fill="#000000" font-family="sans-serif" font-size="12" font-style="italic" lengthAdjust="spacingAndGlyphs" textLength="76" x="924.1" y="620.0605">IssueSource</text><line style="stroke: #555555; stroke-width: 1.5;" x1="884" x2="1012" y1="627.8906" y2="627.8906"/><line style="stroke: #555555; stroke-width: 1.5;" x1="884" x2="1012" y1="635.8906" y2="635.8906"/><ellipse cx="894" cy="646.8906" fill="#84BE84" rx="3" ry="3" style="stroke: #038048; stroke-width: 1.0;"/><text fill="#000000" font-family="sans-serif" font-size="11" lengthAdjust="spacingAndGlyphs" textLength="98" x="903" y="650.1011">list(filter) : Task[]</text><ellipse cx="894" cy="659.6953" fill="#84BE84" rx="3" ry="3" style="stroke: #038048; stroke-width: 1.0;"/><text fill="#000000" font-family="sans-serif" font-size="11" lengthAdjust="spacingAndGlyphs" textLength="75" x="903" y="662.9058">get(id) : Task</text><ellipse cx="894" cy="672.5" fill="#84BE84" rx="3" ry="3" style="stroke: #038048; stroke-width: 1.0;"/><text fill="#000000" font-family="sans-serif" font-size="11" lengthAdjust="spacingAndGlyphs" textLength="104" x="903" y="675.7104">upsert(task) : void</text><!--MD5=[5d2bdee92db0d01b75732190da037553]
class Coordinator--><rect fill="#E1BEE7" height="66.7422" id="Coordinator" style="stroke: #555555; stroke-width: 1.5;" width="448" x="1900" y="602.4531"/><ellipse cx="2082.75" cy="621.4219" fill="#B4A7E5" rx="11" ry="11" style="stroke: #555555; stroke-width: 1.0;"/><path d="M2078.6719,617.1875 L2078.6719,615.0313 L2086.0625,615.0313 L2086.0625,617.1875 L2083.5938,617.1875 L2083.5938,625.2656 L2086.0625,625.2656 L2086.0625,627.4219 L2078.6719,627.4219 L2078.6719,625.2656 L2081.1406,625.2656 L2081.1406,617.1875 L2078.6719,617.1875 Z "/><text fill="#000000" font-family="sans-serif" font-size="12" font-style="italic" lengthAdjust="spacingAndGlyphs" textLength="67" x="2106.75" y="618.5918">«contract»</text><text fill="#000000" font-family="sans-serif" font-size="12" font-style="italic" lengthAdjust="spacingAndGlyphs" textLength="74" x="2103.25" y="632.5605">Coordinator</text><line style="stroke: #555555; stroke-width: 1.5;" x1="1901" x2="2347" y1="640.3906" y2="640.3906"/><line style="stroke: #555555; stroke-width: 1.5;" x1="1901" x2="2347" y1="648.3906" y2="648.3906"/><ellipse cx="1911" cy="659.3906" fill="#84BE84" rx="3" ry="3" style="stroke: #038048; stroke-width: 1.0;"/><text fill="#000000" font-family="sans-serif" font-size="11" lengthAdjust="spacingAndGlyphs" textLength="422" x="1920" y="662.6011">claims() : Map&lt;taskId, Claim&gt;   '' SAME runtime-fact channel as authoring</text><path d="M146.5,90.4531 L146.5,160.9844 L667.5,160.9844 L667.5,100.4531 L657.5,90.4531 L146.5,90.4531 " fill="#FBFB77" style="stroke: #A80036; stroke-width: 1.0;"/><path d="M657.5,90.4531 L657.5,100.4531 L667.5,100.4531 L657.5,90.4531 " fill="#FBFB77" style="stroke: #A80036; stroke-width: 1.0;"/><text fill="#000000" font-family="sans-serif" font-size="13" font-weight="bold" lengthAdjust="spacingAndGlyphs" textLength="191" x="152.5" y="107.52">Symmetry with authoring:</text><text fill="#000000" font-family="sans-serif" font-size="13" lengthAdjust="spacingAndGlyphs" textLength="288" x="347.5" y="107.52">scan → dispatch → worker → result flows back</text><text fill="#000000" font-family="sans-serif" font-size="13" lengthAdjust="spacingAndGlyphs" textLength="500" x="152.5" y="122.6528">as DATA → engine reads &amp; branches. Adjudicator's DoD verdict is to execution</text><text fill="#000000" font-family="sans-serif" font-size="13" lengthAdjust="spacingAndGlyphs" textLength="476" x="152.5" y="137.7856">what the architect Reviewed verdict is to authoring — both appended data,</text><text fill="#000000" font-family="sans-serif" font-size="13" lengthAdjust="spacingAndGlyphs" textLength="246" x="152.5" y="152.9185">never a worker's own claim of success.</text><path d="M702.5,98.4531 L702.5,153.8516 L1223.5,153.8516 L1223.5,108.4531 L1213.5,98.4531 L702.5,98.4531 " fill="#FBFB77" style="stroke: #A80036; stroke-width: 1.0;"/><path d="M1213.5,98.4531 L1213.5,108.4531 L1223.5,108.4531 L1213.5,98.4531 " fill="#FBFB77" style="stroke: #A80036; stroke-width: 1.0;"/><text fill="#000000" font-family="sans-serif" font-size="13" font-weight="bold" lengthAdjust="spacingAndGlyphs" textLength="88" x="708.5" y="115.52">Asymmetry:</text><text fill="#000000" font-family="sans-serif" font-size="13" lengthAdjust="spacingAndGlyphs" textLength="350" x="800.5" y="115.52">the completion tail (pink) is NOT a strategy — it is fixed</text><text fill="#000000" font-family="sans-serif" font-size="13" lengthAdjust="spacingAndGlyphs" textLength="500" x="708.5" y="130.6528">safety machinery (ENG-3 merge lock, ENG-8 no self-attested done). Variability</text><text fill="#000000" font-family="sans-serif" font-size="13" lengthAdjust="spacingAndGlyphs" textLength="439" x="708.5" y="145.7856">lives ONLY in WorkAction (role/kind). Do NOT make the tail pluggable.</text><path d="M158.5,275.9531 L158.5,331.3516 L655.5,331.3516 L655.5,285.9531 L645.5,275.9531 L158.5,275.9531 " fill="#FBFB77" style="stroke: #A80036; stroke-width: 1.0;"/><path d="M645.5,275.9531 L645.5,285.9531 L655.5,285.9531 L645.5,275.9531 " fill="#FBFB77" style="stroke: #A80036; stroke-width: 1.0;"/><text fill="#000000" font-family="sans-serif" font-size="13" lengthAdjust="spacingAndGlyphs" textLength="463" x="164.5" y="293.02">TODAY: Interpreter + executionPipeline are pure &amp; TEST-ONLY (unwired).</text><text fill="#000000" font-family="sans-serif" font-size="13" lengthAdjust="spacingAndGlyphs" textLength="465" x="164.5" y="308.1528">ExecutionDriver / CompleteHandshake / Adjudicator / MergeCoordinator /</text><text fill="#000000" font-family="sans-serif" font-size="13" lengthAdjust="spacingAndGlyphs" textLength="476" x="164.5" y="323.2856">SafetyMonitor / Coordinator ALL ABSENT — soak runs on baime scan-loop.</text><!--MD5=[e58de9e3f593cefb9484addad06aca4b]
reverse link WorkAction to FeatureWork--><path d="M198.32,699.6531 C189.87,714.9431 181.28,730.4731 174.38,742.9431 " fill="none" id="WorkAction&lt;-FeatureWork" style="stroke: #A80036; stroke-width: 1.0; stroke-dasharray: 7.0,7.0;"/><polygon fill="none" points="192.28,696.1231,208.08,682.0131,204.53,702.9031,192.28,696.1231" style="stroke: #A80036; stroke-width: 1.0;"/><!--MD5=[0ffba4907edf7e5067aac731d8460532]
reverse link WorkAction to ChoreWork--><path d="M265.56,700.1531 C273.35,715.2831 281.25,730.6131 287.6,742.9431 " fill="none" id="WorkAction&lt;-ChoreWork" style="stroke: #A80036; stroke-width: 1.0; stroke-dasharray: 7.0,7.0;"/><polygon fill="none" points="259.15,702.9931,256.21,682.0131,271.59,696.5831,259.15,702.9931" style="stroke: #A80036; stroke-width: 1.0;"/><!--MD5=[ddf231d97dfe7f8974fac09c70763e57]
link ExecutionDriver to WorkAction--><path d="M458.17,477.0531 C356.5,481.6531 184.2,496.3031 145,542.9531 C132.85,557.4131 138.62,572.4731 151.7,586.1231 " fill="none" id="ExecutionDriver-&gt;WorkAction" style="stroke: #A80036; stroke-width: 1.0; stroke-dasharray: 7.0,7.0;"/><polygon fill="#A80036" points="155.57,589.9331,151.9418,580.7769,151.9989,586.4335,146.3424,586.4906,155.57,589.9331" style="stroke: #A80036; stroke-width: 1.0;"/><text fill="#000000" font-family="sans-serif" font-size="13" lengthAdjust="spacingAndGlyphs" textLength="158" x="146" y="556.02">dispatch (role=primitive)</text><!--MD5=[f3cf3d41966385e99ae31afe82b11425]
link ExecutionDriver to Decompose--><path d="M458.29,477.1931 C409.7,483.0431 349.92,499.4431 318,542.9531 C294.2,575.3931 350.67,550.2431 445,589.9531 C455.38,594.3231 465.96,600.1531 475.66,606.1531 " fill="none" id="ExecutionDriver-&gt;Decompose" style="stroke: #A80036; stroke-width: 1.0; stroke-dasharray: 7.0,7.0;"/><polygon fill="#A80036" points="480.06,608.9231,474.5554,600.7561,475.8224,606.2693,470.3093,607.5363,480.06,608.9231" style="stroke: #A80036; stroke-width: 1.0;"/><text fill="#000000" font-family="sans-serif" font-size="13" lengthAdjust="spacingAndGlyphs" textLength="171" x="319" y="556.02">dispatch (role=compound)</text><!--MD5=[e5304679a283f0f5031c8b3c7a61747c]
link ExecutionDriver to Evaluate--><path d="M524.04,513.1531 C522.11,528.6531 522.78,546.1131 531,559.9531 C545.21,583.8931 562.52,574.9831 586,589.9531 C593.68,594.8431 601.66,600.3831 609.22,605.8531 " fill="none" id="ExecutionDriver-&gt;Evaluate" style="stroke: #A80036; stroke-width: 1.0; stroke-dasharray: 7.0,7.0;"/><polygon fill="#A80036" points="613.38,608.8831,608.4576,600.3526,609.3376,605.9406,603.7496,606.8205,613.38,608.8831" style="stroke: #A80036; stroke-width: 1.0;"/><text fill="#000000" font-family="sans-serif" font-size="13" lengthAdjust="spacingAndGlyphs" textLength="154" x="532" y="556.02">dispatch (epic-eval-due)</text><!--MD5=[b8ad1a15f4429c993a7952c9358af24d]
link CompleteHandshake to Adjudicator--><path d="M1405.98,337.3431 C1413.67,365.5031 1424.73,406.0331 1432.76,435.4431 " fill="none" id="CompleteHandshake-&gt;Adjudicator" style="stroke: #A80036; stroke-width: 1.0; stroke-dasharray: 7.0,7.0;"/><polygon fill="#A80036" points="1434.12,440.4331,1435.6086,430.6974,1432.8032,435.6096,1427.891,432.8043,1434.12,440.4331" style="stroke: #A80036; stroke-width: 1.0;"/><text fill="#000000" font-family="sans-serif" font-size="13" lengthAdjust="spacingAndGlyphs" textLength="71" x="1419" y="380.02">re-run DoD</text><!--MD5=[5090586a7ccb93e5d56f45d211d76038]
link Adjudicator to MergeCoordinator--><path d="M1521.5,507.6331 C1538.05,517.1931 1554.32,528.9331 1567,542.9531 C1579.23,556.4831 1587.99,574.4131 1594.07,590.8531 " fill="none" id="Adjudicator-&gt;MergeCoordinator" style="stroke: #A80036; stroke-width: 1.0; stroke-dasharray: 7.0,7.0;"/><polygon fill="#A80036" points="1595.87,595.8931,1596.6232,586.0731,1594.1947,591.1822,1589.0856,588.7536,1595.87,595.8931" style="stroke: #A80036; stroke-width: 1.0;"/><text fill="#000000" font-family="sans-serif" font-size="13" lengthAdjust="spacingAndGlyphs" textLength="149" x="1579" y="556.02">pass → merge/advance</text><!--MD5=[e10733ee07c47dec744c5142f851ade1]
link ExecutionDriver to Coordinator--><path d="M609.92,479.3831 C721.57,486.9031 936.14,505.1831 1115,542.9531 C1140.03,548.2431 1144.79,555.6031 1170,559.9531 C1482.99,613.9631 1568.44,553.9231 1884,589.9531 C1909.67,592.8831 1936.71,596.9731 1963.03,601.4931 " fill="none" id="ExecutionDriver-&gt;Coordinator" style="stroke: #A80036; stroke-width: 1.0; stroke-dasharray: 7.0,7.0;"/><polygon fill="#A80036" points="1968.28,602.4031,1960.0985,596.9202,1963.3539,601.5464,1958.7277,604.8019,1968.28,602.4031" style="stroke: #A80036; stroke-width: 1.0;"/><text fill="#000000" font-family="sans-serif" font-size="13" lengthAdjust="spacingAndGlyphs" textLength="111" x="1171" y="556.02">claim during work</text><!--MD5=[a0b5faa078fe94b1e8001132118bd001]
link ExecutionDriver to IssueSource--><path d="M609.68,507.1431 C635.55,518.3031 664.61,531.0131 691,542.9531 C707.12,550.2431 710.6,553.3231 727,559.9531 C776.73,580.0631 834.14,599.4331 877.97,613.4431 " fill="none" id="ExecutionDriver-&gt;IssueSource" style="stroke: #A80036; stroke-width: 1.0; stroke-dasharray: 7.0,7.0;"/><polygon fill="#A80036" points="882.98,615.0431,875.6294,608.4881,878.2184,613.5177,873.1887,616.1066,882.98,615.0431" style="stroke: #A80036; stroke-width: 1.0;"/><text fill="#000000" font-family="sans-serif" font-size="13" lengthAdjust="spacingAndGlyphs" textLength="176" x="728" y="556.02">advance phase / waiting_on</text><!--MD5=[d9122686cb03c6bc14738267b8b086a9]
link FeatureWorker to CompleteHandshake--><path d="M1304.85,153.2031 C1295.42,172.1031 1287.14,197.8731 1297,218.9531 C1305.79,237.7431 1321.12,253.7931 1337.17,266.6431 " fill="none" id="FeatureWorker-&gt;CompleteHandshake" style="stroke: #A80036; stroke-width: 1.0; stroke-dasharray: 7.0,7.0;"/><polygon fill="#A80036" points="1341.27,269.8431,1336.6477,261.1463,1337.3325,266.7616,1331.7172,267.4464,1341.27,269.8431" style="stroke: #A80036; stroke-width: 1.0;"/><text fill="#000000" font-family="sans-serif" font-size="13" lengthAdjust="spacingAndGlyphs" textLength="153" x="1298" y="215.02">engine.complete(result)</text><!--MD5=[a883d3cb9323e403aec1306b812ceb50]
link ChoreWorker to CompleteHandshake--><path d="M1472.48,153.2031 C1469.99,172.0931 1465.15,197.8531 1456,218.9531 C1448.89,235.3331 1438.26,251.7331 1427.97,265.6131 " fill="none" id="ChoreWorker-&gt;CompleteHandshake" style="stroke: #A80036; stroke-width: 1.0; stroke-dasharray: 7.0,7.0;"/><polygon fill="#A80036" points="1424.79,269.8331,1433.39,265.0331,1427.79,265.8331,1426.99,260.2331,1424.79,269.8331" style="stroke: #A80036; stroke-width: 1.0;"/><text fill="#000000" font-family="sans-serif" font-size="13" lengthAdjust="spacingAndGlyphs" textLength="153" x="1463" y="215.02">engine.complete(result)</text><!--MD5=[49ad9edcfa8cea3d21403ca35903b3b8]
link Adjudicator to IssueSource--><path d="M1372.87,507.5431 C1349.58,518.5631 1323.58,531.0931 1300,542.9531 C1285.61,550.1931 1283.08,554.2931 1268,559.9531 C1184.7,591.2331 1084.15,612.2331 1018.27,623.8731 " fill="none" id="Adjudicator-&gt;IssueSource" style="stroke: #A80036; stroke-width: 1.0; stroke-dasharray: 7.0,7.0;"/><polygon fill="#A80036" points="1013.19,624.7631,1022.7423,627.1619,1018.1161,623.9064,1021.3715,619.2802,1013.19,624.7631" style="stroke: #A80036; stroke-width: 1.0;"/><text fill="#000000" font-family="sans-serif" font-size="13" lengthAdjust="spacingAndGlyphs" textLength="257" x="1301" y="556.02">pass → phase:=done, waiting_on:=none</text><!--MD5=[49ad9edcfa8cea3d21403ca35903b3b8]
link Adjudicator to IssueSource--><path d="M1299.31,485.0331 C1160.6,496.2631 968.18,516.3931 945,542.9531 C935.09,554.3131 932.89,569.7931 934.06,584.8131 " fill="none" id="Adjudicator-&gt;IssueSource-1" style="stroke: #A80036; stroke-width: 1.0; stroke-dasharray: 7.0,7.0;"/><polygon fill="#A80036" points="934.58,589.8831,937.6327,580.5193,934.0655,584.9097,929.6751,581.3425,934.58,589.8831" style="stroke: #A80036; stroke-width: 1.0;"/><text fill="#000000" font-family="sans-serif" font-size="13" lengthAdjust="spacingAndGlyphs" textLength="164" x="946" y="556.02">fail → waiting_on:=human</text><!--MD5=[b36b906708c3fd08ea3f6c728cea3695]
link SafetyMonitor to Coordinator--><path d="M1740.91,337.0431 C1820.84,399.2031 1994.48,534.2331 2077.71,598.9531 " fill="none" id="SafetyMonitor-&gt;Coordinator" style="stroke: #A80036; stroke-width: 1.0; stroke-dasharray: 7.0,7.0;"/><polygon fill="#A80036" points="2082.09,602.3631,2077.4285,593.6873,2078.1386,599.2994,2072.5265,600.0095,2082.09,602.3631" style="stroke: #A80036; stroke-width: 1.0;"/><text fill="#000000" font-family="sans-serif" font-size="13" lengthAdjust="spacingAndGlyphs" textLength="95" x="1961" y="478.52">read claim age</text><!--MD5=[cbe24d44a7a0442c48cc51338655737e]
link N_symmetry to N_asymmetry--><!--MD5=[3a69a00b33e08d3d48064e086e23d557]
link N_symmetry to N_today--><!--MD5=[1b6c0099c40864f7d50607e7d880358f]
@startuml epicd-execution-class

skinparam backgroundColor #FFFFFF
skinparam shadowing false
skinparam class {
  BorderColor #555555
  BackgroundColor #E8F0FE
  BackgroundColor<<pure>> #C8E6C9
  BackgroundColor<<driver>> #FFE0B2
  BackgroundColor<<worker>> #FFF3E0
  BackgroundColor<<invariant>> #F8BBD0
  BackgroundColor<<contract>> #E1BEE7
}
skinparam packageStyle rectangle

title epicd — Execution engine (class diagram; symmetric to authoring, invariant-heavy tail)

package "Core state machine  (pure — EXISTS, test-only)" {
  class Interpreter <<pure>> {
    +register(p, state, h)
    +scan(tasks) : ItemReadyEvent[]
    +dispatch(events, tasks)
  }
  class Pipeline <<pure>> {
    +id : string
    +states : PipelineState[]
  }
  note bottom of Pipeline
    executionPipeline states become PHASE-only under four-axis:
    ready+in-progress MERGE; needs-human is NOT a state (→ waiting_on).
    scan predicate → phase actionable ∧ waiting_on=machine ∧ no live claim.
  end note
}

package "Driver  (IMPURE — EXECUTION, ABSENT today)" {
  class ExecutionDriver <<driver>> {
    +run(event, task) : void
    - - per scan - -
  }
  interface WorkAction <<pure>> {
    +role = "primitive"
    +kind : feature | chore
    +plan(task) : WorkSpec   '' what to run; driver spawns the worker
  }
  class FeatureWork <<pure>> {
  }
  class ChoreWork <<pure>> {
  }
  class Decompose <<driver>> {
  }
  class Evaluate <<driver>> {
  }
  WorkAction <|.. FeatureWork
  WorkAction <|.. ChoreWork
  ExecutionDriver ..> WorkAction : dispatch (role=primitive)
  ExecutionDriver ..> Decompose : dispatch (role=compound)
  ExecutionDriver ..> Evaluate  : dispatch (epic-eval-due)
}

package "Workers  (spawned in git worktree)" {
  class FeatureWorker <<worker>> {
  }
  class ChoreWorker <<worker>> {
  }
}

package "Completion tail  (ENGINE-OWNED invariants — ADR-010/012)" {
  class CompleteHandshake <<invariant>> {
    +complete(taskId, result) : void
  }
  class Adjudicator <<invariant>> {
    +adjudicate(task, result) : Verdict   '' pass | fail
  }
  class MergeCoordinator <<invariant>> {
    +merge(task) : void
    +reapSameFieldPeers(field) : void
  }
  class SafetyMonitor <<invariant>> {
    +flagStale() : void   '' informational only; human decides
  }
  CompleteHandshake ..> Adjudicator : re-run DoD
  Adjudicator ..> MergeCoordinator : pass → merge/advance
}

interface IssueSource <<contract>> {
  +list(filter) : Task[]
  +get(id) : Task
  +upsert(task) : void
}
interface Coordinator <<contract>> {
  +claims() : Map<taskId, Claim>   '' SAME runtime-fact channel as authoring
}

ExecutionDriver ..> Coordinator : claim during work
ExecutionDriver ..> IssueSource : advance phase / waiting_on
FeatureWorker ..> CompleteHandshake : engine.complete(result)
ChoreWorker ..> CompleteHandshake : engine.complete(result)
Adjudicator ..> IssueSource : pass → phase:=done, waiting_on:=none
Adjudicator ..> IssueSource : fail → waiting_on:=human
SafetyMonitor ..> Coordinator : read claim age

note as N_symmetry
  **Symmetry with authoring:** scan → dispatch → worker → result flows back
  as DATA → engine reads & branches. Adjudicator's DoD verdict is to execution
  what the architect Reviewed verdict is to authoring — both appended data,
  never a worker's own claim of success.
end note
note as N_asymmetry
  **Asymmetry:** the completion tail (pink) is NOT a strategy — it is fixed
  safety machinery (ENG-3 merge lock, ENG-8 no self-attested done). Variability
  lives ONLY in WorkAction (role/kind). Do NOT make the tail pluggable.
end note
note as N_today
  TODAY: Interpreter + executionPipeline are pure & TEST-ONLY (unwired).
  ExecutionDriver / CompleteHandshake / Adjudicator / MergeCoordinator /
  SafetyMonitor / Coordinator ALL ABSENT — soak runs on baime scan-loop.
end note

@enduml

PlantUML version 1.2020.02(Sun Mar 01 10:22:07 UTC 2020)
(GPL source distribution)
Java Runtime: OpenJDK Runtime Environment
JVM: OpenJDK 64-Bit Server VM
Java Version: 21.0.11+10-1-22.04.2-Ubuntu
Operating System: Linux
Default Encoding: UTF-8
Language: en
Country: null
--></g></svg>