<?xml version="1.0" encoding="UTF-8" standalone="no"?><svg xmlns="http://www.w3.org/2000/svg" xmlns:xlink="http://www.w3.org/1999/xlink" contentScriptType="application/ecmascript" contentStyleType="text/css" height="989px" preserveAspectRatio="none" style="width:3113px;height:989px;" version="1.1" viewBox="0 0 3113 989" width="3113px" zoomAndPan="magnify"><defs/><g><text fill="#000000" font-family="sans-serif" font-size="18" lengthAdjust="spacingAndGlyphs" textLength="773" x="1173.5" y="16.708">epicd — runtime deployment (supervisor · driver-per-pipeline · workers · spawn seam)</text><!--MD5=[785fc9e387c8d634c9221e6d235cea30]
cluster Harness--><polygon fill="#E8F0FE" points="1162,180.9531,1172,170.9531,1700,170.9531,1700,616.4531,1690,626.4531,1162,626.4531,1162,180.9531" style="stroke: #555555; stroke-width: 1.5;"/><line style="stroke: #555555; stroke-width: 1.5;" x1="1690" x2="1699" y1="180.9531" y2="171.9531"/><line style="stroke: #555555; stroke-width: 1.5;" x1="1162" x2="1690" y1="180.9531" y2="180.9531"/><line style="stroke: #555555; stroke-width: 1.5;" x1="1690" x2="1690" y1="180.9531" y2="626.4531"/><text fill="#000000" font-family="sans-serif" font-size="14" font-weight="bold" lengthAdjust="spacingAndGlyphs" textLength="291" x="1281.5" y="196.9482">Claude Code harness  (Monitor host)</text><!--MD5=[88a48f54f0a881b37c8faac23bb14ef5]
cluster WT--><polygon fill="#E8F0FE" points="1614,721.9531,1624,711.9531,2086,711.9531,2086,826.9531,2076,836.9531,1614,836.9531,1614,721.9531" style="stroke: #555555; stroke-width: 1.5;"/><line style="stroke: #555555; stroke-width: 1.5;" x1="2076" x2="2085" y1="721.9531" y2="712.9531"/><line style="stroke: #555555; stroke-width: 1.5;" x1="1614" x2="2076" y1="721.9531" y2="721.9531"/><line style="stroke: #555555; stroke-width: 1.5;" x1="2076" x2="2076" y1="721.9531" y2="836.9531"/><text fill="#000000" font-family="sans-serif" font-size="14" font-weight="bold" lengthAdjust="spacingAndGlyphs" textLength="285" x="1703.5" y="737.9482">git worktree  (one per claimed task)</text><!--MD5=[7419f0a5279260db82d89ef4548da85a]
entity Sup--><rect fill="#FFF3E0" height="68.8906" style="stroke: #555555; stroke-width: 1.5;" width="208" x="1208" y="356.9531"/><rect fill="#FFF3E0" height="5" style="stroke: #555555; stroke-width: 1.5;" width="10" x="1203" y="361.9531"/><rect fill="#FFF3E0" height="5" style="stroke: #555555; stroke-width: 1.5;" width="10" x="1203" y="415.8438"/><text fill="#000000" font-family="sans-serif" font-size="14" font-weight="bold" lengthAdjust="spacingAndGlyphs" textLength="85" x="1218" y="379.9482">supervisor</text><text fill="#000000" font-family="sans-serif" font-size="14" lengthAdjust="spacingAndGlyphs" textLength="188" x="1218" y="396.2451">(persistent; singleton reap;</text><text fill="#000000" font-family="sans-serif" font-size="14" lengthAdjust="spacingAndGlyphs" textLength="188" x="1218" y="412.542">baime: Monitor+scan-loop)</text><!--MD5=[1e2a23bfe289573aff42126697aa5d80]
entity ExecD--><rect fill="#FFF3E0" height="68.8906" style="stroke: #555555; stroke-width: 1.5;" width="223" x="1177.5" y="541.4531"/><rect fill="#FFF3E0" height="5" style="stroke: #555555; stroke-width: 1.5;" width="10" x="1172.5" y="546.4531"/><rect fill="#FFF3E0" height="5" style="stroke: #555555; stroke-width: 1.5;" width="10" x="1172.5" y="600.3438"/><text fill="#000000" font-family="sans-serif" font-size="14" font-weight="bold" lengthAdjust="spacingAndGlyphs" textLength="130" x="1187.5" y="564.4482">execution driver</text><text fill="#000000" font-family="sans-serif" font-size="14" lengthAdjust="spacingAndGlyphs" textLength="203" x="1187.5" y="580.7451">Interpreter.scan → item-ready</text><text fill="#000000" font-family="sans-serif" font-size="14" lengthAdjust="spacingAndGlyphs" textLength="153" x="1187.5" y="597.042">(baime: --mode ready)</text><!--MD5=[b49e281ffc5cbb4e035325dac397eddf]
entity AuthD--><rect fill="#FFF3E0" height="68.8906" style="stroke: #555555; stroke-width: 1.5;" width="248" x="1436" y="541.4531"/><rect fill="#FFF3E0" height="5" style="stroke: #555555; stroke-width: 1.5;" width="10" x="1431" y="546.4531"/><rect fill="#FFF3E0" height="5" style="stroke: #555555; stroke-width: 1.5;" width="10" x="1431" y="600.3438"/><text fill="#000000" font-family="sans-serif" font-size="14" font-weight="bold" lengthAdjust="spacingAndGlyphs" textLength="128" x="1446" y="564.4482">authoring driver</text><text fill="#000000" font-family="sans-serif" font-size="14" lengthAdjust="spacingAndGlyphs" textLength="96" x="1578" y="564.4482">«planned E7»</text><text fill="#000000" font-family="sans-serif" font-size="14" lengthAdjust="spacingAndGlyphs" textLength="119" x="1446" y="580.7451">(RefiningHandler)</text><text fill="#000000" font-family="sans-serif" font-size="14" lengthAdjust="spacingAndGlyphs" textLength="146" x="1446" y="597.042">(baime: --mode draft)</text><!--MD5=[b74a504a2ca8ef7e4c7be1c820c91805]
entity Ops--><rect fill="#FFF3E0" height="68.8906" style="stroke: #555555; stroke-width: 1.5;" width="330" x="1178" y="210.9531"/><rect fill="#FFF3E0" height="5" style="stroke: #555555; stroke-width: 1.5;" width="10" x="1173" y="215.9531"/><rect fill="#FFF3E0" height="5" style="stroke: #555555; stroke-width: 1.5;" width="10" x="1173" y="269.8438"/><text fill="#000000" font-family="sans-serif" font-size="14" lengthAdjust="spacingAndGlyphs" textLength="103" x="1188" y="233.9482">operation skills</text><text fill="#000000" font-family="sans-serif" font-size="14" lengthAdjust="spacingAndGlyphs" textLength="132" x="1188" y="250.2451">run (epicd-run skill)</text><text fill="#000000" font-family="sans-serif" font-size="14" lengthAdjust="spacingAndGlyphs" textLength="310" x="1188" y="266.542">propose · promote · inbox · init «planned E5»</text><!--MD5=[732443c8138ba476724c0fd9f6a837e5]
entity ExecW--><rect fill="#FFF3E0" height="68.8906" style="stroke: #555555; stroke-width: 1.5;" width="175" x="1630.5" y="751.9531"/><rect fill="#FFF3E0" height="5" style="stroke: #555555; stroke-width: 1.5;" width="10" x="1625.5" y="756.9531"/><rect fill="#FFF3E0" height="5" style="stroke: #555555; stroke-width: 1.5;" width="10" x="1625.5" y="810.8438"/><text fill="#000000" font-family="sans-serif" font-size="14" font-weight="bold" lengthAdjust="spacingAndGlyphs" textLength="126" x="1640.5" y="774.9482">execute worker</text><text fill="#000000" font-family="sans-serif" font-size="14" lengthAdjust="spacingAndGlyphs" textLength="155" x="1640.5" y="791.2451">feature/chore Agent →</text><text fill="#000000" font-family="sans-serif" font-size="14" lengthAdjust="spacingAndGlyphs" textLength="127" x="1640.5" y="807.542">engine.complete()</text><!--MD5=[8b98ef3f3f12cb22e5a6cd77af2edc1f]
entity RefW--><rect fill="#FFF3E0" height="52.5938" style="stroke: #555555; stroke-width: 1.5;" width="229" x="1840.5" y="759.9531"/><rect fill="#FFF3E0" height="5" style="stroke: #555555; stroke-width: 1.5;" width="10" x="1835.5" y="764.9531"/><rect fill="#FFF3E0" height="5" style="stroke: #555555; stroke-width: 1.5;" width="10" x="1835.5" y="802.5469"/><text fill="#000000" font-family="sans-serif" font-size="14" font-weight="bold" lengthAdjust="spacingAndGlyphs" textLength="109" x="1850.5" y="782.9482">refine worker</text><text fill="#000000" font-family="sans-serif" font-size="14" lengthAdjust="spacingAndGlyphs" textLength="96" x="1963.5" y="782.9482">«planned E7»</text><text fill="#000000" font-family="sans-serif" font-size="14" lengthAdjust="spacingAndGlyphs" textLength="189" x="1850.5" y="799.2451">(RefineStrategy + reviewer)</text><!--MD5=[e8c322128e8bed006310bd0f11633135]
entity Human--><ellipse cx="1343" cy="38.4531" fill="#FEFECE" rx="8" ry="8" style="stroke: #A80036; stroke-width: 1.5;"/><path d="M1343,46.4531 L1343,73.4531 M1330,54.4531 L1356,54.4531 M1343,73.4531 L1330,88.4531 M1343,73.4531 L1356,88.4531 " fill="none" style="stroke: #A80036; stroke-width: 1.5;"/><text fill="#000000" font-family="sans-serif" font-size="14" lengthAdjust="spacingAndGlyphs" textLength="49" x="1299" y="103.9482">Human</text><text fill="#000000" font-family="sans-serif" font-size="14" lengthAdjust="spacingAndGlyphs" textLength="88" x="1299" y="120.2451">(gate owner)</text><!--MD5=[13252657ada6ca82cbc2aae5927e680b]
entity Src--><path d="M1370.5,909.9531 C1370.5,899.9531 1471,899.9531 1471,899.9531 C1471,899.9531 1571.5,899.9531 1571.5,909.9531 L1571.5,967.8438 C1571.5,977.8438 1471,977.8438 1471,977.8438 C1471,977.8438 1370.5,977.8438 1370.5,967.8438 L1370.5,909.9531 " fill="#E1BEE7" style="stroke: #555555; stroke-width: 1.5;"/><path d="M1370.5,909.9531 C1370.5,919.9531 1471,919.9531 1471,919.9531 C1471,919.9531 1571.5,919.9531 1571.5,909.9531 " fill="none" style="stroke: #555555; stroke-width: 1.5;"/><text fill="#000000" font-family="sans-serif" font-size="14" lengthAdjust="spacingAndGlyphs" textLength="86" x="1380.5" y="936.9482">IssueSource</text><text fill="#000000" font-family="sans-serif" font-size="14" lengthAdjust="spacingAndGlyphs" textLength="92" x="1380.5" y="953.2451">backlog/*.md</text><text fill="#000000" font-family="sans-serif" font-size="14" lengthAdjust="spacingAndGlyphs" textLength="181" x="1380.5" y="969.542">(pipeline_id + bare phase)</text><!--MD5=[87cf2040e9033e55777134a3b5839dcf]
entity Coord--><rect fill="#FFF3E0" height="68.8906" style="stroke: #555555; stroke-width: 1.5;" width="209" x="1283.5" y="751.9531"/><rect fill="#FFF3E0" height="5" style="stroke: #555555; stroke-width: 1.5;" width="10" x="1278.5" y="756.9531"/><rect fill="#FFF3E0" height="5" style="stroke: #555555; stroke-width: 1.5;" width="10" x="1278.5" y="810.8438"/><text fill="#000000" font-family="sans-serif" font-size="14" font-weight="bold" lengthAdjust="spacingAndGlyphs" textLength="94" x="1293.5" y="774.9482">Coordinator</text><text fill="#000000" font-family="sans-serif" font-size="14" lengthAdjust="spacingAndGlyphs" textLength="53" x="1391.5" y="774.9482">(claims)</text><text fill="#000000" font-family="sans-serif" font-size="14" lengthAdjust="spacingAndGlyphs" textLength="189" x="1293.5" y="791.2451">soak: .caps / .active-agents</text><text fill="#000000" font-family="sans-serif" font-size="14" lengthAdjust="spacingAndGlyphs" textLength="158" x="1293.5" y="807.542">→ engine claim registry</text><!--MD5=[4077f2c4ee214c6bf241e4ab4b194d17]
entity GEL--><path d="M2637,926.4531 C2637,916.4531 2713,916.4531 2713,916.4531 C2713,916.4531 2789,916.4531 2789,926.4531 L2789,951.75 C2789,961.75 2713,961.75 2713,961.75 C2713,961.75 2637,961.75 2637,951.75 L2637,926.4531 " fill="#E1BEE7" style="stroke: #555555; stroke-width: 1.5;"/><path d="M2637,926.4531 C2637,936.4531 2713,936.4531 2713,936.4531 C2713,936.4531 2789,936.4531 2789,926.4531 " fill="none" style="stroke: #555555; stroke-width: 1.5;"/><text fill="#000000" font-family="sans-serif" font-size="14" lengthAdjust="spacingAndGlyphs" textLength="132" x="2647" y="953.4482">gate-event log (E2)</text><path d="M333.5,502.9531 L333.5,649.1484 A0,0 0 0 0 333.5,649.1484 L1142.5,649.1484 A0,0 0 0 0 1142.5,649.1484 L1142.5,512.9531 L1132.5,502.9531 L968.64,502.9531 L1207.72,425.6131 L960.64,502.9531 L333.5,502.9531 A0,0 0 0 0 333.5,502.9531 " fill="#FBFB77" style="stroke: #A80036; stroke-width: 1.0;"/><path d="M1132.5,502.9531 L1132.5,512.9531 L1142.5,512.9531 L1132.5,502.9531 " fill="#FBFB77" style="stroke: #A80036; stroke-width: 1.0;"/><text fill="#000000" font-family="sans-serif" font-size="13" font-weight="bold" lengthAdjust="spacingAndGlyphs" textLength="221" x="339.5" y="520.02">INVOCATION SEAM (ADR-015):</text><text fill="#000000" font-family="sans-serif" font-size="13" lengthAdjust="spacingAndGlyphs" textLength="346" x="564.5" y="520.02">the engine (driver) decides *when / which* task to run;</text><text fill="#000000" font-family="sans-serif" font-size="13" lengthAdjust="spacingAndGlyphs" textLength="403" x="339.5" y="535.1528">the actual Agent-in-worktree spawn is done by the thin harness</text><text fill="#000000" font-family="sans-serif" font-size="13" font-weight="bold" lengthAdjust="spacingAndGlyphs" textLength="85" x="746.5" y="535.1528">worker skill</text><text fill="#000000" font-family="sans-serif" font-size="13" lengthAdjust="spacingAndGlyphs" textLength="187" x="835.5" y="535.1528">— engine core never spawns.</text><text fill="#000000" font-family="sans-serif" font-size="13" lengthAdjust="spacingAndGlyphs" textLength="748" x="339.5" y="550.2856">The seam abstracts `invokeClaudeCode(taskPrompt, worktree)`: ideal impl = `claude -p "&lt;self-contained prompt&gt;"`</text><text fill="#000000" font-family="sans-serif" font-size="13" lengthAdjust="spacingAndGlyphs" textLength="447" x="339.5" y="565.4185">(one headless process/task); today's impl = one persistent interactive</text><text fill="#000000" font-family="sans-serif" font-size="13" font-weight="bold" lengthAdjust="spacingAndGlyphs" textLength="109" x="790.5" y="565.4185">seat + Monitor</text><text fill="#000000" font-family="sans-serif" font-size="13" lengthAdjust="spacingAndGlyphs" textLength="157" x="903.5" y="565.4185">multiplexing N such calls</text><text fill="#000000" font-family="sans-serif" font-size="13" lengthAdjust="spacingAndGlyphs" textLength="95" x="339.5" y="580.5513">(billing-forced).</text><text fill="#000000" font-family="sans-serif" font-size="13" font-weight="bold" lengthAdjust="spacingAndGlyphs" textLength="407" x="438.5" y="580.5513">Monitor = invocation adapter, NOT scheduler/executor.</text><text fill="#000000" font-family="sans-serif" font-size="13" lengthAdjust="spacingAndGlyphs" textLength="240" x="849.5" y="580.5513">engine authors the prompt (payload);</text><text fill="#000000" font-family="sans-serif" font-size="13" lengthAdjust="spacingAndGlyphs" textLength="788" x="339.5" y="595.6841">the adapter is prompt-agnostic transport. swap-litmus: engine output must drive EITHER a Monitor seat OR raw `claude -p`.</text><text fill="#000000" font-family="sans-serif" font-size="13" font-weight="bold" lengthAdjust="spacingAndGlyphs" textLength="113" x="339.5" y="610.8169">baime → epicd:</text><text fill="#000000" font-family="sans-serif" font-size="13" lengthAdjust="spacingAndGlyphs" textLength="440" x="456.5" y="610.8169">Monitor+scan-loop (2 hardcoded modes, 7 channels) ⇒ supervisor +</text><text fill="#000000" font-family="sans-serif" font-size="13" font-weight="bold" lengthAdjust="spacingAndGlyphs" textLength="137" x="900.5" y="610.8169">driver-per-pipeline</text><text fill="#000000" font-family="sans-serif" font-size="13" lengthAdjust="spacingAndGlyphs" textLength="4" x="1037.5" y="610.8169">,</text><text fill="#000000" font-family="sans-serif" font-size="13" lengthAdjust="spacingAndGlyphs" textLength="471" x="339.5" y="625.9497">channels DERIVED from (pipeline, phase, actor); `.agent-done` sentinel ⇒</text><text fill="#000000" font-family="sans-serif" font-size="13" font-weight="bold" lengthAdjust="spacingAndGlyphs" textLength="136" x="814.5" y="625.9497">engine.complete()</text><text fill="#000000" font-family="sans-serif" font-size="13" lengthAdjust="spacingAndGlyphs" textLength="4" x="950.5" y="625.9497">;</text><text fill="#000000" font-family="sans-serif" font-size="13" lengthAdjust="spacingAndGlyphs" textLength="172" x="339.5" y="641.0825">`.caps`/`.active-agents` ⇒</text><text fill="#000000" font-family="sans-serif" font-size="13" font-weight="bold" lengthAdjust="spacingAndGlyphs" textLength="87" x="515.5" y="641.0825">Coordinator</text><text fill="#000000" font-family="sans-serif" font-size="13" lengthAdjust="spacingAndGlyphs" textLength="385" x="602.5" y="641.0825">; status-advance-as-claim ⇒ phase stable + separate claim.</text><!--MD5=[b5d7487f7d2fd2679dd7952ddf487878]
link Sup to ExecD--><path d="M1307.73,426.3531 C1303.81,457.4631 1298,503.5431 1293.89,536.1231 " fill="none" id="Sup-&gt;ExecD" style="stroke: #A80036; stroke-width: 1.0;"/><polygon fill="#A80036" points="1293.25,541.2331,1298.3504,532.8078,1293.879,536.2728,1290.4139,531.8014,1293.25,541.2331" style="stroke: #A80036; stroke-width: 1.0;"/><text fill="#000000" font-family="sans-serif" font-size="13" lengthAdjust="spacingAndGlyphs" textLength="153" x="1304" y="469.02">hosts (1 per pipeline_id)</text><!--MD5=[215bb868da806191374aece815f398a0]
link Sup to AuthD--><path d="M1414.59,426.0931 C1432.62,434.3631 1450.54,444.2831 1466,455.9531 C1495.2,477.9931 1520.4,511.1731 1537.33,536.9031 " fill="none" id="Sup-&gt;AuthD" style="stroke: #A80036; stroke-width: 1.0;"/><polygon fill="#A80036" points="1540.19,541.2831,1538.6412,531.5568,1537.4661,537.0903,1531.9326,535.9151,1540.19,541.2831" style="stroke: #A80036; stroke-width: 1.0;"/><text fill="#000000" font-family="sans-serif" font-size="13" lengthAdjust="spacingAndGlyphs" textLength="35" x="1485" y="469.02">hosts</text><!--MD5=[d0e3679167a8f2f6d139db2e090f7731]
link ExecD to Src--><path d="M1237.05,610.5931 C1214.18,624.1631 1186.52,638.9431 1160,648.9531 C1100.87,671.2631 1075.13,646.3331 1021,678.9531 C957.31,717.3331 952.78,787.5031 1000,844.9531 C1045.31,900.0931 1240.77,923.0731 1365.22,932.2531 " fill="none" id="ExecD-&gt;Src" style="stroke: #A80036; stroke-width: 1.0;"/><polygon fill="#A80036" points="1370.35,932.6231,1361.6579,927.9921,1365.3627,932.2669,1361.0879,935.9717,1370.35,932.6231" style="stroke: #A80036; stroke-width: 1.0;"/><text fill="#000000" font-family="sans-serif" font-size="13" lengthAdjust="spacingAndGlyphs" textLength="264" x="1001" y="791.02">scan (actor(phase)=machine ∧ no claim)</text><!--MD5=[150b7dc1212664db99f9a8e4a1f8a3f8]
link AuthD to Src--><path d="M1571.57,610.5031 C1578.25,634.4631 1584.21,667.3731 1578,695.9531 C1562.54,767.0831 1556.06,788.5831 1510,844.9531 C1506.18,849.6331 1502.56,848.0731 1499,852.9531 C1490.11,865.1431 1483.94,880.3031 1479.7,894.4431 " fill="none" id="AuthD-&gt;Src" style="stroke: #A80036; stroke-width: 1.0;"/><polygon fill="#A80036" points="1478.22,899.5931,1484.5593,892.0557,1479.6068,894.7893,1476.8732,889.8368,1478.22,899.5931" style="stroke: #A80036; stroke-width: 1.0;"/><text fill="#000000" font-family="sans-serif" font-size="13" lengthAdjust="spacingAndGlyphs" textLength="30" x="1576" y="791.02">scan</text><!--MD5=[1086dd6fe16c51275541753a9c6dae27]
link ExecD to ExecW--><path d="M1218.3,610.4931 C1177.45,634.1531 1139.31,666.7331 1168,695.9531 C1176.47,704.5731 1591.52,700.1831 1603,703.9531 C1630.79,713.0831 1657.7,731.4531 1678.49,748.4531 " fill="none" id="ExecD-&gt;ExecW" style="stroke: #A80036; stroke-width: 1.0; stroke-dasharray: 7.0,7.0;"/><polygon fill="#A80036" points="1682.57,751.8231,1678.1941,742.9998,1678.7207,748.6321,1673.0884,749.1587,1682.57,751.8231" style="stroke: #A80036; stroke-width: 1.0;"/><text fill="#000000" font-family="sans-serif" font-size="13" lengthAdjust="spacingAndGlyphs" textLength="85" x="1169" y="692.02">item-ready →</text><text fill="#000000" font-family="sans-serif" font-size="13" font-weight="bold" lengthAdjust="spacingAndGlyphs" textLength="195" x="1258" y="692.02">worker skill spawns Agent</text><!--MD5=[936a85b16895fdd85f1d8ca9b04c6e44]
link AuthD to RefW--><path d="M1634.72,610.5331 C1687.93,635.0431 1760.75,669.8231 1823,703.9531 C1853.25,720.5331 1886.28,740.9331 1911.73,757.1631 " fill="none" id="AuthD-&gt;RefW" style="stroke: #A80036; stroke-width: 1.0; stroke-dasharray: 7.0,7.0;"/><polygon fill="#A80036" points="1916.06,759.9431,1910.6199,751.733,1911.8435,757.256,1906.3205,758.4795,1916.06,759.9431" style="stroke: #A80036; stroke-width: 1.0;"/><text fill="#000000" font-family="sans-serif" font-size="13" lengthAdjust="spacingAndGlyphs" textLength="129" x="1803" y="692.02">item-ready → spawn</text><!--MD5=[81653d589f1630c095c6847a51c42220]
link ExecD to Coord--><path d="M1236.3,610.6231 C1213.52,624.0331 1186.14,638.6931 1160,648.9531 C1105.53,670.3431 996.38,653.8231 1037,695.9531 C1045.45,704.7131 1244.35,700.4131 1256,703.9531 C1286.94,713.3531 1317.89,731.8531 1342.04,748.8631 " fill="none" id="ExecD-&gt;Coord" style="stroke: #A80036; stroke-width: 1.0;"/><polygon fill="#A80036" points="1346.16,751.7931,1341.1501,743.3137,1342.0875,748.8923,1336.5088,749.8297,1346.16,751.7931" style="stroke: #A80036; stroke-width: 1.0;"/><text fill="#000000" font-family="sans-serif" font-size="13" lengthAdjust="spacingAndGlyphs" textLength="93" x="1038" y="692.02">claim / release</text><!--MD5=[8b605fcae5b5dfe647cc84cff0c6405b]
link AuthD to Coord--><path d="M1532.35,610.5631 C1512.73,634.4031 1485.76,667.1531 1462,695.9531 C1447.92,713.0131 1432.32,731.8831 1419.09,747.8831 " fill="none" id="AuthD-&gt;Coord" style="stroke: #A80036; stroke-width: 1.0;"/><polygon fill="#A80036" points="1415.78,751.8931,1424.5954,747.5012,1418.964,748.038,1418.4272,742.4067,1415.78,751.8931" style="stroke: #A80036; stroke-width: 1.0;"/><text fill="#000000" font-family="sans-serif" font-size="13" lengthAdjust="spacingAndGlyphs" textLength="93" x="1476" y="692.02">claim / release</text><!--MD5=[efa1e9ee795f563e1cfff38de638a5f4]
link ExecW to Src--><path d="M1660.86,821.0931 C1642.89,830.2631 1622.61,839.2431 1603,844.9531 C1569.97,854.5831 1555.33,834.9731 1526,852.9531 C1509.84,862.8631 1497.53,879.5131 1488.7,895.4631 " fill="none" id="ExecW-&gt;Src" style="stroke: #A80036; stroke-width: 1.0;"/><polygon fill="#A80036" points="1486.3,899.9331,1494.0678,893.8782,1488.6552,895.5225,1487.0108,890.11,1486.3,899.9331" style="stroke: #A80036; stroke-width: 1.0;"/><text fill="#000000" font-family="sans-serif" font-size="13" lengthAdjust="spacingAndGlyphs" textLength="475" x="1527" y="866.02">engine.complete() → adjudicate DoD (ENG-8) → merge under lock (ENG-3)</text><!--MD5=[ee60ee6f114f5453aba414b940e70d8f]
link RefW to Src--><path d="M1988.2,813.0831 C2006.36,830.1431 2022.33,852.5531 2007,869.9531 C1979.08,901.6431 1725.12,922.4031 1577.01,931.9231 " fill="none" id="RefW-&gt;Src" style="stroke: #A80036; stroke-width: 1.0;"/><polygon fill="#A80036" points="1571.79,932.2531,1581.0238,935.679,1576.7801,931.9386,1580.5205,927.6948,1571.79,932.2531" style="stroke: #A80036; stroke-width: 1.0;"/><text fill="#000000" font-family="sans-serif" font-size="13" lengthAdjust="spacingAndGlyphs" textLength="519" x="2014" y="866.02">append refine_log / advance phase (promote→Backlog · escalate→needs-human)</text><!--MD5=[aae9f7b4b26f2cb9776bae64f78aa448]
link RefW to GEL--><path d="M2069.57,788.4831 C2189.61,792.2631 2382.52,806.0131 2542,852.9531 C2589.94,867.0631 2640.71,894.0231 2674.36,913.8131 " fill="none" id="RefW-&gt;GEL" style="stroke: #A80036; stroke-width: 1.0; stroke-dasharray: 7.0,7.0;"/><polygon fill="#A80036" points="2678.78,916.4331,2673.0693,908.4089,2674.4762,913.888,2668.9971,915.295,2678.78,916.4331" style="stroke: #A80036; stroke-width: 1.0;"/><text fill="#000000" font-family="sans-serif" font-size="13" lengthAdjust="spacingAndGlyphs" textLength="188" x="2587" y="866.02">reviewer verdict / gate events</text><!--MD5=[26ec08710546a42d7b93b0d010980857]
link Human to Ops--><path d="M1343,123.9731 C1343,149.7431 1343,181.4031 1343,205.7931 " fill="none" id="Human-&gt;Ops" style="stroke: #A80036; stroke-width: 1.0;"/><polygon fill="#A80036" points="1343,210.8831,1347,201.8831,1343,205.8831,1339,201.8831,1343,210.8831" style="stroke: #A80036; stroke-width: 1.0;"/><!--MD5=[a39822ef1d7f49f47d56ddd1bc48ba23]
link Ops to Src--><path d="M1177.72,247.3731 C820,251.5531 6,273.8731 6,390.4531 C6,390.4531 6,390.4531 6,787.4531 C6,924.1431 1028.25,937.4831 1364.91,938.1731 " fill="none" id="Ops-&gt;Src" style="stroke: #A80036; stroke-width: 1.0;"/><polygon fill="#A80036" points="1370.3,938.1831,1361.3115,934.1574,1365.3,938.1688,1361.2886,942.1574,1370.3,938.1831" style="stroke: #A80036; stroke-width: 1.0;"/><text fill="#000000" font-family="sans-serif" font-size="13" lengthAdjust="spacingAndGlyphs" textLength="290" x="7" y="580.52">propose (→Draft) · promote (Backlog→Ready)</text><!--MD5=[e6fb0dfa6448b57d418d96a5baec255c]
link Ops to GEL--><path d="M1508.13,245.6031 C1893.55,245.8031 2820,259.8631 2820,390.4531 C2820,390.4531 2820,390.4531 2820,787.4531 C2820,839.3031 2777.29,885.7131 2745.84,912.8531 " fill="none" id="Ops-&gt;GEL" style="stroke: #A80036; stroke-width: 1.0;"/><polygon fill="#A80036" points="2741.67,916.3931,2751.1177,913.611,2745.4793,913.1545,2745.9359,907.5161,2741.67,916.3931" style="stroke: #A80036; stroke-width: 1.0;"/><text fill="#000000" font-family="sans-serif" font-size="13" lengthAdjust="spacingAndGlyphs" textLength="280" x="2821" y="580.52">inbox (gate-review: approve/reject/escalate)</text><!--MD5=[d950252ae9a2236d06a463d769c157c7]
link Ops to Sup--><path d="M1335.73,280.2131 C1331.11,301.7031 1325.1,329.5831 1320.29,351.9331 " fill="none" id="Ops-&gt;Sup" style="stroke: #A80036; stroke-width: 1.0; stroke-dasharray: 7.0,7.0;"/><polygon fill="#A80036" points="1319.22,356.9031,1325.0281,348.9491,1320.2745,352.0156,1317.208,347.262,1319.22,356.9031" style="stroke: #A80036; stroke-width: 1.0;"/><text fill="#000000" font-family="sans-serif" font-size="13" lengthAdjust="spacingAndGlyphs" textLength="362" x="1329" y="323.02">run (arm supervisor+drivers) · init (bootstrap pipelines[])</text><!--MD5=[df66df962f1d3090d5f65ec7e0a5d93f]
@startuml epicd-runtime-deployment

skinparam backgroundColor #FFFFFF
skinparam shadowing false
skinparam node {
  BorderColor #555555
  BackgroundColor #E8F0FE
}
skinparam component {
  BorderColor #555555
  BackgroundColor #FFF3E0
}
skinparam database {
  BorderColor #555555
  BackgroundColor #E1BEE7
}

title epicd — runtime deployment (supervisor · driver-per-pipeline · workers · spawn seam)

actor "Human\n(gate owner)" as Human

node "Claude Code harness  (Monitor host)" as Harness {
  component "**supervisor**\n(persistent; singleton reap;\nbaime: Monitor+scan-loop)" as Sup
  component "**execution driver**\nInterpreter.scan → item-ready\n(baime: - -mode ready)" as ExecD
  component "**authoring driver** <<planned E7>>\n(RefiningHandler)\n(baime: - -mode draft)" as AuthD
  component "operation skills\nrun (epicd-run skill)\npropose · promote · inbox · init <<planned E5>>" as Ops
  Sup - -> ExecD : hosts (1 per pipeline_id)
  Sup - -> AuthD : hosts
}

node "git worktree  (one per claimed task)" as WT {
  component "**execute worker**\nfeature/chore Agent →\nengine.complete()" as ExecW
  component "**refine worker** <<planned E7>>\n(RefineStrategy + reviewer)" as RefW
}

database "IssueSource\nbacklog/*.md\n(pipeline_id + bare phase)" as Src
component "**Coordinator** (claims)\nsoak: .caps / .active-agents\n→ engine claim registry" as Coord
database "gate-event log (E2)" as GEL

ExecD - -> Src : scan (actor(phase)=machine ∧ no claim)
AuthD - -> Src : scan
ExecD ..> ExecW : item-ready → **worker skill spawns Agent**
AuthD ..> RefW  : item-ready → spawn
ExecD - -> Coord : claim / release
AuthD - -> Coord : claim / release

ExecW - -> Src : engine.complete() → adjudicate DoD (ENG-8) → merge under lock (ENG-3)
RefW  - -> Src : append refine_log / advance phase (promote→Backlog · escalate→needs-human)
RefW  ..> GEL : reviewer verdict / gate events

Human - -> Ops
Ops - -> Src : propose (→Draft) · promote (Backlog→Ready)
Ops - -> GEL : inbox (gate-review: approve/reject/escalate)
Ops ..> Sup : run (arm supervisor+drivers) · init (bootstrap pipelines[])

note bottom
  **INVOCATION SEAM (ADR-015):** the engine (driver) decides *when / which* task to run;
  the actual Agent-in-worktree spawn is done by the thin harness **worker skill** — engine core never spawns.
  The seam abstracts `invokeClaudeCode(taskPrompt, worktree)`: ideal impl = `claude -p "<self-contained prompt>"`
  (one headless process/task); today's impl = one persistent interactive **seat + Monitor** multiplexing N such calls
  (billing-forced). **Monitor = invocation adapter, NOT scheduler/executor.** engine authors the prompt (payload);
  the adapter is prompt-agnostic transport. swap-litmus: engine output must drive EITHER a Monitor seat OR raw `claude -p`.
  **baime → epicd:** Monitor+scan-loop (2 hardcoded modes, 7 channels) ⇒ supervisor + **driver-per-pipeline**,
  channels DERIVED from (pipeline, phase, actor); `.agent-done` sentinel ⇒ **engine.complete()**;
  `.caps`/`.active-agents` ⇒ **Coordinator**; status-advance-as-claim ⇒ phase stable + separate claim.
end note
@enduml

PlantUML version 1.2020.02(Sun Mar 01 10:22:07 UTC 2020)
(GPL source distribution)
Java Runtime: OpenJDK Runtime Environment
JVM: OpenJDK 64-Bit Server VM
Java Version: 21.0.11+10-1-22.04.2-Ubuntu
Operating System: Linux
Default Encoding: UTF-8
Language: en
Country: null
--></g></svg>