<?xml version="1.0" encoding="UTF-8" standalone="no"?><svg xmlns="http://www.w3.org/2000/svg" xmlns:xlink="http://www.w3.org/1999/xlink" contentScriptType="application/ecmascript" contentStyleType="text/css" height="688px" preserveAspectRatio="none" style="width:2908px;height:688px;" version="1.1" viewBox="0 0 2908 688" width="2908px" zoomAndPan="magnify"><defs/><g><text fill="#000000" font-family="sans-serif" font-size="18" lengthAdjust="spacingAndGlyphs" textLength="756" x="1088" y="16.708">epicd — Multi-lane issue-list (presentation class diagram; green=reuse, orange=new)</text><!--MD5=[cdf03e3fd74b88522fcae23ecdfda011]
cluster Lane engine  (src/web/lib/lanes.ts — REUSE, extend)--><rect fill="#FFFFFF" height="299" style="stroke: #000000; stroke-width: 1.5;" width="477" x="585.5" y="211.9531"/><text fill="#000000" font-family="sans-serif" font-size="14" font-weight="bold" lengthAdjust="spacingAndGlyphs" textLength="411" x="618.5" y="226.9482">Lane engine  (src/web/lib/lanes.ts — REUSE, extend)</text><!--MD5=[e377c931351b9a1bdbc840edd2a2a630]
cluster Issue-list view  (extends TaskList.tsx base)--><rect fill="#FFFFFF" height="633" style="stroke: #000000; stroke-width: 1.5;" width="421" x="1086.5" y="44.9531"/><text fill="#000000" font-family="sans-serif" font-size="14" font-weight="bold" lengthAdjust="spacingAndGlyphs" textLength="341" x="1126.5" y="59.9482">Issue-list view  (extends TaskList.tsx base)</text><!--MD5=[0f44c8118d2d0f420edaf9ec37816469]
cluster Projections  (view-only, one-way — R3/R4)--><rect fill="#FFFFFF" height="118" style="stroke: #000000; stroke-width: 1.5;" width="727" x="1531.5" y="373.9531"/><text fill="#000000" font-family="sans-serif" font-size="14" font-weight="bold" lengthAdjust="spacingAndGlyphs" textLength="334" x="1728" y="388.9482">Projections  (view-only, one-way — R3/R4)</text><!--MD5=[dde45f90de504bf87feee72bac48719b]
cluster Data layer  (apiClient + WS)--><rect fill="#FFFFFF" height="292.5" style="stroke: #000000; stroke-width: 1.5;" width="615" x="2282.5" y="211.9531"/><text fill="#000000" font-family="sans-serif" font-size="14" font-weight="bold" lengthAdjust="spacingAndGlyphs" textLength="216" x="2482" y="226.9482">Data layer  (apiClient + WS)</text><!--MD5=[98d80c83fa019ebba580c63477dbd6c7]
cluster Backend (needed)--><rect fill="#FFFFFF" height="118" style="stroke: #000000; stroke-width: 1.5;" width="1143" x="1629.5" y="559.9531"/><text fill="#000000" font-family="sans-serif" font-size="14" font-weight="bold" lengthAdjust="spacingAndGlyphs" textLength="144" x="2129" y="574.9482">Backend (needed)</text><!--MD5=[fb5d6ca49fa693970f2b8add0863facc]
class LaneMode--><rect fill="#FFE0B2" height="53.9375" id="LaneMode" style="stroke: #555555; stroke-width: 1.5;" width="96" x="601.5" y="415.4531"/><ellipse cx="616.5" cy="434.4219" fill="#ADD1B2" rx="11" ry="11" style="stroke: #555555; stroke-width: 1.0;"/><path d="M619.4688,440.0625 Q618.8906,440.3594 618.25,440.5 Q617.6094,440.6563 616.9063,440.6563 Q614.4063,440.6563 613.0781,439.0156 Q611.7656,437.3594 611.7656,434.2344 Q611.7656,431.1094 613.0781,429.4531 Q614.4063,427.7969 616.9063,427.7969 Q617.6094,427.7969 618.25,427.9531 Q618.9063,428.1094 619.4688,428.4063 L619.4688,431.125 Q618.8438,430.5469 618.25,430.2813 Q617.6563,430 617.0313,430 Q615.6875,430 615,431.0781 Q614.3125,432.1406 614.3125,434.2344 Q614.3125,436.3281 615,437.4063 Q615.6875,438.4688 617.0313,438.4688 Q617.6563,438.4688 618.25,438.2031 Q618.8438,437.9219 619.4688,437.3438 L619.4688,440.0625 Z "/><text fill="#000000" font-family="sans-serif" font-size="12" font-style="italic" lengthAdjust="spacingAndGlyphs" textLength="40" x="642.5" y="431.5918">«new»</text><text fill="#000000" font-family="sans-serif" font-size="12" lengthAdjust="spacingAndGlyphs" textLength="64" x="630.5" y="445.5605">LaneMode</text><line style="stroke: #555555; stroke-width: 1.5;" x1="602.5" x2="696.5" y1="453.3906" y2="453.3906"/><line style="stroke: #555555; stroke-width: 1.5;" x1="602.5" x2="696.5" y1="461.3906" y2="461.3906"/><!--MD5=[d9b568d9f2b9818f14ae1db263ade736]
class LaneDefinition--><rect fill="#C8E6C9" height="105.1563" id="LaneDefinition" style="stroke: #555555; stroke-width: 1.5;" width="314" x="732.5" y="389.9531"/><ellipse cx="840.75" cy="408.9219" fill="#ADD1B2" rx="11" ry="11" style="stroke: #555555; stroke-width: 1.0;"/><path d="M843.7188,414.5625 Q843.1406,414.8594 842.5,415 Q841.8594,415.1563 841.1563,415.1563 Q838.6563,415.1563 837.3281,413.5156 Q836.0156,411.8594 836.0156,408.7344 Q836.0156,405.6094 837.3281,403.9531 Q838.6563,402.2969 841.1563,402.2969 Q841.8594,402.2969 842.5,402.4531 Q843.1563,402.6094 843.7188,402.9063 L843.7188,405.625 Q843.0938,405.0469 842.5,404.7813 Q841.9063,404.5 841.2813,404.5 Q839.9375,404.5 839.25,405.5781 Q838.5625,406.6406 838.5625,408.7344 Q838.5625,410.8281 839.25,411.9063 Q839.9375,412.9688 841.2813,412.9688 Q841.9063,412.9688 842.5,412.7031 Q843.0938,412.4219 843.7188,411.8438 L843.7188,414.5625 Z "/><text fill="#000000" font-family="sans-serif" font-size="12" font-style="italic" lengthAdjust="spacingAndGlyphs" textLength="49" x="881.25" y="406.0918">«reuse»</text><text fill="#000000" font-family="sans-serif" font-size="12" lengthAdjust="spacingAndGlyphs" textLength="89" x="861.25" y="420.0605">LaneDefinition</text><line style="stroke: #555555; stroke-width: 1.5;" x1="733.5" x2="1045.5" y1="427.8906" y2="427.8906"/><ellipse cx="743.5" cy="438.8906" fill="none" rx="3" ry="3" style="stroke: #038048; stroke-width: 1.0;"/><text fill="#000000" font-family="sans-serif" font-size="11" lengthAdjust="spacingAndGlyphs" textLength="64" x="752.5" y="442.1011">key : string</text><ellipse cx="743.5" cy="451.6953" fill="none" rx="3" ry="3" style="stroke: #038048; stroke-width: 1.0;"/><text fill="#000000" font-family="sans-serif" font-size="11" lengthAdjust="spacingAndGlyphs" textLength="72" x="752.5" y="454.9058">label : string</text><ellipse cx="743.5" cy="464.5" fill="none" rx="3" ry="3" style="stroke: #038048; stroke-width: 1.0;"/><text fill="#000000" font-family="sans-serif" font-size="11" lengthAdjust="spacingAndGlyphs" textLength="107" x="752.5" y="467.7104">milestone? : string</text><ellipse cx="743.5" cy="477.3047" fill="none" rx="3" ry="3" style="stroke: #038048; stroke-width: 1.0;"/><text fill="#000000" font-family="sans-serif" font-size="11" lengthAdjust="spacingAndGlyphs" textLength="288" x="752.5" y="480.5151">pipeline_id? : string   '' NEW field for pipeline lanes</text><line style="stroke: #555555; stroke-width: 1.5;" x1="733.5" x2="1045.5" y1="487.1094" y2="487.1094"/><!--MD5=[a234284129f1e671f53339316c92558f]
class LaneFns--><rect fill="#FFE0B2" height="79.5469" id="LaneFns" style="stroke: #555555; stroke-width: 1.5;" width="442" x="604.5" y="246.9531"/><ellipse cx="795.25" cy="265.9219" fill="#ADD1B2" rx="11" ry="11" style="stroke: #555555; stroke-width: 1.0;"/><path d="M798.2188,271.5625 Q797.6406,271.8594 797,272 Q796.3594,272.1563 795.6563,272.1563 Q793.1563,272.1563 791.8281,270.5156 Q790.5156,268.8594 790.5156,265.7344 Q790.5156,262.6094 791.8281,260.9531 Q793.1563,259.2969 795.6563,259.2969 Q796.3594,259.2969 797,259.4531 Q797.6563,259.6094 798.2188,259.9063 L798.2188,262.625 Q797.5938,262.0469 797,261.7813 Q796.4063,261.5 795.7813,261.5 Q794.4375,261.5 793.75,262.5781 Q793.0625,263.6406 793.0625,265.7344 Q793.0625,267.8281 793.75,268.9063 Q794.4375,269.9688 795.7813,269.9688 Q796.4063,269.9688 797,269.7031 Q797.5938,269.4219 798.2188,268.8438 L798.2188,271.5625 Z "/><text fill="#000000" font-family="sans-serif" font-size="12" font-style="italic" lengthAdjust="spacingAndGlyphs" textLength="40" x="821.75" y="263.0918">«new»</text><text fill="#000000" font-family="sans-serif" font-size="12" lengthAdjust="spacingAndGlyphs" textLength="52" x="815.75" y="277.0605">LaneFns</text><line style="stroke: #555555; stroke-width: 1.5;" x1="605.5" x2="1045.5" y1="284.8906" y2="284.8906"/><line style="stroke: #555555; stroke-width: 1.5;" x1="605.5" x2="1045.5" y1="292.8906" y2="292.8906"/><ellipse cx="615.5" cy="303.8906" fill="#84BE84" rx="3" ry="3" style="stroke: #038048; stroke-width: 1.0;"/><text fill="#000000" font-family="sans-serif" font-size="11" lengthAdjust="spacingAndGlyphs" textLength="398" x="624.5" y="307.1011">buildLanes(mode, tasks, ...) : LaneDefinition[]    '' add pipeline branch</text><ellipse cx="615.5" cy="316.6953" fill="#84BE84" rx="3" ry="3" style="stroke: #038048; stroke-width: 1.0;"/><text fill="#000000" font-family="sans-serif" font-size="11" lengthAdjust="spacingAndGlyphs" textLength="416" x="624.5" y="319.9058">groupTasksByLaneAndStatus(...) : Map&lt;laneKey, Map&lt;column, Task[]&gt;&gt;</text><!--MD5=[8fe697f1d73d22fdcb1bc1a44e1fa53d]
class IssueListView--><rect fill="#FFE0B2" height="66.7422" id="IssueListView" style="stroke: #555555; stroke-width: 1.5;" width="114" x="1365.5" y="79.9531"/><ellipse cx="1380.5" cy="98.9219" fill="#ADD1B2" rx="11" ry="11" style="stroke: #555555; stroke-width: 1.0;"/><path d="M1383.4688,104.5625 Q1382.8906,104.8594 1382.25,105 Q1381.6094,105.1563 1380.9063,105.1563 Q1378.4063,105.1563 1377.0781,103.5156 Q1375.7656,101.8594 1375.7656,98.7344 Q1375.7656,95.6094 1377.0781,93.9531 Q1378.4063,92.2969 1380.9063,92.2969 Q1381.6094,92.2969 1382.25,92.4531 Q1382.9063,92.6094 1383.4688,92.9063 L1383.4688,95.625 Q1382.8438,95.0469 1382.25,94.7813 Q1381.6563,94.5 1381.0313,94.5 Q1379.6875,94.5 1379,95.5781 Q1378.3125,96.6406 1378.3125,98.7344 Q1378.3125,100.8281 1379,101.9063 Q1379.6875,102.9688 1381.0313,102.9688 Q1381.6563,102.9688 1382.25,102.7031 Q1382.8438,102.4219 1383.4688,101.8438 L1383.4688,104.5625 Z "/><text fill="#000000" font-family="sans-serif" font-size="12" font-style="italic" lengthAdjust="spacingAndGlyphs" textLength="40" x="1415.5" y="96.0918">«new»</text><text fill="#000000" font-family="sans-serif" font-size="12" lengthAdjust="spacingAndGlyphs" textLength="82" x="1394.5" y="110.0605">IssueListView</text><line style="stroke: #555555; stroke-width: 1.5;" x1="1366.5" x2="1478.5" y1="117.8906" y2="117.8906"/><line style="stroke: #555555; stroke-width: 1.5;" x1="1366.5" x2="1478.5" y1="125.8906" y2="125.8906"/><ellipse cx="1376.5" cy="136.8906" fill="#84BE84" rx="3" ry="3" style="stroke: #038048; stroke-width: 1.0;"/><text fill="#000000" font-family="sans-serif" font-size="11" lengthAdjust="spacingAndGlyphs" textLength="46" x="1385.5" y="140.1011">render()</text><!--MD5=[9a3a777bb929b1442b0944fb0c828de6]
class LaneSwitcher--><rect fill="#FFE0B2" height="53.9375" id="LaneSwitcher" style="stroke: #555555; stroke-width: 1.5;" width="115" x="1204" y="259.9531"/><ellipse cx="1219" cy="278.9219" fill="#ADD1B2" rx="11" ry="11" style="stroke: #555555; stroke-width: 1.0;"/><path d="M1221.9688,284.5625 Q1221.3906,284.8594 1220.75,285 Q1220.1094,285.1563 1219.4063,285.1563 Q1216.9063,285.1563 1215.5781,283.5156 Q1214.2656,281.8594 1214.2656,278.7344 Q1214.2656,275.6094 1215.5781,273.9531 Q1216.9063,272.2969 1219.4063,272.2969 Q1220.1094,272.2969 1220.75,272.4531 Q1221.4063,272.6094 1221.9688,272.9063 L1221.9688,275.625 Q1221.3438,275.0469 1220.75,274.7813 Q1220.1563,274.5 1219.5313,274.5 Q1218.1875,274.5 1217.5,275.5781 Q1216.8125,276.6406 1216.8125,278.7344 Q1216.8125,280.8281 1217.5,281.9063 Q1218.1875,282.9688 1219.5313,282.9688 Q1220.1563,282.9688 1220.75,282.7031 Q1221.3438,282.4219 1221.9688,281.8438 L1221.9688,284.5625 Z "/><text fill="#000000" font-family="sans-serif" font-size="12" font-style="italic" lengthAdjust="spacingAndGlyphs" textLength="40" x="1254.5" y="276.0918">«new»</text><text fill="#000000" font-family="sans-serif" font-size="12" lengthAdjust="spacingAndGlyphs" textLength="83" x="1233" y="290.0605">LaneSwitcher</text><line style="stroke: #555555; stroke-width: 1.5;" x1="1205" x2="1318" y1="297.8906" y2="297.8906"/><line style="stroke: #555555; stroke-width: 1.5;" x1="1205" x2="1318" y1="305.8906" y2="305.8906"/><!--MD5=[c764cc90632447ccad0594d2a68a227d]
class Swimlane--><rect fill="#C8E6C9" height="66.7422" id="Swimlane" style="stroke: #555555; stroke-width: 1.5;" width="137" x="1354" y="253.4531"/><ellipse cx="1390.15" cy="272.4219" fill="#ADD1B2" rx="11" ry="11" style="stroke: #555555; stroke-width: 1.0;"/><path d="M1393.1188,278.0625 Q1392.5406,278.3594 1391.9,278.5 Q1391.2594,278.6563 1390.5563,278.6563 Q1388.0563,278.6563 1386.7281,277.0156 Q1385.4156,275.3594 1385.4156,272.2344 Q1385.4156,269.1094 1386.7281,267.4531 Q1388.0563,265.7969 1390.5563,265.7969 Q1391.2594,265.7969 1391.9,265.9531 Q1392.5563,266.1094 1393.1188,266.4063 L1393.1188,269.125 Q1392.4938,268.5469 1391.9,268.2813 Q1391.3063,268 1390.6813,268 Q1389.3375,268 1388.65,269.0781 Q1387.9625,270.1406 1387.9625,272.2344 Q1387.9625,274.3281 1388.65,275.4063 Q1389.3375,276.4688 1390.6813,276.4688 Q1391.3063,276.4688 1391.9,276.2031 Q1392.4938,275.9219 1393.1188,275.3438 L1393.1188,278.0625 Z "/><text fill="#000000" font-family="sans-serif" font-size="12" font-style="italic" lengthAdjust="spacingAndGlyphs" textLength="49" x="1413.35" y="269.5918">«reuse»</text><text fill="#000000" font-family="sans-serif" font-size="12" lengthAdjust="spacingAndGlyphs" textLength="58" x="1408.85" y="283.5605">Swimlane</text><line style="stroke: #555555; stroke-width: 1.5;" x1="1355" x2="1490" y1="291.3906" y2="291.3906"/><ellipse cx="1365" cy="302.3906" fill="none" rx="3" ry="3" style="stroke: #038048; stroke-width: 1.0;"/><text fill="#000000" font-family="sans-serif" font-size="11" lengthAdjust="spacingAndGlyphs" textLength="111" x="1374" y="305.6011">collapsed : boolean</text><line style="stroke: #555555; stroke-width: 1.5;" x1="1355" x2="1490" y1="312.1953" y2="312.1953"/><!--MD5=[f39f2eefe4f8e14fa4396a7874ad7edc]
class TaskRow--><rect fill="#C8E6C9" height="53.9375" id="TaskRow" style="stroke: #555555; stroke-width: 1.5;" width="86" x="1265.5" y="415.4531"/><ellipse cx="1280.5" cy="434.4219" fill="#ADD1B2" rx="11" ry="11" style="stroke: #555555; stroke-width: 1.0;"/><path d="M1283.4688,440.0625 Q1282.8906,440.3594 1282.25,440.5 Q1281.6094,440.6563 1280.9063,440.6563 Q1278.4063,440.6563 1277.0781,439.0156 Q1275.7656,437.3594 1275.7656,434.2344 Q1275.7656,431.1094 1277.0781,429.4531 Q1278.4063,427.7969 1280.9063,427.7969 Q1281.6094,427.7969 1282.25,427.9531 Q1282.9063,428.1094 1283.4688,428.4063 L1283.4688,431.125 Q1282.8438,430.5469 1282.25,430.2813 Q1281.6563,430 1281.0313,430 Q1279.6875,430 1279,431.0781 Q1278.3125,432.1406 1278.3125,434.2344 Q1278.3125,436.3281 1279,437.4063 Q1279.6875,438.4688 1281.0313,438.4688 Q1281.6563,438.4688 1282.25,438.2031 Q1282.8438,437.9219 1283.4688,437.3438 L1283.4688,440.0625 Z "/><text fill="#000000" font-family="sans-serif" font-size="12" font-style="italic" lengthAdjust="spacingAndGlyphs" textLength="49" x="1297" y="431.5918">«reuse»</text><text fill="#000000" font-family="sans-serif" font-size="12" lengthAdjust="spacingAndGlyphs" textLength="54" x="1294.5" y="445.5605">TaskRow</text><line style="stroke: #555555; stroke-width: 1.5;" x1="1266.5" x2="1350.5" y1="453.3906" y2="453.3906"/><line style="stroke: #555555; stroke-width: 1.5;" x1="1266.5" x2="1350.5" y1="461.3906" y2="461.3906"/><!--MD5=[85658886851f8253a35be160d2966d94]
class DriverIndicator--><rect fill="#FFE0B2" height="66.7422" id="DriverIndicator" style="stroke: #555555; stroke-width: 1.5;" width="216" x="1102.5" y="594.9531"/><ellipse cx="1160.75" cy="613.9219" fill="#ADD1B2" rx="11" ry="11" style="stroke: #555555; stroke-width: 1.0;"/><path d="M1163.7188,619.5625 Q1163.1406,619.8594 1162.5,620 Q1161.8594,620.1563 1161.1563,620.1563 Q1158.6563,620.1563 1157.3281,618.5156 Q1156.0156,616.8594 1156.0156,613.7344 Q1156.0156,610.6094 1157.3281,608.9531 Q1158.6563,607.2969 1161.1563,607.2969 Q1161.8594,607.2969 1162.5,607.4531 Q1163.1563,607.6094 1163.7188,607.9063 L1163.7188,610.625 Q1163.0938,610.0469 1162.5,609.7813 Q1161.9063,609.5 1161.2813,609.5 Q1159.9375,609.5 1159.25,610.5781 Q1158.5625,611.6406 1158.5625,613.7344 Q1158.5625,615.8281 1159.25,616.9063 Q1159.9375,617.9688 1161.2813,617.9688 Q1161.9063,617.9688 1162.5,617.7031 Q1163.0938,617.4219 1163.7188,616.8438 L1163.7188,619.5625 Z "/><text fill="#000000" font-family="sans-serif" font-size="12" font-style="italic" lengthAdjust="spacingAndGlyphs" textLength="40" x="1206.75" y="611.0918">«new»</text><text fill="#000000" font-family="sans-serif" font-size="12" lengthAdjust="spacingAndGlyphs" textLength="91" x="1181.25" y="625.0605">DriverIndicator</text><line style="stroke: #555555; stroke-width: 1.5;" x1="1103.5" x2="1317.5" y1="632.8906" y2="632.8906"/><line style="stroke: #555555; stroke-width: 1.5;" x1="1103.5" x2="1317.5" y1="640.8906" y2="640.8906"/><ellipse cx="1113.5" cy="651.8906" fill="#84BE84" rx="3" ry="3" style="stroke: #038048; stroke-width: 1.0;"/><text fill="#000000" font-family="sans-serif" font-size="11" lengthAdjust="spacingAndGlyphs" textLength="190" x="1122.5" y="655.1011">compute(waiting_on, claim) : Icon</text><!--MD5=[4aa8b11df69cba8acad8248e6ef0f876]
class InlineGateReview--><rect fill="#FFE0B2" height="53.9375" id="InlineGateReview" style="stroke: #555555; stroke-width: 1.5;" width="137" x="1354" y="601.4531"/><ellipse cx="1369" cy="620.4219" fill="#ADD1B2" rx="11" ry="11" style="stroke: #555555; stroke-width: 1.0;"/><path d="M1371.9688,626.0625 Q1371.3906,626.3594 1370.75,626.5 Q1370.1094,626.6563 1369.4063,626.6563 Q1366.9063,626.6563 1365.5781,625.0156 Q1364.2656,623.3594 1364.2656,620.2344 Q1364.2656,617.1094 1365.5781,615.4531 Q1366.9063,613.7969 1369.4063,613.7969 Q1370.1094,613.7969 1370.75,613.9531 Q1371.4063,614.1094 1371.9688,614.4063 L1371.9688,617.125 Q1371.3438,616.5469 1370.75,616.2813 Q1370.1563,616 1369.5313,616 Q1368.1875,616 1367.5,617.0781 Q1366.8125,618.1406 1366.8125,620.2344 Q1366.8125,622.3281 1367.5,623.4063 Q1368.1875,624.4688 1369.5313,624.4688 Q1370.1563,624.4688 1370.75,624.2031 Q1371.3438,623.9219 1371.9688,623.3438 L1371.9688,626.0625 Z "/><text fill="#000000" font-family="sans-serif" font-size="12" font-style="italic" lengthAdjust="spacingAndGlyphs" textLength="40" x="1415.5" y="617.5918">«new»</text><text fill="#000000" font-family="sans-serif" font-size="12" lengthAdjust="spacingAndGlyphs" textLength="105" x="1383" y="631.5605">InlineGateReview</text><line style="stroke: #555555; stroke-width: 1.5;" x1="1355" x2="1490" y1="639.3906" y2="639.3906"/><line style="stroke: #555555; stroke-width: 1.5;" x1="1355" x2="1490" y1="647.3906" y2="647.3906"/><!--MD5=[2ad4919d8d067e859e99e18765e2682f]
class LabelProjection--><rect fill="#E1BEE7" height="66.7422" id="LabelProjection" style="stroke: #555555; stroke-width: 1.5;" width="241" x="2001" y="408.9531"/><ellipse cx="2069.25" cy="427.9219" fill="#ADD1B2" rx="11" ry="11" style="stroke: #555555; stroke-width: 1.0;"/><path d="M2072.2188,433.5625 Q2071.6406,433.8594 2071,434 Q2070.3594,434.1563 2069.6563,434.1563 Q2067.1563,434.1563 2065.8281,432.5156 Q2064.5156,430.8594 2064.5156,427.7344 Q2064.5156,424.6094 2065.8281,422.9531 Q2067.1563,421.2969 2069.6563,421.2969 Q2070.3594,421.2969 2071,421.4531 Q2071.6563,421.6094 2072.2188,421.9063 L2072.2188,424.625 Q2071.5938,424.0469 2071,423.7813 Q2070.4063,423.5 2069.7813,423.5 Q2068.4375,423.5 2067.75,424.5781 Q2067.0625,425.6406 2067.0625,427.7344 Q2067.0625,429.8281 2067.75,430.9063 Q2068.4375,431.9688 2069.7813,431.9688 Q2070.4063,431.9688 2071,431.7031 Q2071.5938,431.4219 2072.2188,430.8438 L2072.2188,433.5625 Z "/><text fill="#000000" font-family="sans-serif" font-size="12" font-style="italic" lengthAdjust="spacingAndGlyphs" textLength="77" x="2099.25" y="425.0918">«projection»</text><text fill="#000000" font-family="sans-serif" font-size="12" lengthAdjust="spacingAndGlyphs" textLength="96" x="2089.75" y="439.0605">LabelProjection</text><line style="stroke: #555555; stroke-width: 1.5;" x1="2002" x2="2241" y1="446.8906" y2="446.8906"/><line style="stroke: #555555; stroke-width: 1.5;" x1="2002" x2="2241" y1="454.8906" y2="454.8906"/><ellipse cx="2012" cy="465.8906" fill="#84BE84" rx="3" ry="3" style="stroke: #038048; stroke-width: 1.0;"/><text fill="#000000" font-family="sans-serif" font-size="11" lengthAdjust="spacingAndGlyphs" textLength="215" x="2021" y="469.1011">label(phase, turn, role, plane) : string</text><!--MD5=[58f1048ce55cbc0b445354c6dda0796c]
class DisplayHints--><rect fill="#E1BEE7" height="66.7422" id="DisplayHints" style="stroke: #555555; stroke-width: 1.5;" width="419" x="1547" y="408.9531"/><ellipse cx="1714.25" cy="427.9219" fill="#ADD1B2" rx="11" ry="11" style="stroke: #555555; stroke-width: 1.0;"/><path d="M1717.2188,433.5625 Q1716.6406,433.8594 1716,434 Q1715.3594,434.1563 1714.6563,434.1563 Q1712.1563,434.1563 1710.8281,432.5156 Q1709.5156,430.8594 1709.5156,427.7344 Q1709.5156,424.6094 1710.8281,422.9531 Q1712.1563,421.2969 1714.6563,421.2969 Q1715.3594,421.2969 1716,421.4531 Q1716.6563,421.6094 1717.2188,421.9063 L1717.2188,424.625 Q1716.5938,424.0469 1716,423.7813 Q1715.4063,423.5 1714.7813,423.5 Q1713.4375,423.5 1712.75,424.5781 Q1712.0625,425.6406 1712.0625,427.7344 Q1712.0625,429.8281 1712.75,430.9063 Q1713.4375,431.9688 1714.7813,431.9688 Q1715.4063,431.9688 1716,431.7031 Q1716.5938,431.4219 1717.2188,430.8438 L1717.2188,433.5625 Z "/><text fill="#000000" font-family="sans-serif" font-size="12" font-style="italic" lengthAdjust="spacingAndGlyphs" textLength="77" x="1734.25" y="425.0918">«projection»</text><text fill="#000000" font-family="sans-serif" font-size="12" lengthAdjust="spacingAndGlyphs" textLength="76" x="1734.75" y="439.0605">DisplayHints</text><line style="stroke: #555555; stroke-width: 1.5;" x1="1548" x2="1965" y1="446.8906" y2="446.8906"/><ellipse cx="1558" cy="457.8906" fill="none" rx="3" ry="3" style="stroke: #038048; stroke-width: 1.0;"/><text fill="#000000" font-family="sans-serif" font-size="11" lengthAdjust="spacingAndGlyphs" textLength="393" x="1567" y="461.1011">byPipeline : Map&lt;pipeline_id, {columns, sort, collapsed, icon, title}&gt;</text><line style="stroke: #555555; stroke-width: 1.5;" x1="1548" x2="1965" y1="467.6953" y2="467.6953"/><!--MD5=[7c4bedb425c5a2178b3524347ff0a2ba]
class TasksClaimsHook--><rect fill="#FFE0B2" height="79.5469" id="TasksClaimsHook" style="stroke: #555555; stroke-width: 1.5;" width="190" x="2426.5" y="246.9531"/><ellipse cx="2464" cy="265.9219" fill="#ADD1B2" rx="11" ry="11" style="stroke: #555555; stroke-width: 1.0;"/><path d="M2466.9688,271.5625 Q2466.3906,271.8594 2465.75,272 Q2465.1094,272.1563 2464.4063,272.1563 Q2461.9063,272.1563 2460.5781,270.5156 Q2459.2656,268.8594 2459.2656,265.7344 Q2459.2656,262.6094 2460.5781,260.9531 Q2461.9063,259.2969 2464.4063,259.2969 Q2465.1094,259.2969 2465.75,259.4531 Q2466.4063,259.6094 2466.9688,259.9063 L2466.9688,262.625 Q2466.3438,262.0469 2465.75,261.7813 Q2465.1563,261.5 2464.5313,261.5 Q2463.1875,261.5 2462.5,262.5781 Q2461.8125,263.6406 2461.8125,265.7344 Q2461.8125,267.8281 2462.5,268.9063 Q2463.1875,269.9688 2464.5313,269.9688 Q2465.1563,269.9688 2465.75,269.7031 Q2466.3438,269.4219 2466.9688,268.8438 L2466.9688,271.5625 Z "/><text fill="#000000" font-family="sans-serif" font-size="12" font-style="italic" lengthAdjust="spacingAndGlyphs" textLength="40" x="2517" y="263.0918">«new»</text><text fill="#000000" font-family="sans-serif" font-size="12" lengthAdjust="spacingAndGlyphs" textLength="108" x="2483" y="277.0605">TasksClaimsHook</text><line style="stroke: #555555; stroke-width: 1.5;" x1="2427.5" x2="2615.5" y1="284.8906" y2="284.8906"/><ellipse cx="2437.5" cy="295.8906" fill="none" rx="3" ry="3" style="stroke: #038048; stroke-width: 1.0;"/><text fill="#000000" font-family="sans-serif" font-size="11" lengthAdjust="spacingAndGlyphs" textLength="78" x="2446.5" y="299.1011">tasks : Task[]</text><ellipse cx="2437.5" cy="308.6953" fill="none" rx="3" ry="3" style="stroke: #038048; stroke-width: 1.0;"/><text fill="#000000" font-family="sans-serif" font-size="11" lengthAdjust="spacingAndGlyphs" textLength="164" x="2446.5" y="311.9058">claims : Map&lt;taskId, Claim&gt;</text><line style="stroke: #555555; stroke-width: 1.5;" x1="2427.5" x2="2615.5" y1="318.5" y2="318.5"/><!--MD5=[9b027cc50fa4a3b75d7b0c73861f039b]
class ApiClient--><rect fill="#FFE0B2" height="92.3516" id="ApiClient" style="stroke: #555555; stroke-width: 1.5;" width="446" x="2298.5" y="396.4531"/><ellipse cx="2490.25" cy="415.4219" fill="#ADD1B2" rx="11" ry="11" style="stroke: #555555; stroke-width: 1.0;"/><path d="M2493.2188,421.0625 Q2492.6406,421.3594 2492,421.5 Q2491.3594,421.6563 2490.6563,421.6563 Q2488.1563,421.6563 2486.8281,420.0156 Q2485.5156,418.3594 2485.5156,415.2344 Q2485.5156,412.1094 2486.8281,410.4531 Q2488.1563,408.7969 2490.6563,408.7969 Q2491.3594,408.7969 2492,408.9531 Q2492.6563,409.1094 2493.2188,409.4063 L2493.2188,412.125 Q2492.5938,411.5469 2492,411.2813 Q2491.4063,411 2490.7813,411 Q2489.4375,411 2488.75,412.0781 Q2488.0625,413.1406 2488.0625,415.2344 Q2488.0625,417.3281 2488.75,418.4063 Q2489.4375,419.4688 2490.7813,419.4688 Q2491.4063,419.4688 2492,419.2031 Q2492.5938,418.9219 2493.2188,418.3438 L2493.2188,421.0625 Z "/><text fill="#000000" font-family="sans-serif" font-size="12" font-style="italic" lengthAdjust="spacingAndGlyphs" textLength="40" x="2517.75" y="412.5918">«new»</text><text fill="#000000" font-family="sans-serif" font-size="12" lengthAdjust="spacingAndGlyphs" textLength="54" x="2510.75" y="426.5605">ApiClient</text><line style="stroke: #555555; stroke-width: 1.5;" x1="2299.5" x2="2743.5" y1="434.3906" y2="434.3906"/><line style="stroke: #555555; stroke-width: 1.5;" x1="2299.5" x2="2743.5" y1="442.3906" y2="442.3906"/><ellipse cx="2309.5" cy="453.3906" fill="#84BE84" rx="3" ry="3" style="stroke: #038048; stroke-width: 1.0;"/><text fill="#000000" font-family="sans-serif" font-size="11" lengthAdjust="spacingAndGlyphs" textLength="410" x="2318.5" y="456.6011">search(filter) : Task[]   '' EXTEND filter: + pipeline_id / state / waiting_on</text><ellipse cx="2309.5" cy="466.1953" fill="#84BE84" rx="3" ry="3" style="stroke: #038048; stroke-width: 1.0;"/><text fill="#000000" font-family="sans-serif" font-size="11" lengthAdjust="spacingAndGlyphs" textLength="401" x="2318.5" y="469.4058">postGateDecision(task, verdict)   '' NEW endpoint for inline gate-review</text><ellipse cx="2309.5" cy="479" fill="#84BE84" rx="3" ry="3" style="stroke: #038048; stroke-width: 1.0;"/><text fill="#000000" font-family="sans-serif" font-size="11" lengthAdjust="spacingAndGlyphs" textLength="420" x="2318.5" y="482.2104">getClaims() : Map&lt;taskId, Claim&gt;  '' NEW: read Coordinator runtime state</text><!--MD5=[35831447768dbc1c5ecb146fa99b0227]
class WsChannel--><rect fill="#C8E6C9" height="53.9375" id="WsChannel" style="stroke: #555555; stroke-width: 1.5;" width="101" x="2780" y="415.4531"/><ellipse cx="2795" cy="434.4219" fill="#ADD1B2" rx="11" ry="11" style="stroke: #555555; stroke-width: 1.0;"/><path d="M2797.9688,440.0625 Q2797.3906,440.3594 2796.75,440.5 Q2796.1094,440.6563 2795.4063,440.6563 Q2792.9063,440.6563 2791.5781,439.0156 Q2790.2656,437.3594 2790.2656,434.2344 Q2790.2656,431.1094 2791.5781,429.4531 Q2792.9063,427.7969 2795.4063,427.7969 Q2796.1094,427.7969 2796.75,427.9531 Q2797.4063,428.1094 2797.9688,428.4063 L2797.9688,431.125 Q2797.3438,430.5469 2796.75,430.2813 Q2796.1563,430 2795.5313,430 Q2794.1875,430 2793.5,431.0781 Q2792.8125,432.1406 2792.8125,434.2344 Q2792.8125,436.3281 2793.5,437.4063 Q2794.1875,438.4688 2795.5313,438.4688 Q2796.1563,438.4688 2796.75,438.2031 Q2797.3438,437.9219 2797.9688,437.3438 L2797.9688,440.0625 Z "/><text fill="#000000" font-family="sans-serif" font-size="12" font-style="italic" lengthAdjust="spacingAndGlyphs" textLength="49" x="2819" y="431.5918">«reuse»</text><text fill="#000000" font-family="sans-serif" font-size="12" lengthAdjust="spacingAndGlyphs" textLength="69" x="2809" y="445.5605">WsChannel</text><line style="stroke: #555555; stroke-width: 1.5;" x1="2781" x2="2880" y1="453.3906" y2="453.3906"/><line style="stroke: #555555; stroke-width: 1.5;" x1="2781" x2="2880" y1="461.3906" y2="461.3906"/><!--MD5=[3bfeb1f6eb397f206f42a5e5c7085231]
class SearchService--><rect fill="#B3E5FC" height="66.7422" id="SearchService" style="stroke: #555555; stroke-width: 1.5;" width="145" x="2106" y="594.9531"/><ellipse cx="2131.8" cy="613.9219" fill="#B4A7E5" rx="11" ry="11" style="stroke: #555555; stroke-width: 1.0;"/><path d="M2127.7219,609.6875 L2127.7219,607.5313 L2135.1125,607.5313 L2135.1125,609.6875 L2132.6438,609.6875 L2132.6438,617.7656 L2135.1125,617.7656 L2135.1125,619.9219 L2127.7219,619.9219 L2127.7219,617.7656 L2130.1906,617.7656 L2130.1906,609.6875 L2127.7219,609.6875 Z "/><text fill="#000000" font-family="sans-serif" font-size="12" font-style="italic" lengthAdjust="spacingAndGlyphs" textLength="67" x="2159.2" y="611.0918">«contract»</text><text fill="#000000" font-family="sans-serif" font-size="12" font-style="italic" lengthAdjust="spacingAndGlyphs" textLength="89" x="2148.2" y="625.0605">SearchService</text><line style="stroke: #555555; stroke-width: 1.5;" x1="2107" x2="2250" y1="632.8906" y2="632.8906"/><line style="stroke: #555555; stroke-width: 1.5;" x1="2107" x2="2250" y1="640.8906" y2="640.8906"/><ellipse cx="2117" cy="651.8906" fill="#84BE84" rx="3" ry="3" style="stroke: #038048; stroke-width: 1.0;"/><text fill="#000000" font-family="sans-serif" font-size="11" lengthAdjust="spacingAndGlyphs" textLength="119" x="2126" y="655.1011">search(opts) : Task[]</text><!--MD5=[5d2bdee92db0d01b75732190da037553]
class Coordinator--><rect fill="#B3E5FC" height="66.7422" id="Coordinator" style="stroke: #555555; stroke-width: 1.5;" width="471" x="2286" y="594.9531"/><ellipse cx="2480.25" cy="613.9219" fill="#B4A7E5" rx="11" ry="11" style="stroke: #555555; stroke-width: 1.0;"/><path d="M2476.1719,609.6875 L2476.1719,607.5313 L2483.5625,607.5313 L2483.5625,609.6875 L2481.0938,609.6875 L2481.0938,617.7656 L2483.5625,617.7656 L2483.5625,619.9219 L2476.1719,619.9219 L2476.1719,617.7656 L2478.6406,617.7656 L2478.6406,609.6875 L2476.1719,609.6875 Z "/><text fill="#000000" font-family="sans-serif" font-size="12" font-style="italic" lengthAdjust="spacingAndGlyphs" textLength="67" x="2504.25" y="611.0918">«contract»</text><text fill="#000000" font-family="sans-serif" font-size="12" font-style="italic" lengthAdjust="spacingAndGlyphs" textLength="74" x="2500.75" y="625.0605">Coordinator</text><line style="stroke: #555555; stroke-width: 1.5;" x1="2287" x2="2756" y1="632.8906" y2="632.8906"/><line style="stroke: #555555; stroke-width: 1.5;" x1="2287" x2="2756" y1="640.8906" y2="640.8906"/><ellipse cx="2297" cy="651.8906" fill="#84BE84" rx="3" ry="3" style="stroke: #038048; stroke-width: 1.0;"/><text fill="#000000" font-family="sans-serif" font-size="11" lengthAdjust="spacingAndGlyphs" textLength="445" x="2306" y="655.1011">claims() : Map&lt;taskId, Claim&gt;   '' ABSENT today; soak = baime .active-agents</text><!--MD5=[061bbcad7025071bfab9a2ceeee6e0b8]
class ConfigPipelines--><rect fill="#B3E5FC" height="66.7422" id="ConfigPipelines" style="stroke: #555555; stroke-width: 1.5;" width="425" x="1646" y="594.9531"/><ellipse cx="1807.75" cy="613.9219" fill="#B4A7E5" rx="11" ry="11" style="stroke: #555555; stroke-width: 1.0;"/><path d="M1803.6719,609.6875 L1803.6719,607.5313 L1811.0625,607.5313 L1811.0625,609.6875 L1808.5938,609.6875 L1808.5938,617.7656 L1811.0625,617.7656 L1811.0625,619.9219 L1803.6719,619.9219 L1803.6719,617.7656 L1806.1406,617.7656 L1806.1406,609.6875 L1803.6719,609.6875 Z "/><text fill="#000000" font-family="sans-serif" font-size="12" font-style="italic" lengthAdjust="spacingAndGlyphs" textLength="67" x="1841.25" y="611.0918">«contract»</text><text fill="#000000" font-family="sans-serif" font-size="12" font-style="italic" lengthAdjust="spacingAndGlyphs" textLength="93" x="1828.25" y="625.0605">ConfigPipelines</text><line style="stroke: #555555; stroke-width: 1.5;" x1="1647" x2="2070" y1="632.8906" y2="632.8906"/><ellipse cx="1657" cy="643.8906" fill="none" rx="3" ry="3" style="stroke: #038048; stroke-width: 1.0;"/><text fill="#000000" font-family="sans-serif" font-size="11" lengthAdjust="spacingAndGlyphs" textLength="399" x="1666" y="647.1011">pipelines[] : Pipeline   '' ABSENT in config.yml today → source of lanes</text><line style="stroke: #555555; stroke-width: 1.5;" x1="1647" x2="2070" y1="653.6953" y2="653.6953"/><path d="M6,85.9531 L6,141.3516 L541,141.3516 L541,95.9531 L531,85.9531 L6,85.9531 " fill="#FBFB77" style="stroke: #A80036; stroke-width: 1.0;"/><path d="M531,85.9531 L531,95.9531 L541,95.9531 L531,85.9531 " fill="#FBFB77" style="stroke: #A80036; stroke-width: 1.0;"/><text fill="#000000" font-family="sans-serif" font-size="13" font-weight="bold" lengthAdjust="spacingAndGlyphs" textLength="108" x="12" y="103.02">Biggest reuse:</text><text fill="#000000" font-family="sans-serif" font-size="13" lengthAdjust="spacingAndGlyphs" textLength="402" x="124" y="103.02">lanes.ts already models lanes+columns+collapsible swimlanes</text><text fill="#000000" font-family="sans-serif" font-size="13" lengthAdjust="spacingAndGlyphs" textLength="471" x="12" y="118.1528">for milestones. Pipeline lanes = a THIRD LaneMode ("pipeline"), laneKey =</text><text fill="#000000" font-family="sans-serif" font-size="13" lengthAdjust="spacingAndGlyphs" textLength="427" x="12" y="133.2856">pipeline_id, column = ordered phase. No new grouping subsystem.</text><path d="M576.5,77.9531 L576.5,148.4844 L1070.5,148.4844 L1070.5,87.9531 L1060.5,77.9531 L576.5,77.9531 " fill="#FBFB77" style="stroke: #A80036; stroke-width: 1.0;"/><path d="M1060.5,77.9531 L1060.5,87.9531 L1070.5,87.9531 L1060.5,77.9531 " fill="#FBFB77" style="stroke: #A80036; stroke-width: 1.0;"/><text fill="#000000" font-family="sans-serif" font-size="13" font-weight="bold" lengthAdjust="spacingAndGlyphs" textLength="184" x="582.5" y="95.02">Four-axis join at the row:</text><text fill="#000000" font-family="sans-serif" font-size="13" lengthAdjust="spacingAndGlyphs" textLength="285" x="770.5" y="95.02">TaskRow reads persisted (phase, waiting_on)</text><text fill="#000000" font-family="sans-serif" font-size="13" lengthAdjust="spacingAndGlyphs" textLength="383" x="582.5" y="110.1528">from Task and live claim from Coordinator → DriverIndicator.</text><text fill="#000000" font-family="sans-serif" font-size="13" lengthAdjust="spacingAndGlyphs" textLength="438" x="582.5" y="125.2856">waiting_on=human ⇒ &#128100; (+InlineGateReview) · machine∧claim ⇒ &#129302; ·</text><text fill="#000000" font-family="sans-serif" font-size="13" lengthAdjust="spacingAndGlyphs" textLength="359" x="582.5" y="140.4185">machine∧¬claim ⇒ ⏳ · machine∧stale ⇒ ⚠️ · none ⇒ ✓.</text><path d="M21.5,259.4531 L21.5,314.8516 L525.5,314.8516 L525.5,269.4531 L515.5,259.4531 L21.5,259.4531 " fill="#FBFB77" style="stroke: #A80036; stroke-width: 1.0;"/><path d="M515.5,259.4531 L515.5,269.4531 L525.5,269.4531 L515.5,259.4531 " fill="#FBFB77" style="stroke: #A80036; stroke-width: 1.0;"/><text fill="#000000" font-family="sans-serif" font-size="13" font-weight="bold" lengthAdjust="spacingAndGlyphs" textLength="160" x="27.5" y="276.52">Backend gaps (blue):</text><text fill="#000000" font-family="sans-serif" font-size="13" lengthAdjust="spacingAndGlyphs" textLength="319" x="191.5" y="276.52">(1) SearchService.NormalizedFilters + pipeline_id/</text><text fill="#000000" font-family="sans-serif" font-size="13" lengthAdjust="spacingAndGlyphs" textLength="449" x="27.5" y="291.6528">waiting_on ; (2) Coordinator.claims() endpoint (none today) ; (3) config</text><text fill="#000000" font-family="sans-serif" font-size="13" lengthAdjust="spacingAndGlyphs" textLength="460" x="27.5" y="306.7856">pipelines[] as lane source. WS stays the coarse "tasks-updated" refetch.</text><!--MD5=[cbaf73054975fa1e67c1efbee70c2e05]
link LaneFns to LaneDefinition--><path d="M841.82,327.0831 C849.16,344.6931 857.96,365.8031 865.99,385.0731 " fill="none" id="LaneFns-&gt;LaneDefinition" style="stroke: #A80036; stroke-width: 1.0; stroke-dasharray: 7.0,7.0;"/><polygon fill="#A80036" points="868.02,389.9231,868.2659,380.0773,866.104,385.3048,860.8766,383.1429,868.02,389.9231" style="stroke: #A80036; stroke-width: 1.0;"/><!--MD5=[9348d1e4e6e6c30b9f767b3ec6871220]
link LaneFns to LaneMode--><path d="M765.02,327.0031 C748.36,338.7631 730.7,352.2231 715.5,365.9531 C700.27,379.7131 685.06,396.8131 673.1,411.2631 " fill="none" id="LaneFns-&gt;LaneMode" style="stroke: #A80036; stroke-width: 1.0; stroke-dasharray: 7.0,7.0;"/><polygon fill="#A80036" points="669.81,415.2631,678.6174,410.8552,672.987,411.4022,672.44,405.7719,669.81,415.2631" style="stroke: #A80036; stroke-width: 1.0;"/><!--MD5=[652802776d7e55da115a72bd210896b0]
reverse link IssueListView to LaneSwitcher--><path d="M1381.71,156.4731 C1367.34,171.3931 1351.13,188.3531 1336.5,203.9531 C1319.08,222.5331 1299.69,243.7531 1284.98,259.9531 " fill="none" id="IssueListView&lt;-LaneSwitcher" style="stroke: #A80036; stroke-width: 1.0;"/><polygon fill="#FFFFFF" points="1390.85,147.0031,1383.8053,148.5435,1382.5177,155.6387,1389.5624,154.0983,1390.85,147.0031" style="stroke: #A80036; stroke-width: 1.0;"/><!--MD5=[54f440b6d64f8774312c4be02a653811]
reverse link IssueListView to Swimlane--><path d="M1422.5,160.3831 C1422.5,189.7431 1422.5,227.1031 1422.5,253.4131 " fill="none" id="IssueListView&lt;-Swimlane" style="stroke: #A80036; stroke-width: 1.0;"/><polygon fill="#FFFFFF" points="1422.5,147.1131,1418.5,153.1131,1422.5,159.1131,1426.5,153.1131,1422.5,147.1131" style="stroke: #A80036; stroke-width: 1.0;"/><!--MD5=[c00be29f1e1bcd97e9424ebb92073d33]
reverse link Swimlane to TaskRow--><path d="M1390.37,331.2231 C1370.33,358.2031 1345.19,392.0431 1328.1,415.0631 " fill="none" id="Swimlane&lt;-TaskRow" style="stroke: #A80036; stroke-width: 1.0;"/><polygon fill="#FFFFFF" points="1398.32,320.5031,1391.5333,322.9405,1391.1729,330.1425,1397.9596,327.7052,1398.32,320.5031" style="stroke: #A80036; stroke-width: 1.0;"/><!--MD5=[425f1f8d1cccd8e9785a7ab610a981ae]
reverse link TaskRow to DriverIndicator--><path d="M1288.28,481.4231 C1270.44,514.9131 1244.73,563.1931 1227.82,594.9331 " fill="none" id="TaskRow&lt;-DriverIndicator" style="stroke: #A80036; stroke-width: 1.0;"/><polygon fill="#FFFFFF" points="1294.46,469.8131,1288.1079,473.2265,1288.8157,480.4028,1295.1677,476.9894,1294.46,469.8131" style="stroke: #A80036; stroke-width: 1.0;"/><!--MD5=[a1ea208d8db502f198d91cc8fa47fab0]
link TaskRow to InlineGateReview--><path d="M1299.25,469.7931 C1293.3,491.8931 1289.36,523.1131 1305.5,543.9531 C1314.21,555.2031 1323.92,545.3031 1336.5,551.9531 C1358.36,563.5131 1379.29,581.6731 1395.03,597.2931 " fill="none" id="TaskRow-&gt;InlineGateReview" style="stroke: #A80036; stroke-width: 1.0; stroke-dasharray: 7.0,7.0;"/><polygon fill="#A80036" points="1398.91,601.2031,1395.393,592.0036,1395.3816,597.6605,1389.7248,597.649,1398.91,601.2031" style="stroke: #A80036; stroke-width: 1.0;"/><text fill="#000000" font-family="sans-serif" font-size="13" lengthAdjust="spacingAndGlyphs" textLength="160" x="1306.5" y="540.02">when waiting_on=human</text><!--MD5=[47a6d66e8ea8d6b3a7e91ae1b172ab21]
link IssueListView to LaneFns--><path d="M1365.21,128.8931 C1298.17,145.9831 1183.9,175.6931 1086.5,203.9531 C1042.14,216.8231 993.82,231.7531 950.94,245.3131 " fill="none" id="IssueListView-&gt;LaneFns" style="stroke: #A80036; stroke-width: 1.0; stroke-dasharray: 7.0,7.0;"/><polygon fill="#A80036" points="946.01,246.8731,955.7983,247.9633,950.7758,245.3606,953.3784,240.3381,946.01,246.8731" style="stroke: #A80036; stroke-width: 1.0;"/><text fill="#000000" font-family="sans-serif" font-size="13" lengthAdjust="spacingAndGlyphs" textLength="140" x="1169.5" y="192.02">group by pipeline lane</text><!--MD5=[19e816bc15608ac2aa1c0e186c18d9d9]
link IssueListView to LabelProjection--><path d="M1479.73,138.3331 C1581.99,181.3931 1802.35,275.9731 1983.5,365.9531 C2008.83,378.5331 2036.25,393.2931 2059.92,406.4031 " fill="none" id="IssueListView-&gt;LabelProjection" style="stroke: #A80036; stroke-width: 1.0; stroke-dasharray: 7.0,7.0;"/><polygon fill="#A80036" points="2064.29,408.8331,2058.3652,400.9657,2059.9192,406.4049,2054.48,407.959,2064.29,408.8331" style="stroke: #A80036; stroke-width: 1.0;"/><!--MD5=[081f1e2af533b8005c8429c840706b83]
link Swimlane to DisplayHints--><path d="M1491.3,319.5731 C1546.56,344.9631 1624.07,380.5931 1681.02,406.7631 " fill="none" id="Swimlane-&gt;DisplayHints" style="stroke: #A80036; stroke-width: 1.0; stroke-dasharray: 7.0,7.0;"/><polygon fill="#A80036" points="1685.78,408.9531,1679.2698,401.5627,1681.236,406.8669,1675.9319,408.8331,1685.78,408.9531" style="stroke: #A80036; stroke-width: 1.0;"/><!--MD5=[719389a8da147bf3575ce980d600c84f]
reverse link TasksClaimsHook to ApiClient--><path d="M2521.5,340.2531 C2521.5,358.4931 2521.5,378.8031 2521.5,396.4131 " fill="none" id="TasksClaimsHook&lt;-ApiClient" style="stroke: #A80036; stroke-width: 1.0;"/><polygon fill="#FFFFFF" points="2521.5,327.0831,2517.5,333.0831,2521.5,339.0831,2525.5,333.0831,2521.5,327.0831" style="stroke: #A80036; stroke-width: 1.0;"/><!--MD5=[0d0ae6e83af72fa4317f60310eaf8ee8]
reverse link TasksClaimsHook to WsChannel--><path d="M2629.41,309.9331 C2673.04,322.0131 2722.45,339.9831 2762.5,365.9531 C2782.33,378.8131 2800.03,398.8931 2812.4,415.1231 " fill="none" id="TasksClaimsHook&lt;-WsChannel" style="stroke: #A80036; stroke-width: 1.0;"/><polygon fill="#FFFFFF" points="2616.67,306.5231,2621.4333,311.9371,2628.2628,309.6225,2623.4995,304.2085,2616.67,306.5231" style="stroke: #A80036; stroke-width: 1.0;"/><!--MD5=[4b06186ceeca82619bf4c5601833f2a7]
reverse link IssueListView to TasksClaimsHook--><path d="M1492.8,123.6831 C1583.27,135.7031 1745.27,157.6931 1883.5,178.9531 C2076.51,208.6331 2301.65,247.3531 2426.24,269.1431 " fill="none" id="IssueListView&lt;-TasksClaimsHook" style="stroke: #A80036; stroke-width: 1.0;"/><polygon fill="#FFFFFF" points="1479.71,121.9531,1485.136,126.7028,1491.6071,123.521,1486.1812,118.7713,1479.71,121.9531" style="stroke: #A80036; stroke-width: 1.0;"/><!--MD5=[09ff8dfd596d19236ce3777ca3ba014a]
link ApiClient to SearchService--><path d="M2396.6,488.5131 C2354.58,505.8631 2308.29,527.4731 2268.5,551.9531 C2250.24,563.1831 2231.81,577.9231 2216.42,591.3831 " fill="none" id="ApiClient-&gt;SearchService" style="stroke: #A80036; stroke-width: 1.0; stroke-dasharray: 7.0,7.0;"/><polygon fill="#A80036" points="2212.58,594.7831,2221.9761,591.8314,2216.3304,591.4764,2216.6854,585.8307,2212.58,594.7831" style="stroke: #A80036; stroke-width: 1.0;"/><!--MD5=[3ea96b64fda62299aec2d03de8f72dc1]
link ApiClient to Coordinator--><path d="M2521.5,488.4631 C2521.5,519.4131 2521.5,560.0631 2521.5,589.3931 " fill="none" id="ApiClient-&gt;Coordinator" style="stroke: #A80036; stroke-width: 1.0; stroke-dasharray: 7.0,7.0;"/><polygon fill="#A80036" points="2521.5,594.7331,2525.5,585.7331,2521.5,589.7331,2517.5,585.7331,2521.5,594.7331" style="stroke: #A80036; stroke-width: 1.0;"/><!--MD5=[3e76867aec75584b28b324347182d147]
link LaneSwitcher to ConfigPipelines--><path d="M1300.15,314.0231 C1321.16,328.6431 1347.31,347.5931 1369.5,365.9531 C1445.81,429.0831 1446.49,468.1531 1531.5,518.9531 C1586.56,551.8531 1652.87,576.2331 1711.34,593.4531 " fill="none" id="LaneSwitcher-&gt;ConfigPipelines" style="stroke: #A80036; stroke-width: 1.0; stroke-dasharray: 7.0,7.0;"/><polygon fill="#A80036" points="1716.26,594.8831,1708.74,588.5231,1711.46,593.4831,1706.5,596.2031,1716.26,594.8831" style="stroke: #A80036; stroke-width: 1.0;"/><!--MD5=[f7e5228c6cda4dc6eb3524aba62b3d39]
link N_reuse to N_join--><!--MD5=[1030507e306dc8eece16fa6211b501e0]
link N_reuse to N_gap--><!--MD5=[6cf4832636b3334cf14bc22ddcc6a8bc]
@startuml epicd-presentation-class

skinparam backgroundColor #FFFFFF
skinparam shadowing false
skinparam class {
  BorderColor #555555
  BackgroundColor #E8F0FE
  BackgroundColor<<reuse>> #C8E6C9
  BackgroundColor<<new>> #FFE0B2
  BackgroundColor<<projection>> #E1BEE7
  BackgroundColor<<contract>> #B3E5FC
}
skinparam packageStyle rectangle

title epicd — Multi-lane issue-list (presentation class diagram; green=reuse, orange=new)

package "Lane engine  (src/web/lib/lanes.ts — REUSE, extend)" {
  class LaneMode <<new>> {
  }
  class LaneDefinition <<reuse>> {
    +key : string
    +label : string
    +milestone? : string
    +pipeline_id? : string   '' NEW field for pipeline lanes
  }
  class LaneFns <<new>> {
    +buildLanes(mode, tasks, ...) : LaneDefinition[]    '' add pipeline branch
    +groupTasksByLaneAndStatus(...) : Map<laneKey, Map<column, Task[]>>
  }
  LaneFns ..> LaneDefinition
  LaneFns ..> LaneMode
}

package "Issue-list view  (extends TaskList.tsx base)" {
  class IssueListView <<new>> {
    +render()
  }
  class LaneSwitcher <<new>> {
  }
  class Swimlane <<reuse>> {
    +collapsed : boolean
  }
  class TaskRow <<reuse>> {
  }
  class DriverIndicator <<new>> {
    +compute(waiting_on, claim) : Icon
  }
  class InlineGateReview <<new>> {
  }
  IssueListView o- - LaneSwitcher
  IssueListView o- - Swimlane
  Swimlane o- - TaskRow
  TaskRow o- - DriverIndicator
  TaskRow ..> InlineGateReview : when waiting_on=human
  IssueListView ..> LaneFns : group by pipeline lane
}

package "Projections  (view-only, one-way — R3/R4)" {
  class LabelProjection <<projection>> {
    +label(phase, turn, role, plane) : string
  }
  class DisplayHints <<projection>> {
    +byPipeline : Map<pipeline_id, {columns, sort, collapsed, icon, title}>
  }
  IssueListView ..> LabelProjection
  Swimlane ..> DisplayHints
}

package "Data layer  (apiClient + WS)" {
  class TasksClaimsHook <<new>> {
    +tasks : Task[]
    +claims : Map<taskId, Claim>
  }
  class ApiClient <<new>> {
    +search(filter) : Task[]   '' EXTEND filter: + pipeline_id / state / waiting_on
    +postGateDecision(task, verdict)   '' NEW endpoint for inline gate-review
    +getClaims() : Map<taskId, Claim>  '' NEW: read Coordinator runtime state
  }
  class WsChannel <<reuse>> {
  }
  TasksClaimsHook o- - ApiClient
  TasksClaimsHook o- - WsChannel
  IssueListView o- - TasksClaimsHook
}

package "Backend (needed)" {
  interface SearchService <<contract>> {
    +search(opts) : Task[]
  }
  interface Coordinator <<contract>> {
    +claims() : Map<taskId, Claim>   '' ABSENT today; soak = baime .active-agents
  }
  interface ConfigPipelines <<contract>> {
    +pipelines[] : Pipeline   '' ABSENT in config.yml today → source of lanes
  }
  ApiClient ..> SearchService
  ApiClient ..> Coordinator
  LaneSwitcher ..> ConfigPipelines
}

note as N_reuse
  **Biggest reuse:** lanes.ts already models lanes+columns+collapsible swimlanes
  for milestones. Pipeline lanes = a THIRD LaneMode ("pipeline"), laneKey =
  pipeline_id, column = ordered phase. No new grouping subsystem.
end note
note as N_join
  **Four-axis join at the row:** TaskRow reads persisted (phase, waiting_on)
  from Task and live claim from Coordinator → DriverIndicator.
  waiting_on=human ⇒ 👤 (+InlineGateReview) · machine∧claim ⇒ 🤖 ·
  machine∧¬claim ⇒ ⏳ · machine∧stale ⇒ ⚠️ · none ⇒ ✓.
end note
note as N_gap
  **Backend gaps (blue):** (1) SearchService.NormalizedFilters + pipeline_id/
  waiting_on ; (2) Coordinator.claims() endpoint (none today) ; (3) config
  pipelines[] as lane source. WS stays the coarse "tasks-updated" refetch.
end note

@enduml

PlantUML version 1.2020.02(Sun Mar 01 10:22:07 UTC 2020)
(GPL source distribution)
Java Runtime: OpenJDK Runtime Environment
JVM: OpenJDK 64-Bit Server VM
Java Version: 21.0.11+10-1-22.04.2-Ubuntu
Operating System: Linux
Default Encoding: UTF-8
Language: en
Country: null
--></g></svg>