<?xml version="1.0" encoding="UTF-8" standalone="no"?><svg xmlns="http://www.w3.org/2000/svg" xmlns:xlink="http://www.w3.org/1999/xlink" contentScriptType="application/ecmascript" contentStyleType="text/css" height="1293px" preserveAspectRatio="none" style="width:2021px;height:1293px;" version="1.1" viewBox="0 0 2021 1293" width="2021px" zoomAndPan="magnify"><defs/><g><text fill="#000000" font-family="sans-serif" font-size="18" lengthAdjust="spacingAndGlyphs" textLength="547" x="736.3906" y="26.708">epicd — Human + engine flow across lanes (Activity diagram)</text><rect fill="#C8E6C9" height="1248.1328" style="stroke: #C8E6C9; stroke-width: 1.0;" width="690.5" x="10" y="33.6982"/><ellipse cx="361.5" cy="69.6514" fill="#000000" rx="10" ry="10" style="stroke: none; stroke-width: 1.0;"/><path d="M499.5,103.4873 L499.5,119.6201 L479.5,123.6201 L499.5,127.6201 L499.5,143.7529 A0,0 0 0 0 499.5,143.7529 L690.5,143.7529 A0,0 0 0 0 690.5,143.7529 L690.5,113.4873 L680.5,103.4873 L499.5,103.4873 A0,0 0 0 0 499.5,103.4873 " fill="#FBFB77" style="stroke: #A80036; stroke-width: 1.0;"/><path d="M680.5,103.4873 L680.5,113.4873 L690.5,113.4873 L680.5,103.4873 " fill="#FBFB77" style="stroke: #A80036; stroke-width: 1.0;"/><text fill="#000000" font-family="sans-serif" font-size="13" lengthAdjust="spacingAndGlyphs" textLength="71" x="505.5" y="120.5542">appears as</text><text fill="#000000" font-family="sans-serif" font-size="13" font-weight="bold" lengthAdjust="spacingAndGlyphs" textLength="38" x="580.5" y="120.5542">Draft</text><text fill="#000000" font-family="sans-serif" font-size="13" lengthAdjust="spacingAndGlyphs" textLength="36" x="622.5" y="120.5542">in the</text><text fill="#000000" font-family="sans-serif" font-size="13" lengthAdjust="spacingAndGlyphs" textLength="170" x="505.5" y="135.687">Authoring lane (&#128100; then &#129302;)</text><rect fill="#E8F0FE" height="47.9375" rx="12.5" ry="12.5" style="stroke: #555555; stroke-width: 1.5;" width="236" x="243.5" y="99.6514"/><text fill="#000000" font-family="sans-serif" font-size="12" lengthAdjust="spacingAndGlyphs" textLength="186" x="253.5" y="120.79">Capture idea (one-line intent)</text><text fill="#000000" font-family="sans-serif" font-size="12" lengthAdjust="spacingAndGlyphs" textLength="216" x="253.5" y="134.7588">choose kind: feature / chore / epic</text><rect fill="#E8F0FE" height="47.9375" rx="12.5" ry="12.5" style="stroke: #555555; stroke-width: 1.5;" width="167" x="278" y="420.2686"/><text fill="#000000" font-family="sans-serif" font-size="12" lengthAdjust="spacingAndGlyphs" textLength="147" x="288" y="441.4072">Review item in issue-list</text><text fill="#000000" font-family="sans-serif" font-size="12" lengthAdjust="spacingAndGlyphs" textLength="122" x="288" y="455.376">(Authoring lane, &#128100;)</text><polygon fill="#FFE0B2" points="320,488.2061,403,488.2061,415,500.2061,403,512.2061,320,512.2061,308,500.2061,320,488.2061" style="stroke: #A80036; stroke-width: 1.5;"/><text fill="#000000" font-family="sans-serif" font-size="11" lengthAdjust="spacingAndGlyphs" textLength="83" x="320" y="504.0142">Promote gate?</text><text fill="#000000" font-family="sans-serif" font-size="11" lengthAdjust="spacingAndGlyphs" textLength="46" x="262" y="497.6118">approve</text><text fill="#000000" font-family="sans-serif" font-size="11" lengthAdjust="spacingAndGlyphs" textLength="68" x="415" y="497.6118">hold / reject</text><rect fill="#E8F0FE" height="33.9688" rx="12.5" ry="12.5" style="stroke: #555555; stroke-width: 1.5;" width="241" x="126.75" y="522.2061"/><text fill="#000000" font-family="sans-serif" font-size="12" lengthAdjust="spacingAndGlyphs" textLength="67" x="136.75" y="543.3447">Promote →</text><text fill="#000000" font-family="sans-serif" font-size="12" font-weight="bold" lengthAdjust="spacingAndGlyphs" textLength="44" x="207.75" y="543.3447">Ready</text><text fill="#000000" font-family="sans-serif" font-size="12" lengthAdjust="spacingAndGlyphs" textLength="102" x="255.75" y="543.3447">(execution lane)</text><rect fill="#E8F0FE" height="33.9688" rx="12.5" ry="12.5" style="stroke: #555555; stroke-width: 1.5;" width="176" x="387.75" y="522.2061"/><text fill="#000000" font-family="sans-serif" font-size="12" lengthAdjust="spacingAndGlyphs" textLength="156" x="397.75" y="543.3447">keep in Backlog / archive</text><ellipse cx="475.75" cy="587.1748" fill="#FFFFFF" rx="11" ry="11" style="stroke: #000000; stroke-width: 1.0;"/><ellipse cx="475.75" cy="587.1748" fill="#000000" rx="6" ry="6" style="stroke: #7F7F7F; stroke-width: 1.0;"/><polygon fill="#FFE0B2" points="299.5,1057.9248,423.5,1057.9248,435.5,1069.9248,423.5,1081.9248,299.5,1081.9248,287.5,1069.9248,299.5,1057.9248" style="stroke: #A80036; stroke-width: 1.5;"/><text fill="#000000" font-family="sans-serif" font-size="11" lengthAdjust="spacingAndGlyphs" textLength="124" x="299.5" y="1073.7329">row = Needs Human?</text><text fill="#000000" font-family="sans-serif" font-size="11" lengthAdjust="spacingAndGlyphs" textLength="20" x="267.5" y="1067.3306">yes</text><text fill="#000000" font-family="sans-serif" font-size="11" lengthAdjust="spacingAndGlyphs" textLength="29" x="435.5" y="1067.3306">Done</text><path d="M278,1095.7607 L278,1111.8936 L258,1115.8936 L278,1119.8936 L278,1136.0264 A0,0 0 0 0 278,1136.0264 L434,1136.0264 A0,0 0 0 0 434,1136.0264 L434,1105.7607 L424,1095.7607 L278,1095.7607 A0,0 0 0 0 278,1095.7607 " fill="#FBFB77" style="stroke: #A80036; stroke-width: 1.0;"/><path d="M424,1095.7607 L424,1105.7607 L434,1105.7607 L424,1095.7607 " fill="#FBFB77" style="stroke: #A80036; stroke-width: 1.0;"/><text fill="#000000" font-family="sans-serif" font-size="13" lengthAdjust="spacingAndGlyphs" textLength="125" x="284" y="1112.8276">gate-inbox is folded</text><text fill="#000000" font-family="sans-serif" font-size="13" lengthAdjust="spacingAndGlyphs" textLength="135" x="284" y="1127.9604">into the issue-list row</text><rect fill="#E8F0FE" height="47.9375" rx="12.5" ry="12.5" style="stroke: #555555; stroke-width: 1.5;" width="195" x="63" y="1091.9248"/><text fill="#000000" font-family="sans-serif" font-size="12" lengthAdjust="spacingAndGlyphs" textLength="33" x="73" y="1113.0635">Inline</text><text fill="#000000" font-family="sans-serif" font-size="12" font-weight="bold" lengthAdjust="spacingAndGlyphs" textLength="85" x="110" y="1113.0635">gate-review</text><text fill="#000000" font-family="sans-serif" font-size="12" lengthAdjust="spacingAndGlyphs" textLength="175" x="73" y="1127.0322">(approve / reject / escalate)</text><polygon fill="#FFE0B2" points="134,1159.8623,187,1159.8623,199,1171.8623,187,1183.8623,134,1183.8623,122,1171.8623,134,1159.8623" style="stroke: #A80036; stroke-width: 1.5;"/><text fill="#000000" font-family="sans-serif" font-size="11" lengthAdjust="spacingAndGlyphs" textLength="53" x="134" y="1175.6704">decision?</text><text fill="#000000" font-family="sans-serif" font-size="11" lengthAdjust="spacingAndGlyphs" textLength="102" x="20" y="1169.2681">approve / re-open</text><text fill="#000000" font-family="sans-serif" font-size="11" lengthAdjust="spacingAndGlyphs" textLength="32" x="199" y="1169.2681">reject</text><rect fill="#E8F0FE" height="33.9688" rx="12.5" ry="12.5" style="stroke: #555555; stroke-width: 1.5;" width="123" x="42" y="1193.8623"/><text fill="#000000" font-family="sans-serif" font-size="12" lengthAdjust="spacingAndGlyphs" textLength="103" x="52" y="1215.001">→ back to Ready</text><rect fill="#E8F0FE" height="33.9688" rx="12.5" ry="12.5" style="stroke: #555555; stroke-width: 1.5;" width="65" x="185" y="1193.8623"/><text fill="#000000" font-family="sans-serif" font-size="12" lengthAdjust="spacingAndGlyphs" textLength="45" x="195" y="1215.001">archive</text><ellipse cx="217.5" cy="1258.8311" fill="#FFFFFF" rx="11" ry="11" style="stroke: #000000; stroke-width: 1.0;"/><ellipse cx="217.5" cy="1258.8311" fill="#000000" rx="6" ry="6" style="stroke: #7F7F7F; stroke-width: 1.0;"/><rect fill="#E8F0FE" height="47.9375" rx="12.5" ry="12.5" style="stroke: #555555; stroke-width: 1.5;" width="217" x="454" y="1091.9248"/><text fill="#000000" font-family="sans-serif" font-size="12" lengthAdjust="spacingAndGlyphs" textLength="197" x="464" y="1113.0635">done — visible in terminal state</text><text fill="#000000" font-family="sans-serif" font-size="12" lengthAdjust="spacingAndGlyphs" textLength="151" x="464" y="1127.0322">(hidden by default filter)</text><ellipse cx="562.5" cy="1170.8623" fill="#FFFFFF" rx="11" ry="11" style="stroke: #000000; stroke-width: 1.0;"/><ellipse cx="562.5" cy="1170.8623" fill="#000000" rx="6" ry="6" style="stroke: #7F7F7F; stroke-width: 1.0;"/><rect fill="#FFF3E0" height="1248.1328" style="stroke: #FFF3E0; stroke-width: 1.0;" width="627" x="700.5" y="33.6982"/><rect fill="#E8F0FE" height="33.9688" rx="12.5" ry="12.5" style="stroke: #555555; stroke-width: 1.5;" width="156" x="936.5" y="167.5889"/><text fill="#000000" font-family="sans-serif" font-size="12" lengthAdjust="spacingAndGlyphs" textLength="136" x="946.5" y="188.7275">Claim Draft → Refining</text><polygon fill="#FFE0B2" points="809.5,221.5576,838.5,221.5576,850.5,233.5576,838.5,245.5576,809.5,245.5576,797.5,233.5576,809.5,221.5576" style="stroke: #A80036; stroke-width: 1.5;"/><text fill="#000000" font-family="sans-serif" font-size="11" lengthAdjust="spacingAndGlyphs" textLength="41" x="828" y="255.7681">feature</text><text fill="#000000" font-family="sans-serif" font-size="11" lengthAdjust="spacingAndGlyphs" textLength="29" x="809.5" y="237.3657">kind?</text><rect fill="#E8F0FE" height="47.9375" rx="12.5" ry="12.5" style="stroke: #555555; stroke-width: 1.5;" width="227" x="710.5" y="278.3623"/><text fill="#000000" font-family="sans-serif" font-size="12" lengthAdjust="spacingAndGlyphs" textLength="116" x="720.5" y="299.501">feature-to-backlog</text><text fill="#000000" font-family="sans-serif" font-size="12" lengthAdjust="spacingAndGlyphs" textLength="207" x="720.5" y="313.4697">Proposal + Plan (2 review cycles)</text><polygon fill="#FFE0B2" points="1032,221.5576,1064,221.5576,1076,233.5576,1064,245.5576,1032,245.5576,1020,233.5576,1032,221.5576" style="stroke: #A80036; stroke-width: 1.5;"/><text fill="#000000" font-family="sans-serif" font-size="11" lengthAdjust="spacingAndGlyphs" textLength="32" x="1032" y="237.3657">chore</text><text fill="#000000" font-family="sans-serif" font-size="11" lengthAdjust="spacingAndGlyphs" textLength="23" x="1076" y="230.9634">epic</text><rect fill="#E8F0FE" height="47.9375" rx="12.5" ry="12.5" style="stroke: #555555; stroke-width: 1.5;" width="181" x="957.5" y="265.5576"/><text fill="#000000" font-family="sans-serif" font-size="12" lengthAdjust="spacingAndGlyphs" textLength="97" x="967.5" y="286.6963">task-to-backlog</text><text fill="#000000" font-family="sans-serif" font-size="12" lengthAdjust="spacingAndGlyphs" textLength="161" x="967.5" y="300.665">single critique → checklist</text><rect fill="#E8F0FE" height="47.9375" rx="12.5" ry="12.5" style="stroke: #555555; stroke-width: 1.5;" width="160" x="1158.5" y="274.96"/><text fill="#000000" font-family="sans-serif" font-size="12" lengthAdjust="spacingAndGlyphs" textLength="96" x="1168.5" y="296.0986">epic-to-backlog</text><text fill="#000000" font-family="sans-serif" font-size="12" lengthAdjust="spacingAndGlyphs" textLength="140" x="1168.5" y="310.0674">plan only (no children)</text><rect fill="#E8F0FE" height="33.9688" rx="12.5" ry="12.5" style="stroke: #555555; stroke-width: 1.5;" width="124" x="952.5" y="366.2998"/><text fill="#000000" font-family="sans-serif" font-size="12" lengthAdjust="spacingAndGlyphs" textLength="45" x="962.5" y="387.4385">Park at</text><text fill="#000000" font-family="sans-serif" font-size="12" font-weight="bold" lengthAdjust="spacingAndGlyphs" textLength="55" x="1011.5" y="387.4385">Backlog</text><rect fill="#E1F5FE" height="1248.1328" style="stroke: #E1F5FE; stroke-width: 1.0;" width="682.2813" x="1327.5" y="33.6982"/><path d="M1778.375,622.5928 L1778.375,631.1592 L1758.375,635.1592 L1778.375,639.1592 L1778.375,647.7256 A0,0 0 0 0 1778.375,647.7256 L1999.7813,647.7256 A0,0 0 0 0 1999.7813,647.7256 L1999.7813,632.5928 L1989.7813,622.5928 L1778.375,622.5928 A0,0 0 0 0 1778.375,622.5928 " fill="#FBFB77" style="stroke: #A80036; stroke-width: 1.0;"/><path d="M1989.7813,622.5928 L1989.7813,632.5928 L1999.7813,632.5928 L1989.7813,622.5928 " fill="#FBFB77" style="stroke: #A80036; stroke-width: 1.0;"/><text fill="#000000" font-family="sans-serif" font-size="13" lengthAdjust="spacingAndGlyphs" textLength="94" x="1784.375" y="639.6597">row now shows</text><text fill="#000000" font-family="sans-serif" font-size="13" font-weight="bold" lengthAdjust="spacingAndGlyphs" textLength="102.4063" x="1882.375" y="639.6597">&#129302; In Progress</text><rect fill="#E8F0FE" height="33.9688" rx="12.5" ry="12.5" style="stroke: #555555; stroke-width: 1.5;" width="299" x="1459.375" y="618.1748"/><text fill="#000000" font-family="sans-serif" font-size="12" lengthAdjust="spacingAndGlyphs" textLength="279" x="1469.375" y="639.3135">Scan actionable → spawn worker in worktree</text><polygon fill="#FFE0B2" points="1594.875,672.1436,1622.875,672.1436,1634.875,684.1436,1622.875,696.1436,1594.875,696.1436,1582.875,684.1436,1594.875,672.1436" style="stroke: #A80036; stroke-width: 1.5;"/><text fill="#000000" font-family="sans-serif" font-size="11" lengthAdjust="spacingAndGlyphs" textLength="28" x="1594.875" y="687.9517">role?</text><text fill="#000000" font-family="sans-serif" font-size="11" lengthAdjust="spacingAndGlyphs" textLength="134" x="1448.875" y="681.5493">primitive: feature/chore</text><text fill="#000000" font-family="sans-serif" font-size="11" lengthAdjust="spacingAndGlyphs" textLength="90" x="1634.875" y="681.5493">compound: epic</text><rect fill="#E8F0FE" height="33.9688" rx="12.5" ry="12.5" style="stroke: #555555; stroke-width: 1.5;" width="241" x="1342" y="706.1436"/><text fill="#000000" font-family="sans-serif" font-size="12" lengthAdjust="spacingAndGlyphs" textLength="221" x="1352" y="727.2822">Execute (implement / run checklist)</text><rect fill="#E8F0FE" height="33.9688" rx="12.5" ry="12.5" style="stroke: #555555; stroke-width: 1.5;" width="250" x="1337.5" y="774.0811"/><text fill="#000000" font-family="sans-serif" font-size="12" lengthAdjust="spacingAndGlyphs" textLength="230" x="1347.5" y="795.2197">engine.complete() → merge/advance</text><rect fill="#E8F0FE" height="47.9375" rx="12.5" ry="12.5" style="stroke: #555555; stroke-width: 1.5;" width="183" x="1371" y="842.0186"/><text fill="#000000" font-family="sans-serif" font-size="12" font-weight="bold" lengthAdjust="spacingAndGlyphs" textLength="163" x="1381" y="863.1572">Adjudicate DoD (ENG-8)</text><text fill="#000000" font-family="sans-serif" font-size="12" lengthAdjust="spacingAndGlyphs" textLength="122" x="1381" y="877.126">engine re-runs DoD</text><polygon fill="#FFE0B2" points="1448,909.9561,1477,909.9561,1489,921.9561,1477,933.9561,1448,933.9561,1436,921.9561,1448,909.9561" style="stroke: #A80036; stroke-width: 1.5;"/><text fill="#000000" font-family="sans-serif" font-size="11" lengthAdjust="spacingAndGlyphs" textLength="29" x="1448" y="925.7642">DoD?</text><text fill="#000000" font-family="sans-serif" font-size="11" lengthAdjust="spacingAndGlyphs" textLength="28" x="1408" y="919.3618">pass</text><text fill="#000000" font-family="sans-serif" font-size="11" lengthAdjust="spacingAndGlyphs" textLength="69" x="1489" y="919.3618">fail / conflict</text><rect fill="#E8F0FE" height="33.9688" rx="12.5" ry="12.5" style="stroke: #555555; stroke-width: 1.5;" width="71" x="1366.25" y="943.9561"/><text fill="#000000" font-family="sans-serif" font-size="12" lengthAdjust="spacingAndGlyphs" textLength="10" x="1376.25" y="965.0947">→</text><text fill="#000000" font-family="sans-serif" font-size="12" font-weight="bold" lengthAdjust="spacingAndGlyphs" textLength="37" x="1390.25" y="965.0947">Done</text><rect fill="#E8F0FE" height="33.9688" rx="12.5" ry="12.5" style="stroke: #555555; stroke-width: 1.5;" width="132" x="1457.25" y="943.9561"/><text fill="#000000" font-family="sans-serif" font-size="12" lengthAdjust="spacingAndGlyphs" textLength="10" x="1467.25" y="965.0947">→</text><text fill="#000000" font-family="sans-serif" font-size="12" font-weight="bold" lengthAdjust="spacingAndGlyphs" textLength="98" x="1481.25" y="965.0947">Needs Human</text><polygon fill="#FFE0B2" points="1462.5,983.9248,1474.5,995.9248,1462.5,1007.9248,1450.5,995.9248,1462.5,983.9248" style="stroke: #A80036; stroke-width: 1.5;"/><rect fill="#E8F0FE" height="47.9375" rx="12.5" ry="12.5" style="stroke: #555555; stroke-width: 1.5;" width="215" x="1647.75" y="706.1436"/><text fill="#000000" font-family="sans-serif" font-size="12" lengthAdjust="spacingAndGlyphs" textLength="187" x="1657.75" y="727.2822">Decompose → create children</text><text fill="#000000" font-family="sans-serif" font-size="12" lengthAdjust="spacingAndGlyphs" textLength="195" x="1657.75" y="741.251">(role flips primitive→compound)</text><rect fill="#E8F0FE" height="33.9688" rx="12.5" ry="12.5" style="stroke: #555555; stroke-width: 1.5;" width="159" x="1675.75" y="788.0498"/><text fill="#000000" font-family="sans-serif" font-size="12" lengthAdjust="spacingAndGlyphs" textLength="10" x="1685.75" y="809.1885">→</text><text fill="#000000" font-family="sans-serif" font-size="12" font-weight="bold" lengthAdjust="spacingAndGlyphs" textLength="125" x="1699.75" y="809.1885">Awaiting Children</text><rect fill="#E8F0FE" height="33.9688" rx="12.5" ry="12.5" style="stroke: #555555; stroke-width: 1.5;" width="272" x="1619.25" y="855.9873"/><text fill="#000000" font-family="sans-serif" font-size="12" lengthAdjust="spacingAndGlyphs" textLength="174" x="1629.25" y="877.126">when all children terminal →</text><text fill="#000000" font-family="sans-serif" font-size="12" font-weight="bold" lengthAdjust="spacingAndGlyphs" textLength="74" x="1807.25" y="877.126">Evaluating</text><polygon fill="#FFE0B2" points="1714.25,909.9561,1796.25,909.9561,1808.25,921.9561,1796.25,933.9561,1714.25,933.9561,1702.25,921.9561,1714.25,909.9561" style="stroke: #A80036; stroke-width: 1.5;"/><text fill="#000000" font-family="sans-serif" font-size="11" lengthAdjust="spacingAndGlyphs" textLength="82" x="1714.25" y="925.7642">epic satisfied?</text><text fill="#000000" font-family="sans-serif" font-size="11" lengthAdjust="spacingAndGlyphs" textLength="20" x="1682.25" y="919.3618">yes</text><text fill="#000000" font-family="sans-serif" font-size="11" lengthAdjust="spacingAndGlyphs" textLength="14" x="1808.25" y="919.3618">no</text><rect fill="#E8F0FE" height="33.9688" rx="12.5" ry="12.5" style="stroke: #555555; stroke-width: 1.5;" width="71" x="1656.75" y="943.9561"/><text fill="#000000" font-family="sans-serif" font-size="12" lengthAdjust="spacingAndGlyphs" textLength="10" x="1666.75" y="965.0947">→</text><text fill="#000000" font-family="sans-serif" font-size="12" font-weight="bold" lengthAdjust="spacingAndGlyphs" textLength="37" x="1680.75" y="965.0947">Done</text><rect fill="#E8F0FE" height="33.9688" rx="12.5" ry="12.5" style="stroke: #555555; stroke-width: 1.5;" width="132" x="1752.25" y="943.9561"/><text fill="#000000" font-family="sans-serif" font-size="12" lengthAdjust="spacingAndGlyphs" textLength="10" x="1762.25" y="965.0947">→</text><text fill="#000000" font-family="sans-serif" font-size="12" font-weight="bold" lengthAdjust="spacingAndGlyphs" textLength="98" x="1776.25" y="965.0947">Needs Human</text><polygon fill="#FFE0B2" points="1755.25,983.9248,1767.25,995.9248,1755.25,1007.9248,1743.25,995.9248,1755.25,983.9248" style="stroke: #A80036; stroke-width: 1.5;"/><polygon fill="#FFE0B2" points="1608.875,1013.9248,1620.875,1025.9248,1608.875,1037.9248,1596.875,1025.9248,1608.875,1013.9248" style="stroke: #A80036; stroke-width: 1.5;"/><line style="stroke: #A80036; stroke-width: 1.5;" x1="361.5" x2="361.5" y1="79.6514" y2="99.6514"/><polygon fill="#A80036" points="357.5,89.6514,361.5,99.6514,365.5,89.6514,361.5,93.6514" style="stroke: #A80036; stroke-width: 1.0;"/><line style="stroke: #A80036; stroke-width: 1.5;" x1="475.75" x2="475.75" y1="556.1748" y2="576.1748"/><polygon fill="#A80036" points="471.75,566.1748,475.75,576.1748,479.75,566.1748,475.75,570.1748" style="stroke: #A80036; stroke-width: 1.0;"/><line style="stroke: #A80036; stroke-width: 1.5;" x1="308" x2="247.25" y1="500.2061" y2="500.2061"/><line style="stroke: #A80036; stroke-width: 1.5;" x1="247.25" x2="247.25" y1="500.2061" y2="522.2061"/><polygon fill="#A80036" points="243.25,512.2061,247.25,522.2061,251.25,512.2061,247.25,516.2061" style="stroke: #A80036; stroke-width: 1.0;"/><line style="stroke: #A80036; stroke-width: 1.5;" x1="415" x2="475.75" y1="500.2061" y2="500.2061"/><line style="stroke: #A80036; stroke-width: 1.5;" x1="475.75" x2="475.75" y1="500.2061" y2="522.2061"/><polygon fill="#A80036" points="471.75,512.2061,475.75,522.2061,479.75,512.2061,475.75,516.2061" style="stroke: #A80036; stroke-width: 1.0;"/><line style="stroke: #A80036; stroke-width: 1.5;" x1="247.25" x2="247.25" y1="556.1748" y2="603.1748"/><line style="stroke: #A80036; stroke-width: 1.5;" x1="247.25" x2="1608.875" y1="603.1748" y2="603.1748"/><line style="stroke: #A80036; stroke-width: 1.5;" x1="1608.875" x2="1608.875" y1="603.1748" y2="618.1748"/><polygon fill="#A80036" points="1604.875,608.1748,1608.875,618.1748,1612.875,608.1748,1608.875,612.1748" style="stroke: #A80036; stroke-width: 1.0;"/><line style="stroke: #A80036; stroke-width: 1.5;" x1="361.5" x2="361.5" y1="468.2061" y2="488.2061"/><polygon fill="#A80036" points="357.5,478.2061,361.5,488.2061,365.5,478.2061,361.5,482.2061" style="stroke: #A80036; stroke-width: 1.0;"/><line style="stroke: #A80036; stroke-width: 1.5;" x1="217.5" x2="217.5" y1="1227.8311" y2="1247.8311"/><polygon fill="#A80036" points="213.5,1237.8311,217.5,1247.8311,221.5,1237.8311,217.5,1241.8311" style="stroke: #A80036; stroke-width: 1.0;"/><line style="stroke: #A80036; stroke-width: 1.5;" x1="122" x2="103.5" y1="1171.8623" y2="1171.8623"/><line style="stroke: #A80036; stroke-width: 1.5;" x1="103.5" x2="103.5" y1="1171.8623" y2="1193.8623"/><polygon fill="#A80036" points="99.5,1183.8623,103.5,1193.8623,107.5,1183.8623,103.5,1187.8623" style="stroke: #A80036; stroke-width: 1.0;"/><line style="stroke: #A80036; stroke-width: 1.5;" x1="199" x2="217.5" y1="1171.8623" y2="1171.8623"/><line style="stroke: #A80036; stroke-width: 1.5;" x1="217.5" x2="217.5" y1="1171.8623" y2="1193.8623"/><polygon fill="#A80036" points="213.5,1183.8623,217.5,1193.8623,221.5,1183.8623,217.5,1187.8623" style="stroke: #A80036; stroke-width: 1.0;"/><line style="stroke: #A80036; stroke-width: 1.5;" x1="160.5" x2="160.5" y1="1139.8623" y2="1159.8623"/><polygon fill="#A80036" points="156.5,1149.8623,160.5,1159.8623,164.5,1149.8623,160.5,1153.8623" style="stroke: #A80036; stroke-width: 1.0;"/><line style="stroke: #A80036; stroke-width: 1.5;" x1="562.5" x2="562.5" y1="1139.8623" y2="1159.8623"/><polygon fill="#A80036" points="558.5,1149.8623,562.5,1159.8623,566.5,1149.8623,562.5,1153.8623" style="stroke: #A80036; stroke-width: 1.0;"/><line style="stroke: #A80036; stroke-width: 1.5;" x1="287.5" x2="160.5" y1="1069.9248" y2="1069.9248"/><line style="stroke: #A80036; stroke-width: 1.5;" x1="160.5" x2="160.5" y1="1069.9248" y2="1091.9248"/><polygon fill="#A80036" points="156.5,1081.9248,160.5,1091.9248,164.5,1081.9248,160.5,1085.9248" style="stroke: #A80036; stroke-width: 1.0;"/><line style="stroke: #A80036; stroke-width: 1.5;" x1="435.5" x2="562.5" y1="1069.9248" y2="1069.9248"/><line style="stroke: #A80036; stroke-width: 1.5;" x1="562.5" x2="562.5" y1="1069.9248" y2="1091.9248"/><polygon fill="#A80036" points="558.5,1081.9248,562.5,1091.9248,566.5,1081.9248,562.5,1085.9248" style="stroke: #A80036; stroke-width: 1.0;"/><line style="stroke: #A80036; stroke-width: 1.5;" x1="824" x2="824" y1="245.5576" y2="278.3623"/><polygon fill="#A80036" points="820,268.3623,824,278.3623,828,268.3623,824,272.3623" style="stroke: #A80036; stroke-width: 1.0;"/><line style="stroke: #A80036; stroke-width: 1.5;" x1="824" x2="824" y1="326.2998" y2="346.2998"/><polygon fill="#A80036" points="820,336.2998,824,346.2998,828,336.2998,824,340.2998" style="stroke: #A80036; stroke-width: 1.0;"/><line style="stroke: #A80036; stroke-width: 1.5;" x1="1048" x2="1048" y1="245.5576" y2="265.5576"/><polygon fill="#A80036" points="1044,255.5576,1048,265.5576,1052,255.5576,1048,259.5576" style="stroke: #A80036; stroke-width: 1.0;"/><line style="stroke: #A80036; stroke-width: 1.5;" x1="1048" x2="1048" y1="313.4951" y2="346.2998"/><polygon fill="#A80036" points="1044,336.2998,1048,346.2998,1052,336.2998,1048,340.2998" style="stroke: #A80036; stroke-width: 1.0;"/><line style="stroke: #A80036; stroke-width: 1.5;" x1="850.5" x2="1020" y1="233.5576" y2="233.5576"/><polygon fill="#A80036" points="1010,229.5576,1020,233.5576,1010,237.5576,1014,233.5576" style="stroke: #A80036; stroke-width: 1.0;"/><line style="stroke: #A80036; stroke-width: 1.5;" x1="1014.5" x2="1014.5" y1="201.5576" y2="206.5576"/><line style="stroke: #A80036; stroke-width: 1.5;" x1="1014.5" x2="824" y1="206.5576" y2="206.5576"/><line style="stroke: #A80036; stroke-width: 1.5;" x1="824" x2="824" y1="206.5576" y2="221.5576"/><polygon fill="#A80036" points="820,211.5576,824,221.5576,828,211.5576,824,215.5576" style="stroke: #A80036; stroke-width: 1.0;"/><line style="stroke: #A80036; stroke-width: 1.5;" x1="1076" x2="1238.5" y1="233.5576" y2="233.5576"/><line style="stroke: #A80036; stroke-width: 1.5;" x1="1238.5" x2="1238.5" y1="233.5576" y2="274.96"/><polygon fill="#A80036" points="1234.5,264.96,1238.5,274.96,1242.5,264.96,1238.5,268.96" style="stroke: #A80036; stroke-width: 1.0;"/><line style="stroke: #A80036; stroke-width: 1.5;" x1="1238.5" x2="1238.5" y1="322.8975" y2="346.2998"/><polygon fill="#A80036" points="1234.5,336.2998,1238.5,346.2998,1242.5,336.2998,1238.5,340.2998" style="stroke: #A80036; stroke-width: 1.0;"/><line style="stroke: #A80036; stroke-width: 1.5;" x1="824" x2="1238.5" y1="346.2998" y2="346.2998"/><line style="stroke: #A80036; stroke-width: 1.5;" x1="1014.5" x2="1014.5" y1="346.2998" y2="366.2998"/><polygon fill="#A80036" points="1010.5,356.2998,1014.5,366.2998,1018.5,356.2998,1014.5,360.2998" style="stroke: #A80036; stroke-width: 1.0;"/><line style="stroke: #A80036; stroke-width: 1.5;" x1="1462.5" x2="1462.5" y1="740.1123" y2="774.0811"/><polygon fill="#A80036" points="1458.5,764.0811,1462.5,774.0811,1466.5,764.0811,1462.5,768.0811" style="stroke: #A80036; stroke-width: 1.0;"/><line style="stroke: #A80036; stroke-width: 1.5;" x1="1462.5" x2="1462.5" y1="808.0498" y2="842.0186"/><polygon fill="#A80036" points="1458.5,832.0186,1462.5,842.0186,1466.5,832.0186,1462.5,836.0186" style="stroke: #A80036; stroke-width: 1.0;"/><line style="stroke: #A80036; stroke-width: 1.5;" x1="1436" x2="1401.75" y1="921.9561" y2="921.9561"/><line style="stroke: #A80036; stroke-width: 1.5;" x1="1401.75" x2="1401.75" y1="921.9561" y2="943.9561"/><polygon fill="#A80036" points="1397.75,933.9561,1401.75,943.9561,1405.75,933.9561,1401.75,937.9561" style="stroke: #A80036; stroke-width: 1.0;"/><line style="stroke: #A80036; stroke-width: 1.5;" x1="1489" x2="1523.25" y1="921.9561" y2="921.9561"/><line style="stroke: #A80036; stroke-width: 1.5;" x1="1523.25" x2="1523.25" y1="921.9561" y2="943.9561"/><polygon fill="#A80036" points="1519.25,933.9561,1523.25,943.9561,1527.25,933.9561,1523.25,937.9561" style="stroke: #A80036; stroke-width: 1.0;"/><line style="stroke: #A80036; stroke-width: 1.5;" x1="1401.75" x2="1401.75" y1="977.9248" y2="995.9248"/><line style="stroke: #A80036; stroke-width: 1.5;" x1="1401.75" x2="1450.5" y1="995.9248" y2="995.9248"/><polygon fill="#A80036" points="1440.5,991.9248,1450.5,995.9248,1440.5,999.9248,1444.5,995.9248" style="stroke: #A80036; stroke-width: 1.0;"/><line style="stroke: #A80036; stroke-width: 1.5;" x1="1523.25" x2="1523.25" y1="977.9248" y2="995.9248"/><line style="stroke: #A80036; stroke-width: 1.5;" x1="1523.25" x2="1474.5" y1="995.9248" y2="995.9248"/><polygon fill="#A80036" points="1484.5,991.9248,1474.5,995.9248,1484.5,999.9248,1480.5,995.9248" style="stroke: #A80036; stroke-width: 1.0;"/><line style="stroke: #A80036; stroke-width: 1.5;" x1="1462.5" x2="1462.5" y1="889.9561" y2="909.9561"/><polygon fill="#A80036" points="1458.5,899.9561,1462.5,909.9561,1466.5,899.9561,1462.5,903.9561" style="stroke: #A80036; stroke-width: 1.0;"/><line style="stroke: #A80036; stroke-width: 1.5;" x1="1755.25" x2="1755.25" y1="754.0811" y2="788.0498"/><polygon fill="#A80036" points="1751.25,778.0498,1755.25,788.0498,1759.25,778.0498,1755.25,782.0498" style="stroke: #A80036; stroke-width: 1.0;"/><line style="stroke: #A80036; stroke-width: 1.5;" x1="1755.25" x2="1755.25" y1="822.0186" y2="855.9873"/><polygon fill="#A80036" points="1751.25,845.9873,1755.25,855.9873,1759.25,845.9873,1755.25,849.9873" style="stroke: #A80036; stroke-width: 1.0;"/><line style="stroke: #A80036; stroke-width: 1.5;" x1="1702.25" x2="1692.25" y1="921.9561" y2="921.9561"/><line style="stroke: #A80036; stroke-width: 1.5;" x1="1692.25" x2="1692.25" y1="921.9561" y2="943.9561"/><polygon fill="#A80036" points="1688.25,933.9561,1692.25,943.9561,1696.25,933.9561,1692.25,937.9561" style="stroke: #A80036; stroke-width: 1.0;"/><line style="stroke: #A80036; stroke-width: 1.5;" x1="1808.25" x2="1818.25" y1="921.9561" y2="921.9561"/><line style="stroke: #A80036; stroke-width: 1.5;" x1="1818.25" x2="1818.25" y1="921.9561" y2="943.9561"/><polygon fill="#A80036" points="1814.25,933.9561,1818.25,943.9561,1822.25,933.9561,1818.25,937.9561" style="stroke: #A80036; stroke-width: 1.0;"/><line style="stroke: #A80036; stroke-width: 1.5;" x1="1692.25" x2="1692.25" y1="977.9248" y2="995.9248"/><line style="stroke: #A80036; stroke-width: 1.5;" x1="1692.25" x2="1743.25" y1="995.9248" y2="995.9248"/><polygon fill="#A80036" points="1733.25,991.9248,1743.25,995.9248,1733.25,999.9248,1737.25,995.9248" style="stroke: #A80036; stroke-width: 1.0;"/><line style="stroke: #A80036; stroke-width: 1.5;" x1="1818.25" x2="1818.25" y1="977.9248" y2="995.9248"/><line style="stroke: #A80036; stroke-width: 1.5;" x1="1818.25" x2="1767.25" y1="995.9248" y2="995.9248"/><polygon fill="#A80036" points="1777.25,991.9248,1767.25,995.9248,1777.25,999.9248,1773.25,995.9248" style="stroke: #A80036; stroke-width: 1.0;"/><line style="stroke: #A80036; stroke-width: 1.5;" x1="1755.25" x2="1755.25" y1="889.9561" y2="909.9561"/><polygon fill="#A80036" points="1751.25,899.9561,1755.25,909.9561,1759.25,899.9561,1755.25,903.9561" style="stroke: #A80036; stroke-width: 1.0;"/><line style="stroke: #A80036; stroke-width: 1.5;" x1="1582.875" x2="1462.5" y1="684.1436" y2="684.1436"/><line style="stroke: #A80036; stroke-width: 1.5;" x1="1462.5" x2="1462.5" y1="684.1436" y2="706.1436"/><polygon fill="#A80036" points="1458.5,696.1436,1462.5,706.1436,1466.5,696.1436,1462.5,700.1436" style="stroke: #A80036; stroke-width: 1.0;"/><line style="stroke: #A80036; stroke-width: 1.5;" x1="1634.875" x2="1755.25" y1="684.1436" y2="684.1436"/><line style="stroke: #A80036; stroke-width: 1.5;" x1="1755.25" x2="1755.25" y1="684.1436" y2="706.1436"/><polygon fill="#A80036" points="1751.25,696.1436,1755.25,706.1436,1759.25,696.1436,1755.25,700.1436" style="stroke: #A80036; stroke-width: 1.0;"/><line style="stroke: #A80036; stroke-width: 1.5;" x1="1462.5" x2="1462.5" y1="1007.9248" y2="1025.9248"/><line style="stroke: #A80036; stroke-width: 1.5;" x1="1462.5" x2="1596.875" y1="1025.9248" y2="1025.9248"/><polygon fill="#A80036" points="1586.875,1021.9248,1596.875,1025.9248,1586.875,1029.9248,1590.875,1025.9248" style="stroke: #A80036; stroke-width: 1.0;"/><line style="stroke: #A80036; stroke-width: 1.5;" x1="1755.25" x2="1755.25" y1="1007.9248" y2="1025.9248"/><line style="stroke: #A80036; stroke-width: 1.5;" x1="1755.25" x2="1620.875" y1="1025.9248" y2="1025.9248"/><polygon fill="#A80036" points="1630.875,1021.9248,1620.875,1025.9248,1630.875,1029.9248,1626.875,1025.9248" style="stroke: #A80036; stroke-width: 1.0;"/><line style="stroke: #A80036; stroke-width: 1.5;" x1="1608.875" x2="1608.875" y1="652.1436" y2="672.1436"/><polygon fill="#A80036" points="1604.875,662.1436,1608.875,672.1436,1612.875,662.1436,1608.875,666.1436" style="stroke: #A80036; stroke-width: 1.0;"/><line style="stroke: #A80036; stroke-width: 1.5;" x1="361.5" x2="361.5" y1="147.5889" y2="152.5889"/><line style="stroke: #A80036; stroke-width: 1.5;" x1="361.5" x2="1014.5" y1="152.5889" y2="152.5889"/><line style="stroke: #A80036; stroke-width: 1.5;" x1="1014.5" x2="1014.5" y1="152.5889" y2="167.5889"/><polygon fill="#A80036" points="1010.5,157.5889,1014.5,167.5889,1018.5,157.5889,1014.5,161.5889" style="stroke: #A80036; stroke-width: 1.0;"/><line style="stroke: #A80036; stroke-width: 1.5;" x1="1014.5" x2="1014.5" y1="400.2686" y2="405.2686"/><line style="stroke: #A80036; stroke-width: 1.5;" x1="1014.5" x2="361.5" y1="405.2686" y2="405.2686"/><line style="stroke: #A80036; stroke-width: 1.5;" x1="361.5" x2="361.5" y1="405.2686" y2="420.2686"/><polygon fill="#A80036" points="357.5,410.2686,361.5,420.2686,365.5,410.2686,361.5,414.2686" style="stroke: #A80036; stroke-width: 1.0;"/><line style="stroke: #A80036; stroke-width: 1.5;" x1="1608.875" x2="1608.875" y1="1037.9248" y2="1042.9248"/><line style="stroke: #A80036; stroke-width: 1.5;" x1="1608.875" x2="361.5" y1="1042.9248" y2="1042.9248"/><line style="stroke: #A80036; stroke-width: 1.5;" x1="361.5" x2="361.5" y1="1042.9248" y2="1057.9248"/><polygon fill="#A80036" points="357.5,1047.9248,361.5,1057.9248,365.5,1047.9248,361.5,1051.9248" style="stroke: #A80036; stroke-width: 1.0;"/><text fill="#000000" font-family="sans-serif" font-size="18" lengthAdjust="spacingAndGlyphs" textLength="63" x="323.75" y="50.4063">Human</text><text fill="#000000" font-family="sans-serif" font-size="18" lengthAdjust="spacingAndGlyphs" textLength="358" x="835" y="50.4063">Authoring engine (auto, monitor-driven)</text><text fill="#000000" font-family="sans-serif" font-size="18" lengthAdjust="spacingAndGlyphs" textLength="358" x="1489.6406" y="50.4063">Execution engine (auto, monitor-driven)</text><line style="stroke: #000000; stroke-width: 2.0;" x1="10" x2="10" y1="33.6982" y2="1281.8311"/><line style="stroke: #000000; stroke-width: 2.0;" x1="700.5" x2="700.5" y1="33.6982" y2="1281.8311"/><line style="stroke: #000000; stroke-width: 2.0;" x1="1327.5" x2="1327.5" y1="33.6982" y2="1281.8311"/><line style="stroke: #000000; stroke-width: 2.0;" x1="2009.7813" x2="2009.7813" y1="33.6982" y2="1281.8311"/><!--MD5=[575e2ac76669c3e2fe50cba08dc22585]
@startuml epicd-issue-list-activity

skinparam backgroundColor #FFFFFF
skinparam shadowing false
skinparam activity {
  BorderColor #555555
  BackgroundColor #E8F0FE
  DiamondBackgroundColor #FFE0B2
}

title epicd — Human + engine flow across lanes (Activity diagram)

|#C8E6C9|Human|
start
:Capture idea (one-line intent)\nchoose kind: feature / chore / epic;
note right: appears as **Draft** in the\nAuthoring lane (👤 then 🤖)

|#FFF3E0|Authoring engine (auto, monitor-driven)|
:Claim Draft → Refining;
if (kind?) then (feature)
  :feature-to-backlog\nProposal + Plan (2 review cycles);
elseif (chore) then
  :task-to-backlog\nsingle critique → checklist;
else (epic)
  :epic-to-backlog\nplan only (no children);
endif
:Park at **Backlog**;

|#C8E6C9|Human|
:Review item in issue-list\n(Authoring lane, 👤);
if (Promote gate?) then (approve)
  :Promote → **Ready** (execution lane);
else (hold / reject)
  :keep in Backlog / archive;
  stop
endif

|#E1F5FE|Execution engine (auto, monitor-driven)|
:Scan actionable → spawn worker in worktree;
note right: row now shows **🤖 In Progress**
if (role?) then (primitive: feature/chore)
  :Execute (implement / run checklist);
  :engine.complete() → merge/advance;
  :**Adjudicate DoD (ENG-8)**\nengine re-runs DoD;
  if (DoD?) then (pass)
    :→ **Done**;
  else (fail / conflict)
    :→ **Needs Human**;
  endif
else (compound: epic)
  :Decompose → create children\n(role flips primitive→compound);
  :→ **Awaiting Children**;
  :when all children terminal → **Evaluating**;
  if (epic satisfied?) then (yes)
    :→ **Done**;
  else (no)
    :→ **Needs Human**;
  endif
endif

|#C8E6C9|Human|
if (row = Needs Human?) then (yes)
  :Inline **gate-review**\n(approve / reject / escalate);
  note right: gate-inbox is folded\ninto the issue-list row
  if (decision?) then (approve / re-open)
    :→ back to Ready;
    detach
  else (reject)
    :archive;
    stop
  endif
else (Done)
  :done — visible in terminal state\n(hidden by default filter);
  stop
endif

@enduml

PlantUML version 1.2020.02(Sun Mar 01 10:22:07 UTC 2020)
(GPL source distribution)
Java Runtime: OpenJDK Runtime Environment
JVM: OpenJDK 64-Bit Server VM
Java Version: 21.0.11+10-1-22.04.2-Ubuntu
Operating System: Linux
Default Encoding: UTF-8
Language: en
Country: null
--></g></svg>