<?xml version="1.0" encoding="UTF-8" standalone="no"?><svg xmlns="http://www.w3.org/2000/svg" xmlns:xlink="http://www.w3.org/1999/xlink" contentScriptType="application/ecmascript" contentStyleType="text/css" height="1322px" preserveAspectRatio="none" style="width:3003px;height:1322px;" version="1.1" viewBox="0 0 3003 1322" width="3003px" zoomAndPan="magnify"><defs/><g><text fill="#000000" font-family="sans-serif" font-size="18" lengthAdjust="spacingAndGlyphs" textLength="683" x="1163" y="16.708">epicd — Work-item lifecycle (four-axis: phase = state; turn/claim orthogonal)</text><!--MD5=[cac06a74304cb1e6f01c7da96a82e93e]
cluster Authoring--><rect fill="#E8F0FE" height="248" rx="12.5" ry="12.5" style="stroke: #555555; stroke-width: 1.5;" width="523" x="1046.53" y="563.9531"/><rect fill="#FFFFFF" height="215.7031" rx="12.5" ry="12.5" style="stroke: #FFFFFF; stroke-width: 1.0;" width="517" x="1049.53" y="593.25"/><line style="stroke: #555555; stroke-width: 1.5;" x1="1046.53" x2="1569.53" y1="590.25" y2="590.25"/><text fill="#000000" font-family="sans-serif" font-size="14" lengthAdjust="spacingAndGlyphs" textLength="277" x="1169.53" y="580.9482">Authoring lane  (pipeline_id = authoring)</text><!--MD5=[ad3556d57806a2e5e788b507574db12f]
cluster Execution--><rect fill="#E8F0FE" height="523.5" rx="12.5" ry="12.5" style="stroke: #555555; stroke-width: 1.5;" width="638" x="47.53" y="579.4531"/><rect fill="#FFFFFF" height="491.2031" rx="12.5" ry="12.5" style="stroke: #FFFFFF; stroke-width: 1.0;" width="632" x="50.53" y="608.75"/><line style="stroke: #555555; stroke-width: 1.5;" x1="47.53" x2="685.53" y1="605.75" y2="605.75"/><text fill="#000000" font-family="sans-serif" font-size="14" lengthAdjust="spacingAndGlyphs" textLength="280" x="226.53" y="596.4482">Execution lane  (pipeline_id = execution)</text><rect fill="#E8F0FE" height="50" rx="12.5" ry="12.5" style="stroke: #555555; stroke-width: 1.5;" width="76" x="1062.53" y="601.4531"/><line style="stroke: #555555; stroke-width: 1.5;" x1="1062.53" x2="1138.53" y1="627.75" y2="627.75"/><text fill="#000000" font-family="sans-serif" font-size="14" lengthAdjust="spacingAndGlyphs" textLength="56" x="1072.53" y="619.4482">Refining</text><rect fill="#FFE0B2" height="50" rx="12.5" ry="12.5" style="stroke: #555555; stroke-width: 1.5;" width="75" x="1063.03" y="745.9531"/><line style="stroke: #555555; stroke-width: 1.5;" x1="1063.03" x2="1138.03" y1="772.25" y2="772.25"/><text fill="#000000" font-family="sans-serif" font-size="14" lengthAdjust="spacingAndGlyphs" textLength="55" x="1073.03" y="763.9482">Backlog</text><path d="M1173.53,598.9531 L1173.53,622.4531 L1138.54,626.4531 L1173.53,630.4531 L1173.53,654.3516 A0,0 0 0 0 1173.53,654.3516 L1553.53,654.3516 A0,0 0 0 0 1553.53,654.3516 L1553.53,608.9531 L1543.53,598.9531 L1173.53,598.9531 A0,0 0 0 0 1173.53,598.9531 " fill="#FBFB77" style="stroke: #A80036; stroke-width: 1.0;"/><path d="M1543.53,598.9531 L1543.53,608.9531 L1553.53,608.9531 L1543.53,598.9531 " fill="#FBFB77" style="stroke: #A80036; stroke-width: 1.0;"/><text fill="#000000" font-family="sans-serif" font-size="13" lengthAdjust="spacingAndGlyphs" textLength="64" x="1179.53" y="616.02">Routed by</text><text fill="#000000" font-family="sans-serif" font-size="13" font-weight="bold" lengthAdjust="spacingAndGlyphs" textLength="32" x="1247.53" y="616.02">kind</text><text fill="#000000" font-family="sans-serif" font-size="13" lengthAdjust="spacingAndGlyphs" textLength="204" x="1283.53" y="616.02">→ RefineStrategy (pure step fn).</text><text fill="#000000" font-family="sans-serif" font-size="13" lengthAdjust="spacingAndGlyphs" textLength="359" x="1179.53" y="631.1528">Fine cycle progress (review round N) is strategy-internal,</text><text fill="#000000" font-family="sans-serif" font-size="13" lengthAdjust="spacingAndGlyphs" textLength="333" x="1179.53" y="646.2856">surfaced via Coordinator runtime-fact, NOT a phase.</text><polygon fill="#FEFECE" points="362.53,614.4531,374.53,626.4531,362.53,638.4531,350.53,626.4531,362.53,614.4531" style="stroke: #A80036; stroke-width: 1.5;"/><rect fill="#E8F0FE" height="50" rx="12.5" ry="12.5" style="stroke: #555555; stroke-width: 1.5;" width="117" x="107.03" y="745.9531"/><line style="stroke: #555555; stroke-width: 1.5;" x1="107.03" x2="224.03" y1="772.25" y2="772.25"/><text fill="#000000" font-family="sans-serif" font-size="14" lengthAdjust="spacingAndGlyphs" textLength="97" x="117.03" y="763.9482">Decomposing</text><rect fill="#E8F0FE" height="50" rx="12.5" ry="12.5" style="stroke: #555555; stroke-width: 1.5;" width="138" x="63.53" y="892.4531"/><line style="stroke: #555555; stroke-width: 1.5;" x1="63.53" x2="201.53" y1="918.75" y2="918.75"/><text fill="#000000" font-family="sans-serif" font-size="14" lengthAdjust="spacingAndGlyphs" textLength="118" x="73.53" y="910.4482">Awaiting Children</text><rect fill="#E8F0FE" height="50" rx="12.5" ry="12.5" style="stroke: #555555; stroke-width: 1.5;" width="90" x="131.53" y="1036.9531"/><line style="stroke: #555555; stroke-width: 1.5;" x1="131.53" x2="221.53" y1="1063.25" y2="1063.25"/><text fill="#000000" font-family="sans-serif" font-size="14" lengthAdjust="spacingAndGlyphs" textLength="70" x="141.53" y="1054.9482">Evaluating</text><rect fill="#E8F0FE" height="50" rx="12.5" ry="12.5" style="stroke: #555555; stroke-width: 1.5;" width="76" x="324.53" y="745.9531"/><line style="stroke: #555555; stroke-width: 1.5;" x1="324.53" x2="400.53" y1="772.25" y2="772.25"/><text fill="#000000" font-family="sans-serif" font-size="14" lengthAdjust="spacingAndGlyphs" textLength="56" x="334.53" y="763.9482">Working</text><path d="M237.03,889.9531 L237.03,945.3516 L670.03,945.3516 L670.03,899.9531 L660.03,889.9531 L237.03,889.9531 " fill="#FBFB77" style="stroke: #A80036; stroke-width: 1.0;"/><path d="M660.03,889.9531 L660.03,899.9531 L670.03,899.9531 L660.03,889.9531 " fill="#FBFB77" style="stroke: #A80036; stroke-width: 1.0;"/><text fill="#000000" font-family="sans-serif" font-size="13" lengthAdjust="spacingAndGlyphs" textLength="229" x="243.03" y="907.02">claim = live checkout (Coordinator).</text><text fill="#000000" font-family="sans-serif" font-size="13" lengthAdjust="spacingAndGlyphs" textLength="412" x="243.03" y="922.1528">engine.complete() → merge/advance → adjudicate DoD (ENG-8);</text><text fill="#000000" font-family="sans-serif" font-size="13" lengthAdjust="spacingAndGlyphs" textLength="220" x="243.03" y="937.2856">worker may NOT self-write `done`.</text><ellipse cx="1100.53" cy="183.9531" fill="#000000" rx="10" ry="10" style="stroke: none; stroke-width: 1.0;"/><rect fill="#E8F0FE" height="50" rx="12.5" ry="12.5" style="stroke: #555555; stroke-width: 1.5;" width="53" x="1074.03" y="433.4531"/><line style="stroke: #555555; stroke-width: 1.5;" x1="1074.03" x2="1127.03" y1="459.75" y2="459.75"/><text fill="#000000" font-family="sans-serif" font-size="14" lengthAdjust="spacingAndGlyphs" textLength="33" x="1084.03" y="451.4482">Draft</text><rect fill="#E8F0FE" height="52.5938" rx="12.5" ry="12.5" style="stroke: #555555; stroke-width: 1.5;" width="225" x="705.03" y="890.9531"/><line style="stroke: #555555; stroke-width: 1.5;" x1="705.03" x2="930.03" y1="933.5469" y2="933.5469"/><text fill="#000000" font-family="sans-serif" font-size="14" lengthAdjust="spacingAndGlyphs" textLength="68" x="783.53" y="908.9482">Executing</text><text fill="#000000" font-family="sans-serif" font-size="14" lengthAdjust="spacingAndGlyphs" textLength="205" x="715.03" y="925.2451">(ready+in-progress MERGED)</text><rect fill="#E0E0E0" height="50" rx="12.5" ry="12.5" style="stroke: #555555; stroke-width: 1.5;" width="58" x="10.53" y="1180.9531"/><line style="stroke: #555555; stroke-width: 1.5;" x1="10.53" x2="68.53" y1="1207.25" y2="1207.25"/><text fill="#000000" font-family="sans-serif" font-size="14" lengthAdjust="spacingAndGlyphs" textLength="38" x="20.53" y="1198.9482">Done</text><ellipse cx="39.53" cy="1301.9531" fill="none" rx="10" ry="10" style="stroke: #000000; stroke-width: 1.0;"/><ellipse cx="40.03" cy="1302.4531" fill="#000000" rx="6" ry="6" style="stroke: none; stroke-width: 1.0;"/><path d="M1232.03,430.9531 L1232.03,486.3516 A0,0 0 0 0 1232.03,486.3516 L1823.03,486.3516 A0,0 0 0 0 1823.03,486.3516 L1823.03,440.9531 L1813.03,430.9531 L1531.53,430.9531 L1527.53,339.1231 L1523.53,430.9531 L1232.03,430.9531 A0,0 0 0 0 1232.03,430.9531 " fill="#FBFB77" style="stroke: #A80036; stroke-width: 1.0;"/><path d="M1813.03,430.9531 L1813.03,440.9531 L1823.03,440.9531 L1813.03,430.9531 " fill="#FBFB77" style="stroke: #A80036; stroke-width: 1.0;"/><text fill="#000000" font-family="sans-serif" font-size="13" font-weight="bold" lengthAdjust="spacingAndGlyphs" textLength="298" x="1238.03" y="448.02">needs-human IS a phase (actor=human)</text><text fill="#000000" font-family="sans-serif" font-size="13" lengthAdjust="spacingAndGlyphs" textLength="268" x="1540.03" y="448.02">— not a stored turn. The 4 "human" cases</text><text fill="#000000" font-family="sans-serif" font-size="13" lengthAdjust="spacingAndGlyphs" textLength="511" x="1238.03" y="463.1528">(promote-gate / gate-review / DoD-fail / epic-escalate) are human-actor phases.</text><text fill="#000000" font-family="sans-serif" font-size="13" lengthAdjust="spacingAndGlyphs" textLength="356" x="1238.03" y="478.2856">monitor picks up ONLY phases whose actor==machine.</text><path d="M1944.53,125.9531 L1944.53,241.8828 L2454.53,241.8828 L2454.53,135.9531 L2444.53,125.9531 L1944.53,125.9531 " fill="#FBFB77" style="stroke: #A80036; stroke-width: 1.0;"/><path d="M2444.53,125.9531 L2444.53,135.9531 L2454.53,135.9531 L2444.53,125.9531 " fill="#FBFB77" style="stroke: #A80036; stroke-width: 1.0;"/><text fill="#000000" font-family="sans-serif" font-size="13" font-weight="bold" lengthAdjust="spacingAndGlyphs" textLength="489" x="1950.53" y="143.02">CLAIM (runtime, Coordinator) — the 4th axis, not drawn as states:</text><text fill="#000000" font-family="sans-serif" font-size="13" lengthAdjust="spacingAndGlyphs" textLength="288" x="1950.53" y="158.1528">waiting_on=machine ∧ live claim  ⇒ &#129302; active</text><text fill="#000000" font-family="sans-serif" font-size="13" lengthAdjust="spacingAndGlyphs" textLength="441" x="1950.53" y="173.2856">waiting_on=machine ∧ no claim     ⇒ ⏳ queued (scanner will pick up)</text><text fill="#000000" font-family="sans-serif" font-size="13" lengthAdjust="spacingAndGlyphs" textLength="413" x="1950.53" y="188.4185">waiting_on=machine ∧ claim stale  ⇒ ⚠️ orphaned (was crashed)</text><text fill="#000000" font-family="sans-serif" font-size="13" lengthAdjust="spacingAndGlyphs" textLength="289" x="1950.53" y="203.5513">waiting_on=human                   ⇒ &#128100; your turn</text><text fill="#000000" font-family="sans-serif" font-size="13" lengthAdjust="spacingAndGlyphs" textLength="432" x="1950.53" y="218.6841">Claim (durable+timestamped) IS the checkout record — that is why</text><text fill="#000000" font-family="sans-serif" font-size="13" lengthAdjust="spacingAndGlyphs" textLength="364" x="1950.53" y="233.8169">`ready` and `in-progress` need not be separate phases.</text><path d="M2490.03,156.4531 L2490.03,211.8516 L2991.03,211.8516 L2991.03,166.4531 L2981.03,156.4531 L2490.03,156.4531 " fill="#FBFB77" style="stroke: #A80036; stroke-width: 1.0;"/><path d="M2981.03,156.4531 L2981.03,166.4531 L2991.03,166.4531 L2981.03,156.4531 " fill="#FBFB77" style="stroke: #A80036; stroke-width: 1.0;"/><text fill="#000000" font-family="sans-serif" font-size="13" font-weight="bold" lengthAdjust="spacingAndGlyphs" textLength="28" x="2496.03" y="173.52">role</text><text fill="#000000" font-family="sans-serif" font-size="13" lengthAdjust="spacingAndGlyphs" textLength="390" x="2528.03" y="173.52">DERIVED from tree (ADR-011 D-1.1): leaf ⇒ primitive (Basic) ·</text><text fill="#000000" font-family="sans-serif" font-size="13" lengthAdjust="spacingAndGlyphs" textLength="480" x="2496.03" y="188.6528">has children ⇒ compound (Epic). Decomposing FLIPS primitive→compound.</text><text fill="#000000" font-family="sans-serif" font-size="13" lengthAdjust="spacingAndGlyphs" textLength="454" x="2496.03" y="203.7856">role is the TYPE axis — orthogonal to lane(pipeline_id), phase, and turn.</text><rect fill="#E8F0FE" height="310.2969" rx="12.5" ry="12.5" style="stroke: #555555; stroke-width: 1.5;" width="763" x="1146.03" y="28.9531"/><rect fill="#FFFFFF" height="278" rx="12.5" ry="12.5" style="stroke: #FFFFFF; stroke-width: 1.0;" width="757" x="1149.03" y="58.25"/><line style="stroke: #555555; stroke-width: 1.5;" x1="1146.03" x2="1909.03" y1="55.25" y2="55.25"/><text fill="#000000" font-family="sans-serif" font-size="14" lengthAdjust="spacingAndGlyphs" textLength="530" x="1262.53" y="46.9482">actor(phase) — from pipeline-data (turn is NOT stored; determined by phase)</text><rect fill="#E8F0FE" height="50" rx="12.5" ry="12.5" style="stroke: #555555; stroke-width: 1.5;" width="79" x="1388.32" y="68.25"/><line style="stroke: #555555; stroke-width: 1.5;" x1="1388.32" x2="1467.32" y1="94.5469" y2="94.5469"/><text fill="#000000" font-family="sans-serif" font-size="14" lengthAdjust="spacingAndGlyphs" textLength="59" x="1398.32" y="86.2451">machine</text><rect fill="#E8F0FE" height="50" rx="12.5" ry="12.5" style="stroke: #555555; stroke-width: 1.5;" width="68" x="1393.82" y="171.25"/><line style="stroke: #555555; stroke-width: 1.5;" x1="1393.82" x2="1461.82" y1="197.5469" y2="197.5469"/><text fill="#000000" font-family="sans-serif" font-size="14" lengthAdjust="spacingAndGlyphs" textLength="48" x="1403.82" y="189.2451">human</text><rect fill="#E0E0E0" height="50" rx="12.5" ry="12.5" style="stroke: #555555; stroke-width: 1.5;" width="56" x="1579.82" y="274.25"/><line style="stroke: #555555; stroke-width: 1.5;" x1="1579.82" x2="1635.82" y1="300.5469" y2="300.5469"/><text fill="#000000" font-family="sans-serif" font-size="14" lengthAdjust="spacingAndGlyphs" textLength="36" x="1589.82" y="292.2451">none</text><ellipse cx="1359.82" cy="93.25" fill="#000000" rx="10" ry="10" style="stroke: none; stroke-width: 1.0;"/><!--MD5=[17872367a47679791efde709d65f4d49]
link *start*Turn to T_m--><path d="M1369.91,93.25 C1374.25,93.25 1378.58,93.25 1382.92,93.25 " fill="none" id="*start*Turn-&gt;T_m" style="stroke: #A80036; stroke-width: 1.0;"/><polygon fill="#A80036" points="1388.01,93.25,1379.01,89.25,1383.01,93.25,1379.01,97.25,1388.01,93.25" style="stroke: #A80036; stroke-width: 1.0;"/><!--MD5=[dc8832e9e5969e825467f95b705394d1]
link T_m to T_h--><path d="M1388.18,115.16 C1385.07,116.34 1381.92,117.39 1378.82,118.25 C1355.39,124.71 1177.28,118.37 1160.82,136.25 C1155.7,141.81 1155.91,147.51 1160.82,153.25 C1189.64,186.97 1321.53,193.79 1388.52,195.05 " fill="none" id="T_m-&gt;T_h" style="stroke: #A80036; stroke-width: 1.0;"/><polygon fill="#A80036" points="1393.62,195.14,1384.6899,190.9863,1388.6207,195.0543,1384.5528,198.9851,1393.62,195.14" style="stroke: #A80036; stroke-width: 1.0;"/><text fill="#000000" font-family="sans-serif" font-size="13" lengthAdjust="spacingAndGlyphs" textLength="243" x="1161.82" y="149.3169">gate reached / DoD fail / epic escalate</text><!--MD5=[d8a5f2a537964a4aa503489760e50a2e]
link T_h to T_m--><path d="M1427.82,170.91 C1427.82,156.74 1427.82,138.78 1427.82,123.81 " fill="none" id="T_h-&gt;T_m" style="stroke: #A80036; stroke-width: 1.0;"/><polygon fill="#A80036" points="1427.82,118.44,1423.82,127.44,1427.82,123.44,1431.82,127.44,1427.82,118.44" style="stroke: #A80036; stroke-width: 1.0;"/><text fill="#000000" font-family="sans-serif" font-size="13" lengthAdjust="spacingAndGlyphs" textLength="343" x="1428.82" y="149.3169">Human approves / re-opens (promote or gate-review)</text><!--MD5=[0a825b11bf8ee840266cda6894ba95ed]
link T_m to T_n--><path d="M1467.36,96.15 C1553.86,100.71 1753.75,113.6 1773.82,136.25 C1825.87,195 1702.42,258.2 1640.54,285.02 " fill="none" id="T_m-&gt;T_n" style="stroke: #A80036; stroke-width: 1.0;"/><polygon fill="#A80036" points="1635.84,287.04,1645.6881,287.1602,1640.4335,285.0652,1642.5285,279.8106,1635.84,287.04" style="stroke: #A80036; stroke-width: 1.0;"/><text fill="#000000" font-family="sans-serif" font-size="13" lengthAdjust="spacingAndGlyphs" textLength="89" x="1785.82" y="200.8169">reaches Done</text><!--MD5=[29d6f478dcae3b72ddb75c665c8c2549]
link T_h to T_n--><path d="M1462.1,216.49 C1494.57,234.71 1542.99,261.88 1574.98,279.83 " fill="none" id="T_h-&gt;T_n" style="stroke: #A80036; stroke-width: 1.0;"/><polygon fill="#A80036" points="1579.58,282.41,1573.6858,274.5196,1575.2187,279.9648,1569.7735,281.4977,1579.58,282.41" style="stroke: #A80036; stroke-width: 1.0;"/><text fill="#000000" font-family="sans-serif" font-size="13" lengthAdjust="spacingAndGlyphs" textLength="159" x="1528.82" y="252.3169">Human rejects → archive</text><!--MD5=[c437118b2706405049936a1b53a98f1f]
link *start to Draft--><path d="M1100.53,194.0231 C1100.53,230.4131 1100.53,366.8631 1100.53,427.7731 " fill="none" id="*start-&gt;Draft" style="stroke: #A80036; stroke-width: 1.0;"/><polygon fill="#A80036" points="1100.53,433.0731,1104.53,424.0731,1100.53,428.0731,1096.53,424.0731,1100.53,433.0731" style="stroke: #A80036; stroke-width: 1.0;"/><text fill="#000000" font-family="sans-serif" font-size="13" lengthAdjust="spacingAndGlyphs" textLength="107" x="1198.53" y="382.02">Human captures</text><text fill="#000000" font-family="sans-serif" font-size="13" lengthAdjust="spacingAndGlyphs" textLength="301" x="1101.53" y="397.1528">(kind:feature/chore/epic ; waiting_on=machine)</text><!--MD5=[0a39d40658147ff76e67d9421d7d1d17]
link Draft to Refining--><path d="M1100.53,483.5931 C1100.53,513.3431 1100.53,563.8831 1100.53,595.9231 " fill="none" id="Draft-&gt;Refining" style="stroke: #A80036; stroke-width: 1.0;"/><polygon fill="#A80036" points="1100.53,601.2831,1104.53,592.2831,1100.53,596.2831,1096.53,592.2831,1100.53,601.2831" style="stroke: #A80036; stroke-width: 1.0;"/><text fill="#000000" font-family="sans-serif" font-size="13" lengthAdjust="spacingAndGlyphs" textLength="96" x="1129.03" y="529.02">scanner claims</text><text fill="#000000" font-family="sans-serif" font-size="13" lengthAdjust="spacingAndGlyphs" textLength="151" x="1101.53" y="544.1528">(basic-draft / epic-draft)</text><!--MD5=[e5015f88a935c1e17a80551faed46906]
link Refining to Backlog--><path d="M1100.53,651.6231 C1100.53,676.1931 1100.53,714.2731 1100.53,740.5631 " fill="none" id="Refining-&gt;Backlog" style="stroke: #A80036; stroke-width: 1.0;"/><polygon fill="#A80036" points="1100.53,745.6631,1104.53,736.6631,1100.53,740.6631,1096.53,736.6631,1100.53,745.6631" style="stroke: #A80036; stroke-width: 1.0;"/><text fill="#000000" font-family="sans-serif" font-size="13" lengthAdjust="spacingAndGlyphs" textLength="87" x="1158.53" y="697.02">refine done →</text><text fill="#000000" font-family="sans-serif" font-size="13" font-weight="bold" lengthAdjust="spacingAndGlyphs" textLength="145" x="1249.53" y="697.02">waiting_on:=human</text><text fill="#000000" font-family="sans-serif" font-size="13" lengthAdjust="spacingAndGlyphs" textLength="350" x="1101.53" y="712.1528">(feature→Proposal+Plan / chore→checklist / epic→plan)</text><!--MD5=[ae7e90175229134f4236ff4e08412b89]
link Backlog to Executing--><path d="M1070.73,796.0931 C1059.98,804.2131 1047.54,812.9731 1035.53,819.9531 C989.09,846.9431 933.72,871.3631 890.4,888.8831 " fill="none" id="Backlog-&gt;Executing" style="stroke: #A80036; stroke-width: 1.0;"/><polygon fill="#A80036" points="885.71,890.7731,895.5528,891.1184,890.3474,888.9039,892.562,883.6985,885.71,890.7731" style="stroke: #A80036; stroke-width: 1.0;"/><text fill="#000000" font-family="sans-serif" font-size="13" font-weight="bold" lengthAdjust="spacingAndGlyphs" textLength="159" x="1086.53" y="841.02">Human promote gate</text><text fill="#000000" font-family="sans-serif" font-size="13" lengthAdjust="spacingAndGlyphs" textLength="293" x="1019.53" y="856.1528">(waiting_on:=machine ; authoring→execution)</text><!--MD5=[455fbb6faf4968163203d25c44915c2c]
link Executing to chooseRole--><path d="M804.27,890.8831 C794.22,872.5531 779.46,847.7131 763.53,827.9531 C705.33,755.7531 694.27,727.7531 612.53,683.9531 C531.83,640.7031 419.35,630.4731 378.31,628.1331 " fill="none" id="Executing-&gt;chooseRole" style="stroke: #A80036; stroke-width: 1.0;"/><polygon fill="#A80036" points="373.23,627.8631,382.0127,632.3201,378.2234,628.1199,382.4236,624.3307,373.23,627.8631" style="stroke: #A80036; stroke-width: 1.0;"/><text fill="#000000" font-family="sans-serif" font-size="13" lengthAdjust="spacingAndGlyphs" textLength="51" x="851.03" y="768.02">scanner</text><text fill="#000000" font-family="sans-serif" font-size="13" lengthAdjust="spacingAndGlyphs" textLength="240" x="756.53" y="783.1528">(waiting_on=machine ∧ no live claim)</text><!--MD5=[62584c1dca7dfb277317c382166a542c]
link chooseRole to Working--><path d="M362.53,638.6331 C362.53,660.3431 362.53,708.8331 362.53,740.4231 " fill="none" id="chooseRole-&gt;Working" style="stroke: #A80036; stroke-width: 1.0;"/><polygon fill="#A80036" points="362.53,745.7331,366.53,736.7331,362.53,740.7331,358.53,736.7331,362.53,745.7331" style="stroke: #A80036; stroke-width: 1.0;"/><text fill="#000000" font-family="sans-serif" font-size="13" lengthAdjust="spacingAndGlyphs" textLength="146" x="410.53" y="697.02">role = primitive (Basic)</text><text fill="#000000" font-family="sans-serif" font-size="13" lengthAdjust="spacingAndGlyphs" textLength="240" x="363.53" y="712.1528">feature→implement / chore→checklist</text><!--MD5=[b4a88f05511dba2276d3f3e7acf0d4e5]
link chooseRole to Decomposing--><path d="M352,628.2431 C323.88,630.9131 246.15,641.8931 201.53,683.9531 C185.6,698.9731 176.45,722.1331 171.37,740.6431 " fill="none" id="chooseRole-&gt;Decomposing" style="stroke: #A80036; stroke-width: 1.0;"/><polygon fill="#A80036" points="170.04,745.7231,176.173,738.0169,171.2963,740.8835,168.4297,736.0068,170.04,745.7231" style="stroke: #A80036; stroke-width: 1.0;"/><text fill="#000000" font-family="sans-serif" font-size="13" lengthAdjust="spacingAndGlyphs" textLength="151" x="202.53" y="704.52">role = compound (Epic)</text><!--MD5=[eb37f2d85ac20581f43851849516dd04]
link Decomposing to Awaiting--><path d="M160.01,796.1431 C154.3,821.1431 145.38,860.2131 139.26,887.0031 " fill="none" id="Decomposing-&gt;Awaiting" style="stroke: #A80036; stroke-width: 1.0;"/><polygon fill="#A80036" points="138.07,892.1931,143.9761,884.3116,139.1849,887.319,136.1775,882.5278,138.07,892.1931" style="stroke: #A80036; stroke-width: 1.0;"/><text fill="#000000" font-family="sans-serif" font-size="13" lengthAdjust="spacingAndGlyphs" textLength="102" x="174.53" y="841.02">creates children</text><text fill="#000000" font-family="sans-serif" font-size="13" lengthAdjust="spacingAndGlyphs" textLength="144" x="153.53" y="856.1528">(role stays compound)</text><!--MD5=[2fc301815b6941a8343d8919b7a860c3]
link Awaiting to Evaluating--><path d="M140,942.6231 C147.58,967.1931 159.34,1005.2731 167.46,1031.5631 " fill="none" id="Awaiting-&gt;Evaluating" style="stroke: #A80036; stroke-width: 1.0;"/><polygon fill="#A80036" points="169.03,1036.6631,170.1817,1026.8818,167.5476,1031.8879,162.5415,1029.2538,169.03,1036.6631" style="stroke: #A80036; stroke-width: 1.0;"/><text fill="#000000" font-family="sans-serif" font-size="13" lengthAdjust="spacingAndGlyphs" textLength="125" x="161.53" y="988.02">all children terminal</text><text fill="#000000" font-family="sans-serif" font-size="13" lengthAdjust="spacingAndGlyphs" textLength="96" x="176.03" y="1003.1528">(epic-eval-due)</text><!--MD5=[ddca0a1d68efcfa6f1b7e3278d814982]
link Working to GMN26--><path d="M358.33,796.0131 C356.31,814.7031 356.37,840.6031 367.53,859.9531 C374.4,871.8731 384.92,881.7331 396.27,889.6931 " fill="none" id="Working-GMN26" style="stroke: #A80036; stroke-width: 1.0; stroke-dasharray: 7.0,7.0;"/><!--MD5=[f2e85468ca0378651dbc42b709276acd]
link Working to Done--><path d="M324.52,790.4531 C301.15,800.9531 270.26,813.3031 241.53,819.9531 C196.8,830.3131 181.93,812.9531 138.53,827.9531 C91.58,844.1831 75.62,850.4231 45.53,889.9531 C-19.55,975.4731 11.73,1115.2731 29.8,1175.6531 " fill="none" id="Working-&gt;Done" style="stroke: #A80036; stroke-width: 1.0;"/><polygon fill="#A80036" points="31.29,1180.5531,32.4951,1170.7783,29.8336,1175.7699,24.842,1173.1085,31.29,1180.5531" style="stroke: #A80036; stroke-width: 1.0;"/><text fill="#000000" font-family="sans-serif" font-size="13" lengthAdjust="spacingAndGlyphs" textLength="62" x="42.53" y="988.02">DoD pass</text><text fill="#000000" font-family="sans-serif" font-size="13" lengthAdjust="spacingAndGlyphs" textLength="124" x="11.53" y="1003.1528">(waiting_on:=none)</text><!--MD5=[5996a57a1b259e9cc4e65fa37ad88919]
link Working to Executing--><path d="M366.16,796.3031 C370.58,816.7531 380.15,844.9731 400.53,859.9531 C451.84,897.6831 622.58,880.3431 685.53,889.9531 C690.2,890.6631 694.95,891.4331 699.74,892.2331 " fill="none" id="Working-&gt;Executing" style="stroke: #A80036; stroke-width: 1.0;"/><polygon fill="#A80036" points="704.96,893.1231,696.7631,887.6633,700.0315,892.2803,695.4145,895.5488,704.96,893.1231" style="stroke: #A80036; stroke-width: 1.0;"/><text fill="#000000" font-family="sans-serif" font-size="13" lengthAdjust="spacingAndGlyphs" textLength="65" x="473.03" y="841.02">DoD fail →</text><text fill="#000000" font-family="sans-serif" font-size="13" font-weight="bold" lengthAdjust="spacingAndGlyphs" textLength="145" x="542.03" y="841.02">waiting_on:=human</text><text fill="#000000" font-family="sans-serif" font-size="13" lengthAdjust="spacingAndGlyphs" textLength="357" x="401.53" y="856.1528">(stays this phase; human decides — see turn fragment)</text><!--MD5=[b4504c4da29de42d68fc545d0c749f2f]
link Evaluating to Done--><path d="M153.29,1087.0431 C129.28,1111.9331 91.84,1150.7331 66.53,1176.9731 " fill="none" id="Evaluating-&gt;Done" style="stroke: #A80036; stroke-width: 1.0;"/><polygon fill="#A80036" points="62.89,1180.7431,72.0166,1177.0411,66.3607,1177.1439,66.2578,1171.488,62.89,1180.7431" style="stroke: #A80036; stroke-width: 1.0;"/><text fill="#000000" font-family="sans-serif" font-size="13" lengthAdjust="spacingAndGlyphs" textLength="83" x="142.03" y="1132.02">epic satisfied</text><text fill="#000000" font-family="sans-serif" font-size="13" lengthAdjust="spacingAndGlyphs" textLength="124" x="121.53" y="1147.1528">(waiting_on:=none)</text><!--MD5=[92c8f390c76655dfd9a4565c935faa90]
link Evaluating to Executing--><path d="M221.8,1050.8931 C320.14,1029.0231 556.01,976.5931 699.71,944.6431 " fill="none" id="Evaluating-&gt;Executing" style="stroke: #A80036; stroke-width: 1.0;"/><polygon fill="#A80036" points="704.78,943.5231,695.1266,941.5708,699.8991,944.6078,696.862,949.3802,704.78,943.5231" style="stroke: #A80036; stroke-width: 1.0;"/><text fill="#000000" font-family="sans-serif" font-size="13" lengthAdjust="spacingAndGlyphs" textLength="99" x="554.53" y="995.52">epic escalate →</text><text fill="#000000" font-family="sans-serif" font-size="13" font-weight="bold" lengthAdjust="spacingAndGlyphs" textLength="145" x="657.53" y="995.52">waiting_on:=human</text><!--MD5=[a42de63a786df81771bbb4e49d521c78]
link Done to *end--><path d="M39.53,1231.1631 C39.53,1248.7931 39.53,1272.0831 39.53,1286.7931 " fill="none" id="Done-&gt;*end" style="stroke: #A80036; stroke-width: 1.0;"/><polygon fill="#A80036" points="39.53,1291.7931,43.53,1282.7931,39.53,1286.7931,35.53,1282.7931,39.53,1291.7931" style="stroke: #A80036; stroke-width: 1.0;"/><!--MD5=[3ef96435f2e796f5453df57cadc946fb]
@startuml epicd-workitem-state

skinparam backgroundColor #FFFFFF
skinparam shadowing false
skinparam state {
  BorderColor #555555
  BackgroundColor #E8F0FE
  BackgroundColor<<gate>> #FFE0B2
  BackgroundColor<<terminal>> #E0E0E0
}

title epicd — Work-item lifecycle (four-axis: phase = state; turn/claim orthogonal)

[*] - -> Draft : Human captures\n(kind:feature/chore/epic ; waiting_on=machine)

state "Authoring lane  (pipeline_id = authoring)" as Authoring {
  state Draft
  state Refining
  state Backlog <<gate>>
  Draft - -> Refining : scanner claims\n(basic-draft / epic-draft)
  Refining - -> Backlog : refine done → **waiting_on:=human**\n(feature→Proposal+Plan / chore→checklist / epic→plan)
  note right of Refining
    Routed by **kind** → RefineStrategy (pure step fn).
    Fine cycle progress (review round N) is strategy-internal,
    surfaced via Coordinator runtime-fact, NOT a phase.
  end note
}

Backlog - -> Executing : **Human promote gate**\n(waiting_on:=machine ; authoring→execution)

state "Execution lane  (pipeline_id = execution)" as Execution {
  state chooseRole <<choice>>
  state "Executing\n(ready+in-progress MERGED)" as Executing
  state Decomposing
  state "Awaiting Children" as Awaiting
  state Evaluating

  Executing - -> chooseRole : scanner\n(waiting_on=machine ∧ no live claim)
  chooseRole - -> Working : role = primitive (Basic)\nfeature→implement / chore→checklist
  chooseRole - -> Decomposing : role = compound (Epic)
  state Working
  Decomposing - -> Awaiting : creates children\n(role stays compound)
  Awaiting - -> Evaluating : all children terminal\n(epic-eval-due)
  note bottom of Working
    claim = live checkout (Coordinator).
    engine.complete() → merge/advance → adjudicate DoD (ENG-8);
    worker may NOT self-write `done`.
  end note
}

state "Done" as Done <<terminal>>

Working - -> Done : DoD pass\n(waiting_on:=none)
Working - -> Executing : DoD fail → **waiting_on:=human**\n(stays this phase; human decides — see turn fragment)
Evaluating - -> Done : epic satisfied\n(waiting_on:=none)
Evaluating - -> Executing : epic escalate → **waiting_on:=human**
Done - -> [*]

state "actor(phase) — from pipeline-data (turn is NOT stored; determined by phase)" as Turn {
  state "machine" as T_m
  state "human" as T_h
  state "none" as T_n <<terminal>>
  [*] -> T_m
  T_m - -> T_h : gate reached / DoD fail / epic escalate
  T_h - -> T_m : Human approves / re-opens (promote or gate-review)
  T_m - -> T_n : reaches Done
  T_h - -> T_n : Human rejects → archive
}

note bottom of Turn
  **needs-human IS a phase (actor=human)** — not a stored turn. The 4 "human" cases
  (promote-gate / gate-review / DoD-fail / epic-escalate) are human-actor phases.
  monitor picks up ONLY phases whose actor==machine.
end note

note as N_claim
  **CLAIM (runtime, Coordinator) — the 4th axis, not drawn as states:**
  waiting_on=machine ∧ live claim  ⇒ 🤖 active
  waiting_on=machine ∧ no claim     ⇒ ⏳ queued (scanner will pick up)
  waiting_on=machine ∧ claim stale  ⇒ ⚠️ orphaned (was crashed)
  waiting_on=human                   ⇒ 👤 your turn
  Claim (durable+timestamped) IS the checkout record — that is why
  `ready` and `in-progress` need not be separate phases.
end note

note as N_role
  **role** DERIVED from tree (ADR-011 D-1.1): leaf ⇒ primitive (Basic) ·
  has children ⇒ compound (Epic). Decomposing FLIPS primitive→compound.
  role is the TYPE axis — orthogonal to lane(pipeline_id), phase, and turn.
end note

@enduml

PlantUML version 1.2020.02(Sun Mar 01 10:22:07 UTC 2020)
(GPL source distribution)
Java Runtime: OpenJDK Runtime Environment
JVM: OpenJDK 64-Bit Server VM
Java Version: 21.0.11+10-1-22.04.2-Ubuntu
Operating System: Linux
Default Encoding: UTF-8
Language: en
Country: null
--></g></svg>