<?xml version="1.0" encoding="UTF-8" standalone="no"?><svg xmlns="http://www.w3.org/2000/svg" xmlns:xlink="http://www.w3.org/1999/xlink" contentScriptType="application/ecmascript" contentStyleType="text/css" height="1296px" preserveAspectRatio="none" style="width:2124px;height:1296px;" version="1.1" viewBox="0 0 2124 1296" width="2124px" zoomAndPan="magnify"><defs/><g><text fill="#000000" font-family="sans-serif" font-size="18" lengthAdjust="spacingAndGlyphs" textLength="547" x="787.8906" y="26.708">epicd — Human + engine flow across lanes (Activity diagram)</text><rect fill="#C8E6C9" height="1251.2813" style="stroke: #C8E6C9; stroke-width: 1.0;" width="690.5" x="10" y="33.6982"/><ellipse cx="361.5" cy="69.6514" fill="#000000" rx="10" ry="10" style="stroke: none; stroke-width: 1.0;"/><path d="M499.5,103.4873 L499.5,119.6201 L479.5,123.6201 L499.5,127.6201 L499.5,143.7529 A0,0 0 0 0 499.5,143.7529 L690.5,143.7529 A0,0 0 0 0 690.5,143.7529 L690.5,113.4873 L680.5,103.4873 L499.5,103.4873 A0,0 0 0 0 499.5,103.4873 " fill="#FBFB77" style="stroke: #A80036; stroke-width: 1.0;"/><path d="M680.5,103.4873 L680.5,113.4873 L690.5,113.4873 L680.5,103.4873 " fill="#FBFB77" style="stroke: #A80036; stroke-width: 1.0;"/><text fill="#000000" font-family="sans-serif" font-size="13" lengthAdjust="spacingAndGlyphs" textLength="71" x="505.5" y="120.5542">appears as</text><text fill="#000000" font-family="sans-serif" font-size="13" font-weight="bold" lengthAdjust="spacingAndGlyphs" textLength="38" x="580.5" y="120.5542">Draft</text><text fill="#000000" font-family="sans-serif" font-size="13" lengthAdjust="spacingAndGlyphs" textLength="36" x="622.5" y="120.5542">in the</text><text fill="#000000" font-family="sans-serif" font-size="13" lengthAdjust="spacingAndGlyphs" textLength="170" x="505.5" y="135.687">Authoring lane (&#128100; then &#129302;)</text><rect fill="#E8F0FE" height="47.9375" rx="12.5" ry="12.5" style="stroke: #555555; stroke-width: 1.5;" width="236" x="243.5" y="99.6514"/><text fill="#000000" font-family="sans-serif" font-size="12" lengthAdjust="spacingAndGlyphs" textLength="186" x="253.5" y="120.79">Capture idea (one-line intent)</text><text fill="#000000" font-family="sans-serif" font-size="12" lengthAdjust="spacingAndGlyphs" textLength="216" x="253.5" y="134.7588">choose kind: feature / chore / epic</text><rect fill="#E8F0FE" height="47.9375" rx="12.5" ry="12.5" style="stroke: #555555; stroke-width: 1.5;" width="167" x="278" y="420.2686"/><text fill="#000000" font-family="sans-serif" font-size="12" lengthAdjust="spacingAndGlyphs" textLength="147" x="288" y="441.4072">Review item in issue-list</text><text fill="#000000" font-family="sans-serif" font-size="12" lengthAdjust="spacingAndGlyphs" textLength="122" x="288" y="455.376">(Authoring lane, &#128100;)</text><polygon fill="#FFE0B2" points="320,488.2061,403,488.2061,415,500.2061,403,512.2061,320,512.2061,308,500.2061,320,488.2061" style="stroke: #A80036; stroke-width: 1.5;"/><text fill="#000000" font-family="sans-serif" font-size="11" lengthAdjust="spacingAndGlyphs" textLength="83" x="320" y="504.0142">Promote gate?</text><text fill="#000000" font-family="sans-serif" font-size="11" lengthAdjust="spacingAndGlyphs" textLength="46" x="262" y="497.6118">approve</text><text fill="#000000" font-family="sans-serif" font-size="11" lengthAdjust="spacingAndGlyphs" textLength="68" x="415" y="497.6118">hold / reject</text><rect fill="#E8F0FE" height="33.9688" rx="12.5" ry="12.5" style="stroke: #555555; stroke-width: 1.5;" width="241" x="126.75" y="522.2061"/><text fill="#000000" font-family="sans-serif" font-size="12" lengthAdjust="spacingAndGlyphs" textLength="67" x="136.75" y="543.3447">Promote →</text><text fill="#000000" font-family="sans-serif" font-size="12" font-weight="bold" lengthAdjust="spacingAndGlyphs" textLength="44" x="207.75" y="543.3447">Ready</text><text fill="#000000" font-family="sans-serif" font-size="12" lengthAdjust="spacingAndGlyphs" textLength="102" x="255.75" y="543.3447">(execution lane)</text><rect fill="#E8F0FE" height="33.9688" rx="12.5" ry="12.5" style="stroke: #555555; stroke-width: 1.5;" width="176" x="387.75" y="522.2061"/><text fill="#000000" font-family="sans-serif" font-size="12" lengthAdjust="spacingAndGlyphs" textLength="156" x="397.75" y="543.3447">keep in Backlog / archive</text><ellipse cx="475.75" cy="587.1748" fill="#FFFFFF" rx="11" ry="11" style="stroke: #000000; stroke-width: 1.0;"/><ellipse cx="475.75" cy="587.1748" fill="#000000" rx="6" ry="6" style="stroke: #7F7F7F; stroke-width: 1.0;"/><polygon fill="#FFE0B2" points="299.5,1061.0732,423.5,1061.0732,435.5,1073.0732,423.5,1085.0732,299.5,1085.0732,287.5,1073.0732,299.5,1061.0732" style="stroke: #A80036; stroke-width: 1.5;"/><text fill="#000000" font-family="sans-serif" font-size="11" lengthAdjust="spacingAndGlyphs" textLength="124" x="299.5" y="1076.8813">row = Needs Human?</text><text fill="#000000" font-family="sans-serif" font-size="11" lengthAdjust="spacingAndGlyphs" textLength="20" x="267.5" y="1070.479">yes</text><text fill="#000000" font-family="sans-serif" font-size="11" lengthAdjust="spacingAndGlyphs" textLength="29" x="435.5" y="1070.479">Done</text><path d="M278,1098.9092 L278,1115.042 L258,1119.042 L278,1123.042 L278,1139.1748 A0,0 0 0 0 278,1139.1748 L434,1139.1748 A0,0 0 0 0 434,1139.1748 L434,1108.9092 L424,1098.9092 L278,1098.9092 A0,0 0 0 0 278,1098.9092 " fill="#FBFB77" style="stroke: #A80036; stroke-width: 1.0;"/><path d="M424,1098.9092 L424,1108.9092 L434,1108.9092 L424,1098.9092 " fill="#FBFB77" style="stroke: #A80036; stroke-width: 1.0;"/><text fill="#000000" font-family="sans-serif" font-size="13" lengthAdjust="spacingAndGlyphs" textLength="125" x="284" y="1115.9761">gate-inbox is folded</text><text fill="#000000" font-family="sans-serif" font-size="13" lengthAdjust="spacingAndGlyphs" textLength="135" x="284" y="1131.1089">into the issue-list row</text><rect fill="#E8F0FE" height="47.9375" rx="12.5" ry="12.5" style="stroke: #555555; stroke-width: 1.5;" width="195" x="63" y="1095.0732"/><text fill="#000000" font-family="sans-serif" font-size="12" lengthAdjust="spacingAndGlyphs" textLength="33" x="73" y="1116.2119">Inline</text><text fill="#000000" font-family="sans-serif" font-size="12" font-weight="bold" lengthAdjust="spacingAndGlyphs" textLength="85" x="110" y="1116.2119">gate-review</text><text fill="#000000" font-family="sans-serif" font-size="12" lengthAdjust="spacingAndGlyphs" textLength="175" x="73" y="1130.1807">(approve / reject / escalate)</text><polygon fill="#FFE0B2" points="134,1163.0107,187,1163.0107,199,1175.0107,187,1187.0107,134,1187.0107,122,1175.0107,134,1163.0107" style="stroke: #A80036; stroke-width: 1.5;"/><text fill="#000000" font-family="sans-serif" font-size="11" lengthAdjust="spacingAndGlyphs" textLength="53" x="134" y="1178.8188">decision?</text><text fill="#000000" font-family="sans-serif" font-size="11" lengthAdjust="spacingAndGlyphs" textLength="102" x="20" y="1172.4165">approve / re-open</text><text fill="#000000" font-family="sans-serif" font-size="11" lengthAdjust="spacingAndGlyphs" textLength="32" x="199" y="1172.4165">reject</text><rect fill="#E8F0FE" height="33.9688" rx="12.5" ry="12.5" style="stroke: #555555; stroke-width: 1.5;" width="123" x="42" y="1197.0107"/><text fill="#000000" font-family="sans-serif" font-size="12" lengthAdjust="spacingAndGlyphs" textLength="103" x="52" y="1218.1494">→ back to Ready</text><rect fill="#E8F0FE" height="33.9688" rx="12.5" ry="12.5" style="stroke: #555555; stroke-width: 1.5;" width="65" x="185" y="1197.0107"/><text fill="#000000" font-family="sans-serif" font-size="12" lengthAdjust="spacingAndGlyphs" textLength="45" x="195" y="1218.1494">archive</text><ellipse cx="217.5" cy="1261.9795" fill="#FFFFFF" rx="11" ry="11" style="stroke: #000000; stroke-width: 1.0;"/><ellipse cx="217.5" cy="1261.9795" fill="#000000" rx="6" ry="6" style="stroke: #7F7F7F; stroke-width: 1.0;"/><rect fill="#E8F0FE" height="47.9375" rx="12.5" ry="12.5" style="stroke: #555555; stroke-width: 1.5;" width="217" x="454" y="1095.0732"/><text fill="#000000" font-family="sans-serif" font-size="12" lengthAdjust="spacingAndGlyphs" textLength="197" x="464" y="1116.2119">done — visible in terminal state</text><text fill="#000000" font-family="sans-serif" font-size="12" lengthAdjust="spacingAndGlyphs" textLength="151" x="464" y="1130.1807">(hidden by default filter)</text><ellipse cx="562.5" cy="1174.0107" fill="#FFFFFF" rx="11" ry="11" style="stroke: #000000; stroke-width: 1.0;"/><ellipse cx="562.5" cy="1174.0107" fill="#000000" rx="6" ry="6" style="stroke: #7F7F7F; stroke-width: 1.0;"/><rect fill="#FFF3E0" height="1251.2813" style="stroke: #FFF3E0; stroke-width: 1.0;" width="627" x="700.5" y="33.6982"/><rect fill="#E8F0FE" height="33.9688" rx="12.5" ry="12.5" style="stroke: #555555; stroke-width: 1.5;" width="156" x="936.5" y="167.5889"/><text fill="#000000" font-family="sans-serif" font-size="12" lengthAdjust="spacingAndGlyphs" textLength="136" x="946.5" y="188.7275">Claim Draft → Refining</text><polygon fill="#FFE0B2" points="809.5,221.5576,838.5,221.5576,850.5,233.5576,838.5,245.5576,809.5,245.5576,797.5,233.5576,809.5,221.5576" style="stroke: #A80036; stroke-width: 1.5;"/><text fill="#000000" font-family="sans-serif" font-size="11" lengthAdjust="spacingAndGlyphs" textLength="41" x="828" y="255.7681">feature</text><text fill="#000000" font-family="sans-serif" font-size="11" lengthAdjust="spacingAndGlyphs" textLength="29" x="809.5" y="237.3657">kind?</text><rect fill="#E8F0FE" height="47.9375" rx="12.5" ry="12.5" style="stroke: #555555; stroke-width: 1.5;" width="227" x="710.5" y="278.3623"/><text fill="#000000" font-family="sans-serif" font-size="12" lengthAdjust="spacingAndGlyphs" textLength="116" x="720.5" y="299.501">feature-to-backlog</text><text fill="#000000" font-family="sans-serif" font-size="12" lengthAdjust="spacingAndGlyphs" textLength="207" x="720.5" y="313.4697">Proposal + Plan (2 review cycles)</text><polygon fill="#FFE0B2" points="1032,221.5576,1064,221.5576,1076,233.5576,1064,245.5576,1032,245.5576,1020,233.5576,1032,221.5576" style="stroke: #A80036; stroke-width: 1.5;"/><text fill="#000000" font-family="sans-serif" font-size="11" lengthAdjust="spacingAndGlyphs" textLength="32" x="1032" y="237.3657">chore</text><text fill="#000000" font-family="sans-serif" font-size="11" lengthAdjust="spacingAndGlyphs" textLength="23" x="1076" y="230.9634">epic</text><rect fill="#E8F0FE" height="47.9375" rx="12.5" ry="12.5" style="stroke: #555555; stroke-width: 1.5;" width="181" x="957.5" y="265.5576"/><text fill="#000000" font-family="sans-serif" font-size="12" lengthAdjust="spacingAndGlyphs" textLength="97" x="967.5" y="286.6963">task-to-backlog</text><text fill="#000000" font-family="sans-serif" font-size="12" lengthAdjust="spacingAndGlyphs" textLength="161" x="967.5" y="300.665">single critique → checklist</text><rect fill="#E8F0FE" height="47.9375" rx="12.5" ry="12.5" style="stroke: #555555; stroke-width: 1.5;" width="160" x="1158.5" y="274.96"/><text fill="#000000" font-family="sans-serif" font-size="12" lengthAdjust="spacingAndGlyphs" textLength="96" x="1168.5" y="296.0986">epic-to-backlog</text><text fill="#000000" font-family="sans-serif" font-size="12" lengthAdjust="spacingAndGlyphs" textLength="140" x="1168.5" y="310.0674">plan only (no children)</text><rect fill="#E8F0FE" height="33.9688" rx="12.5" ry="12.5" style="stroke: #555555; stroke-width: 1.5;" width="124" x="952.5" y="366.2998"/><text fill="#000000" font-family="sans-serif" font-size="12" lengthAdjust="spacingAndGlyphs" textLength="45" x="962.5" y="387.4385">Park at</text><text fill="#000000" font-family="sans-serif" font-size="12" font-weight="bold" lengthAdjust="spacingAndGlyphs" textLength="55" x="1011.5" y="387.4385">Backlog</text><rect fill="#E1F5FE" height="1251.2813" style="stroke: #E1F5FE; stroke-width: 1.0;" width="785.2813" x="1327.5" y="33.6982"/><path d="M1803.375,615.0264 L1803.375,631.1592 L1783.375,635.1592 L1803.375,639.1592 L1803.375,655.292 A0,0 0 0 0 1803.375,655.292 L2102.7813,655.292 A0,0 0 0 0 2102.7813,655.292 L2102.7813,625.0264 L2092.7813,615.0264 L1803.375,615.0264 A0,0 0 0 0 1803.375,615.0264 " fill="#FBFB77" style="stroke: #A80036; stroke-width: 1.0;"/><path d="M2092.7813,615.0264 L2092.7813,625.0264 L2102.7813,625.0264 L2092.7813,615.0264 " fill="#FBFB77" style="stroke: #A80036; stroke-width: 1.0;"/><text fill="#000000" font-family="sans-serif" font-size="13" lengthAdjust="spacingAndGlyphs" textLength="36" x="1809.375" y="632.0933">same</text><text fill="#000000" font-family="sans-serif" font-size="13" font-weight="bold" lengthAdjust="spacingAndGlyphs" textLength="46" x="1849.375" y="632.0933">Ready</text><text fill="#000000" font-family="sans-serif" font-size="13" lengthAdjust="spacingAndGlyphs" textLength="141" x="1899.375" y="632.0933">phase, now claimed →</text><text fill="#000000" font-family="sans-serif" font-size="13" lengthAdjust="spacingAndGlyphs" textLength="65" x="1809.375" y="647.2261">row shows</text><text fill="#000000" font-family="sans-serif" font-size="13" font-weight="bold" lengthAdjust="spacingAndGlyphs" textLength="13.4063" x="1878.375" y="647.2261">&#129302;</text><text fill="#000000" font-family="sans-serif" font-size="13" lengthAdjust="spacingAndGlyphs" textLength="192" x="1895.7813" y="647.2261">(active vs ⏳ queued by claim)</text><rect fill="#E8F0FE" height="33.9688" rx="12.5" ry="12.5" style="stroke: #555555; stroke-width: 1.5;" width="349" x="1434.375" y="618.1748"/><text fill="#000000" font-family="sans-serif" font-size="12" lengthAdjust="spacingAndGlyphs" textLength="329" x="1444.375" y="639.3135">Scan actionable → claim → spawn worker in worktree</text><polygon fill="#FFE0B2" points="1594.875,675.292,1622.875,675.292,1634.875,687.292,1622.875,699.292,1594.875,699.292,1582.875,687.292,1594.875,675.292" style="stroke: #A80036; stroke-width: 1.5;"/><text fill="#000000" font-family="sans-serif" font-size="11" lengthAdjust="spacingAndGlyphs" textLength="28" x="1594.875" y="691.1001">role?</text><text fill="#000000" font-family="sans-serif" font-size="11" lengthAdjust="spacingAndGlyphs" textLength="134" x="1448.875" y="684.6978">primitive: feature/chore</text><text fill="#000000" font-family="sans-serif" font-size="11" lengthAdjust="spacingAndGlyphs" textLength="90" x="1634.875" y="684.6978">compound: epic</text><rect fill="#E8F0FE" height="33.9688" rx="12.5" ry="12.5" style="stroke: #555555; stroke-width: 1.5;" width="241" x="1342" y="709.292"/><text fill="#000000" font-family="sans-serif" font-size="12" lengthAdjust="spacingAndGlyphs" textLength="221" x="1352" y="730.4307">Execute (implement / run checklist)</text><rect fill="#E8F0FE" height="33.9688" rx="12.5" ry="12.5" style="stroke: #555555; stroke-width: 1.5;" width="250" x="1337.5" y="777.2295"/><text fill="#000000" font-family="sans-serif" font-size="12" lengthAdjust="spacingAndGlyphs" textLength="230" x="1347.5" y="798.3682">engine.complete() → merge/advance</text><rect fill="#E8F0FE" height="47.9375" rx="12.5" ry="12.5" style="stroke: #555555; stroke-width: 1.5;" width="183" x="1371" y="845.167"/><text fill="#000000" font-family="sans-serif" font-size="12" font-weight="bold" lengthAdjust="spacingAndGlyphs" textLength="163" x="1381" y="866.3057">Adjudicate DoD (ENG-8)</text><text fill="#000000" font-family="sans-serif" font-size="12" lengthAdjust="spacingAndGlyphs" textLength="122" x="1381" y="880.2744">engine re-runs DoD</text><polygon fill="#FFE0B2" points="1448,913.1045,1477,913.1045,1489,925.1045,1477,937.1045,1448,937.1045,1436,925.1045,1448,913.1045" style="stroke: #A80036; stroke-width: 1.5;"/><text fill="#000000" font-family="sans-serif" font-size="11" lengthAdjust="spacingAndGlyphs" textLength="29" x="1448" y="928.9126">DoD?</text><text fill="#000000" font-family="sans-serif" font-size="11" lengthAdjust="spacingAndGlyphs" textLength="28" x="1408" y="922.5103">pass</text><text fill="#000000" font-family="sans-serif" font-size="11" lengthAdjust="spacingAndGlyphs" textLength="69" x="1489" y="922.5103">fail / conflict</text><rect fill="#E8F0FE" height="33.9688" rx="12.5" ry="12.5" style="stroke: #555555; stroke-width: 1.5;" width="71" x="1366.25" y="947.1045"/><text fill="#000000" font-family="sans-serif" font-size="12" lengthAdjust="spacingAndGlyphs" textLength="10" x="1376.25" y="968.2432">→</text><text fill="#000000" font-family="sans-serif" font-size="12" font-weight="bold" lengthAdjust="spacingAndGlyphs" textLength="37" x="1390.25" y="968.2432">Done</text><rect fill="#E8F0FE" height="33.9688" rx="12.5" ry="12.5" style="stroke: #555555; stroke-width: 1.5;" width="132" x="1457.25" y="947.1045"/><text fill="#000000" font-family="sans-serif" font-size="12" lengthAdjust="spacingAndGlyphs" textLength="10" x="1467.25" y="968.2432">→</text><text fill="#000000" font-family="sans-serif" font-size="12" font-weight="bold" lengthAdjust="spacingAndGlyphs" textLength="98" x="1481.25" y="968.2432">Needs Human</text><polygon fill="#FFE0B2" points="1462.5,987.0732,1474.5,999.0732,1462.5,1011.0732,1450.5,999.0732,1462.5,987.0732" style="stroke: #A80036; stroke-width: 1.5;"/><rect fill="#E8F0FE" height="47.9375" rx="12.5" ry="12.5" style="stroke: #555555; stroke-width: 1.5;" width="215" x="1647.75" y="709.292"/><text fill="#000000" font-family="sans-serif" font-size="12" lengthAdjust="spacingAndGlyphs" textLength="187" x="1657.75" y="730.4307">Decompose → create children</text><text fill="#000000" font-family="sans-serif" font-size="12" lengthAdjust="spacingAndGlyphs" textLength="195" x="1657.75" y="744.3994">(role flips primitive→compound)</text><rect fill="#E8F0FE" height="33.9688" rx="12.5" ry="12.5" style="stroke: #555555; stroke-width: 1.5;" width="159" x="1675.75" y="791.1982"/><text fill="#000000" font-family="sans-serif" font-size="12" lengthAdjust="spacingAndGlyphs" textLength="10" x="1685.75" y="812.3369">→</text><text fill="#000000" font-family="sans-serif" font-size="12" font-weight="bold" lengthAdjust="spacingAndGlyphs" textLength="125" x="1699.75" y="812.3369">Awaiting Children</text><rect fill="#E8F0FE" height="33.9688" rx="12.5" ry="12.5" style="stroke: #555555; stroke-width: 1.5;" width="272" x="1619.25" y="859.1357"/><text fill="#000000" font-family="sans-serif" font-size="12" lengthAdjust="spacingAndGlyphs" textLength="174" x="1629.25" y="880.2744">when all children terminal →</text><text fill="#000000" font-family="sans-serif" font-size="12" font-weight="bold" lengthAdjust="spacingAndGlyphs" textLength="74" x="1807.25" y="880.2744">Evaluating</text><polygon fill="#FFE0B2" points="1714.25,913.1045,1796.25,913.1045,1808.25,925.1045,1796.25,937.1045,1714.25,937.1045,1702.25,925.1045,1714.25,913.1045" style="stroke: #A80036; stroke-width: 1.5;"/><text fill="#000000" font-family="sans-serif" font-size="11" lengthAdjust="spacingAndGlyphs" textLength="82" x="1714.25" y="928.9126">epic satisfied?</text><text fill="#000000" font-family="sans-serif" font-size="11" lengthAdjust="spacingAndGlyphs" textLength="20" x="1682.25" y="922.5103">yes</text><text fill="#000000" font-family="sans-serif" font-size="11" lengthAdjust="spacingAndGlyphs" textLength="14" x="1808.25" y="922.5103">no</text><rect fill="#E8F0FE" height="33.9688" rx="12.5" ry="12.5" style="stroke: #555555; stroke-width: 1.5;" width="71" x="1656.75" y="947.1045"/><text fill="#000000" font-family="sans-serif" font-size="12" lengthAdjust="spacingAndGlyphs" textLength="10" x="1666.75" y="968.2432">→</text><text fill="#000000" font-family="sans-serif" font-size="12" font-weight="bold" lengthAdjust="spacingAndGlyphs" textLength="37" x="1680.75" y="968.2432">Done</text><rect fill="#E8F0FE" height="33.9688" rx="12.5" ry="12.5" style="stroke: #555555; stroke-width: 1.5;" width="132" x="1752.25" y="947.1045"/><text fill="#000000" font-family="sans-serif" font-size="12" lengthAdjust="spacingAndGlyphs" textLength="10" x="1762.25" y="968.2432">→</text><text fill="#000000" font-family="sans-serif" font-size="12" font-weight="bold" lengthAdjust="spacingAndGlyphs" textLength="98" x="1776.25" y="968.2432">Needs Human</text><polygon fill="#FFE0B2" points="1755.25,987.0732,1767.25,999.0732,1755.25,1011.0732,1743.25,999.0732,1755.25,987.0732" style="stroke: #A80036; stroke-width: 1.5;"/><polygon fill="#FFE0B2" points="1608.875,1017.0732,1620.875,1029.0732,1608.875,1041.0732,1596.875,1029.0732,1608.875,1017.0732" style="stroke: #A80036; stroke-width: 1.5;"/><line style="stroke: #A80036; stroke-width: 1.5;" x1="361.5" x2="361.5" y1="79.6514" y2="99.6514"/><polygon fill="#A80036" points="357.5,89.6514,361.5,99.6514,365.5,89.6514,361.5,93.6514" style="stroke: #A80036; stroke-width: 1.0;"/><line style="stroke: #A80036; stroke-width: 1.5;" x1="475.75" x2="475.75" y1="556.1748" y2="576.1748"/><polygon fill="#A80036" points="471.75,566.1748,475.75,576.1748,479.75,566.1748,475.75,570.1748" style="stroke: #A80036; stroke-width: 1.0;"/><line style="stroke: #A80036; stroke-width: 1.5;" x1="308" x2="247.25" y1="500.2061" y2="500.2061"/><line style="stroke: #A80036; stroke-width: 1.5;" x1="247.25" x2="247.25" y1="500.2061" y2="522.2061"/><polygon fill="#A80036" points="243.25,512.2061,247.25,522.2061,251.25,512.2061,247.25,516.2061" style="stroke: #A80036; stroke-width: 1.0;"/><line style="stroke: #A80036; stroke-width: 1.5;" x1="415" x2="475.75" y1="500.2061" y2="500.2061"/><line style="stroke: #A80036; stroke-width: 1.5;" x1="475.75" x2="475.75" y1="500.2061" y2="522.2061"/><polygon fill="#A80036" points="471.75,512.2061,475.75,522.2061,479.75,512.2061,475.75,516.2061" style="stroke: #A80036; stroke-width: 1.0;"/><line style="stroke: #A80036; stroke-width: 1.5;" x1="247.25" x2="247.25" y1="556.1748" y2="603.1748"/><line style="stroke: #A80036; stroke-width: 1.5;" x1="247.25" x2="1608.875" y1="603.1748" y2="603.1748"/><line style="stroke: #A80036; stroke-width: 1.5;" x1="1608.875" x2="1608.875" y1="603.1748" y2="618.1748"/><polygon fill="#A80036" points="1604.875,608.1748,1608.875,618.1748,1612.875,608.1748,1608.875,612.1748" style="stroke: #A80036; stroke-width: 1.0;"/><line style="stroke: #A80036; stroke-width: 1.5;" x1="361.5" x2="361.5" y1="468.2061" y2="488.2061"/><polygon fill="#A80036" points="357.5,478.2061,361.5,488.2061,365.5,478.2061,361.5,482.2061" style="stroke: #A80036; stroke-width: 1.0;"/><line style="stroke: #A80036; stroke-width: 1.5;" x1="217.5" x2="217.5" y1="1230.9795" y2="1250.9795"/><polygon fill="#A80036" points="213.5,1240.9795,217.5,1250.9795,221.5,1240.9795,217.5,1244.9795" style="stroke: #A80036; stroke-width: 1.0;"/><line style="stroke: #A80036; stroke-width: 1.5;" x1="122" x2="103.5" y1="1175.0107" y2="1175.0107"/><line style="stroke: #A80036; stroke-width: 1.5;" x1="103.5" x2="103.5" y1="1175.0107" y2="1197.0107"/><polygon fill="#A80036" points="99.5,1187.0107,103.5,1197.0107,107.5,1187.0107,103.5,1191.0107" style="stroke: #A80036; stroke-width: 1.0;"/><line style="stroke: #A80036; stroke-width: 1.5;" x1="199" x2="217.5" y1="1175.0107" y2="1175.0107"/><line style="stroke: #A80036; stroke-width: 1.5;" x1="217.5" x2="217.5" y1="1175.0107" y2="1197.0107"/><polygon fill="#A80036" points="213.5,1187.0107,217.5,1197.0107,221.5,1187.0107,217.5,1191.0107" style="stroke: #A80036; stroke-width: 1.0;"/><line style="stroke: #A80036; stroke-width: 1.5;" x1="160.5" x2="160.5" y1="1143.0107" y2="1163.0107"/><polygon fill="#A80036" points="156.5,1153.0107,160.5,1163.0107,164.5,1153.0107,160.5,1157.0107" style="stroke: #A80036; stroke-width: 1.0;"/><line style="stroke: #A80036; stroke-width: 1.5;" x1="562.5" x2="562.5" y1="1143.0107" y2="1163.0107"/><polygon fill="#A80036" points="558.5,1153.0107,562.5,1163.0107,566.5,1153.0107,562.5,1157.0107" style="stroke: #A80036; stroke-width: 1.0;"/><line style="stroke: #A80036; stroke-width: 1.5;" x1="287.5" x2="160.5" y1="1073.0732" y2="1073.0732"/><line style="stroke: #A80036; stroke-width: 1.5;" x1="160.5" x2="160.5" y1="1073.0732" y2="1095.0732"/><polygon fill="#A80036" points="156.5,1085.0732,160.5,1095.0732,164.5,1085.0732,160.5,1089.0732" style="stroke: #A80036; stroke-width: 1.0;"/><line style="stroke: #A80036; stroke-width: 1.5;" x1="435.5" x2="562.5" y1="1073.0732" y2="1073.0732"/><line style="stroke: #A80036; stroke-width: 1.5;" x1="562.5" x2="562.5" y1="1073.0732" y2="1095.0732"/><polygon fill="#A80036" points="558.5,1085.0732,562.5,1095.0732,566.5,1085.0732,562.5,1089.0732" style="stroke: #A80036; stroke-width: 1.0;"/><line style="stroke: #A80036; stroke-width: 1.5;" x1="824" x2="824" y1="245.5576" y2="278.3623"/><polygon fill="#A80036" points="820,268.3623,824,278.3623,828,268.3623,824,272.3623" style="stroke: #A80036; stroke-width: 1.0;"/><line style="stroke: #A80036; stroke-width: 1.5;" x1="824" x2="824" y1="326.2998" y2="346.2998"/><polygon fill="#A80036" points="820,336.2998,824,346.2998,828,336.2998,824,340.2998" style="stroke: #A80036; stroke-width: 1.0;"/><line style="stroke: #A80036; stroke-width: 1.5;" x1="1048" x2="1048" y1="245.5576" y2="265.5576"/><polygon fill="#A80036" points="1044,255.5576,1048,265.5576,1052,255.5576,1048,259.5576" style="stroke: #A80036; stroke-width: 1.0;"/><line style="stroke: #A80036; stroke-width: 1.5;" x1="1048" x2="1048" y1="313.4951" y2="346.2998"/><polygon fill="#A80036" points="1044,336.2998,1048,346.2998,1052,336.2998,1048,340.2998" style="stroke: #A80036; stroke-width: 1.0;"/><line style="stroke: #A80036; stroke-width: 1.5;" x1="850.5" x2="1020" y1="233.5576" y2="233.5576"/><polygon fill="#A80036" points="1010,229.5576,1020,233.5576,1010,237.5576,1014,233.5576" style="stroke: #A80036; stroke-width: 1.0;"/><line style="stroke: #A80036; stroke-width: 1.5;" x1="1014.5" x2="1014.5" y1="201.5576" y2="206.5576"/><line style="stroke: #A80036; stroke-width: 1.5;" x1="1014.5" x2="824" y1="206.5576" y2="206.5576"/><line style="stroke: #A80036; stroke-width: 1.5;" x1="824" x2="824" y1="206.5576" y2="221.5576"/><polygon fill="#A80036" points="820,211.5576,824,221.5576,828,211.5576,824,215.5576" style="stroke: #A80036; stroke-width: 1.0;"/><line style="stroke: #A80036; stroke-width: 1.5;" x1="1076" x2="1238.5" y1="233.5576" y2="233.5576"/><line style="stroke: #A80036; stroke-width: 1.5;" x1="1238.5" x2="1238.5" y1="233.5576" y2="274.96"/><polygon fill="#A80036" points="1234.5,264.96,1238.5,274.96,1242.5,264.96,1238.5,268.96" style="stroke: #A80036; stroke-width: 1.0;"/><line style="stroke: #A80036; stroke-width: 1.5;" x1="1238.5" x2="1238.5" y1="322.8975" y2="346.2998"/><polygon fill="#A80036" points="1234.5,336.2998,1238.5,346.2998,1242.5,336.2998,1238.5,340.2998" style="stroke: #A80036; stroke-width: 1.0;"/><line style="stroke: #A80036; stroke-width: 1.5;" x1="824" x2="1238.5" y1="346.2998" y2="346.2998"/><line style="stroke: #A80036; stroke-width: 1.5;" x1="1014.5" x2="1014.5" y1="346.2998" y2="366.2998"/><polygon fill="#A80036" points="1010.5,356.2998,1014.5,366.2998,1018.5,356.2998,1014.5,360.2998" style="stroke: #A80036; stroke-width: 1.0;"/><line style="stroke: #A80036; stroke-width: 1.5;" x1="1462.5" x2="1462.5" y1="743.2607" y2="777.2295"/><polygon fill="#A80036" points="1458.5,767.2295,1462.5,777.2295,1466.5,767.2295,1462.5,771.2295" style="stroke: #A80036; stroke-width: 1.0;"/><line style="stroke: #A80036; stroke-width: 1.5;" x1="1462.5" x2="1462.5" y1="811.1982" y2="845.167"/><polygon fill="#A80036" points="1458.5,835.167,1462.5,845.167,1466.5,835.167,1462.5,839.167" style="stroke: #A80036; stroke-width: 1.0;"/><line style="stroke: #A80036; stroke-width: 1.5;" x1="1436" x2="1401.75" y1="925.1045" y2="925.1045"/><line style="stroke: #A80036; stroke-width: 1.5;" x1="1401.75" x2="1401.75" y1="925.1045" y2="947.1045"/><polygon fill="#A80036" points="1397.75,937.1045,1401.75,947.1045,1405.75,937.1045,1401.75,941.1045" style="stroke: #A80036; stroke-width: 1.0;"/><line style="stroke: #A80036; stroke-width: 1.5;" x1="1489" x2="1523.25" y1="925.1045" y2="925.1045"/><line style="stroke: #A80036; stroke-width: 1.5;" x1="1523.25" x2="1523.25" y1="925.1045" y2="947.1045"/><polygon fill="#A80036" points="1519.25,937.1045,1523.25,947.1045,1527.25,937.1045,1523.25,941.1045" style="stroke: #A80036; stroke-width: 1.0;"/><line style="stroke: #A80036; stroke-width: 1.5;" x1="1401.75" x2="1401.75" y1="981.0732" y2="999.0732"/><line style="stroke: #A80036; stroke-width: 1.5;" x1="1401.75" x2="1450.5" y1="999.0732" y2="999.0732"/><polygon fill="#A80036" points="1440.5,995.0732,1450.5,999.0732,1440.5,1003.0732,1444.5,999.0732" style="stroke: #A80036; stroke-width: 1.0;"/><line style="stroke: #A80036; stroke-width: 1.5;" x1="1523.25" x2="1523.25" y1="981.0732" y2="999.0732"/><line style="stroke: #A80036; stroke-width: 1.5;" x1="1523.25" x2="1474.5" y1="999.0732" y2="999.0732"/><polygon fill="#A80036" points="1484.5,995.0732,1474.5,999.0732,1484.5,1003.0732,1480.5,999.0732" style="stroke: #A80036; stroke-width: 1.0;"/><line style="stroke: #A80036; stroke-width: 1.5;" x1="1462.5" x2="1462.5" y1="893.1045" y2="913.1045"/><polygon fill="#A80036" points="1458.5,903.1045,1462.5,913.1045,1466.5,903.1045,1462.5,907.1045" style="stroke: #A80036; stroke-width: 1.0;"/><line style="stroke: #A80036; stroke-width: 1.5;" x1="1755.25" x2="1755.25" y1="757.2295" y2="791.1982"/><polygon fill="#A80036" points="1751.25,781.1982,1755.25,791.1982,1759.25,781.1982,1755.25,785.1982" style="stroke: #A80036; stroke-width: 1.0;"/><line style="stroke: #A80036; stroke-width: 1.5;" x1="1755.25" x2="1755.25" y1="825.167" y2="859.1357"/><polygon fill="#A80036" points="1751.25,849.1357,1755.25,859.1357,1759.25,849.1357,1755.25,853.1357" style="stroke: #A80036; stroke-width: 1.0;"/><line style="stroke: #A80036; stroke-width: 1.5;" x1="1702.25" x2="1692.25" y1="925.1045" y2="925.1045"/><line style="stroke: #A80036; stroke-width: 1.5;" x1="1692.25" x2="1692.25" y1="925.1045" y2="947.1045"/><polygon fill="#A80036" points="1688.25,937.1045,1692.25,947.1045,1696.25,937.1045,1692.25,941.1045" style="stroke: #A80036; stroke-width: 1.0;"/><line style="stroke: #A80036; stroke-width: 1.5;" x1="1808.25" x2="1818.25" y1="925.1045" y2="925.1045"/><line style="stroke: #A80036; stroke-width: 1.5;" x1="1818.25" x2="1818.25" y1="925.1045" y2="947.1045"/><polygon fill="#A80036" points="1814.25,937.1045,1818.25,947.1045,1822.25,937.1045,1818.25,941.1045" style="stroke: #A80036; stroke-width: 1.0;"/><line style="stroke: #A80036; stroke-width: 1.5;" x1="1692.25" x2="1692.25" y1="981.0732" y2="999.0732"/><line style="stroke: #A80036; stroke-width: 1.5;" x1="1692.25" x2="1743.25" y1="999.0732" y2="999.0732"/><polygon fill="#A80036" points="1733.25,995.0732,1743.25,999.0732,1733.25,1003.0732,1737.25,999.0732" style="stroke: #A80036; stroke-width: 1.0;"/><line style="stroke: #A80036; stroke-width: 1.5;" x1="1818.25" x2="1818.25" y1="981.0732" y2="999.0732"/><line style="stroke: #A80036; stroke-width: 1.5;" x1="1818.25" x2="1767.25" y1="999.0732" y2="999.0732"/><polygon fill="#A80036" points="1777.25,995.0732,1767.25,999.0732,1777.25,1003.0732,1773.25,999.0732" style="stroke: #A80036; stroke-width: 1.0;"/><line style="stroke: #A80036; stroke-width: 1.5;" x1="1755.25" x2="1755.25" y1="893.1045" y2="913.1045"/><polygon fill="#A80036" points="1751.25,903.1045,1755.25,913.1045,1759.25,903.1045,1755.25,907.1045" style="stroke: #A80036; stroke-width: 1.0;"/><line style="stroke: #A80036; stroke-width: 1.5;" x1="1582.875" x2="1462.5" y1="687.292" y2="687.292"/><line style="stroke: #A80036; stroke-width: 1.5;" x1="1462.5" x2="1462.5" y1="687.292" y2="709.292"/><polygon fill="#A80036" points="1458.5,699.292,1462.5,709.292,1466.5,699.292,1462.5,703.292" style="stroke: #A80036; stroke-width: 1.0;"/><line style="stroke: #A80036; stroke-width: 1.5;" x1="1634.875" x2="1755.25" y1="687.292" y2="687.292"/><line style="stroke: #A80036; stroke-width: 1.5;" x1="1755.25" x2="1755.25" y1="687.292" y2="709.292"/><polygon fill="#A80036" points="1751.25,699.292,1755.25,709.292,1759.25,699.292,1755.25,703.292" style="stroke: #A80036; stroke-width: 1.0;"/><line style="stroke: #A80036; stroke-width: 1.5;" x1="1462.5" x2="1462.5" y1="1011.0732" y2="1029.0732"/><line style="stroke: #A80036; stroke-width: 1.5;" x1="1462.5" x2="1596.875" y1="1029.0732" y2="1029.0732"/><polygon fill="#A80036" points="1586.875,1025.0732,1596.875,1029.0732,1586.875,1033.0732,1590.875,1029.0732" style="stroke: #A80036; stroke-width: 1.0;"/><line style="stroke: #A80036; stroke-width: 1.5;" x1="1755.25" x2="1755.25" y1="1011.0732" y2="1029.0732"/><line style="stroke: #A80036; stroke-width: 1.5;" x1="1755.25" x2="1620.875" y1="1029.0732" y2="1029.0732"/><polygon fill="#A80036" points="1630.875,1025.0732,1620.875,1029.0732,1630.875,1033.0732,1626.875,1029.0732" style="stroke: #A80036; stroke-width: 1.0;"/><line style="stroke: #A80036; stroke-width: 1.5;" x1="1608.875" x2="1608.875" y1="652.1436" y2="675.292"/><polygon fill="#A80036" points="1604.875,665.292,1608.875,675.292,1612.875,665.292,1608.875,669.292" style="stroke: #A80036; stroke-width: 1.0;"/><line style="stroke: #A80036; stroke-width: 1.5;" x1="361.5" x2="361.5" y1="147.5889" y2="152.5889"/><line style="stroke: #A80036; stroke-width: 1.5;" x1="361.5" x2="1014.5" y1="152.5889" y2="152.5889"/><line style="stroke: #A80036; stroke-width: 1.5;" x1="1014.5" x2="1014.5" y1="152.5889" y2="167.5889"/><polygon fill="#A80036" points="1010.5,157.5889,1014.5,167.5889,1018.5,157.5889,1014.5,161.5889" style="stroke: #A80036; stroke-width: 1.0;"/><line style="stroke: #A80036; stroke-width: 1.5;" x1="1014.5" x2="1014.5" y1="400.2686" y2="405.2686"/><line style="stroke: #A80036; stroke-width: 1.5;" x1="1014.5" x2="361.5" y1="405.2686" y2="405.2686"/><line style="stroke: #A80036; stroke-width: 1.5;" x1="361.5" x2="361.5" y1="405.2686" y2="420.2686"/><polygon fill="#A80036" points="357.5,410.2686,361.5,420.2686,365.5,410.2686,361.5,414.2686" style="stroke: #A80036; stroke-width: 1.0;"/><line style="stroke: #A80036; stroke-width: 1.5;" x1="1608.875" x2="1608.875" y1="1041.0732" y2="1046.0732"/><line style="stroke: #A80036; stroke-width: 1.5;" x1="1608.875" x2="361.5" y1="1046.0732" y2="1046.0732"/><line style="stroke: #A80036; stroke-width: 1.5;" x1="361.5" x2="361.5" y1="1046.0732" y2="1061.0732"/><polygon fill="#A80036" points="357.5,1051.0732,361.5,1061.0732,365.5,1051.0732,361.5,1055.0732" style="stroke: #A80036; stroke-width: 1.0;"/><text fill="#000000" font-family="sans-serif" font-size="18" lengthAdjust="spacingAndGlyphs" textLength="63" x="323.75" y="50.4063">Human</text><text fill="#000000" font-family="sans-serif" font-size="18" lengthAdjust="spacingAndGlyphs" textLength="358" x="835" y="50.4063">Authoring engine (auto, monitor-driven)</text><text fill="#000000" font-family="sans-serif" font-size="18" lengthAdjust="spacingAndGlyphs" textLength="358" x="1541.1406" y="50.4063">Execution engine (auto, monitor-driven)</text><line style="stroke: #000000; stroke-width: 2.0;" x1="10" x2="10" y1="33.6982" y2="1284.9795"/><line style="stroke: #000000; stroke-width: 2.0;" x1="700.5" x2="700.5" y1="33.6982" y2="1284.9795"/><line style="stroke: #000000; stroke-width: 2.0;" x1="1327.5" x2="1327.5" y1="33.6982" y2="1284.9795"/><line style="stroke: #000000; stroke-width: 2.0;" x1="2112.7813" x2="2112.7813" y1="33.6982" y2="1284.9795"/><!--MD5=[97226d0325eaf99c8ee6492021b278a0]
@startuml epicd-issue-list-activity

skinparam backgroundColor #FFFFFF
skinparam shadowing false
skinparam activity {
  BorderColor #555555
  BackgroundColor #E8F0FE
  DiamondBackgroundColor #FFE0B2
}

title epicd — Human + engine flow across lanes (Activity diagram)

|#C8E6C9|Human|
start
:Capture idea (one-line intent)\nchoose kind: feature / chore / epic;
note right: appears as **Draft** in the\nAuthoring lane (👤 then 🤖)

|#FFF3E0|Authoring engine (auto, monitor-driven)|
:Claim Draft → Refining;
if (kind?) then (feature)
  :feature-to-backlog\nProposal + Plan (2 review cycles);
elseif (chore) then
  :task-to-backlog\nsingle critique → checklist;
else (epic)
  :epic-to-backlog\nplan only (no children);
endif
:Park at **Backlog**;

|#C8E6C9|Human|
:Review item in issue-list\n(Authoring lane, 👤);
if (Promote gate?) then (approve)
  :Promote → **Ready** (execution lane);
else (hold / reject)
  :keep in Backlog / archive;
  stop
endif

|#E1F5FE|Execution engine (auto, monitor-driven)|
:Scan actionable → claim → spawn worker in worktree;
note right: same **Ready** phase, now claimed →\nrow shows **🤖** (active vs ⏳ queued by claim)
if (role?) then (primitive: feature/chore)
  :Execute (implement / run checklist);
  :engine.complete() → merge/advance;
  :**Adjudicate DoD (ENG-8)**\nengine re-runs DoD;
  if (DoD?) then (pass)
    :→ **Done**;
  else (fail / conflict)
    :→ **Needs Human**;
  endif
else (compound: epic)
  :Decompose → create children\n(role flips primitive→compound);
  :→ **Awaiting Children**;
  :when all children terminal → **Evaluating**;
  if (epic satisfied?) then (yes)
    :→ **Done**;
  else (no)
    :→ **Needs Human**;
  endif
endif

|#C8E6C9|Human|
if (row = Needs Human?) then (yes)
  :Inline **gate-review**\n(approve / reject / escalate);
  note right: gate-inbox is folded\ninto the issue-list row
  if (decision?) then (approve / re-open)
    :→ back to Ready;
    detach
  else (reject)
    :archive;
    stop
  endif
else (Done)
  :done — visible in terminal state\n(hidden by default filter);
  stop
endif

@enduml

PlantUML version 1.2020.02(Sun Mar 01 10:22:07 UTC 2020)
(GPL source distribution)
Java Runtime: OpenJDK Runtime Environment
JVM: OpenJDK 64-Bit Server VM
Java Version: 21.0.11+10-1-22.04.2-Ubuntu
Operating System: Linux
Default Encoding: UTF-8
Language: en
Country: null
--></g></svg>