<?xml version="1.0" encoding="UTF-8" standalone="no"?><svg xmlns="http://www.w3.org/2000/svg" xmlns:xlink="http://www.w3.org/1999/xlink" contentScriptType="application/ecmascript" contentStyleType="text/css" height="823px" preserveAspectRatio="none" style="width:2471px;height:823px;" version="1.1" viewBox="0 0 2471 823" width="2471px" zoomAndPan="magnify"><defs/><g><text fill="#000000" font-family="sans-serif" font-size="18" lengthAdjust="spacingAndGlyphs" textLength="772" x="861" y="16.708">epicd — Execution engine (class diagram; symmetric to authoring, invariant-heavy tail)</text><!--MD5=[a46f9793842d7364a473253dd22a503d]
cluster Core state machine  (pure — EXISTS, test-only)--><rect fill="#FFFFFF" height="302" style="stroke: #000000; stroke-width: 1.5;" width="536" x="1924" y="44.9531"/><text fill="#000000" font-family="sans-serif" font-size="14" font-weight="bold" lengthAdjust="spacingAndGlyphs" textLength="370" x="2007" y="59.9482">Core state machine  (pure — EXISTS, test-only)</text><!--MD5=[eede3e9477c093fa7ebaf016ea7cbe58]
cluster Driver  (IMPURE — EXECUTION, ABSENT today)--><rect fill="#FFFFFF" height="413" style="stroke: #000000; stroke-width: 1.5;" width="684" x="22" y="399.9531"/><text fill="#000000" font-family="sans-serif" font-size="14" font-weight="bold" lengthAdjust="spacingAndGlyphs" textLength="358" x="185" y="414.9482">Driver  (IMPURE — EXECUTION, ABSENT today)</text><!--MD5=[060367c1163bf9a9154eb53010b90462]
cluster Workers  (spawned in git worktree)--><rect fill="#FFFFFF" height="105" style="stroke: #000000; stroke-width: 1.5;" width="306" x="1258" y="63.9531"/><text fill="#000000" font-family="sans-serif" font-size="14" font-weight="bold" lengthAdjust="spacingAndGlyphs" textLength="283" x="1269.5" y="78.9482">Workers  (spawned in git worktree)</text><!--MD5=[dac2a140164682b1bf269c968f057905]
cluster Completion tail  (ENGINE-OWNED invariants — ADR-010/012)--><rect fill="#FFFFFF" height="457" style="stroke: #000000; stroke-width: 1.5;" width="601" x="1299" y="234.9531"/><text fill="#000000" font-family="sans-serif" font-size="14" font-weight="bold" lengthAdjust="spacingAndGlyphs" textLength="468" x="1365.5" y="249.9482">Completion tail  (ENGINE-OWNED invariants — ADR-010/012)</text><!--MD5=[0ce663c225e1303a6dfdbfba7f0d022a]
class Interpreter--><rect fill="#C8E6C9" height="92.3516" id="Interpreter" style="stroke: #555555; stroke-width: 1.5;" width="202" x="2242" y="79.9531"/><ellipse cx="2304.75" cy="98.9219" fill="#ADD1B2" rx="11" ry="11" style="stroke: #555555; stroke-width: 1.0;"/><path d="M2307.7188,104.5625 Q2307.1406,104.8594 2306.5,105 Q2305.8594,105.1563 2305.1563,105.1563 Q2302.6563,105.1563 2301.3281,103.5156 Q2300.0156,101.8594 2300.0156,98.7344 Q2300.0156,95.6094 2301.3281,93.9531 Q2302.6563,92.2969 2305.1563,92.2969 Q2305.8594,92.2969 2306.5,92.4531 Q2307.1563,92.6094 2307.7188,92.9063 L2307.7188,95.625 Q2307.0938,95.0469 2306.5,94.7813 Q2305.9063,94.5 2305.2813,94.5 Q2303.9375,94.5 2303.25,95.5781 Q2302.5625,96.6406 2302.5625,98.7344 Q2302.5625,100.8281 2303.25,101.9063 Q2303.9375,102.9688 2305.2813,102.9688 Q2305.9063,102.9688 2306.5,102.7031 Q2307.0938,102.4219 2307.7188,101.8438 L2307.7188,104.5625 Z "/><text fill="#000000" font-family="sans-serif" font-size="12" font-style="italic" lengthAdjust="spacingAndGlyphs" textLength="43" x="2337.75" y="96.0918">«pure»</text><text fill="#000000" font-family="sans-serif" font-size="12" lengthAdjust="spacingAndGlyphs" textLength="68" x="2325.25" y="110.0605">Interpreter</text><line style="stroke: #555555; stroke-width: 1.5;" x1="2243" x2="2443" y1="117.8906" y2="117.8906"/><line style="stroke: #555555; stroke-width: 1.5;" x1="2243" x2="2443" y1="125.8906" y2="125.8906"/><ellipse cx="2253" cy="136.8906" fill="#84BE84" rx="3" ry="3" style="stroke: #038048; stroke-width: 1.0;"/><text fill="#000000" font-family="sans-serif" font-size="11" lengthAdjust="spacingAndGlyphs" textLength="112" x="2262" y="140.1011">register(p, state, h)</text><ellipse cx="2253" cy="149.6953" fill="#84BE84" rx="3" ry="3" style="stroke: #038048; stroke-width: 1.0;"/><text fill="#000000" font-family="sans-serif" font-size="11" lengthAdjust="spacingAndGlyphs" textLength="176" x="2262" y="152.9058">scan(tasks) : ItemReadyEvent[]</text><ellipse cx="2253" cy="162.5" fill="#84BE84" rx="3" ry="3" style="stroke: #038048; stroke-width: 1.0;"/><text fill="#000000" font-family="sans-serif" font-size="11" lengthAdjust="spacingAndGlyphs" textLength="133" x="2262" y="165.7104">dispatch(events, tasks)</text><!--MD5=[5d7f87ad7be124bcf8ad2c9ead1692a4]
class Pipeline--><rect fill="#C8E6C9" height="79.5469" id="Pipeline" style="stroke: #555555; stroke-width: 1.5;" width="156" x="2051" y="85.9531"/><ellipse cx="2100.25" cy="104.9219" fill="#ADD1B2" rx="11" ry="11" style="stroke: #555555; stroke-width: 1.0;"/><path d="M2103.2188,110.5625 Q2102.6406,110.8594 2102,111 Q2101.3594,111.1563 2100.6563,111.1563 Q2098.1563,111.1563 2096.8281,109.5156 Q2095.5156,107.8594 2095.5156,104.7344 Q2095.5156,101.6094 2096.8281,99.9531 Q2098.1563,98.2969 2100.6563,98.2969 Q2101.3594,98.2969 2102,98.4531 Q2102.6563,98.6094 2103.2188,98.9063 L2103.2188,101.625 Q2102.5938,101.0469 2102,100.7813 Q2101.4063,100.5 2100.7813,100.5 Q2099.4375,100.5 2098.75,101.5781 Q2098.0625,102.6406 2098.0625,104.7344 Q2098.0625,106.8281 2098.75,107.9063 Q2099.4375,108.9688 2100.7813,108.9688 Q2101.4063,108.9688 2102,108.7031 Q2102.5938,108.4219 2103.2188,107.8438 L2103.2188,110.5625 Z "/><text fill="#000000" font-family="sans-serif" font-size="12" font-style="italic" lengthAdjust="spacingAndGlyphs" textLength="43" x="2123.75" y="102.0918">«pure»</text><text fill="#000000" font-family="sans-serif" font-size="12" lengthAdjust="spacingAndGlyphs" textLength="49" x="2120.75" y="116.0605">Pipeline</text><line style="stroke: #555555; stroke-width: 1.5;" x1="2052" x2="2206" y1="123.8906" y2="123.8906"/><ellipse cx="2062" cy="134.8906" fill="none" rx="3" ry="3" style="stroke: #038048; stroke-width: 1.0;"/><text fill="#000000" font-family="sans-serif" font-size="11" lengthAdjust="spacingAndGlyphs" textLength="55" x="2071" y="138.1011">id : string</text><ellipse cx="2062" cy="147.6953" fill="none" rx="3" ry="3" style="stroke: #038048; stroke-width: 1.0;"/><text fill="#000000" font-family="sans-serif" font-size="11" lengthAdjust="spacingAndGlyphs" textLength="130" x="2071" y="150.9058">states : PipelineState[]</text><line style="stroke: #555555; stroke-width: 1.5;" x1="2052" x2="2206" y1="157.5" y2="157.5"/><path d="M1940,275.9531 L1940,331.3516 A0,0 0 0 0 1940,331.3516 L2444,331.3516 A0,0 0 0 0 2444,331.3516 L2444,285.9531 L2434,275.9531 L2186.41,275.9531 L2143.14,166.3431 L2178.41,275.9531 L1940,275.9531 A0,0 0 0 0 1940,275.9531 " fill="#FBFB77" style="stroke: #A80036; stroke-width: 1.0;"/><path d="M2434,275.9531 L2434,285.9531 L2444,285.9531 L2434,275.9531 " fill="#FBFB77" style="stroke: #A80036; stroke-width: 1.0;"/><text fill="#000000" font-family="sans-serif" font-size="13" lengthAdjust="spacingAndGlyphs" textLength="483" x="1946" y="293.02">executionPipeline states = phases, each with actor (machine|human|none).</text><text fill="#000000" font-family="sans-serif" font-size="13" lengthAdjust="spacingAndGlyphs" textLength="451" x="1946" y="308.1528">ready+in-progress by claim; needs-human IS a phase (actor=human).</text><text fill="#000000" font-family="sans-serif" font-size="13" lengthAdjust="spacingAndGlyphs" textLength="437" x="1946" y="323.2856">scan predicate → pipelineDef[phase].actor=machine ∧ no live claim.</text><!--MD5=[8946bbb4bedc49934ab6f2993681e371]
class ExecutionDriver--><rect fill="#FFE0B2" height="77.9492" id="ExecutionDriver" style="stroke: #555555; stroke-width: 1.5;" width="151" x="458.5" y="434.9531"/><ellipse cx="483.4" cy="453.9219" fill="#ADD1B2" rx="11" ry="11" style="stroke: #555555; stroke-width: 1.0;"/><path d="M486.3688,459.5625 Q485.7906,459.8594 485.15,460 Q484.5094,460.1563 483.8063,460.1563 Q481.3063,460.1563 479.9781,458.5156 Q478.6656,456.8594 478.6656,453.7344 Q478.6656,450.6094 479.9781,448.9531 Q481.3063,447.2969 483.8063,447.2969 Q484.5094,447.2969 485.15,447.4531 Q485.8063,447.6094 486.3688,447.9063 L486.3688,450.625 Q485.7438,450.0469 485.15,449.7813 Q484.5563,449.5 483.9313,449.5 Q482.5875,449.5 481.9,450.5781 Q481.2125,451.6406 481.2125,453.7344 Q481.2125,455.8281 481.9,456.9063 Q482.5875,457.9688 483.9313,457.9688 Q484.5563,457.9688 485.15,457.7031 Q485.7438,457.4219 486.3688,456.8438 L486.3688,459.5625 Z "/><text fill="#000000" font-family="sans-serif" font-size="12" font-style="italic" lengthAdjust="spacingAndGlyphs" textLength="49" x="523.6" y="451.0918">«driver»</text><text fill="#000000" font-family="sans-serif" font-size="12" lengthAdjust="spacingAndGlyphs" textLength="97" x="499.6" y="465.0605">ExecutionDriver</text><line style="stroke: #555555; stroke-width: 1.5;" x1="459.5" x2="608.5" y1="472.8906" y2="472.8906"/><ellipse cx="469.5" cy="483.8906" fill="#84BE84" rx="3" ry="3" style="stroke: #038048; stroke-width: 1.0;"/><text fill="#000000" font-family="sans-serif" font-size="11" lengthAdjust="spacingAndGlyphs" textLength="125" x="478.5" y="487.1011">run(event, task) : void</text><line style="stroke: #555555; stroke-width: 1.0;" x1="459.5" x2="509" y1="500.0977" y2="500.0977"/><text fill="#000000" font-family="sans-serif" font-size="11" lengthAdjust="spacingAndGlyphs" textLength="50" x="509" y="503.4058">per scan</text><line style="stroke: #555555; stroke-width: 1.0;" x1="559" x2="608.5" y1="500.0977" y2="500.0977"/><!--MD5=[8ea4f94f69839c4778e2dcc10a4eca81]
class WorkAction--><rect fill="#C8E6C9" height="92.3516" id="WorkAction" style="stroke: #555555; stroke-width: 1.5;" width="390" x="38" y="589.9531"/><ellipse cx="193.25" cy="608.9219" fill="#B4A7E5" rx="11" ry="11" style="stroke: #555555; stroke-width: 1.0;"/><path d="M189.1719,604.6875 L189.1719,602.5313 L196.5625,602.5313 L196.5625,604.6875 L194.0938,604.6875 L194.0938,612.7656 L196.5625,612.7656 L196.5625,614.9219 L189.1719,614.9219 L189.1719,612.7656 L191.6406,612.7656 L191.6406,604.6875 L189.1719,604.6875 Z "/><text fill="#000000" font-family="sans-serif" font-size="12" font-style="italic" lengthAdjust="spacingAndGlyphs" textLength="43" x="227.75" y="606.0918">«pure»</text><text fill="#000000" font-family="sans-serif" font-size="12" font-style="italic" lengthAdjust="spacingAndGlyphs" textLength="71" x="213.75" y="620.0605">WorkAction</text><line style="stroke: #555555; stroke-width: 1.5;" x1="39" x2="427" y1="627.8906" y2="627.8906"/><ellipse cx="49" cy="638.8906" fill="none" rx="3" ry="3" style="stroke: #038048; stroke-width: 1.0;"/><text fill="#000000" font-family="sans-serif" font-size="11" lengthAdjust="spacingAndGlyphs" textLength="98" x="58" y="642.1011">role = "primitive"</text><ellipse cx="49" cy="651.6953" fill="none" rx="3" ry="3" style="stroke: #038048; stroke-width: 1.0;"/><text fill="#000000" font-family="sans-serif" font-size="11" lengthAdjust="spacingAndGlyphs" textLength="120" x="58" y="654.9058">kind : feature | chore</text><line style="stroke: #555555; stroke-width: 1.5;" x1="39" x2="427" y1="661.5" y2="661.5"/><ellipse cx="49" cy="672.5" fill="#84BE84" rx="3" ry="3" style="stroke: #038048; stroke-width: 1.0;"/><text fill="#000000" font-family="sans-serif" font-size="11" lengthAdjust="spacingAndGlyphs" textLength="364" x="58" y="675.7104">plan(task) : WorkSpec   '' what to run; driver spawns the worker</text><!--MD5=[945a17e0248a9c21d6f4185987a9308d]
class FeatureWork--><rect fill="#C8E6C9" height="53.9375" id="FeatureWork" style="stroke: #555555; stroke-width: 1.5;" width="112" x="104" y="742.9531"/><ellipse cx="119" cy="761.9219" fill="#ADD1B2" rx="11" ry="11" style="stroke: #555555; stroke-width: 1.0;"/><path d="M121.9688,767.5625 Q121.3906,767.8594 120.75,768 Q120.1094,768.1563 119.4063,768.1563 Q116.9063,768.1563 115.5781,766.5156 Q114.2656,764.8594 114.2656,761.7344 Q114.2656,758.6094 115.5781,756.9531 Q116.9063,755.2969 119.4063,755.2969 Q120.1094,755.2969 120.75,755.4531 Q121.4063,755.6094 121.9688,755.9063 L121.9688,758.625 Q121.3438,758.0469 120.75,757.7813 Q120.1563,757.5 119.5313,757.5 Q118.1875,757.5 117.5,758.5781 Q116.8125,759.6406 116.8125,761.7344 Q116.8125,763.8281 117.5,764.9063 Q118.1875,765.9688 119.5313,765.9688 Q120.1563,765.9688 120.75,765.7031 Q121.3438,765.4219 121.9688,764.8438 L121.9688,767.5625 Z "/><text fill="#000000" font-family="sans-serif" font-size="12" font-style="italic" lengthAdjust="spacingAndGlyphs" textLength="43" x="151.5" y="759.0918">«pure»</text><text fill="#000000" font-family="sans-serif" font-size="12" lengthAdjust="spacingAndGlyphs" textLength="80" x="133" y="773.0605">FeatureWork</text><line style="stroke: #555555; stroke-width: 1.5;" x1="105" x2="215" y1="780.8906" y2="780.8906"/><line style="stroke: #555555; stroke-width: 1.5;" x1="105" x2="215" y1="788.8906" y2="788.8906"/><!--MD5=[921b7a3ad64c46d8d72f40da5c8c4ceb]
class ChoreWork--><rect fill="#C8E6C9" height="53.9375" id="ChoreWork" style="stroke: #555555; stroke-width: 1.5;" width="100" x="251" y="742.9531"/><ellipse cx="266" cy="761.9219" fill="#ADD1B2" rx="11" ry="11" style="stroke: #555555; stroke-width: 1.0;"/><path d="M268.9688,767.5625 Q268.3906,767.8594 267.75,768 Q267.1094,768.1563 266.4063,768.1563 Q263.9063,768.1563 262.5781,766.5156 Q261.2656,764.8594 261.2656,761.7344 Q261.2656,758.6094 262.5781,756.9531 Q263.9063,755.2969 266.4063,755.2969 Q267.1094,755.2969 267.75,755.4531 Q268.4063,755.6094 268.9688,755.9063 L268.9688,758.625 Q268.3438,758.0469 267.75,757.7813 Q267.1563,757.5 266.5313,757.5 Q265.1875,757.5 264.5,758.5781 Q263.8125,759.6406 263.8125,761.7344 Q263.8125,763.8281 264.5,764.9063 Q265.1875,765.9688 266.5313,765.9688 Q267.1563,765.9688 267.75,765.7031 Q268.3438,765.4219 268.9688,764.8438 L268.9688,767.5625 Z "/><text fill="#000000" font-family="sans-serif" font-size="12" font-style="italic" lengthAdjust="spacingAndGlyphs" textLength="43" x="292.5" y="759.0918">«pure»</text><text fill="#000000" font-family="sans-serif" font-size="12" lengthAdjust="spacingAndGlyphs" textLength="68" x="280" y="773.0605">ChoreWork</text><line style="stroke: #555555; stroke-width: 1.5;" x1="252" x2="350" y1="780.8906" y2="780.8906"/><line style="stroke: #555555; stroke-width: 1.5;" x1="252" x2="350" y1="788.8906" y2="788.8906"/><!--MD5=[460f83045e67ecf667d685be11ae1452]
class Decompose--><rect fill="#FFE0B2" height="53.9375" id="Decompose" style="stroke: #555555; stroke-width: 1.5;" width="106" x="463" y="608.9531"/><ellipse cx="478" cy="627.9219" fill="#ADD1B2" rx="11" ry="11" style="stroke: #555555; stroke-width: 1.0;"/><path d="M480.9688,633.5625 Q480.3906,633.8594 479.75,634 Q479.1094,634.1563 478.4063,634.1563 Q475.9063,634.1563 474.5781,632.5156 Q473.2656,630.8594 473.2656,627.7344 Q473.2656,624.6094 474.5781,622.9531 Q475.9063,621.2969 478.4063,621.2969 Q479.1094,621.2969 479.75,621.4531 Q480.4063,621.6094 480.9688,621.9063 L480.9688,624.625 Q480.3438,624.0469 479.75,623.7813 Q479.1563,623.5 478.5313,623.5 Q477.1875,623.5 476.5,624.5781 Q475.8125,625.6406 475.8125,627.7344 Q475.8125,629.8281 476.5,630.9063 Q477.1875,631.9688 478.5313,631.9688 Q479.1563,631.9688 479.75,631.7031 Q480.3438,631.4219 480.9688,630.8438 L480.9688,633.5625 Z "/><text fill="#000000" font-family="sans-serif" font-size="12" font-style="italic" lengthAdjust="spacingAndGlyphs" textLength="49" x="504.5" y="625.0918">«driver»</text><text fill="#000000" font-family="sans-serif" font-size="12" lengthAdjust="spacingAndGlyphs" textLength="74" x="492" y="639.0605">Decompose</text><line style="stroke: #555555; stroke-width: 1.5;" x1="464" x2="568" y1="646.8906" y2="646.8906"/><line style="stroke: #555555; stroke-width: 1.5;" x1="464" x2="568" y1="654.8906" y2="654.8906"/><!--MD5=[7f46b15c3723d52271729cd4156918c2]
class Evaluate--><rect fill="#FFE0B2" height="53.9375" id="Evaluate" style="stroke: #555555; stroke-width: 1.5;" width="86" x="604" y="608.9531"/><ellipse cx="619" cy="627.9219" fill="#ADD1B2" rx="11" ry="11" style="stroke: #555555; stroke-width: 1.0;"/><path d="M621.9688,633.5625 Q621.3906,633.8594 620.75,634 Q620.1094,634.1563 619.4063,634.1563 Q616.9063,634.1563 615.5781,632.5156 Q614.2656,630.8594 614.2656,627.7344 Q614.2656,624.6094 615.5781,622.9531 Q616.9063,621.2969 619.4063,621.2969 Q620.1094,621.2969 620.75,621.4531 Q621.4063,621.6094 621.9688,621.9063 L621.9688,624.625 Q621.3438,624.0469 620.75,623.7813 Q620.1563,623.5 619.5313,623.5 Q618.1875,623.5 617.5,624.5781 Q616.8125,625.6406 616.8125,627.7344 Q616.8125,629.8281 617.5,630.9063 Q618.1875,631.9688 619.5313,631.9688 Q620.1563,631.9688 620.75,631.7031 Q621.3438,631.4219 621.9688,630.8438 L621.9688,633.5625 Z "/><text fill="#000000" font-family="sans-serif" font-size="12" font-style="italic" lengthAdjust="spacingAndGlyphs" textLength="49" x="635.5" y="625.0918">«driver»</text><text fill="#000000" font-family="sans-serif" font-size="12" lengthAdjust="spacingAndGlyphs" textLength="54" x="633" y="639.0605">Evaluate</text><line style="stroke: #555555; stroke-width: 1.5;" x1="605" x2="689" y1="646.8906" y2="646.8906"/><line style="stroke: #555555; stroke-width: 1.5;" x1="605" x2="689" y1="654.8906" y2="654.8906"/><!--MD5=[b70b6f8320058fab22834c343bc0e2f8]
class FeatureWorker--><rect fill="#FFF3E0" height="53.9375" id="FeatureWorker" style="stroke: #555555; stroke-width: 1.5;" width="125" x="1274.5" y="98.9531"/><ellipse cx="1289.5" cy="117.9219" fill="#ADD1B2" rx="11" ry="11" style="stroke: #555555; stroke-width: 1.0;"/><path d="M1292.4688,123.5625 Q1291.8906,123.8594 1291.25,124 Q1290.6094,124.1563 1289.9063,124.1563 Q1287.4063,124.1563 1286.0781,122.5156 Q1284.7656,120.8594 1284.7656,117.7344 Q1284.7656,114.6094 1286.0781,112.9531 Q1287.4063,111.2969 1289.9063,111.2969 Q1290.6094,111.2969 1291.25,111.4531 Q1291.9063,111.6094 1292.4688,111.9063 L1292.4688,114.625 Q1291.8438,114.0469 1291.25,113.7813 Q1290.6563,113.5 1290.0313,113.5 Q1288.6875,113.5 1288,114.5781 Q1287.3125,115.6406 1287.3125,117.7344 Q1287.3125,119.8281 1288,120.9063 Q1288.6875,121.9688 1290.0313,121.9688 Q1290.6563,121.9688 1291.25,121.7031 Q1291.8438,121.4219 1292.4688,120.8438 L1292.4688,123.5625 Z "/><text fill="#000000" font-family="sans-serif" font-size="12" font-style="italic" lengthAdjust="spacingAndGlyphs" textLength="57" x="1321.5" y="115.0918">«worker»</text><text fill="#000000" font-family="sans-serif" font-size="12" lengthAdjust="spacingAndGlyphs" textLength="93" x="1303.5" y="129.0605">FeatureWorker</text><line style="stroke: #555555; stroke-width: 1.5;" x1="1275.5" x2="1398.5" y1="136.8906" y2="136.8906"/><line style="stroke: #555555; stroke-width: 1.5;" x1="1275.5" x2="1398.5" y1="144.8906" y2="144.8906"/><!--MD5=[da37faeed9c4102779a73c6bda28591f]
class ChoreWorker--><rect fill="#FFF3E0" height="53.9375" id="ChoreWorker" style="stroke: #555555; stroke-width: 1.5;" width="113" x="1434.5" y="98.9531"/><ellipse cx="1449.5" cy="117.9219" fill="#ADD1B2" rx="11" ry="11" style="stroke: #555555; stroke-width: 1.0;"/><path d="M1452.4688,123.5625 Q1451.8906,123.8594 1451.25,124 Q1450.6094,124.1563 1449.9063,124.1563 Q1447.4063,124.1563 1446.0781,122.5156 Q1444.7656,120.8594 1444.7656,117.7344 Q1444.7656,114.6094 1446.0781,112.9531 Q1447.4063,111.2969 1449.9063,111.2969 Q1450.6094,111.2969 1451.25,111.4531 Q1451.9063,111.6094 1452.4688,111.9063 L1452.4688,114.625 Q1451.8438,114.0469 1451.25,113.7813 Q1450.6563,113.5 1450.0313,113.5 Q1448.6875,113.5 1448,114.5781 Q1447.3125,115.6406 1447.3125,117.7344 Q1447.3125,119.8281 1448,120.9063 Q1448.6875,121.9688 1450.0313,121.9688 Q1450.6563,121.9688 1451.25,121.7031 Q1451.8438,121.4219 1452.4688,120.8438 L1452.4688,123.5625 Z "/><text fill="#000000" font-family="sans-serif" font-size="12" font-style="italic" lengthAdjust="spacingAndGlyphs" textLength="57" x="1475.5" y="115.0918">«worker»</text><text fill="#000000" font-family="sans-serif" font-size="12" lengthAdjust="spacingAndGlyphs" textLength="81" x="1463.5" y="129.0605">ChoreWorker</text><line style="stroke: #555555; stroke-width: 1.5;" x1="1435.5" x2="1546.5" y1="136.8906" y2="136.8906"/><line style="stroke: #555555; stroke-width: 1.5;" x1="1435.5" x2="1546.5" y1="144.8906" y2="144.8906"/><!--MD5=[3137d20f986b4a02518a1fe21e5fd46d]
class CompleteHandshake--><rect fill="#F8BBD0" height="66.7422" id="CompleteHandshake" style="stroke: #555555; stroke-width: 1.5;" width="196" x="1315" y="269.9531"/><ellipse cx="1345.3" cy="288.9219" fill="#ADD1B2" rx="11" ry="11" style="stroke: #555555; stroke-width: 1.0;"/><path d="M1348.2688,294.5625 Q1347.6906,294.8594 1347.05,295 Q1346.4094,295.1563 1345.7063,295.1563 Q1343.2063,295.1563 1341.8781,293.5156 Q1340.5656,291.8594 1340.5656,288.7344 Q1340.5656,285.6094 1341.8781,283.9531 Q1343.2063,282.2969 1345.7063,282.2969 Q1346.4094,282.2969 1347.05,282.4531 Q1347.7063,282.6094 1348.2688,282.9063 L1348.2688,285.625 Q1347.6438,285.0469 1347.05,284.7813 Q1346.4563,284.5 1345.8313,284.5 Q1344.4875,284.5 1343.8,285.5781 Q1343.1125,286.6406 1343.1125,288.7344 Q1343.1125,290.8281 1343.8,291.9063 Q1344.4875,292.9688 1345.8313,292.9688 Q1346.4563,292.9688 1347.05,292.7031 Q1347.6438,292.4219 1348.2688,291.8438 L1348.2688,294.5625 Z "/><text fill="#000000" font-family="sans-serif" font-size="12" font-style="italic" lengthAdjust="spacingAndGlyphs" textLength="68" x="1393.7" y="286.0918">«invariant»</text><text fill="#000000" font-family="sans-serif" font-size="12" lengthAdjust="spacingAndGlyphs" textLength="130" x="1362.7" y="300.0605">CompleteHandshake</text><line style="stroke: #555555; stroke-width: 1.5;" x1="1316" x2="1510" y1="307.8906" y2="307.8906"/><line style="stroke: #555555; stroke-width: 1.5;" x1="1316" x2="1510" y1="315.8906" y2="315.8906"/><ellipse cx="1326" cy="326.8906" fill="#84BE84" rx="3" ry="3" style="stroke: #038048; stroke-width: 1.0;"/><text fill="#000000" font-family="sans-serif" font-size="11" lengthAdjust="spacingAndGlyphs" textLength="170" x="1335" y="330.1011">complete(taskId, result) : void</text><!--MD5=[f3365645dcc6ae4f0fec7af81db6a504]
class Adjudicator--><rect fill="#F8BBD0" height="66.7422" id="Adjudicator" style="stroke: #555555; stroke-width: 1.5;" width="287" x="1315.5" y="440.4531"/><ellipse cx="1419.25" cy="459.4219" fill="#ADD1B2" rx="11" ry="11" style="stroke: #555555; stroke-width: 1.0;"/><path d="M1422.2188,465.0625 Q1421.6406,465.3594 1421,465.5 Q1420.3594,465.6563 1419.6563,465.6563 Q1417.1563,465.6563 1415.8281,464.0156 Q1414.5156,462.3594 1414.5156,459.2344 Q1414.5156,456.1094 1415.8281,454.4531 Q1417.1563,452.7969 1419.6563,452.7969 Q1420.3594,452.7969 1421,452.9531 Q1421.6563,453.1094 1422.2188,453.4063 L1422.2188,456.125 Q1421.5938,455.5469 1421,455.2813 Q1420.4063,455 1419.7813,455 Q1418.4375,455 1417.75,456.0781 Q1417.0625,457.1406 1417.0625,459.2344 Q1417.0625,461.3281 1417.75,462.4063 Q1418.4375,463.4688 1419.7813,463.4688 Q1420.4063,463.4688 1421,463.2031 Q1421.5938,462.9219 1422.2188,462.3438 L1422.2188,465.0625 Z "/><text fill="#000000" font-family="sans-serif" font-size="12" font-style="italic" lengthAdjust="spacingAndGlyphs" textLength="68" x="1441.25" y="456.5918">«invariant»</text><text fill="#000000" font-family="sans-serif" font-size="12" lengthAdjust="spacingAndGlyphs" textLength="71" x="1439.75" y="470.5605">Adjudicator</text><line style="stroke: #555555; stroke-width: 1.5;" x1="1316.5" x2="1601.5" y1="478.3906" y2="478.3906"/><line style="stroke: #555555; stroke-width: 1.5;" x1="1316.5" x2="1601.5" y1="486.3906" y2="486.3906"/><ellipse cx="1326.5" cy="497.3906" fill="#84BE84" rx="3" ry="3" style="stroke: #038048; stroke-width: 1.0;"/><text fill="#000000" font-family="sans-serif" font-size="11" lengthAdjust="spacingAndGlyphs" textLength="261" x="1335.5" y="500.6011">adjudicate(task, result) : Verdict   '' pass | fail</text><!--MD5=[3bee139e22e2b3044672075775be92c4]
class MergeCoordinator--><rect fill="#F8BBD0" height="79.5469" id="MergeCoordinator" style="stroke: #555555; stroke-width: 1.5;" width="211" x="1394.5" y="595.9531"/><ellipse cx="1439.25" cy="614.9219" fill="#ADD1B2" rx="11" ry="11" style="stroke: #555555; stroke-width: 1.0;"/><path d="M1442.2188,620.5625 Q1441.6406,620.8594 1441,621 Q1440.3594,621.1563 1439.6563,621.1563 Q1437.1563,621.1563 1435.8281,619.5156 Q1434.5156,617.8594 1434.5156,614.7344 Q1434.5156,611.6094 1435.8281,609.9531 Q1437.1563,608.2969 1439.6563,608.2969 Q1440.3594,608.2969 1441,608.4531 Q1441.6563,608.6094 1442.2188,608.9063 L1442.2188,611.625 Q1441.5938,611.0469 1441,610.7813 Q1440.4063,610.5 1439.7813,610.5 Q1438.4375,610.5 1437.75,611.5781 Q1437.0625,612.6406 1437.0625,614.7344 Q1437.0625,616.8281 1437.75,617.9063 Q1438.4375,618.9688 1439.7813,618.9688 Q1440.4063,618.9688 1441,618.7031 Q1441.5938,618.4219 1442.2188,617.8438 L1442.2188,620.5625 Z "/><text fill="#000000" font-family="sans-serif" font-size="12" font-style="italic" lengthAdjust="spacingAndGlyphs" textLength="68" x="1482.25" y="612.0918">«invariant»</text><text fill="#000000" font-family="sans-serif" font-size="12" lengthAdjust="spacingAndGlyphs" textLength="113" x="1459.75" y="626.0605">MergeCoordinator</text><line style="stroke: #555555; stroke-width: 1.5;" x1="1395.5" x2="1604.5" y1="633.8906" y2="633.8906"/><line style="stroke: #555555; stroke-width: 1.5;" x1="1395.5" x2="1604.5" y1="641.8906" y2="641.8906"/><ellipse cx="1405.5" cy="652.8906" fill="#84BE84" rx="3" ry="3" style="stroke: #038048; stroke-width: 1.0;"/><text fill="#000000" font-family="sans-serif" font-size="11" lengthAdjust="spacingAndGlyphs" textLength="104" x="1414.5" y="656.1011">merge(task) : void</text><ellipse cx="1405.5" cy="665.6953" fill="#84BE84" rx="3" ry="3" style="stroke: #038048; stroke-width: 1.0;"/><text fill="#000000" font-family="sans-serif" font-size="11" lengthAdjust="spacingAndGlyphs" textLength="185" x="1414.5" y="668.9058">reapSameFieldPeers(field) : void</text><!--MD5=[d0b7a0bb38c84f0294b3da567a7f5622]
class SafetyMonitor--><rect fill="#F8BBD0" height="66.7422" id="SafetyMonitor" style="stroke: #555555; stroke-width: 1.5;" width="338" x="1546" y="269.9531"/><ellipse cx="1667.75" cy="288.9219" fill="#ADD1B2" rx="11" ry="11" style="stroke: #555555; stroke-width: 1.0;"/><path d="M1670.7188,294.5625 Q1670.1406,294.8594 1669.5,295 Q1668.8594,295.1563 1668.1563,295.1563 Q1665.6563,295.1563 1664.3281,293.5156 Q1663.0156,291.8594 1663.0156,288.7344 Q1663.0156,285.6094 1664.3281,283.9531 Q1665.6563,282.2969 1668.1563,282.2969 Q1668.8594,282.2969 1669.5,282.4531 Q1670.1563,282.6094 1670.7188,282.9063 L1670.7188,285.625 Q1670.0938,285.0469 1669.5,284.7813 Q1668.9063,284.5 1668.2813,284.5 Q1666.9375,284.5 1666.25,285.5781 Q1665.5625,286.6406 1665.5625,288.7344 Q1665.5625,290.8281 1666.25,291.9063 Q1666.9375,292.9688 1668.2813,292.9688 Q1668.9063,292.9688 1669.5,292.7031 Q1670.0938,292.4219 1670.7188,291.8438 L1670.7188,294.5625 Z "/><text fill="#000000" font-family="sans-serif" font-size="12" font-style="italic" lengthAdjust="spacingAndGlyphs" textLength="68" x="1697.25" y="286.0918">«invariant»</text><text fill="#000000" font-family="sans-serif" font-size="12" lengthAdjust="spacingAndGlyphs" textLength="86" x="1688.25" y="300.0605">SafetyMonitor</text><line style="stroke: #555555; stroke-width: 1.5;" x1="1547" x2="1883" y1="307.8906" y2="307.8906"/><line style="stroke: #555555; stroke-width: 1.5;" x1="1547" x2="1883" y1="315.8906" y2="315.8906"/><ellipse cx="1557" cy="326.8906" fill="#84BE84" rx="3" ry="3" style="stroke: #038048; stroke-width: 1.0;"/><text fill="#000000" font-family="sans-serif" font-size="11" lengthAdjust="spacingAndGlyphs" textLength="312" x="1566" y="330.1011">flagStale() : void   '' informational only; human decides</text><!--MD5=[bf6c3a69eda2bf9b1d52c6e528da1b08]
class IssueSource--><rect fill="#E1BEE7" height="92.3516" id="IssueSource" style="stroke: #555555; stroke-width: 1.5;" width="130" x="883" y="589.9531"/><ellipse cx="907.9" cy="608.9219" fill="#B4A7E5" rx="11" ry="11" style="stroke: #555555; stroke-width: 1.0;"/><path d="M903.8219,604.6875 L903.8219,602.5313 L911.2125,602.5313 L911.2125,604.6875 L908.7438,604.6875 L908.7438,612.7656 L911.2125,612.7656 L911.2125,614.9219 L903.8219,614.9219 L903.8219,612.7656 L906.2906,612.7656 L906.2906,604.6875 L903.8219,604.6875 Z "/><text fill="#000000" font-family="sans-serif" font-size="12" font-style="italic" lengthAdjust="spacingAndGlyphs" textLength="67" x="928.6" y="606.0918">«contract»</text><text fill="#000000" font-family="sans-serif" font-size="12" font-style="italic" lengthAdjust="spacingAndGlyphs" textLength="76" x="924.1" y="620.0605">IssueSource</text><line style="stroke: #555555; stroke-width: 1.5;" x1="884" x2="1012" y1="627.8906" y2="627.8906"/><line style="stroke: #555555; stroke-width: 1.5;" x1="884" x2="1012" y1="635.8906" y2="635.8906"/><ellipse cx="894" cy="646.8906" fill="#84BE84" rx="3" ry="3" style="stroke: #038048; stroke-width: 1.0;"/><text fill="#000000" font-family="sans-serif" font-size="11" lengthAdjust="spacingAndGlyphs" textLength="98" x="903" y="650.1011">list(filter) : Task[]</text><ellipse cx="894" cy="659.6953" fill="#84BE84" rx="3" ry="3" style="stroke: #038048; stroke-width: 1.0;"/><text fill="#000000" font-family="sans-serif" font-size="11" lengthAdjust="spacingAndGlyphs" textLength="75" x="903" y="662.9058">get(id) : Task</text><ellipse cx="894" cy="672.5" fill="#84BE84" rx="3" ry="3" style="stroke: #038048; stroke-width: 1.0;"/><text fill="#000000" font-family="sans-serif" font-size="11" lengthAdjust="spacingAndGlyphs" textLength="104" x="903" y="675.7104">upsert(task) : void</text><!--MD5=[5d2bdee92db0d01b75732190da037553]
class Coordinator--><rect fill="#E1BEE7" height="66.7422" id="Coordinator" style="stroke: #555555; stroke-width: 1.5;" width="448" x="1916" y="602.4531"/><ellipse cx="2098.75" cy="621.4219" fill="#B4A7E5" rx="11" ry="11" style="stroke: #555555; stroke-width: 1.0;"/><path d="M2094.6719,617.1875 L2094.6719,615.0313 L2102.0625,615.0313 L2102.0625,617.1875 L2099.5938,617.1875 L2099.5938,625.2656 L2102.0625,625.2656 L2102.0625,627.4219 L2094.6719,627.4219 L2094.6719,625.2656 L2097.1406,625.2656 L2097.1406,617.1875 L2094.6719,617.1875 Z "/><text fill="#000000" font-family="sans-serif" font-size="12" font-style="italic" lengthAdjust="spacingAndGlyphs" textLength="67" x="2122.75" y="618.5918">«contract»</text><text fill="#000000" font-family="sans-serif" font-size="12" font-style="italic" lengthAdjust="spacingAndGlyphs" textLength="74" x="2119.25" y="632.5605">Coordinator</text><line style="stroke: #555555; stroke-width: 1.5;" x1="1917" x2="2363" y1="640.3906" y2="640.3906"/><line style="stroke: #555555; stroke-width: 1.5;" x1="1917" x2="2363" y1="648.3906" y2="648.3906"/><ellipse cx="1927" cy="659.3906" fill="#84BE84" rx="3" ry="3" style="stroke: #038048; stroke-width: 1.0;"/><text fill="#000000" font-family="sans-serif" font-size="11" lengthAdjust="spacingAndGlyphs" textLength="422" x="1936" y="662.6011">claims() : Map&lt;taskId, Claim&gt;   '' SAME runtime-fact channel as authoring</text><path d="M162.5,90.4531 L162.5,160.9844 L683.5,160.9844 L683.5,100.4531 L673.5,90.4531 L162.5,90.4531 " fill="#FBFB77" style="stroke: #A80036; stroke-width: 1.0;"/><path d="M673.5,90.4531 L673.5,100.4531 L683.5,100.4531 L673.5,90.4531 " fill="#FBFB77" style="stroke: #A80036; stroke-width: 1.0;"/><text fill="#000000" font-family="sans-serif" font-size="13" font-weight="bold" lengthAdjust="spacingAndGlyphs" textLength="191" x="168.5" y="107.52">Symmetry with authoring:</text><text fill="#000000" font-family="sans-serif" font-size="13" lengthAdjust="spacingAndGlyphs" textLength="288" x="363.5" y="107.52">scan → dispatch → worker → result flows back</text><text fill="#000000" font-family="sans-serif" font-size="13" lengthAdjust="spacingAndGlyphs" textLength="500" x="168.5" y="122.6528">as DATA → engine reads &amp; branches. Adjudicator's DoD verdict is to execution</text><text fill="#000000" font-family="sans-serif" font-size="13" lengthAdjust="spacingAndGlyphs" textLength="476" x="168.5" y="137.7856">what the architect Reviewed verdict is to authoring — both appended data,</text><text fill="#000000" font-family="sans-serif" font-size="13" lengthAdjust="spacingAndGlyphs" textLength="246" x="168.5" y="152.9185">never a worker's own claim of success.</text><path d="M718.5,98.4531 L718.5,153.8516 L1239.5,153.8516 L1239.5,108.4531 L1229.5,98.4531 L718.5,98.4531 " fill="#FBFB77" style="stroke: #A80036; stroke-width: 1.0;"/><path d="M1229.5,98.4531 L1229.5,108.4531 L1239.5,108.4531 L1229.5,98.4531 " fill="#FBFB77" style="stroke: #A80036; stroke-width: 1.0;"/><text fill="#000000" font-family="sans-serif" font-size="13" font-weight="bold" lengthAdjust="spacingAndGlyphs" textLength="88" x="724.5" y="115.52">Asymmetry:</text><text fill="#000000" font-family="sans-serif" font-size="13" lengthAdjust="spacingAndGlyphs" textLength="350" x="816.5" y="115.52">the completion tail (pink) is NOT a strategy — it is fixed</text><text fill="#000000" font-family="sans-serif" font-size="13" lengthAdjust="spacingAndGlyphs" textLength="500" x="724.5" y="130.6528">safety machinery (ENG-3 merge lock, ENG-8 no self-attested done). Variability</text><text fill="#000000" font-family="sans-serif" font-size="13" lengthAdjust="spacingAndGlyphs" textLength="439" x="724.5" y="145.7856">lives ONLY in WorkAction (role/kind). Do NOT make the tail pluggable.</text><path d="M174.5,275.9531 L174.5,331.3516 L671.5,331.3516 L671.5,285.9531 L661.5,275.9531 L174.5,275.9531 " fill="#FBFB77" style="stroke: #A80036; stroke-width: 1.0;"/><path d="M661.5,275.9531 L661.5,285.9531 L671.5,285.9531 L661.5,275.9531 " fill="#FBFB77" style="stroke: #A80036; stroke-width: 1.0;"/><text fill="#000000" font-family="sans-serif" font-size="13" lengthAdjust="spacingAndGlyphs" textLength="463" x="180.5" y="293.02">TODAY: Interpreter + executionPipeline are pure &amp; TEST-ONLY (unwired).</text><text fill="#000000" font-family="sans-serif" font-size="13" lengthAdjust="spacingAndGlyphs" textLength="465" x="180.5" y="308.1528">ExecutionDriver / CompleteHandshake / Adjudicator / MergeCoordinator /</text><text fill="#000000" font-family="sans-serif" font-size="13" lengthAdjust="spacingAndGlyphs" textLength="476" x="180.5" y="323.2856">SafetyMonitor / Coordinator ALL ABSENT — soak runs on baime scan-loop.</text><!--MD5=[e58de9e3f593cefb9484addad06aca4b]
reverse link WorkAction to FeatureWork--><path d="M198.32,699.6531 C189.87,714.9431 181.28,730.4731 174.38,742.9431 " fill="none" id="WorkAction&lt;-FeatureWork" style="stroke: #A80036; stroke-width: 1.0; stroke-dasharray: 7.0,7.0;"/><polygon fill="none" points="192.28,696.1231,208.08,682.0131,204.53,702.9031,192.28,696.1231" style="stroke: #A80036; stroke-width: 1.0;"/><!--MD5=[0ffba4907edf7e5067aac731d8460532]
reverse link WorkAction to ChoreWork--><path d="M265.56,700.1531 C273.35,715.2831 281.25,730.6131 287.6,742.9431 " fill="none" id="WorkAction&lt;-ChoreWork" style="stroke: #A80036; stroke-width: 1.0; stroke-dasharray: 7.0,7.0;"/><polygon fill="none" points="259.15,702.9931,256.21,682.0131,271.59,696.5831,259.15,702.9931" style="stroke: #A80036; stroke-width: 1.0;"/><!--MD5=[ddf231d97dfe7f8974fac09c70763e57]
link ExecutionDriver to WorkAction--><path d="M458.17,477.0531 C356.5,481.6531 184.2,496.3031 145,542.9531 C132.85,557.4131 138.62,572.4731 151.7,586.1231 " fill="none" id="ExecutionDriver-&gt;WorkAction" style="stroke: #A80036; stroke-width: 1.0; stroke-dasharray: 7.0,7.0;"/><polygon fill="#A80036" points="155.57,589.9331,151.9418,580.7769,151.9989,586.4335,146.3424,586.4906,155.57,589.9331" style="stroke: #A80036; stroke-width: 1.0;"/><text fill="#000000" font-family="sans-serif" font-size="13" lengthAdjust="spacingAndGlyphs" textLength="158" x="146" y="556.02">dispatch (role=primitive)</text><!--MD5=[f3cf3d41966385e99ae31afe82b11425]
link ExecutionDriver to Decompose--><path d="M458.29,477.1931 C409.7,483.0431 349.92,499.4431 318,542.9531 C294.2,575.3931 350.67,550.2431 445,589.9531 C455.38,594.3231 465.96,600.1531 475.66,606.1531 " fill="none" id="ExecutionDriver-&gt;Decompose" style="stroke: #A80036; stroke-width: 1.0; stroke-dasharray: 7.0,7.0;"/><polygon fill="#A80036" points="480.06,608.9231,474.5554,600.7561,475.8224,606.2693,470.3093,607.5363,480.06,608.9231" style="stroke: #A80036; stroke-width: 1.0;"/><text fill="#000000" font-family="sans-serif" font-size="13" lengthAdjust="spacingAndGlyphs" textLength="171" x="319" y="556.02">dispatch (role=compound)</text><!--MD5=[e5304679a283f0f5031c8b3c7a61747c]
link ExecutionDriver to Evaluate--><path d="M524.04,513.1531 C522.11,528.6531 522.78,546.1131 531,559.9531 C545.21,583.8931 562.52,574.9831 586,589.9531 C593.68,594.8431 601.66,600.3831 609.22,605.8531 " fill="none" id="ExecutionDriver-&gt;Evaluate" style="stroke: #A80036; stroke-width: 1.0; stroke-dasharray: 7.0,7.0;"/><polygon fill="#A80036" points="613.38,608.8831,608.4576,600.3526,609.3376,605.9406,603.7496,606.8205,613.38,608.8831" style="stroke: #A80036; stroke-width: 1.0;"/><text fill="#000000" font-family="sans-serif" font-size="13" lengthAdjust="spacingAndGlyphs" textLength="154" x="532" y="556.02">dispatch (epic-eval-due)</text><!--MD5=[b8ad1a15f4429c993a7952c9358af24d]
link CompleteHandshake to Adjudicator--><path d="M1421.98,337.3431 C1429.67,365.5031 1440.73,406.0331 1448.76,435.4431 " fill="none" id="CompleteHandshake-&gt;Adjudicator" style="stroke: #A80036; stroke-width: 1.0; stroke-dasharray: 7.0,7.0;"/><polygon fill="#A80036" points="1450.12,440.4331,1451.6086,430.6974,1448.8032,435.6096,1443.891,432.8043,1450.12,440.4331" style="stroke: #A80036; stroke-width: 1.0;"/><text fill="#000000" font-family="sans-serif" font-size="13" lengthAdjust="spacingAndGlyphs" textLength="71" x="1435" y="380.02">re-run DoD</text><!--MD5=[5090586a7ccb93e5d56f45d211d76038]
link Adjudicator to MergeCoordinator--><path d="M1467.4,507.7131 C1473.52,531.6331 1481.9,564.3131 1488.63,590.5731 " fill="none" id="Adjudicator-&gt;MergeCoordinator" style="stroke: #A80036; stroke-width: 1.0; stroke-dasharray: 7.0,7.0;"/><polygon fill="#A80036" points="1489.95,595.7331,1491.5872,586.0213,1488.7071,590.8901,1483.8383,588.01,1489.95,595.7331" style="stroke: #A80036; stroke-width: 1.0;"/><text fill="#000000" font-family="sans-serif" font-size="13" lengthAdjust="spacingAndGlyphs" textLength="149" x="1481" y="556.02">pass → merge/advance</text><!--MD5=[e10733ee07c47dec744c5142f851ade1]
link ExecutionDriver to Coordinator--><path d="M609.64,479.0431 C723.67,486.2131 945.95,504.1731 1131,542.9531 C1156.04,548.2031 1160.79,555.6031 1186,559.9531 C1498.99,613.9631 1584.44,553.9231 1900,589.9531 C1925.67,592.8831 1952.71,596.9731 1979.03,601.4931 " fill="none" id="ExecutionDriver-&gt;Coordinator" style="stroke: #A80036; stroke-width: 1.0; stroke-dasharray: 7.0,7.0;"/><polygon fill="#A80036" points="1984.28,602.4031,1976.0985,596.9202,1979.3539,601.5464,1974.7277,604.8019,1984.28,602.4031" style="stroke: #A80036; stroke-width: 1.0;"/><text fill="#000000" font-family="sans-serif" font-size="13" lengthAdjust="spacingAndGlyphs" textLength="111" x="1187" y="556.02">claim during work</text><!--MD5=[a0b5faa078fe94b1e8001132118bd001]
link ExecutionDriver to IssueSource--><path d="M609.68,507.1431 C635.55,518.3031 664.61,531.0131 691,542.9531 C707.12,550.2431 710.6,553.3231 727,559.9531 C776.73,580.0631 834.14,599.4331 877.97,613.4431 " fill="none" id="ExecutionDriver-&gt;IssueSource" style="stroke: #A80036; stroke-width: 1.0; stroke-dasharray: 7.0,7.0;"/><polygon fill="#A80036" points="882.98,615.0431,875.6294,608.4881,878.2184,613.5177,873.1887,616.1066,882.98,615.0431" style="stroke: #A80036; stroke-width: 1.0;"/><text fill="#000000" font-family="sans-serif" font-size="13" lengthAdjust="spacingAndGlyphs" textLength="176" x="728" y="556.02">advance phase / waiting_on</text><!--MD5=[d9122686cb03c6bc14738267b8b086a9]
link FeatureWorker to CompleteHandshake--><path d="M1320.85,153.2031 C1311.42,172.1031 1303.14,197.8731 1313,218.9531 C1321.79,237.7431 1337.12,253.7931 1353.17,266.6431 " fill="none" id="FeatureWorker-&gt;CompleteHandshake" style="stroke: #A80036; stroke-width: 1.0; stroke-dasharray: 7.0,7.0;"/><polygon fill="#A80036" points="1357.27,269.8431,1352.6477,261.1463,1353.3325,266.7616,1347.7172,267.4464,1357.27,269.8431" style="stroke: #A80036; stroke-width: 1.0;"/><text fill="#000000" font-family="sans-serif" font-size="13" lengthAdjust="spacingAndGlyphs" textLength="153" x="1314" y="215.02">engine.complete(result)</text><!--MD5=[a883d3cb9323e403aec1306b812ceb50]
link ChoreWorker to CompleteHandshake--><path d="M1488.48,153.2031 C1485.99,172.0931 1481.15,197.8531 1472,218.9531 C1464.89,235.3331 1454.26,251.7331 1443.97,265.6131 " fill="none" id="ChoreWorker-&gt;CompleteHandshake" style="stroke: #A80036; stroke-width: 1.0; stroke-dasharray: 7.0,7.0;"/><polygon fill="#A80036" points="1440.79,269.8331,1449.39,265.0331,1443.79,265.8331,1442.99,260.2331,1440.79,269.8331" style="stroke: #A80036; stroke-width: 1.0;"/><text fill="#000000" font-family="sans-serif" font-size="13" lengthAdjust="spacingAndGlyphs" textLength="153" x="1479" y="215.02">engine.complete(result)</text><!--MD5=[49ad9edcfa8cea3d21403ca35903b3b8]
link Adjudicator to IssueSource--><path d="M1400.53,507.5931 C1367.2,525.1131 1324.18,545.9231 1284,559.9531 C1194.63,591.1531 1087.24,612.4531 1018.33,624.1631 " fill="none" id="Adjudicator-&gt;IssueSource" style="stroke: #A80036; stroke-width: 1.0; stroke-dasharray: 7.0,7.0;"/><polygon fill="#A80036" points="1013.03,625.0631,1022.5686,627.5157,1017.9608,624.2342,1021.2423,619.6264,1013.03,625.0631" style="stroke: #A80036; stroke-width: 1.0;"/><text fill="#000000" font-family="sans-serif" font-size="13" lengthAdjust="spacingAndGlyphs" textLength="135" x="1324" y="556.02">pass → phase:=done</text><!--MD5=[49ad9edcfa8cea3d21403ca35903b3b8]
link Adjudicator to IssueSource--><path d="M1315.34,484.3631 C1171.88,495.2531 969.23,515.3031 945,542.9531 C935.06,554.2931 932.86,569.7631 934.03,584.7931 " fill="none" id="Adjudicator-&gt;IssueSource-1" style="stroke: #A80036; stroke-width: 1.0; stroke-dasharray: 7.0,7.0;"/><polygon fill="#A80036" points="934.56,589.8631,937.6127,580.4993,934.0455,584.8897,929.6551,581.3225,934.56,589.8631" style="stroke: #A80036; stroke-width: 1.0;"/><text fill="#000000" font-family="sans-serif" font-size="13" lengthAdjust="spacingAndGlyphs" textLength="180" x="946" y="556.02">fail → phase:=needs-human</text><!--MD5=[b36b906708c3fd08ea3f6c728cea3695]
link SafetyMonitor to Coordinator--><path d="M1756.91,337.0431 C1836.84,399.2031 2010.48,534.2331 2093.71,598.9531 " fill="none" id="SafetyMonitor-&gt;Coordinator" style="stroke: #A80036; stroke-width: 1.0; stroke-dasharray: 7.0,7.0;"/><polygon fill="#A80036" points="2098.09,602.3631,2093.4285,593.6873,2094.1386,599.2994,2088.5265,600.0095,2098.09,602.3631" style="stroke: #A80036; stroke-width: 1.0;"/><text fill="#000000" font-family="sans-serif" font-size="13" lengthAdjust="spacingAndGlyphs" textLength="95" x="1977" y="478.52">read claim age</text><!--MD5=[cbe24d44a7a0442c48cc51338655737e]
link N_symmetry to N_asymmetry--><!--MD5=[3a69a00b33e08d3d48064e086e23d557]
link N_symmetry to N_today--><!--MD5=[11c534896f07405cc9c3258d8a1d4736]
@startuml epicd-execution-class

skinparam backgroundColor #FFFFFF
skinparam shadowing false
skinparam class {
  BorderColor #555555
  BackgroundColor #E8F0FE
  BackgroundColor<<pure>> #C8E6C9
  BackgroundColor<<driver>> #FFE0B2
  BackgroundColor<<worker>> #FFF3E0
  BackgroundColor<<invariant>> #F8BBD0
  BackgroundColor<<contract>> #E1BEE7
}
skinparam packageStyle rectangle

title epicd — Execution engine (class diagram; symmetric to authoring, invariant-heavy tail)

package "Core state machine  (pure — EXISTS, test-only)" {
  class Interpreter <<pure>> {
    +register(p, state, h)
    +scan(tasks) : ItemReadyEvent[]
    +dispatch(events, tasks)
  }
  class Pipeline <<pure>> {
    +id : string
    +states : PipelineState[]
  }
  note bottom of Pipeline
    executionPipeline states = phases, each with actor (machine|human|none).
    ready+in-progress by claim; needs-human IS a phase (actor=human).
    scan predicate → pipelineDef[phase].actor=machine ∧ no live claim.
  end note
}

package "Driver  (IMPURE — EXECUTION, ABSENT today)" {
  class ExecutionDriver <<driver>> {
    +run(event, task) : void
    - - per scan - -
  }
  interface WorkAction <<pure>> {
    +role = "primitive"
    +kind : feature | chore
    +plan(task) : WorkSpec   '' what to run; driver spawns the worker
  }
  class FeatureWork <<pure>> {
  }
  class ChoreWork <<pure>> {
  }
  class Decompose <<driver>> {
  }
  class Evaluate <<driver>> {
  }
  WorkAction <|.. FeatureWork
  WorkAction <|.. ChoreWork
  ExecutionDriver ..> WorkAction : dispatch (role=primitive)
  ExecutionDriver ..> Decompose : dispatch (role=compound)
  ExecutionDriver ..> Evaluate  : dispatch (epic-eval-due)
}

package "Workers  (spawned in git worktree)" {
  class FeatureWorker <<worker>> {
  }
  class ChoreWorker <<worker>> {
  }
}

package "Completion tail  (ENGINE-OWNED invariants — ADR-010/012)" {
  class CompleteHandshake <<invariant>> {
    +complete(taskId, result) : void
  }
  class Adjudicator <<invariant>> {
    +adjudicate(task, result) : Verdict   '' pass | fail
  }
  class MergeCoordinator <<invariant>> {
    +merge(task) : void
    +reapSameFieldPeers(field) : void
  }
  class SafetyMonitor <<invariant>> {
    +flagStale() : void   '' informational only; human decides
  }
  CompleteHandshake ..> Adjudicator : re-run DoD
  Adjudicator ..> MergeCoordinator : pass → merge/advance
}

interface IssueSource <<contract>> {
  +list(filter) : Task[]
  +get(id) : Task
  +upsert(task) : void
}
interface Coordinator <<contract>> {
  +claims() : Map<taskId, Claim>   '' SAME runtime-fact channel as authoring
}

ExecutionDriver ..> Coordinator : claim during work
ExecutionDriver ..> IssueSource : advance phase / waiting_on
FeatureWorker ..> CompleteHandshake : engine.complete(result)
ChoreWorker ..> CompleteHandshake : engine.complete(result)
Adjudicator ..> IssueSource : pass → phase:=done
Adjudicator ..> IssueSource : fail → phase:=needs-human
SafetyMonitor ..> Coordinator : read claim age

note as N_symmetry
  **Symmetry with authoring:** scan → dispatch → worker → result flows back
  as DATA → engine reads & branches. Adjudicator's DoD verdict is to execution
  what the architect Reviewed verdict is to authoring — both appended data,
  never a worker's own claim of success.
end note
note as N_asymmetry
  **Asymmetry:** the completion tail (pink) is NOT a strategy — it is fixed
  safety machinery (ENG-3 merge lock, ENG-8 no self-attested done). Variability
  lives ONLY in WorkAction (role/kind). Do NOT make the tail pluggable.
end note
note as N_today
  TODAY: Interpreter + executionPipeline are pure & TEST-ONLY (unwired).
  ExecutionDriver / CompleteHandshake / Adjudicator / MergeCoordinator /
  SafetyMonitor / Coordinator ALL ABSENT — soak runs on baime scan-loop.
end note

@enduml

PlantUML version 1.2020.02(Sun Mar 01 10:22:07 UTC 2020)
(GPL source distribution)
Java Runtime: OpenJDK Runtime Environment
JVM: OpenJDK 64-Bit Server VM
Java Version: 21.0.11+10-1-22.04.2-Ubuntu
Operating System: Linux
Default Encoding: UTF-8
Language: en
Country: null
--></g></svg>