<?xml version="1.0" encoding="UTF-8" standalone="no"?><svg xmlns="http://www.w3.org/2000/svg" xmlns:xlink="http://www.w3.org/1999/xlink" contentScriptType="application/ecmascript" contentStyleType="text/css" height="537px" preserveAspectRatio="none" style="width:993px;height:537px;" version="1.1" viewBox="0 0 993 537" width="993px" zoomAndPan="magnify"><defs/><g><text fill="#000000" font-family="sans-serif" font-size="18" lengthAdjust="spacingAndGlyphs" textLength="564" x="212.5" y="26.708">Sequence 3/3 — Inline gate-review (approve / reject / escalate)</text><rect fill="#FFFFFF" height="218.0625" style="stroke: #777777; stroke-width: 1.0;" width="10" x="255.5" y="163.5156"/><line style="stroke: #777777; stroke-width: 1.0; stroke-dasharray: 5.0,5.0;" x1="35" x2="35" y1="117.25" y2="449.8438"/><line style="stroke: #777777; stroke-width: 1.0; stroke-dasharray: 5.0,5.0;" x1="260.5" x2="260.5" y1="117.25" y2="449.8438"/><line style="stroke: #777777; stroke-width: 1.0; stroke-dasharray: 5.0,5.0;" x1="544" x2="544" y1="117.25" y2="449.8438"/><line style="stroke: #777777; stroke-width: 1.0; stroke-dasharray: 5.0,5.0;" x1="930.5" x2="930.5" y1="117.25" y2="449.8438"/><text fill="#000000" font-family="sans-serif" font-size="14" lengthAdjust="spacingAndGlyphs" textLength="49" x="8" y="113.9482">Human</text><ellipse cx="35.5" cy="47.9531" fill="#C8E6C9" rx="8" ry="8" style="stroke: #A80036; stroke-width: 2.0;"/><path d="M35.5,55.9531 L35.5,82.9531 M22.5,63.9531 L48.5,63.9531 M35.5,82.9531 L22.5,97.9531 M35.5,82.9531 L48.5,97.9531 " fill="none" style="stroke: #A80036; stroke-width: 2.0;"/><text fill="#000000" font-family="sans-serif" font-size="14" lengthAdjust="spacingAndGlyphs" textLength="49" x="8" y="461.8389">Human</text><ellipse cx="35.5" cy="475.1406" fill="#C8E6C9" rx="8" ry="8" style="stroke: #A80036; stroke-width: 2.0;"/><path d="M35.5,483.1406 L35.5,510.1406 M22.5,491.1406 L48.5,491.1406 M35.5,510.1406 L22.5,525.1406 M35.5,510.1406 L48.5,525.1406 " fill="none" style="stroke: #A80036; stroke-width: 2.0;"/><rect fill="#E8F0FE" height="46.5938" style="stroke: #A80036; stroke-width: 1.5;" width="114" x="203.5" y="69.6563"/><text fill="#000000" font-family="sans-serif" font-size="14" lengthAdjust="spacingAndGlyphs" textLength="48" x="236.5" y="89.6514">Web UI</text><text fill="#000000" font-family="sans-serif" font-size="14" lengthAdjust="spacingAndGlyphs" textLength="100" x="210.5" y="105.9482">(issue-list row)</text><rect fill="#E8F0FE" height="46.5938" style="stroke: #A80036; stroke-width: 1.5;" width="114" x="203.5" y="448.8438"/><text fill="#000000" font-family="sans-serif" font-size="14" lengthAdjust="spacingAndGlyphs" textLength="48" x="236.5" y="468.8389">Web UI</text><text fill="#000000" font-family="sans-serif" font-size="14" lengthAdjust="spacingAndGlyphs" textLength="100" x="210.5" y="485.1357">(issue-list row)</text><rect fill="#E8F0FE" height="30.2969" style="stroke: #A80036; stroke-width: 1.5;" width="99" x="495" y="85.9531"/><text fill="#000000" font-family="sans-serif" font-size="14" lengthAdjust="spacingAndGlyphs" textLength="85" x="502" y="105.9482">epicd server</text><rect fill="#E8F0FE" height="30.2969" style="stroke: #A80036; stroke-width: 1.5;" width="99" x="495" y="448.8438"/><text fill="#000000" font-family="sans-serif" font-size="14" lengthAdjust="spacingAndGlyphs" textLength="85" x="502" y="468.8389">epicd server</text><rect fill="#E8F0FE" height="30.2969" style="stroke: #A80036; stroke-width: 1.5;" width="100" x="880.5" y="85.9531"/><text fill="#000000" font-family="sans-serif" font-size="14" lengthAdjust="spacingAndGlyphs" textLength="86" x="887.5" y="105.9482">IssueSource</text><rect fill="#E8F0FE" height="30.2969" style="stroke: #A80036; stroke-width: 1.5;" width="100" x="880.5" y="448.8438"/><text fill="#000000" font-family="sans-serif" font-size="14" lengthAdjust="spacingAndGlyphs" textLength="86" x="887.5" y="468.8389">IssueSource</text><rect fill="#FFFFFF" height="218.0625" style="stroke: #777777; stroke-width: 1.0;" width="10" x="255.5" y="163.5156"/><polygon fill="#555555" points="243.5,159.5156,253.5,163.5156,243.5,167.5156,247.5,163.5156" style="stroke: #555555; stroke-width: 1.0;"/><line style="stroke: #555555; stroke-width: 1.0;" x1="35.5" x2="249.5" y1="163.5156" y2="163.5156"/><text fill="#000000" font-family="sans-serif" font-size="13" lengthAdjust="spacingAndGlyphs" textLength="148" x="42.5" y="143.3169">row = Needs Human →</text><text fill="#000000" font-family="sans-serif" font-size="13" lengthAdjust="spacingAndGlyphs" textLength="201" x="42.5" y="158.4497">click Approve / Reject / Escalate</text><polygon fill="#555555" points="532.5,188.6484,542.5,192.6484,532.5,196.6484,536.5,192.6484" style="stroke: #555555; stroke-width: 1.0;"/><line style="stroke: #555555; stroke-width: 1.0;" x1="265.5" x2="538.5" y1="192.6484" y2="192.6484"/><text fill="#000000" font-family="sans-serif" font-size="13" lengthAdjust="spacingAndGlyphs" textLength="215" x="272.5" y="187.5825">POST gate decision (task, verdict)</text><polygon fill="#555555" points="918.5,232.9141,928.5,236.9141,918.5,240.9141,922.5,236.9141" style="stroke: #555555; stroke-width: 1.0;"/><line style="stroke: #555555; stroke-width: 1.0;" x1="544.5" x2="924.5" y1="236.9141" y2="236.9141"/><text fill="#000000" font-family="sans-serif" font-size="13" lengthAdjust="spacingAndGlyphs" textLength="146" x="551.5" y="216.7153">upsert (advance state)</text><text fill="#000000" font-family="sans-serif" font-size="13" lengthAdjust="spacingAndGlyphs" textLength="362" x="551.5" y="231.8481">approve→Ready · reject→archive · escalate→stays, notes</text><polygon fill="#555555" points="555.5,262.0469,545.5,266.0469,555.5,270.0469,551.5,266.0469" style="stroke: #555555; stroke-width: 1.0;"/><line style="stroke: #555555; stroke-width: 1.0; stroke-dasharray: 2.0,2.0;" x1="549.5" x2="929.5" y1="266.0469" y2="266.0469"/><text fill="#000000" font-family="sans-serif" font-size="13" lengthAdjust="spacingAndGlyphs" textLength="15" x="561.5" y="260.981">ok</text><line style="stroke: #555555; stroke-width: 1.0;" x1="265.5" x2="275.5" y1="295.1797" y2="291.1797"/><line style="stroke: #555555; stroke-width: 1.0;" x1="265.5" x2="275.5" y1="295.1797" y2="299.1797"/><line style="stroke: #555555; stroke-width: 1.0; stroke-dasharray: 2.0,2.0;" x1="265.5" x2="543.5" y1="295.1797" y2="295.1797"/><text fill="#000000" font-family="sans-serif" font-size="13" lengthAdjust="spacingAndGlyphs" textLength="255" x="282.5" y="290.1138">WebSocket "tasks-updated" (broadcast)</text><line style="stroke: #555555; stroke-width: 1.0;" x1="265.5" x2="307.5" y1="339.4453" y2="339.4453"/><line style="stroke: #555555; stroke-width: 1.0;" x1="307.5" x2="307.5" y1="339.4453" y2="352.4453"/><line style="stroke: #555555; stroke-width: 1.0;" x1="266.5" x2="307.5" y1="352.4453" y2="352.4453"/><polygon fill="#555555" points="276.5,348.4453,266.5,352.4453,276.5,356.4453,272.5,352.4453" style="stroke: #555555; stroke-width: 1.0;"/><text fill="#000000" font-family="sans-serif" font-size="13" lengthAdjust="spacingAndGlyphs" textLength="137" x="272.5" y="319.2466">row moves lane/state</text><text fill="#000000" font-family="sans-serif" font-size="13" lengthAdjust="spacingAndGlyphs" textLength="171" x="272.5" y="334.3794">(gate-inbox folded into list)</text><polygon fill="#555555" points="46.5,377.5781,36.5,381.5781,46.5,385.5781,42.5,381.5781" style="stroke: #555555; stroke-width: 1.0;"/><line style="stroke: #555555; stroke-width: 1.0; stroke-dasharray: 2.0,2.0;" x1="40.5" x2="259.5" y1="381.5781" y2="381.5781"/><text fill="#000000" font-family="sans-serif" font-size="13" lengthAdjust="spacingAndGlyphs" textLength="94" x="52.5" y="376.5122">updated board</text><path d="M209,394.5781 L209,434.5781 L981,434.5781 L981,404.5781 L971,394.5781 L209,394.5781 " fill="#FBFB77" style="stroke: #A80036; stroke-width: 1.0;"/><path d="M971,394.5781 L971,404.5781 L981,404.5781 L971,394.5781 " fill="#FBFB77" style="stroke: #A80036; stroke-width: 1.0;"/><text fill="#000000" font-family="sans-serif" font-size="13" lengthAdjust="spacingAndGlyphs" textLength="290" x="421.5" y="411.645">gate-inbox is NOT a separate page — it is the</text><text fill="#000000" font-family="sans-serif" font-size="13" lengthAdjust="spacingAndGlyphs" textLength="338" x="421.5" y="426.7778">Needs-Human rows of the same multi-lane issue list.</text><!--MD5=[3ccab50ad01beb4519841d96f7c2599e]
@startuml epicd-seq-gate
skinparam backgroundColor #FFFFFF
skinparam shadowing false
skinparam sequence {
  ArrowColor #555555
  LifeLineBorderColor #777777
  ParticipantBackgroundColor #E8F0FE
  ActorBackgroundColor #C8E6C9
}
title Sequence 3/3 — Inline gate-review (approve / reject / escalate)

actor Human
participant "Web UI\n(issue-list row)" as UI
participant "epicd server" as Srv
participant "IssueSource" as Src

Human -> UI : row = Needs Human →\nclick Approve / Reject / Escalate
activate UI
UI -> Srv : POST gate decision (task, verdict)
Srv -> Src : upsert (advance state)\napprove→Ready · reject→archive · escalate→stays, notes
Src - -> Srv : ok
Srv - ->> UI : WebSocket "tasks-updated" (broadcast)
UI -> UI : row moves lane/state\n(gate-inbox folded into list)
UI - -> Human : updated board
deactivate UI

note over UI, Src
  gate-inbox is NOT a separate page — it is the
  Needs-Human rows of the same multi-lane issue list.
end note
@enduml

PlantUML version 1.2020.02(Sun Mar 01 10:22:07 UTC 2020)
(GPL source distribution)
Java Runtime: OpenJDK Runtime Environment
JVM: OpenJDK 64-Bit Server VM
Java Version: 21.0.11+10-1-22.04.2-Ubuntu
Operating System: Linux
Default Encoding: UTF-8
Language: en
Country: null
--></g></svg>