<?xml version="1.0" encoding="UTF-8" standalone="no"?><svg xmlns="http://www.w3.org/2000/svg" xmlns:xlink="http://www.w3.org/1999/xlink" contentScriptType="application/ecmascript" contentStyleType="text/css" height="896px" preserveAspectRatio="none" style="width:1427px;height:896px;" version="1.1" viewBox="0 0 1427 896" width="1427px" zoomAndPan="magnify"><defs/><g><text fill="#000000" font-family="sans-serif" font-size="18" lengthAdjust="spacingAndGlyphs" textLength="714" x="360" y="16.708">epicd — Work-item lifecycle (State diagram; lane = pipeline_id, role orthogonal)</text><!--MD5=[cac06a74304cb1e6f01c7da96a82e93e]
cluster Authoring--><rect fill="#E8F0FE" height="263" rx="12.5" ry="12.5" style="stroke: #555555; stroke-width: 1.5;" width="515" x="646" y="494.9531"/><rect fill="#FFFFFF" height="230.7031" rx="12.5" ry="12.5" style="stroke: #FFFFFF; stroke-width: 1.0;" width="509" x="649" y="524.25"/><line style="stroke: #555555; stroke-width: 1.5;" x1="646" x2="1161" y1="521.25" y2="521.25"/><text fill="#000000" font-family="sans-serif" font-size="14" lengthAdjust="spacingAndGlyphs" textLength="277" x="765" y="511.9482">Authoring lane  (pipeline_id = authoring)</text><!--MD5=[ad3556d57806a2e5e788b507574db12f]
cluster Execution--><rect fill="#E8F0FE" height="553" rx="12.5" ry="12.5" style="stroke: #555555; stroke-width: 1.5;" width="539" x="22" y="45.4531"/><rect fill="#FFFFFF" height="520.7031" rx="12.5" ry="12.5" style="stroke: #FFFFFF; stroke-width: 1.0;" width="533" x="25" y="74.75"/><line style="stroke: #555555; stroke-width: 1.5;" x1="22" x2="561" y1="71.75" y2="71.75"/><text fill="#000000" font-family="sans-serif" font-size="14" lengthAdjust="spacingAndGlyphs" textLength="280" x="151.5" y="62.4482">Execution lane  (pipeline_id = execution)</text><rect fill="#E8F0FE" height="50" rx="12.5" ry="12.5" style="stroke: #555555; stroke-width: 1.5;" width="76" x="662" y="532.4531"/><line style="stroke: #555555; stroke-width: 1.5;" x1="662" x2="738" y1="558.75" y2="558.75"/><text fill="#000000" font-family="sans-serif" font-size="14" lengthAdjust="spacingAndGlyphs" textLength="56" x="672" y="550.4482">Refining</text><rect fill="#FFE0B2" height="50" rx="12.5" ry="12.5" style="stroke: #555555; stroke-width: 1.5;" width="75" x="668.5" y="691.9531"/><line style="stroke: #555555; stroke-width: 1.5;" x1="668.5" x2="743.5" y1="718.25" y2="718.25"/><text fill="#000000" font-family="sans-serif" font-size="14" lengthAdjust="spacingAndGlyphs" textLength="55" x="678.5" y="709.9482">Backlog</text><path d="M773.5,529.9531 L773.5,553.4531 L738.19,557.4531 L773.5,561.4531 L773.5,585.3516 A0,0 0 0 0 773.5,585.3516 L1144.5,585.3516 A0,0 0 0 0 1144.5,585.3516 L1144.5,539.9531 L1134.5,529.9531 L773.5,529.9531 A0,0 0 0 0 773.5,529.9531 " fill="#FBFB77" style="stroke: #A80036; stroke-width: 1.0;"/><path d="M1134.5,529.9531 L1134.5,539.9531 L1144.5,539.9531 L1134.5,529.9531 " fill="#FBFB77" style="stroke: #A80036; stroke-width: 1.0;"/><text fill="#000000" font-family="sans-serif" font-size="13" lengthAdjust="spacingAndGlyphs" textLength="64" x="779.5" y="547.02">Routed by</text><text fill="#000000" font-family="sans-serif" font-size="13" font-weight="bold" lengthAdjust="spacingAndGlyphs" textLength="32" x="847.5" y="547.02">kind</text><text fill="#000000" font-family="sans-serif" font-size="13" lengthAdjust="spacingAndGlyphs" textLength="34" x="883.5" y="547.02">label:</text><text fill="#000000" font-family="sans-serif" font-size="13" lengthAdjust="spacingAndGlyphs" textLength="343" x="779.5" y="562.1528">feature-to-backlog / task-to-backlog / epic-to-backlog.</text><text fill="#000000" font-family="sans-serif" font-size="13" lengthAdjust="spacingAndGlyphs" textLength="350" x="779.5" y="577.2856">DRAFT is a STATE here (loop-draft), not a drafts/ folder.</text><rect fill="#E8F0FE" height="50" rx="12.5" ry="12.5" style="stroke: #555555; stroke-width: 1.5;" width="98" x="85" y="219.9531"/><line style="stroke: #555555; stroke-width: 1.5;" x1="85" x2="183" y1="246.25" y2="246.25"/><text fill="#000000" font-family="sans-serif" font-size="14" lengthAdjust="spacingAndGlyphs" textLength="78" x="95" y="237.9482">In Progress</text><rect fill="#E8F0FE" height="50" rx="12.5" ry="12.5" style="stroke: #555555; stroke-width: 1.5;" width="117" x="335.5" y="219.9531"/><line style="stroke: #555555; stroke-width: 1.5;" x1="335.5" x2="452.5" y1="246.25" y2="246.25"/><text fill="#000000" font-family="sans-serif" font-size="14" lengthAdjust="spacingAndGlyphs" textLength="97" x="345.5" y="237.9482">Decomposing</text><rect fill="#E8F0FE" height="50" rx="12.5" ry="12.5" style="stroke: #555555; stroke-width: 1.5;" width="138" x="407" y="364.4531"/><line style="stroke: #555555; stroke-width: 1.5;" x1="407" x2="545" y1="390.75" y2="390.75"/><text fill="#000000" font-family="sans-serif" font-size="14" lengthAdjust="spacingAndGlyphs" textLength="118" x="417" y="382.4482">Awaiting Children</text><rect fill="#E8F0FE" height="50" rx="12.5" ry="12.5" style="stroke: #555555; stroke-width: 1.5;" width="90" x="373" y="532.4531"/><line style="stroke: #555555; stroke-width: 1.5;" x1="373" x2="463" y1="558.75" y2="558.75"/><text fill="#000000" font-family="sans-serif" font-size="14" lengthAdjust="spacingAndGlyphs" textLength="70" x="383" y="550.4482">Evaluating</text><polygon fill="#FEFECE" points="392,80.4531,404,92.4531,392,104.4531,380,92.4531,392,80.4531" style="stroke: #A80036; stroke-width: 1.5;"/><path d="M38,361.9531 L38,417.3516 A0,0 0 0 0 38,417.3516 L372,417.3516 A0,0 0 0 0 372,417.3516 L372,371.9531 L362,361.9531 L195.69,361.9531 L146.04,270.1231 L187.69,361.9531 L38,361.9531 A0,0 0 0 0 38,361.9531 " fill="#FBFB77" style="stroke: #A80036; stroke-width: 1.0;"/><path d="M362,361.9531 L362,371.9531 L372,371.9531 L362,361.9531 " fill="#FBFB77" style="stroke: #A80036; stroke-width: 1.0;"/><text fill="#000000" font-family="sans-serif" font-size="13" lengthAdjust="spacingAndGlyphs" textLength="251" x="44" y="379.02">engine.complete() → merge/advance →</text><text fill="#000000" font-family="sans-serif" font-size="13" font-weight="bold" lengthAdjust="spacingAndGlyphs" textLength="176" x="44" y="394.1528">adjudicate DoD (ENG-8)</text><text fill="#000000" font-family="sans-serif" font-size="13" lengthAdjust="spacingAndGlyphs" textLength="137" x="220" y="394.1528">: engine re-runs DoD,</text><text fill="#000000" font-family="sans-serif" font-size="13" lengthAdjust="spacingAndGlyphs" textLength="220" x="44" y="409.2856">worker may NOT self-write `done`.</text><ellipse cx="747" cy="244.9531" fill="#000000" rx="10" ry="10" style="stroke: none; stroke-width: 1.0;"/><rect fill="#E8F0FE" height="50" rx="12.5" ry="12.5" style="stroke: #555555; stroke-width: 1.5;" width="53" x="720.5" y="364.4531"/><line style="stroke: #555555; stroke-width: 1.5;" x1="720.5" x2="773.5" y1="390.75" y2="390.75"/><text fill="#000000" font-family="sans-serif" font-size="14" lengthAdjust="spacingAndGlyphs" textLength="33" x="730.5" y="382.4482">Draft</text><rect fill="#E8F0FE" height="50" rx="12.5" ry="12.5" style="stroke: #555555; stroke-width: 1.5;" width="63" x="679.5" y="835.9531"/><line style="stroke: #555555; stroke-width: 1.5;" x1="679.5" x2="742.5" y1="862.25" y2="862.25"/><text fill="#000000" font-family="sans-serif" font-size="14" lengthAdjust="spacingAndGlyphs" textLength="43" x="689.5" y="853.9482">Ready</text><rect fill="#E0E0E0" height="50" rx="12.5" ry="12.5" style="stroke: #555555; stroke-width: 1.5;" width="58" x="182" y="691.9531"/><line style="stroke: #555555; stroke-width: 1.5;" x1="182" x2="240" y1="718.25" y2="718.25"/><text fill="#000000" font-family="sans-serif" font-size="14" lengthAdjust="spacingAndGlyphs" textLength="38" x="192" y="709.9482">Done</text><rect fill="#C8E6C9" height="50" rx="12.5" ry="12.5" style="stroke: #555555; stroke-width: 1.5;" width="118" x="446" y="691.9531"/><line style="stroke: #555555; stroke-width: 1.5;" x1="446" x2="564" y1="718.25" y2="718.25"/><text fill="#000000" font-family="sans-serif" font-size="14" lengthAdjust="spacingAndGlyphs" textLength="98" x="456" y="709.9482">Needs Human</text><ellipse cx="240" cy="860.9531" fill="none" rx="10" ry="10" style="stroke: #000000; stroke-width: 1.0;"/><ellipse cx="240.5" cy="861.4531" fill="#000000" rx="6" ry="6" style="stroke: none; stroke-width: 1.0;"/><path d="M577,56.9531 L577,127.4844 L963,127.4844 L963,66.9531 L953,56.9531 L577,56.9531 " fill="#FBFB77" style="stroke: #A80036; stroke-width: 1.0;"/><path d="M953,56.9531 L953,66.9531 L963,66.9531 L953,56.9531 " fill="#FBFB77" style="stroke: #A80036; stroke-width: 1.0;"/><text fill="#000000" font-family="sans-serif" font-size="13" font-weight="bold" lengthAdjust="spacingAndGlyphs" textLength="28" x="583" y="74.02">role</text><text fill="#000000" font-family="sans-serif" font-size="13" lengthAdjust="spacingAndGlyphs" textLength="301" x="615" y="74.02">is DERIVED from tree position (ADR-011 D-1.1):</text><text fill="#000000" font-family="sans-serif" font-size="13" lengthAdjust="spacingAndGlyphs" textLength="365" x="583" y="89.1528">leaf ⇒ primitive (Basic) · has children ⇒ compound (Epic).</text><text fill="#000000" font-family="sans-serif" font-size="13" lengthAdjust="spacingAndGlyphs" textLength="311" x="583" y="104.2856">Decomposing FLIPS a task primitive→compound.</text><text fill="#000000" font-family="sans-serif" font-size="13" lengthAdjust="spacingAndGlyphs" textLength="356" x="583" y="119.4185">role is the TYPE axis — orthogonal to lane(=pipeline_id).</text><path d="M998.5,72.4531 L998.5,112.7188 L1415.5,112.7188 L1415.5,82.4531 L1405.5,72.4531 L998.5,72.4531 " fill="#FBFB77" style="stroke: #A80036; stroke-width: 1.0;"/><path d="M1405.5,72.4531 L1405.5,82.4531 L1415.5,82.4531 L1405.5,72.4531 " fill="#FBFB77" style="stroke: #A80036; stroke-width: 1.0;"/><text fill="#000000" font-family="sans-serif" font-size="13" font-weight="bold" lengthAdjust="spacingAndGlyphs" textLength="125" x="1004.5" y="89.52">stale-in-progress</text><text fill="#000000" font-family="sans-serif" font-size="13" lengthAdjust="spacingAndGlyphs" textLength="256" x="1129.5" y="89.52">: In Progress &gt; 30 min without update →</text><text fill="#000000" font-family="sans-serif" font-size="13" lengthAdjust="spacingAndGlyphs" textLength="396" x="1004.5" y="104.6528">informational flag only; no auto state change; human decides.</text><!--MD5=[c437118b2706405049936a1b53a98f1f]
link *start to Draft--><path d="M747,255.3031 C747,276.0531 747,326.6731 747,359.1731 " fill="none" id="*start-&gt;Draft" style="stroke: #A80036; stroke-width: 1.0;"/><polygon fill="#A80036" points="747,364.2331,751,355.2331,747,359.2331,743,355.2331,747,364.2331" style="stroke: #A80036; stroke-width: 1.0;"/><text fill="#000000" font-family="sans-serif" font-size="13" lengthAdjust="spacingAndGlyphs" textLength="107" x="772.5" y="313.02">Human captures</text><text fill="#000000" font-family="sans-serif" font-size="13" lengthAdjust="spacingAndGlyphs" textLength="156" x="748" y="328.1528">(kind:feature/chore/epic)</text><!--MD5=[0a39d40658147ff76e67d9421d7d1d17]
link Draft to Refining--><path d="M740.17,414.5931 C731.71,444.4631 717.31,495.3031 708.25,527.3131 " fill="none" id="Draft-&gt;Refining" style="stroke: #A80036; stroke-width: 1.0;"/><polygon fill="#A80036" points="706.84,532.2831,713.1319,524.706,708.1966,527.4707,705.432,522.5354,706.84,532.2831" style="stroke: #A80036; stroke-width: 1.0;"/><text fill="#000000" font-family="sans-serif" font-size="13" lengthAdjust="spacingAndGlyphs" textLength="96" x="758.5" y="460.02">scanner claims</text><text fill="#000000" font-family="sans-serif" font-size="13" lengthAdjust="spacingAndGlyphs" textLength="151" x="731" y="475.1528">(basic-draft / epic-draft)</text><!--MD5=[e5015f88a935c1e17a80551faed46906]
link Refining to Backlog--><path d="M700.92,582.7131 C701.99,610.7731 703.75,656.9431 704.89,686.8931 " fill="none" id="Refining-&gt;Backlog" style="stroke: #A80036; stroke-width: 1.0;"/><polygon fill="#A80036" points="705.08,691.9231,708.716,682.77,704.8796,686.9271,700.7225,683.0907,705.08,691.9231" style="stroke: #A80036; stroke-width: 1.0;"/><text fill="#000000" font-family="sans-serif" font-size="13" lengthAdjust="spacingAndGlyphs" textLength="72" x="759.5" y="628.02">refine done</text><text fill="#000000" font-family="sans-serif" font-size="13" lengthAdjust="spacingAndGlyphs" textLength="163" x="714" y="643.1528">(feature→Proposal+Plan /</text><text fill="#000000" font-family="sans-serif" font-size="13" lengthAdjust="spacingAndGlyphs" textLength="183" x="704" y="658.2856">chore→checklist / epic→plan)</text><!--MD5=[f1356a6d5595d433e7704a758a5e6909]
link Backlog to Ready--><path d="M706.85,742.0431 C707.71,766.5231 709.05,804.4731 709.97,830.6731 " fill="none" id="Backlog-&gt;Ready" style="stroke: #A80036; stroke-width: 1.0;"/><polygon fill="#A80036" points="710.15,835.7431,713.8132,826.6009,709.9644,830.7466,705.8187,826.8978,710.15,835.7431" style="stroke: #A80036; stroke-width: 1.0;"/><text fill="#000000" font-family="sans-serif" font-size="13" font-weight="bold" lengthAdjust="spacingAndGlyphs" textLength="159" x="710" y="787.02">Human promote gate</text><text fill="#000000" font-family="sans-serif" font-size="13" lengthAdjust="spacingAndGlyphs" textLength="152" x="713.5" y="802.1528">(authoring → execution)</text><!--MD5=[845abe08caefc1dc75265307223b9fb8]
link Ready to chooseRole--><path d="M742.58,857.6331 C850.49,848.8531 1198,813.1831 1198,717.9531 C1198,243.9531 1198,243.9531 1198,243.9531 C1198,99.8531 701.48,155.3331 560,127.9531 C502.76,116.8731 434.79,102.5631 406,96.4431 " fill="none" id="Ready-&gt;chooseRole" style="stroke: #A80036; stroke-width: 1.0;"/><polygon fill="#A80036" points="401.09,95.3931,409.0567,101.1837,405.9798,96.4369,410.7267,93.36,401.09,95.3931" style="stroke: #A80036; stroke-width: 1.0;"/><text fill="#000000" font-family="sans-serif" font-size="13" lengthAdjust="spacingAndGlyphs" textLength="51" x="1255" y="460.02">scanner</text><text fill="#000000" font-family="sans-serif" font-size="13" lengthAdjust="spacingAndGlyphs" textLength="163" x="1199" y="475.1528">(basic-ready / epic-ready)</text><!--MD5=[fdc8c646102e16ef1cf471570f797ac8]
link chooseRole to InProgress--><path d="M381.94,94.5231 C339.31,99.2931 174.34,119.9931 142,157.9531 C128.94,173.2931 127.38,196.2231 128.85,214.5431 " fill="none" id="chooseRole-&gt;InProgress" style="stroke: #A80036; stroke-width: 1.0;"/><polygon fill="#A80036" points="129.34,219.5831,132.4459,210.2368,128.8538,214.6068,124.4838,211.0147,129.34,219.5831" style="stroke: #A80036; stroke-width: 1.0;"/><text fill="#000000" font-family="sans-serif" font-size="13" lengthAdjust="spacingAndGlyphs" textLength="146" x="190" y="171.02">role = primitive (Basic)</text><text fill="#000000" font-family="sans-serif" font-size="13" lengthAdjust="spacingAndGlyphs" textLength="240" x="143" y="186.1528">feature→implement / chore→checklist</text><!--MD5=[b4a88f05511dba2276d3f3e7acf0d4e5]
link chooseRole to Decomposing--><path d="M392.15,104.7631 C392.46,127.8631 393.16,181.1031 393.61,214.6331 " fill="none" id="chooseRole-&gt;Decomposing" style="stroke: #A80036; stroke-width: 1.0;"/><polygon fill="#A80036" points="393.68,219.8431,397.551,210.7869,393.6086,214.8436,389.5518,210.9012,393.68,219.8431" style="stroke: #A80036; stroke-width: 1.0;"/><text fill="#000000" font-family="sans-serif" font-size="13" lengthAdjust="spacingAndGlyphs" textLength="151" x="394" y="178.52">role = compound (Epic)</text><!--MD5=[eb37f2d85ac20581f43851849516dd04]
link Decomposing to Awaiting--><path d="M407.91,270.1231 C422.16,294.8931 444.33,333.4131 459.47,359.7231 " fill="none" id="Decomposing-&gt;Awaiting" style="stroke: #A80036; stroke-width: 1.0;"/><polygon fill="#A80036" points="462.02,364.1631,460.9826,354.3691,459.5193,359.8334,454.055,358.3701,462.02,364.1631" style="stroke: #A80036; stroke-width: 1.0;"/><text fill="#000000" font-family="sans-serif" font-size="13" lengthAdjust="spacingAndGlyphs" textLength="102" x="464" y="313.02">creates children</text><text fill="#000000" font-family="sans-serif" font-size="13" lengthAdjust="spacingAndGlyphs" textLength="144" x="443" y="328.1528">(role stays compound)</text><!--MD5=[2fc301815b6941a8343d8919b7a860c3]
link Awaiting to Evaluating--><path d="M449.8,414.6031 C441.4,423.8731 432.98,435.0831 428,446.9531 C417.21,472.6431 415.47,504.6331 415.97,527.3931 " fill="none" id="Awaiting-&gt;Evaluating" style="stroke: #A80036; stroke-width: 1.0;"/><polygon fill="#A80036" points="416.12,532.3931,419.8613,523.2826,415.9772,527.3952,411.8646,523.511,416.12,532.3931" style="stroke: #A80036; stroke-width: 1.0;"/><text fill="#000000" font-family="sans-serif" font-size="13" lengthAdjust="spacingAndGlyphs" textLength="125" x="429" y="460.02">all children terminal</text><text fill="#000000" font-family="sans-serif" font-size="13" lengthAdjust="spacingAndGlyphs" textLength="96" x="443.5" y="475.1528">(epic-eval-due)</text><!--MD5=[b72313a35a700cea871177eac68595a9]
link InProgress to Done--><path d="M98.73,270.1031 C71.75,290.8831 36.62,323.5331 21,361.9531 C11.79,384.5931 14.17,393.4831 21,416.9531 C53.39,528.3231 141.17,637.8731 185.15,687.8431 " fill="none" id="InProgress-&gt;Done" style="stroke: #A80036; stroke-width: 1.0;"/><polygon fill="#A80036" points="188.5,691.6231,185.5661,682.2214,185.2004,687.8664,179.5554,687.5008,188.5,691.6231" style="stroke: #A80036; stroke-width: 1.0;"/><text fill="#000000" font-family="sans-serif" font-size="13" lengthAdjust="spacingAndGlyphs" textLength="62" x="43" y="467.52">DoD pass</text><!--MD5=[a8898b3886a521309d888a386a160fdf]
link InProgress to NeedsHuman--><path d="M183.18,252.5531 C220.22,257.4831 272.28,264.3131 318,269.9531 C375.29,277.0231 537.62,256.8431 576,299.9531 C581.71,306.3731 625.55,540.7131 568,661.9531 C563.28,671.9031 555.75,680.7331 547.52,688.2131 " fill="none" id="InProgress-&gt;NeedsHuman" style="stroke: #A80036; stroke-width: 1.0;"/><polygon fill="#A80036" points="543.43,691.7831,552.8435,688.8871,547.2,688.4987,547.5884,682.8552,543.43,691.7831" style="stroke: #A80036; stroke-width: 1.0;"/><text fill="#000000" font-family="sans-serif" font-size="13" lengthAdjust="spacingAndGlyphs" textLength="107" x="598" y="467.52">DoD fail / conflict</text><!--MD5=[b4504c4da29de42d68fc545d0c749f2f]
link Evaluating to Done--><path d="M386.11,582.7131 C347.7,611.9431 283.49,660.7931 244.42,690.5231 " fill="none" id="Evaluating-&gt;Done" style="stroke: #A80036; stroke-width: 1.0;"/><polygon fill="#A80036" points="240.25,693.7031,249.8321,691.4263,244.2258,690.6712,244.981,685.065,240.25,693.7031" style="stroke: #A80036; stroke-width: 1.0;"/><text fill="#000000" font-family="sans-serif" font-size="13" lengthAdjust="spacingAndGlyphs" textLength="83" x="340" y="643.02">epic satisfied</text><!--MD5=[8e1429008ac25dd9db489d1a33c0e986]
link Evaluating to NeedsHuman--><path d="M431.4,582.7131 C446.97,610.8931 472.61,657.3231 489.15,687.2631 " fill="none" id="Evaluating-&gt;NeedsHuman" style="stroke: #A80036; stroke-width: 1.0;"/><polygon fill="#A80036" points="491.72,691.9231,490.8594,682.1119,489.2978,687.549,483.8608,685.9874,491.72,691.9231" style="stroke: #A80036; stroke-width: 1.0;"/><text fill="#000000" font-family="sans-serif" font-size="13" lengthAdjust="spacingAndGlyphs" textLength="84" x="475" y="643.02">epic escalate</text><!--MD5=[451c88173f4cc9ba52706f9216323081]
link NeedsHuman to Ready--><path d="M518.64,742.1831 C530.72,761.7231 549.98,788.7031 573,805.9531 C603.46,828.7731 644.8,843.2531 674.28,851.4131 " fill="none" id="NeedsHuman-&gt;Ready" style="stroke: #A80036; stroke-width: 1.0;"/><polygon fill="#A80036" points="679.27,852.7631,671.6365,846.5398,674.4455,851.45,669.5354,854.259,679.27,852.7631" style="stroke: #A80036; stroke-width: 1.0;"/><text fill="#000000" font-family="sans-serif" font-size="13" lengthAdjust="spacingAndGlyphs" textLength="125" x="574" y="787.02">Human gate-review</text><text fill="#000000" font-family="sans-serif" font-size="13" lengthAdjust="spacingAndGlyphs" textLength="124" x="574.5" y="802.1528">(approve / re-open)</text><!--MD5=[e00b0e448b98a8e3bcc1b3bec4b176cd]
link NeedsHuman to *end--><path d="M445.74,723.0531 C401.84,729.2931 342.36,743.1631 299,773.9531 C272.55,792.7331 254.23,827.3431 245.61,846.4331 " fill="none" id="NeedsHuman-&gt;*end" style="stroke: #A80036; stroke-width: 1.0;"/><polygon fill="#A80036" points="243.44,851.3831,250.7044,844.7327,245.4388,846.8,243.3715,841.5345,243.44,851.3831" style="stroke: #A80036; stroke-width: 1.0;"/><text fill="#000000" font-family="sans-serif" font-size="13" lengthAdjust="spacingAndGlyphs" textLength="233" x="300" y="794.52">Human gate-review (reject / archive)</text><!--MD5=[a42de63a786df81771bbb4e49d521c78]
link Done to *end--><path d="M215.92,742.0431 C222.02,771.9131 232.21,821.8231 237.15,845.9931 " fill="none" id="Done-&gt;*end" style="stroke: #A80036; stroke-width: 1.0;"/><polygon fill="#A80036" points="238.17,851.0131,240.2896,841.395,237.1702,846.1141,232.4511,842.9947,238.17,851.0131" style="stroke: #A80036; stroke-width: 1.0;"/><!--MD5=[a549d679a925db6789ceca7dada7b5c3]
@startuml epicd-workitem-state

skinparam backgroundColor #FFFFFF
skinparam shadowing false
skinparam state {
  BorderColor #555555
  BackgroundColor #E8F0FE
  BackgroundColor<<gate>> #FFE0B2
  BackgroundColor<<human>> #C8E6C9
  BackgroundColor<<terminal>> #E0E0E0
}

title epicd — Work-item lifecycle (State diagram; lane = pipeline_id, role orthogonal)

[*] - -> Draft : Human captures\n(kind:feature/chore/epic)

state "Authoring lane  (pipeline_id = authoring)" as Authoring {
  state Draft
  state Refining
  state Backlog <<gate>>
  Draft - -> Refining : scanner claims\n(basic-draft / epic-draft)
  Refining - -> Backlog : refine done\n(feature→Proposal+Plan /\nchore→checklist / epic→plan)
  note right of Refining
    Routed by **kind** label:
    feature-to-backlog / task-to-backlog / epic-to-backlog.
    DRAFT is a STATE here (loop-draft), not a drafts/ folder.
  end note
}

Backlog - -> Ready : **Human promote gate**\n(authoring → execution)

state "Execution lane  (pipeline_id = execution)" as Execution {
  state Ready
  state "In Progress" as InProgress
  state Decomposing
  state "Awaiting Children" as Awaiting
  state Evaluating

  state chooseRole <<choice>>
  Ready - -> chooseRole : scanner\n(basic-ready / epic-ready)
  chooseRole - -> InProgress : role = primitive (Basic)\nfeature→implement / chore→checklist
  chooseRole - -> Decomposing : role = compound (Epic)

  Decomposing - -> Awaiting : creates children\n(role stays compound)
  Awaiting - -> Evaluating : all children terminal\n(epic-eval-due)

  note bottom of InProgress
    engine.complete() → merge/advance →
    **adjudicate DoD (ENG-8)**: engine re-runs DoD,
    worker may NOT self-write `done`.
  end note
}

state "Done" as Done <<terminal>>
state "Needs Human" as NeedsHuman <<human>>

InProgress - -> Done : DoD pass
InProgress - -> NeedsHuman : DoD fail / conflict
Evaluating - -> Done : epic satisfied
Evaluating - -> NeedsHuman : epic escalate

NeedsHuman - -> Ready : Human gate-review\n(approve / re-open)
NeedsHuman - -> [*] : Human gate-review (reject / archive)
Done - -> [*]

note as N_role
  **role** is DERIVED from tree position (ADR-011 D-1.1):
  leaf ⇒ primitive (Basic) · has children ⇒ compound (Epic).
  Decomposing FLIPS a task primitive→compound.
  role is the TYPE axis — orthogonal to lane(=pipeline_id).
end note
note as N_stale
  **stale-in-progress**: In Progress > 30 min without update →
  informational flag only; no auto state change; human decides.
end note

@enduml

PlantUML version 1.2020.02(Sun Mar 01 10:22:07 UTC 2020)
(GPL source distribution)
Java Runtime: OpenJDK Runtime Environment
JVM: OpenJDK 64-Bit Server VM
Java Version: 21.0.11+10-1-22.04.2-Ubuntu
Operating System: Linux
Default Encoding: UTF-8
Language: en
Country: null
--></g></svg>